G04*
G04 #@! TF.GenerationSoftware,Altium Limited,Altium Designer,23.9.2 (47)*
G04*
G04 Layer_Physical_Order=2*
G04 Layer_Color=16711680*
%FSLAX25Y25*%
%MOIN*%
G70*
G04*
G04 #@! TF.SameCoordinates,BF07538D-496F-460C-9621-901CF389F750*
G04*
G04*
G04 #@! TF.FilePolarity,Positive*
G04*
G01*
G75*
%ADD34R,0.11811X0.11811*%
%ADD35C,0.02362*%
G36*
X82677Y35433D02*
X120079D01*
X129921Y25591D01*
X147638Y25591D01*
X156276Y16952D01*
Y1204D01*
X127953D01*
Y15748D01*
X120079Y23622D01*
X92520D01*
X88583Y19685D01*
X76772Y19685D01*
X76772Y40685D01*
X77234Y40877D01*
X82677Y35433D01*
D02*
G37*
G36*
X76772Y19685D02*
X49213D01*
X44488Y14961D01*
Y1204D01*
X1204D01*
Y36637D01*
X22418Y57851D01*
X76772D01*
Y19685D01*
D02*
G37*
D34*
X157480Y53150D02*
D03*
Y5906D02*
D03*
X184Y53334D02*
D03*
X0Y5906D02*
D03*
D35*
X9843Y3937D02*
D03*
Y7874D02*
D03*
X13780D02*
D03*
Y3937D02*
D03*
X17717Y7874D02*
D03*
Y3937D02*
D03*
X21654D02*
D03*
Y7874D02*
D03*
X25591D02*
D03*
Y3937D02*
D03*
X29528D02*
D03*
Y7874D02*
D03*
X33465D02*
D03*
X37402D02*
D03*
X41339D02*
D03*
X33465Y3937D02*
D03*
X37402D02*
D03*
X41339D02*
D03*
X59055Y51181D02*
D03*
X62992D02*
D03*
Y55118D02*
D03*
X59055D02*
D03*
X35433Y51181D02*
D03*
X39370D02*
D03*
X43307D02*
D03*
X47244D02*
D03*
X51181D02*
D03*
X55118D02*
D03*
Y55118D02*
D03*
X51181D02*
D03*
X47244D02*
D03*
X43307D02*
D03*
X39370D02*
D03*
X35433D02*
D03*
X149606Y15748D02*
D03*
Y11811D02*
D03*
Y7874D02*
D03*
Y3937D02*
D03*
X145669D02*
D03*
Y7874D02*
D03*
Y11811D02*
D03*
Y15748D02*
D03*
X129921D02*
D03*
X133858D02*
D03*
X137795D02*
D03*
X141732D02*
D03*
Y11811D02*
D03*
Y7874D02*
D03*
Y3937D02*
D03*
X137795Y7874D02*
D03*
Y3937D02*
D03*
Y11811D02*
D03*
X133858D02*
D03*
Y7874D02*
D03*
X129921Y11811D02*
D03*
Y7874D02*
D03*
X133858Y3937D02*
D03*
X129921D02*
D03*
M02*
