G04*
G04 #@! TF.GenerationSoftware,Altium Limited,Altium Designer,23.9.2 (47)*
G04*
G04 Layer_Physical_Order=1*
G04 Layer_Color=255*
%FSLAX25Y25*%
%MOIN*%
G70*
G04*
G04 #@! TF.SameCoordinates,48698AD6-0B35-4497-AB79-32B575EC37EE*
G04*
G04*
G04 #@! TF.FilePolarity,Positive*
G04*
G01*
G75*
%ADD14R,0.03701X0.02126*%
%ADD15R,0.02126X0.03701*%
%ADD16R,0.21700X0.12400*%
%ADD17R,0.03937X0.03150*%
%ADD18R,0.11102X0.04016*%
%ADD19R,0.01870X0.01181*%
%ADD20R,0.05787X0.02441*%
%ADD21R,0.07165X0.03228*%
%ADD31C,0.01000*%
%ADD32C,0.04500*%
%ADD33C,0.01500*%
%ADD34C,0.01197*%
%ADD35R,0.11811X0.11811*%
%ADD36C,0.02362*%
G36*
X156276Y43678D02*
X143701Y31102D01*
X130315D01*
X120079Y41339D01*
X94488D01*
X94488Y54331D01*
X124803D01*
X135827Y43307D01*
X149606Y57087D01*
X150371Y57851D01*
X156276D01*
Y43678D01*
D02*
G37*
G36*
X64961Y36827D02*
X63961D01*
Y36827D01*
X58055D01*
Y32677D01*
X38777D01*
X38431Y33023D01*
Y33177D01*
X38402Y33325D01*
Y36827D01*
X33465D01*
Y57851D01*
X64961D01*
Y36827D01*
D02*
G37*
G36*
X31496Y32677D02*
X27559D01*
X26378Y31496D01*
Y22441D01*
X21654D01*
X1204Y22441D01*
Y57851D01*
X31496D01*
Y32677D01*
D02*
G37*
G36*
X118110Y1969D02*
X51181Y1969D01*
X48031Y5118D01*
Y16126D01*
X51754D01*
X53937Y14567D01*
Y11024D01*
X55512Y9449D01*
X86221D01*
X94488Y17717D01*
X118110D01*
Y1969D01*
D02*
G37*
G36*
X156276Y16952D02*
Y1204D01*
X127953D01*
Y25591D01*
X147638D01*
X156276Y16952D01*
D02*
G37*
G36*
X34449Y15748D02*
X44488D01*
Y1204D01*
X1204D01*
Y19685D01*
X30512D01*
X34449Y15748D01*
D02*
G37*
D14*
X47244Y34252D02*
D03*
Y27953D02*
D03*
D15*
X61024Y22835D02*
D03*
X67323D02*
D03*
X59055Y12598D02*
D03*
X52756D02*
D03*
D16*
X105512Y9843D02*
D03*
Y47842D02*
D03*
D17*
X66929Y34252D02*
D03*
Y27953D02*
D03*
X61024Y34252D02*
D03*
Y27953D02*
D03*
X55118Y27953D02*
D03*
Y34252D02*
D03*
X41339D02*
D03*
Y27953D02*
D03*
X35433Y34252D02*
D03*
Y27953D02*
D03*
X29528Y34252D02*
D03*
Y27953D02*
D03*
D18*
X137795Y33268D02*
D03*
Y21850D02*
D03*
D19*
X49905Y21654D02*
D03*
Y19685D02*
D03*
Y17717D02*
D03*
Y15748D02*
D03*
X43307D02*
D03*
Y17717D02*
D03*
Y19685D02*
D03*
Y21654D02*
D03*
D20*
X25591Y15748D02*
D03*
Y23622D02*
D03*
D21*
X15748Y27559D02*
D03*
Y15748D02*
D03*
D31*
X40157Y20866D02*
Y26878D01*
Y20866D02*
X41339Y19685D01*
X43307D01*
X149606Y2756D02*
X153937Y7087D01*
X41339Y34252D02*
X55118D01*
X5118Y5906D02*
Y6693D01*
X149606Y2756D02*
Y3937D01*
X7087D02*
X9843D01*
X5118Y5906D02*
X7087Y3937D01*
X48031Y19685D02*
X49905D01*
X47244Y20472D02*
Y27953D01*
Y20472D02*
X48031Y19685D01*
X53937Y21654D02*
X55118Y22835D01*
Y27953D01*
X49905Y21654D02*
X53937D01*
X41232Y27953D02*
X41339D01*
X40157Y26878D02*
X41232Y27953D01*
X61024Y22835D02*
Y27953D01*
X67323Y22835D02*
Y27559D01*
X66929Y27953D02*
X67323Y27559D01*
X29528Y27953D02*
X35433D01*
X39870Y29028D02*
Y29421D01*
X36902Y32390D02*
Y33177D01*
X39870Y29028D02*
X40945Y27953D01*
X36902Y32390D02*
X39870Y29421D01*
X35827Y34252D02*
X36902Y33177D01*
X35433Y34252D02*
X35827D01*
X66929Y34252D02*
X66929Y34252D01*
X61024Y34252D02*
X66929D01*
X55118Y27953D02*
X61024D01*
X55118Y27953D02*
X55118Y27953D01*
X52756Y9247D02*
X53342Y8661D01*
X52756Y9247D02*
Y12598D01*
X104331Y8661D02*
X105512Y9843D01*
X53342Y8661D02*
X104331D01*
X59055Y12598D02*
Y15748D01*
X49905Y17717D02*
X57087D01*
X59055Y15748D01*
X50787Y12598D02*
X52756D01*
X49905Y13480D02*
X50787Y12598D01*
X49905Y13480D02*
Y15748D01*
X15748D02*
X25591D01*
X43307D01*
X26301Y23340D02*
X33830D01*
X39454Y17717D01*
X43307D01*
D32*
X153543Y50394D02*
Y53937D01*
X149606Y46457D02*
X153543Y50394D01*
X140854Y33268D02*
X149606Y42020D01*
Y46457D01*
X137795Y33268D02*
X140854D01*
X134252D02*
X137795D01*
X105512Y47842D02*
X119677D01*
X134252Y33268D01*
D33*
X5118Y50000D02*
Y50787D01*
Y50000D02*
X20866Y34252D01*
X26378D01*
X25591Y23622D02*
Y33465D01*
X26378Y34252D01*
X18831Y25988D02*
X21197Y23622D01*
X18831Y25988D02*
Y26445D01*
X21197Y23622D02*
X25591D01*
X17717Y27559D02*
X18831Y26445D01*
X15748Y27559D02*
X17717D01*
D34*
X26378Y34252D02*
X29528D01*
D35*
X157480Y53150D02*
D03*
Y5906D02*
D03*
X184Y53334D02*
D03*
X0Y5906D02*
D03*
D36*
X130315Y23622D02*
D03*
X66929Y27953D02*
D03*
X137795Y33268D02*
D03*
X9843Y3937D02*
D03*
Y7874D02*
D03*
X13780D02*
D03*
Y3937D02*
D03*
X17717Y7874D02*
D03*
Y3937D02*
D03*
X21654D02*
D03*
Y7874D02*
D03*
X25591D02*
D03*
Y3937D02*
D03*
X29528D02*
D03*
Y7874D02*
D03*
X33465D02*
D03*
X37402D02*
D03*
X41339D02*
D03*
X33465Y3937D02*
D03*
X37402D02*
D03*
X41339D02*
D03*
X59055Y51181D02*
D03*
X62992D02*
D03*
Y55118D02*
D03*
X59055D02*
D03*
X35433Y51181D02*
D03*
X39370D02*
D03*
X43307D02*
D03*
X47244D02*
D03*
X51181D02*
D03*
X55118D02*
D03*
Y55118D02*
D03*
X51181D02*
D03*
X47244D02*
D03*
X43307D02*
D03*
X39370D02*
D03*
X35433D02*
D03*
X149606Y15748D02*
D03*
Y11811D02*
D03*
Y7874D02*
D03*
Y3937D02*
D03*
X145669D02*
D03*
Y7874D02*
D03*
Y11811D02*
D03*
Y15748D02*
D03*
X129921D02*
D03*
X133858D02*
D03*
X137795D02*
D03*
X141732D02*
D03*
Y11811D02*
D03*
Y7874D02*
D03*
Y3937D02*
D03*
X137795Y7874D02*
D03*
Y3937D02*
D03*
Y11811D02*
D03*
X133858D02*
D03*
Y7874D02*
D03*
X129921Y11811D02*
D03*
Y7874D02*
D03*
X133858Y3937D02*
D03*
X129921D02*
D03*
M02*
