G04*
G04 #@! TF.GenerationSoftware,Altium Limited,Altium Designer,23.9.2 (47)*
G04*
G04 Layer_Color=8388736*
%FSLAX25Y25*%
%MOIN*%
G70*
G04*
G04 #@! TF.SameCoordinates,48698AD6-0B35-4497-AB79-32B575EC37EE*
G04*
G04*
G04 #@! TF.FilePolarity,Negative*
G04*
G01*
G75*
%ADD22R,0.04000X0.02425*%
%ADD23R,0.02425X0.04000*%
%ADD24R,0.21999X0.12699*%
%ADD25R,0.04236X0.03449*%
%ADD26R,0.11402X0.04315*%
%ADD27R,0.02169X0.01480*%
%ADD28R,0.06087X0.02740*%
%ADD29R,0.07465X0.03528*%
%ADD30R,0.12110X0.12110*%
D22*
X47244Y34252D02*
D03*
Y27953D02*
D03*
D23*
X61024Y22835D02*
D03*
X67323D02*
D03*
X59055Y12598D02*
D03*
X52756D02*
D03*
D24*
X105512Y9843D02*
D03*
Y47842D02*
D03*
D25*
X66929Y34252D02*
D03*
Y27953D02*
D03*
X61024Y34252D02*
D03*
Y27953D02*
D03*
X55118Y27953D02*
D03*
Y34252D02*
D03*
X41339D02*
D03*
Y27953D02*
D03*
X35433Y34252D02*
D03*
Y27953D02*
D03*
X29528Y34252D02*
D03*
Y27953D02*
D03*
D26*
X137795Y33268D02*
D03*
Y21850D02*
D03*
D27*
X49905Y21654D02*
D03*
Y19685D02*
D03*
Y17717D02*
D03*
Y15748D02*
D03*
X43307D02*
D03*
Y17717D02*
D03*
Y19685D02*
D03*
Y21654D02*
D03*
D28*
X25591Y15748D02*
D03*
Y23622D02*
D03*
D29*
X15748Y27559D02*
D03*
Y15748D02*
D03*
D30*
X157480Y53150D02*
D03*
Y5906D02*
D03*
X184Y53334D02*
D03*
X0Y5906D02*
D03*
M02*
