G04*
G04 #@! TF.GenerationSoftware,Altium Limited,Altium Designer,23.9.2 (47)*
G04*
G04 Layer_Physical_Order=2*
G04 Layer_Color=16711680*
%FSLAX25Y25*%
%MOIN*%
G70*
G04*
G04 #@! TF.SameCoordinates,48698AD6-0B35-4497-AB79-32B575EC37EE*
G04*
G04*
G04 #@! TF.FilePolarity,Positive*
G04*
G01*
G75*
%ADD31C,0.01000*%
%ADD35R,0.11811X0.11811*%
%ADD36C,0.02362*%
G36*
X76772Y29482D02*
X68484D01*
X68165Y29802D01*
X67363Y30134D01*
X66495D01*
X65694Y29802D01*
X65080Y29188D01*
X64748Y28387D01*
Y27519D01*
X65080Y26717D01*
X65694Y26104D01*
X66495Y25772D01*
X67363D01*
X68165Y26104D01*
X68484Y26423D01*
X76772D01*
Y19685D01*
X49213D01*
X44488Y14961D01*
Y1204D01*
X1204D01*
Y36637D01*
X22418Y57851D01*
X76772D01*
Y29482D01*
D02*
G37*
G36*
X82677Y35433D02*
X120079D01*
X129921Y25591D01*
X135713D01*
X135920Y25091D01*
X132437Y21608D01*
X127799D01*
X120373Y29034D01*
X119877Y29366D01*
X119291Y29482D01*
X76772D01*
X76772Y40685D01*
X77234Y40877D01*
X82677Y35433D01*
D02*
G37*
G36*
X126084Y18997D02*
X126580Y18666D01*
X127165Y18549D01*
X133071D01*
X133656Y18666D01*
X134152Y18997D01*
X138877Y23722D01*
X139208Y24218D01*
X139325Y24803D01*
Y25591D01*
X147638D01*
X147638Y25591D01*
X156276Y16952D01*
Y1204D01*
X127953D01*
Y15748D01*
X120079Y23622D01*
X92520D01*
X88583Y19685D01*
X76772Y19685D01*
Y26423D01*
X118658D01*
X126084Y18997D01*
D02*
G37*
D31*
X119291Y27953D02*
X127165Y20079D01*
X133071D01*
X137795Y24803D01*
Y33268D01*
X66929Y27953D02*
X119291D01*
D35*
X157480Y53150D02*
D03*
Y5906D02*
D03*
X184Y53334D02*
D03*
X0Y5906D02*
D03*
D36*
X130315Y23622D02*
D03*
X66929Y27953D02*
D03*
X137795Y33268D02*
D03*
X9843Y3937D02*
D03*
Y7874D02*
D03*
X13780D02*
D03*
Y3937D02*
D03*
X17717Y7874D02*
D03*
Y3937D02*
D03*
X21654D02*
D03*
Y7874D02*
D03*
X25591D02*
D03*
Y3937D02*
D03*
X29528D02*
D03*
Y7874D02*
D03*
X33465D02*
D03*
X37402D02*
D03*
X41339D02*
D03*
X33465Y3937D02*
D03*
X37402D02*
D03*
X41339D02*
D03*
X59055Y51181D02*
D03*
X62992D02*
D03*
Y55118D02*
D03*
X59055D02*
D03*
X35433Y51181D02*
D03*
X39370D02*
D03*
X43307D02*
D03*
X47244D02*
D03*
X51181D02*
D03*
X55118D02*
D03*
Y55118D02*
D03*
X51181D02*
D03*
X47244D02*
D03*
X43307D02*
D03*
X39370D02*
D03*
X35433D02*
D03*
X149606Y15748D02*
D03*
Y11811D02*
D03*
Y7874D02*
D03*
Y3937D02*
D03*
X145669D02*
D03*
Y7874D02*
D03*
Y11811D02*
D03*
Y15748D02*
D03*
X129921D02*
D03*
X133858D02*
D03*
X137795D02*
D03*
X141732D02*
D03*
Y11811D02*
D03*
Y7874D02*
D03*
Y3937D02*
D03*
X137795Y7874D02*
D03*
Y3937D02*
D03*
Y11811D02*
D03*
X133858D02*
D03*
Y7874D02*
D03*
X129921Y11811D02*
D03*
Y7874D02*
D03*
X133858Y3937D02*
D03*
X129921D02*
D03*
M02*
