M48
;Layer_Color=9474304
;FILE_FORMAT=2:4
INCH,TZ
;TYPE=PLATED
T01F00S00C0.0118
T02F00S00C0.0394
%
T01
X984Y394
Y787
X1378
Y394
X1772
X2165
Y787
X1772
X2559
Y394
X2953
Y787
X3346
X3740
X4134
Y394
X3740
X3346
X3543Y5118
X3937
X4331
X4724
X5118
X5512
X5906
X6299
Y5512
X5906
X5512
X5118
X4724
X4331
X3937
X3543
X12992Y1575
X13386
X13780
X14173
X14567
X14961
Y1181
Y787
Y394
X14567
Y787
Y1181
X14173
Y787
X13780
Y1181
X13386
Y787
X12992
Y1181
Y394
X13386
X13780
X14173
T02
X0Y591
X18Y5333
X15748Y5315
Y591
M30
