G04*
G04 #@! TF.GenerationSoftware,Altium Limited,Altium Designer,23.11.1 (41)*
G04*
G04 Layer_Color=32896*
%FSLAX25Y25*%
%MOIN*%
G70*
G04*
G04 #@! TF.SameCoordinates,3E60C5BA-0C76-47EE-A8DA-6B49124F06CB*
G04*
G04*
G04 #@! TF.FilePolarity,Positive*
G04*
G01*
G75*
%ADD10C,0.00394*%
%ADD115C,0.00197*%
D10*
X416287Y167717D02*
Y188976D01*
X447193D01*
Y167717D02*
Y188976D01*
X416287Y167717D02*
X447193D01*
D115*
X448917Y169095D02*
X483366D01*
Y134055D02*
Y169095D01*
X448917Y134055D02*
X483366D01*
X448917D02*
Y169095D01*
X14764Y205709D02*
X44291D01*
X14764D02*
Y227362D01*
X44291D01*
Y205709D02*
Y227362D01*
X158465Y213583D02*
Y243110D01*
X136811Y213583D02*
X158465D01*
X136811D02*
Y243110D01*
X158465D01*
X254134Y61024D02*
X300984D01*
Y17717D02*
Y61024D01*
X254134Y17717D02*
X300984D01*
X254134D02*
Y61024D01*
Y120079D02*
X300984D01*
Y76772D02*
Y120079D01*
X254134Y76772D02*
X300984D01*
X254134D02*
Y120079D01*
X504134Y253937D02*
X550984D01*
X504134D02*
Y297244D01*
X550984D01*
Y253937D02*
Y297244D01*
X363976Y91043D02*
Y105807D01*
X377756D01*
Y91043D02*
Y105807D01*
X363976Y91043D02*
X377756D01*
X381299D02*
Y105807D01*
X395079D01*
Y91043D02*
Y105807D01*
X381299Y91043D02*
X395079D01*
X398622D02*
Y105807D01*
X412402D01*
Y91043D02*
Y105807D01*
X398622Y91043D02*
X412402D01*
X415945D02*
Y105807D01*
X429724D01*
Y91043D02*
Y105807D01*
X415945Y91043D02*
X429724D01*
X433268D02*
Y105807D01*
X447047D01*
Y91043D02*
Y105807D01*
X433268Y91043D02*
X447047D01*
X450591D02*
Y105807D01*
X464370D01*
Y91043D02*
Y105807D01*
X450591Y91043D02*
X464370D01*
X467913D02*
Y105807D01*
X481693D01*
Y91043D02*
Y105807D01*
X467913Y91043D02*
X481693D01*
X485236D02*
Y105807D01*
X499016D01*
Y91043D02*
Y105807D01*
X485236Y91043D02*
X499016D01*
X631319Y251378D02*
X644272D01*
X631319Y224606D02*
Y251378D01*
Y224606D02*
X644272D01*
Y251378D01*
X808484Y249410D02*
X821437D01*
X808484Y222638D02*
Y249410D01*
Y222638D02*
X821437D01*
Y249410D01*
X719095Y110925D02*
X729724D01*
Y125295D01*
X719095D02*
X729724D01*
X719095Y110925D02*
Y125295D01*
X729331Y110925D02*
X739961D01*
Y125295D01*
X729331D02*
X739961D01*
X729331Y110925D02*
Y125295D01*
X739567Y110925D02*
X750197D01*
Y125295D01*
X739567D02*
X750197D01*
X739567Y110925D02*
Y125295D01*
X749803Y110925D02*
X760433D01*
Y125295D01*
X749803D02*
X760433D01*
X749803Y110925D02*
Y125295D01*
X760039Y110925D02*
X770669D01*
Y125295D01*
X760039D02*
X770669D01*
X760039Y110925D02*
Y125295D01*
X770276Y110925D02*
X780905D01*
Y125295D01*
X770276D02*
X780905D01*
X770276Y110925D02*
Y125295D01*
X780512Y110925D02*
X791142D01*
Y125295D01*
X780512D02*
X791142D01*
X780512Y110925D02*
Y125295D01*
X790748Y110925D02*
X801378D01*
Y125295D01*
X790748D02*
X801378D01*
X790748Y110925D02*
Y125295D01*
X800984Y110925D02*
X811614D01*
Y125295D01*
X800984D02*
X811614D01*
X800984Y110925D02*
Y125295D01*
X811220Y110925D02*
X821850D01*
Y125295D01*
X811220D02*
X821850D01*
X811220Y110925D02*
Y125295D01*
X821457Y110925D02*
X832087D01*
Y125295D01*
X821457D02*
X832087D01*
X821457Y110925D02*
Y125295D01*
X831693Y110925D02*
X842323D01*
Y125295D01*
X831693D02*
X842323D01*
X831693Y110925D02*
Y125295D01*
X841929Y110925D02*
X852559D01*
Y125295D01*
X841929D02*
X852559D01*
X841929Y110925D02*
Y125295D01*
X852165Y110925D02*
X862795D01*
Y125295D01*
X852165D02*
X862795D01*
X852165Y110925D02*
Y125295D01*
X862402Y110925D02*
X873032D01*
Y125295D01*
X862402D02*
X873032D01*
X862402Y110925D02*
Y125295D01*
X872638Y110925D02*
X883268D01*
Y125295D01*
X872638D02*
X883268D01*
X872638Y110925D02*
Y125295D01*
X66929Y225787D02*
Y238779D01*
X59055Y225787D02*
X66929D01*
X59055D02*
Y238779D01*
X66929D01*
X57087Y32874D02*
Y45866D01*
X49213Y32874D02*
X57087D01*
X49213D02*
Y45866D01*
X57087D01*
X145669Y44685D02*
Y57677D01*
X137795Y44685D02*
X145669D01*
X137795D02*
Y57677D01*
X145669D01*
X187008Y44685D02*
Y57677D01*
X194882D01*
Y44685D02*
Y57677D01*
X187008Y44685D02*
X194882D01*
X327114Y136279D02*
Y157933D01*
Y136279D02*
X356445D01*
Y157933D01*
X327114D02*
X356445D01*
X743110Y241929D02*
X749016D01*
Y230512D02*
Y241929D01*
X743110Y230512D02*
X749016D01*
X743110D02*
Y241929D01*
X760827Y230118D02*
Y236024D01*
X749409Y230118D02*
X760827D01*
X749409D02*
Y236024D01*
X760827D01*
Y236417D02*
Y242323D01*
X749409Y236417D02*
X760827D01*
X749409D02*
Y242323D01*
X760827D01*
X939961Y240354D02*
Y246260D01*
X928543Y240354D02*
X939961D01*
X928543D02*
Y246260D01*
X939961D01*
Y234055D02*
Y239961D01*
X928543Y234055D02*
X939961D01*
X928543D02*
Y239961D01*
X939961D01*
X920276Y245866D02*
X926181D01*
Y234449D02*
Y245866D01*
X920276Y234449D02*
X926181D01*
X920276D02*
Y245866D01*
X830315Y263779D02*
X843307D01*
Y255906D02*
Y263779D01*
X830315Y255906D02*
X843307D01*
X830315D02*
Y263779D01*
X653150Y265748D02*
X666142D01*
Y257874D02*
Y265748D01*
X653150Y257874D02*
X666142D01*
X653150D02*
Y265748D01*
X794882Y135039D02*
X807480D01*
X794882D02*
Y153150D01*
X807480D01*
Y135039D02*
Y153150D01*
X805906Y135039D02*
X818504D01*
Y153150D01*
X805906D02*
X818504D01*
X805906Y135039D02*
Y153150D01*
X816929Y135039D02*
X829527D01*
X816929D02*
Y153150D01*
X829527D01*
Y135039D02*
Y153150D01*
X827953Y135039D02*
X840551D01*
Y153150D01*
X827953D02*
X840551D01*
X827953Y135039D02*
Y153150D01*
X838976Y135039D02*
X851575D01*
X838976D02*
Y153150D01*
X851575D01*
Y135039D02*
Y153150D01*
X850000Y135039D02*
X862598D01*
Y153150D01*
X850000D02*
X862598D01*
X850000Y135039D02*
Y153150D01*
X861024Y135039D02*
X873622D01*
X861024D02*
Y153150D01*
X873622D01*
Y135039D02*
Y153150D01*
X872047Y135039D02*
X884646D01*
Y153150D01*
X872047D02*
X884646D01*
X872047Y135039D02*
Y153150D01*
X883071Y135039D02*
X895669D01*
X883071D02*
Y153150D01*
X895669D01*
Y135039D02*
Y153150D01*
X894094Y135039D02*
X906693D01*
Y153150D01*
X894094D02*
X906693D01*
X894094Y135039D02*
Y153150D01*
X905118Y135039D02*
X917717D01*
X905118D02*
Y153150D01*
X917717D01*
Y135039D02*
Y153150D01*
X916142Y135039D02*
X928740D01*
Y153150D01*
X916142D02*
X928740D01*
X916142Y135039D02*
Y153150D01*
X927165Y135039D02*
X939764D01*
X927165D02*
Y153150D01*
X939764D01*
Y135039D02*
Y153150D01*
X938189Y135039D02*
X950787D01*
Y153150D01*
X938189D02*
X950787D01*
X938189Y135039D02*
Y153150D01*
X949213Y135039D02*
X961811D01*
X949213D02*
Y153150D01*
X961811D01*
Y135039D02*
Y153150D01*
X960236Y135039D02*
X972835D01*
Y153150D01*
X960236D02*
X972835D01*
X960236Y135039D02*
Y153150D01*
X971260Y135039D02*
X983858D01*
X971260D02*
Y153150D01*
X983858D01*
Y135039D02*
Y153150D01*
X618504Y135039D02*
X631102D01*
X618504D02*
Y153150D01*
X631102D01*
Y135039D02*
Y153150D01*
X629528Y135039D02*
X642126D01*
Y153150D01*
X629528D02*
X642126D01*
X629528Y135039D02*
Y153150D01*
X640551Y135039D02*
X653150D01*
X640551D02*
Y153150D01*
X653150D01*
Y135039D02*
Y153150D01*
X651575Y135039D02*
X664173D01*
Y153150D01*
X651575D02*
X664173D01*
X651575Y135039D02*
Y153150D01*
X662598Y135039D02*
X675197D01*
X662598D02*
Y153150D01*
X675197D01*
Y135039D02*
Y153150D01*
X673622Y135039D02*
X686221D01*
Y153150D01*
X673622D02*
X686221D01*
X673622Y135039D02*
Y153150D01*
X684646Y135039D02*
X697244D01*
X684646D02*
Y153150D01*
X697244D01*
Y135039D02*
Y153150D01*
X695669Y135039D02*
X708268D01*
Y153150D01*
X695669D02*
X708268D01*
X695669Y135039D02*
Y153150D01*
X706693Y135039D02*
X719291D01*
X706693D02*
Y153150D01*
X719291D01*
Y135039D02*
Y153150D01*
X717717Y135039D02*
X730315D01*
Y153150D01*
X717717D02*
X730315D01*
X717717Y135039D02*
Y153150D01*
X728740Y135039D02*
X741339D01*
X728740D02*
Y153150D01*
X741339D01*
Y135039D02*
Y153150D01*
X739764Y135039D02*
X752362D01*
Y153150D01*
X739764D02*
X752362D01*
X739764Y135039D02*
Y153150D01*
X750787Y135039D02*
X763386D01*
X750787D02*
Y153150D01*
X763386D01*
Y135039D02*
Y153150D01*
X761811Y135039D02*
X774409D01*
Y153150D01*
X761811D02*
X774409D01*
X761811Y135039D02*
Y153150D01*
X772835Y135039D02*
X785433D01*
X772835D02*
Y153150D01*
X785433D01*
Y135039D02*
Y153150D01*
X783858Y135039D02*
X796457D01*
Y153150D01*
X783858D02*
X796457D01*
X783858Y135039D02*
Y153150D01*
X798228Y135630D02*
X804134D01*
Y147047D01*
X798228D02*
X804134D01*
X798228Y135630D02*
Y147047D01*
X809252Y135630D02*
X815158D01*
X809252D02*
Y147047D01*
X815158D01*
Y135630D02*
Y147047D01*
X820276Y135630D02*
X826181D01*
Y147047D01*
X820276D02*
X826181D01*
X820276Y135630D02*
Y147047D01*
X831299Y135630D02*
X837205D01*
X831299D02*
Y147047D01*
X837205D01*
Y135630D02*
Y147047D01*
X842323Y135630D02*
X848228D01*
Y147047D01*
X842323D02*
X848228D01*
X842323Y135630D02*
Y147047D01*
X853347Y135630D02*
X859252D01*
X853347D02*
Y147047D01*
X859252D01*
Y135630D02*
Y147047D01*
X864370Y135630D02*
X870276D01*
Y147047D01*
X864370D02*
X870276D01*
X864370Y135630D02*
Y147047D01*
X875394Y135630D02*
X881299D01*
X875394D02*
Y147047D01*
X881299D01*
Y135630D02*
Y147047D01*
X886417Y135630D02*
X892323D01*
Y147047D01*
X886417D02*
X892323D01*
X886417Y135630D02*
Y147047D01*
X897441Y135630D02*
X903347D01*
X897441D02*
Y147047D01*
X903347D01*
Y135630D02*
Y147047D01*
X908465Y135630D02*
X914370D01*
Y147047D01*
X908465D02*
X914370D01*
X908465Y135630D02*
Y147047D01*
X919488Y135630D02*
X925394D01*
X919488D02*
Y147047D01*
X925394D01*
Y135630D02*
Y147047D01*
X930512Y135630D02*
X936417D01*
Y147047D01*
X930512D02*
X936417D01*
X930512Y135630D02*
Y147047D01*
X941535Y135630D02*
X947441D01*
X941535D02*
Y147047D01*
X947441D01*
Y135630D02*
Y147047D01*
X952559Y135630D02*
X958465D01*
Y147047D01*
X952559D02*
X958465D01*
X952559Y135630D02*
Y147047D01*
X963583Y135630D02*
X969488D01*
X963583D02*
Y147047D01*
X969488D01*
Y135630D02*
Y147047D01*
X974606Y135630D02*
X980512D01*
Y147047D01*
X974606D02*
X980512D01*
X974606Y135630D02*
Y147047D01*
X984252Y153150D02*
X996850D01*
X984252Y135039D02*
Y153150D01*
Y135039D02*
X996850D01*
Y153150D01*
X621850Y135630D02*
X627756D01*
Y147047D01*
X621850D02*
X627756D01*
X621850Y135630D02*
Y147047D01*
X632874Y135630D02*
X638779D01*
X632874D02*
Y147047D01*
X638779D01*
Y135630D02*
Y147047D01*
X643898Y135630D02*
X649803D01*
Y147047D01*
X643898D02*
X649803D01*
X643898Y135630D02*
Y147047D01*
X654921Y135630D02*
X660827D01*
X654921D02*
Y147047D01*
X660827D01*
Y135630D02*
Y147047D01*
X665945Y135630D02*
X671850D01*
Y147047D01*
X665945D02*
X671850D01*
X665945Y135630D02*
Y147047D01*
X676968Y135630D02*
X682874D01*
X676968D02*
Y147047D01*
X682874D01*
Y135630D02*
Y147047D01*
X687992Y135630D02*
X693898D01*
Y147047D01*
X687992D02*
X693898D01*
X687992Y135630D02*
Y147047D01*
X699016Y135630D02*
X704921D01*
X699016D02*
Y147047D01*
X704921D01*
Y135630D02*
Y147047D01*
X710039Y135630D02*
X715945D01*
Y147047D01*
X710039D02*
X715945D01*
X710039Y135630D02*
Y147047D01*
X721063Y135630D02*
X726968D01*
X721063D02*
Y147047D01*
X726968D01*
Y135630D02*
Y147047D01*
X732087Y135630D02*
X737992D01*
Y147047D01*
X732087D02*
X737992D01*
X732087Y135630D02*
Y147047D01*
X743110Y135630D02*
X749016D01*
X743110D02*
Y147047D01*
X749016D01*
Y135630D02*
Y147047D01*
X754134Y135630D02*
X760039D01*
Y147047D01*
X754134D02*
X760039D01*
X754134Y135630D02*
Y147047D01*
X765158Y135630D02*
X771063D01*
X765158D02*
Y147047D01*
X771063D01*
Y135630D02*
Y147047D01*
X776181Y135630D02*
X782087D01*
Y147047D01*
X776181D02*
X782087D01*
X776181Y135630D02*
Y147047D01*
X787205Y135630D02*
X793110D01*
X787205D02*
Y147047D01*
X793110D01*
Y135630D02*
Y147047D01*
X196850Y235630D02*
Y248622D01*
X188976Y235630D02*
X196850D01*
X188976D02*
Y248622D01*
X196850D01*
X175197Y32874D02*
Y45866D01*
X183071D01*
Y32874D02*
Y45866D01*
X175197Y32874D02*
X183071D01*
X149606D02*
Y45866D01*
X157480D01*
Y32874D02*
Y45866D01*
X149606Y32874D02*
X157480D01*
X377756Y134843D02*
Y140748D01*
X366339D02*
X377756D01*
X366339Y134843D02*
Y140748D01*
Y134843D02*
X377756D01*
Y123031D02*
Y128937D01*
X366339D02*
X377756D01*
X366339Y123031D02*
Y128937D01*
Y123031D02*
X377756D01*
X386024Y117126D02*
Y123031D01*
Y117126D02*
X397441D01*
Y123031D01*
X386024D02*
X397441D01*
X386024Y128937D02*
Y134843D01*
Y128937D02*
X397441D01*
Y134843D01*
X386024D02*
X397441D01*
X409252Y123031D02*
Y128937D01*
X397835D02*
X409252D01*
X397835Y123031D02*
Y128937D01*
Y123031D02*
X409252D01*
Y111221D02*
Y117126D01*
X397835D02*
X409252D01*
X397835Y111221D02*
Y117126D01*
Y111221D02*
X409252D01*
X419488Y126969D02*
Y132874D01*
Y126969D02*
X430905D01*
Y132874D01*
X419488D02*
X430905D01*
X419488Y138779D02*
Y144685D01*
Y138779D02*
X430905D01*
Y144685D01*
X419488D02*
X430905D01*
X442717Y136024D02*
Y141929D01*
X431299D02*
X442717D01*
X431299Y136024D02*
Y141929D01*
Y136024D02*
X442717D01*
Y126181D02*
Y132087D01*
X431299D02*
X442717D01*
X431299Y126181D02*
Y132087D01*
Y126181D02*
X442717D01*
X454921Y117126D02*
Y123031D01*
Y117126D02*
X466339D01*
Y123031D01*
X454921D02*
X466339D01*
X454921Y128937D02*
Y134843D01*
Y128937D02*
X466339D01*
Y134843D01*
X454921D02*
X466339D01*
X478150Y123031D02*
Y128937D01*
X466732D02*
X478150D01*
X466732Y123031D02*
Y128937D01*
Y123031D02*
X478150D01*
Y111221D02*
Y117126D01*
X466732D02*
X478150D01*
X466732Y111221D02*
Y117126D01*
Y111221D02*
X478150D01*
X490354Y125000D02*
Y130905D01*
Y125000D02*
X501772D01*
Y130905D01*
X490354D02*
X501772D01*
X490354Y136811D02*
Y142717D01*
Y136811D02*
X501772D01*
Y142717D01*
X490354D02*
X501772D01*
X379331Y181102D02*
X392323D01*
X379331D02*
Y188976D01*
X392323D01*
Y181102D02*
Y188976D01*
X448228Y181102D02*
X461221D01*
Y173228D02*
Y181102D01*
X448228Y173228D02*
X461221D01*
X448228D02*
Y181102D01*
X210630Y281102D02*
Y294094D01*
X202756Y281102D02*
X210630D01*
X202756D02*
Y294094D01*
X210630D01*
X198819Y281102D02*
Y294094D01*
X190945Y281102D02*
X198819D01*
X190945D02*
Y294094D01*
X198819D01*
X187008Y281102D02*
Y294094D01*
X179134Y281102D02*
X187008D01*
X179134D02*
Y294094D01*
X187008D01*
X312559Y173819D02*
Y186811D01*
X320433D01*
Y173819D02*
Y186811D01*
X312559Y173819D02*
X320433D01*
X275590Y343701D02*
Y356693D01*
X283465D01*
Y343701D02*
Y356693D01*
X275590Y343701D02*
X283465D01*
X196850D02*
Y356693D01*
X204724D01*
Y343701D02*
Y356693D01*
X196850Y343701D02*
X204724D01*
X695276Y296358D02*
Y321752D01*
X682677Y296358D02*
X695276D01*
X682677D02*
Y321752D01*
X695276D01*
X695965Y312598D02*
X721358D01*
X695965D02*
Y325197D01*
X721358D01*
Y312598D02*
Y325197D01*
X868504Y296358D02*
Y321752D01*
X855906Y296358D02*
X868504D01*
X855906D02*
Y321752D01*
X868504D01*
X869193Y312598D02*
X894587D01*
X869193D02*
Y325197D01*
X894587D01*
Y312598D02*
Y325197D01*
X243504Y316929D02*
X256496D01*
Y324803D01*
X243504D02*
X256496D01*
X243504Y316929D02*
Y324803D01*
X11811Y150984D02*
Y163976D01*
X19685D01*
Y150984D02*
Y163976D01*
X11811Y150984D02*
X19685D01*
Y131299D02*
Y144291D01*
X11811Y131299D02*
X19685D01*
X11811D02*
Y144291D01*
X19685D01*
X210630Y295276D02*
Y308268D01*
X202756Y295276D02*
X210630D01*
X202756D02*
Y308268D01*
X210630D01*
X198819Y294882D02*
Y307874D01*
X190945Y294882D02*
X198819D01*
X190945D02*
Y307874D01*
X198819D01*
X187008Y294882D02*
Y307874D01*
X179134Y294882D02*
X187008D01*
X179134D02*
Y307874D01*
X187008D01*
X312559Y158465D02*
Y171457D01*
X320433D01*
Y158465D02*
Y171457D01*
X312559Y158465D02*
X320433D01*
X293307Y343701D02*
Y356693D01*
X285433Y343701D02*
X293307D01*
X285433D02*
Y356693D01*
X293307D01*
X214567Y343701D02*
Y356693D01*
X206693Y343701D02*
X214567D01*
X206693D02*
Y356693D01*
X214567D01*
X331693Y171949D02*
Y185925D01*
Y171949D02*
X348228D01*
Y185925D01*
X331693D02*
X348228D01*
X242717Y314075D02*
Y328051D01*
Y314075D02*
X259252D01*
Y328051D01*
X242717D02*
X259252D01*
X727362Y85020D02*
X736417D01*
X727362D02*
Y103169D01*
X736417D01*
Y85020D02*
Y103169D01*
X731693Y85020D02*
X740748D01*
Y103169D01*
X731693D02*
X740748D01*
X731693Y85020D02*
Y103169D01*
X736024Y85020D02*
X745079D01*
X736024D02*
Y103169D01*
X745079D01*
Y85020D02*
Y103169D01*
X740354Y85020D02*
X749409D01*
Y103169D01*
X740354D02*
X749409D01*
X740354Y85020D02*
Y103169D01*
X744685Y85020D02*
X753740D01*
X744685D02*
Y103169D01*
X753740D01*
Y85020D02*
Y103169D01*
X749016Y85020D02*
X758071D01*
Y103169D01*
X749016D02*
X758071D01*
X749016Y85020D02*
Y103169D01*
X753346Y85020D02*
X762402D01*
X753346D02*
Y103169D01*
X762402D01*
Y85020D02*
Y103169D01*
X757677Y85020D02*
X766732D01*
Y103169D01*
X757677D02*
X766732D01*
X757677Y85020D02*
Y103169D01*
X762008Y85020D02*
X771063D01*
X762008D02*
Y103169D01*
X771063D01*
Y85020D02*
Y103169D01*
X766339Y85020D02*
X775394D01*
Y103169D01*
X766339D02*
X775394D01*
X766339Y85020D02*
Y103169D01*
X770669Y85020D02*
X779724D01*
X770669D02*
Y103169D01*
X779724D01*
Y85020D02*
Y103169D01*
X775000Y85020D02*
X784055D01*
Y103169D01*
X775000D02*
X784055D01*
X775000Y85020D02*
Y103169D01*
X779331Y85020D02*
X788386D01*
X779331D02*
Y103169D01*
X788386D01*
Y85020D02*
Y103169D01*
X783661Y85020D02*
X792717D01*
Y103169D01*
X783661D02*
X792717D01*
X783661Y85020D02*
Y103169D01*
X787992Y85020D02*
X797047D01*
X787992D02*
Y103169D01*
X797047D01*
Y85020D02*
Y103169D01*
X792323Y85020D02*
X801378D01*
Y103169D01*
X792323D02*
X801378D01*
X792323Y85020D02*
Y103169D01*
X796654Y85020D02*
X805709D01*
X796654D02*
Y103169D01*
X805709D01*
Y85020D02*
Y103169D01*
X800984Y85020D02*
X810039D01*
Y103169D01*
X800984D02*
X810039D01*
X800984Y85020D02*
Y103169D01*
X805315Y85020D02*
X814370D01*
X805315D02*
Y103169D01*
X814370D01*
Y85020D02*
Y103169D01*
X809646Y85020D02*
X818701D01*
Y103169D01*
X809646D02*
X818701D01*
X809646Y85020D02*
Y103169D01*
X813976Y85020D02*
X823032D01*
X813976D02*
Y103169D01*
X823032D01*
Y85020D02*
Y103169D01*
X818307Y85020D02*
X827362D01*
Y103169D01*
X818307D02*
X827362D01*
X818307Y85020D02*
Y103169D01*
X822638Y85020D02*
X831693D01*
X822638D02*
Y103169D01*
X831693D01*
Y85020D02*
Y103169D01*
X826968Y85020D02*
X836024D01*
Y103169D01*
X826968D02*
X836024D01*
X826968Y85020D02*
Y103169D01*
X831299Y85020D02*
X840354D01*
X831299D02*
Y103169D01*
X840354D01*
Y85020D02*
Y103169D01*
X835630Y85020D02*
X844685D01*
Y103169D01*
X835630D02*
X844685D01*
X835630Y85020D02*
Y103169D01*
X839961Y85020D02*
X849016D01*
X839961D02*
Y103169D01*
X849016D01*
Y85020D02*
Y103169D01*
X844291Y85020D02*
X853347D01*
Y103169D01*
X844291D02*
X853347D01*
X844291Y85020D02*
Y103169D01*
X848622Y85020D02*
X857677D01*
X848622D02*
Y103169D01*
X857677D01*
Y85020D02*
Y103169D01*
X852953Y85020D02*
X862008D01*
Y103169D01*
X852953D02*
X862008D01*
X852953Y85020D02*
Y103169D01*
X857283Y85020D02*
X866339D01*
X857283D02*
Y103169D01*
X866339D01*
Y85020D02*
Y103169D01*
X861614Y85020D02*
X870669D01*
Y103169D01*
X861614D02*
X870669D01*
X861614Y85020D02*
Y103169D01*
X865945Y85020D02*
X875000D01*
X865945D02*
Y103169D01*
X875000D01*
Y85020D02*
Y103169D01*
X684744Y207972D02*
Y264469D01*
Y207972D02*
X741240D01*
Y264469D01*
X684744D02*
X741240D01*
X861122Y207972D02*
Y264469D01*
Y207972D02*
X917618D01*
Y264469D01*
X861122D02*
X917618D01*
X379626Y134055D02*
Y169095D01*
Y134055D02*
X414075D01*
Y169095D01*
X379626D02*
X414075D01*
M02*
