G04*
G04 #@! TF.GenerationSoftware,Altium Limited,Altium Designer,24.1.2 (44)*
G04*
G04 Layer_Color=16711935*
%FSLAX25Y25*%
%MOIN*%
G70*
G04*
G04 #@! TF.SameCoordinates,B5AD6C99-44BA-4BCA-A26F-11CA4035DA65*
G04*
G04*
G04 #@! TF.FilePolarity,Negative*
G04*
G01*
G75*
%ADD60R,0.03842X0.06008*%
%ADD61R,0.10929X0.04630*%
%ADD62R,0.04236X0.03449*%
%ADD63R,0.03449X0.04236*%
%ADD71R,0.07386X0.05496*%
%ADD75R,0.04000X0.02425*%
%ADD76R,0.02425X0.04000*%
%ADD80C,0.00299*%
%ADD81C,0.06264*%
%ADD82C,0.01382*%
%ADD83C,0.05024*%
%ADD84R,0.05024X0.05024*%
%ADD85R,0.07386X0.07386*%
%ADD86C,0.07386*%
%ADD87C,0.07091*%
%ADD88R,0.07091X0.07091*%
%ADD89C,0.06795*%
%ADD90R,0.06795X0.06795*%
%ADD91C,0.21559*%
%ADD92C,0.06205*%
%ADD93R,0.06205X0.06205*%
%ADD94C,0.19984*%
%ADD95C,0.02071*%
D60*
X246260Y320866D02*
D03*
X253740D02*
D03*
D61*
X801181Y150000D02*
D03*
Y138189D02*
D03*
X823228Y150000D02*
D03*
Y138189D02*
D03*
X845276Y150000D02*
D03*
Y138189D02*
D03*
X867323Y150000D02*
D03*
Y138189D02*
D03*
X889370Y150000D02*
D03*
Y138189D02*
D03*
X911417Y150000D02*
D03*
Y138189D02*
D03*
X933465Y150000D02*
D03*
Y138189D02*
D03*
X955512Y150000D02*
D03*
Y138189D02*
D03*
X977559Y150000D02*
D03*
Y138189D02*
D03*
X624803Y150000D02*
D03*
Y138189D02*
D03*
X646850Y150000D02*
D03*
Y138189D02*
D03*
X668898Y150000D02*
D03*
Y138189D02*
D03*
X690945Y150000D02*
D03*
Y138189D02*
D03*
X712992Y150000D02*
D03*
Y138189D02*
D03*
X735039Y150000D02*
D03*
Y138189D02*
D03*
X757087Y150000D02*
D03*
Y138189D02*
D03*
X779134Y150000D02*
D03*
Y138189D02*
D03*
D62*
X746063Y233071D02*
D03*
Y239370D02*
D03*
X923228Y237008D02*
D03*
Y243307D02*
D03*
X812205Y144488D02*
D03*
Y138189D02*
D03*
X834252Y144488D02*
D03*
Y138189D02*
D03*
X856299Y144488D02*
D03*
Y138189D02*
D03*
X878347Y144488D02*
D03*
Y138189D02*
D03*
X900394Y144488D02*
D03*
Y138189D02*
D03*
X922441Y144488D02*
D03*
Y138189D02*
D03*
X944488Y144488D02*
D03*
Y138189D02*
D03*
X966535Y144488D02*
D03*
Y138189D02*
D03*
X635827Y144488D02*
D03*
Y138189D02*
D03*
X657874Y144488D02*
D03*
Y138189D02*
D03*
X679921Y144488D02*
D03*
Y138189D02*
D03*
X701968Y144488D02*
D03*
Y138189D02*
D03*
X724016Y144488D02*
D03*
Y138189D02*
D03*
X746063Y144488D02*
D03*
Y138189D02*
D03*
X768110Y144488D02*
D03*
Y138189D02*
D03*
X790158Y144488D02*
D03*
Y138189D02*
D03*
D63*
X751968Y233071D02*
D03*
X758268D02*
D03*
X751968Y239370D02*
D03*
X758268D02*
D03*
X931102Y243307D02*
D03*
X937402D02*
D03*
X931102Y237008D02*
D03*
X937402D02*
D03*
D71*
X731890Y99587D02*
D03*
Y88602D02*
D03*
X740551Y99587D02*
D03*
Y88602D02*
D03*
X749213Y99587D02*
D03*
Y88602D02*
D03*
X757874Y99587D02*
D03*
Y88602D02*
D03*
X766535Y99587D02*
D03*
Y88602D02*
D03*
X775197Y99587D02*
D03*
Y88602D02*
D03*
X783858Y99587D02*
D03*
Y88602D02*
D03*
X792520Y99587D02*
D03*
Y88602D02*
D03*
X801181Y99587D02*
D03*
Y88602D02*
D03*
X809842Y99587D02*
D03*
Y88602D02*
D03*
X818504Y99587D02*
D03*
Y88602D02*
D03*
X827165Y99587D02*
D03*
Y88602D02*
D03*
X835827Y99587D02*
D03*
Y88602D02*
D03*
X844488Y99587D02*
D03*
Y88602D02*
D03*
X853150Y99587D02*
D03*
Y88602D02*
D03*
X861811Y99587D02*
D03*
Y88602D02*
D03*
X870472Y99587D02*
D03*
Y88602D02*
D03*
D75*
X844488Y233858D02*
D03*
Y240158D02*
D03*
X836614Y227559D02*
D03*
Y233858D02*
D03*
X844488Y221260D02*
D03*
Y227559D02*
D03*
X836614Y214961D02*
D03*
Y221260D02*
D03*
X844488Y208661D02*
D03*
Y214961D02*
D03*
X836614Y202362D02*
D03*
Y208661D02*
D03*
X667323Y235827D02*
D03*
Y242126D02*
D03*
X659449Y229528D02*
D03*
Y235827D02*
D03*
X667323Y223228D02*
D03*
Y229528D02*
D03*
X659449Y216929D02*
D03*
Y223228D02*
D03*
X667323Y210630D02*
D03*
Y216929D02*
D03*
X659449Y204331D02*
D03*
Y210630D02*
D03*
D76*
X752362Y228346D02*
D03*
X746063D02*
D03*
X752362Y244094D02*
D03*
X746063D02*
D03*
X770079Y233071D02*
D03*
X763779D02*
D03*
X770079Y239370D02*
D03*
X763779D02*
D03*
X949213Y243307D02*
D03*
X942913D02*
D03*
X949213Y237008D02*
D03*
X942913D02*
D03*
X929528Y232283D02*
D03*
X923228D02*
D03*
X929528Y248031D02*
D03*
X923228D02*
D03*
X866929Y194882D02*
D03*
X860630D02*
D03*
X873228Y187008D02*
D03*
X866929D02*
D03*
X879528Y194882D02*
D03*
X873228D02*
D03*
X885827Y187008D02*
D03*
X879527D02*
D03*
X892126Y194882D02*
D03*
X885827D02*
D03*
X898425Y187008D02*
D03*
X892126D02*
D03*
X904724Y194882D02*
D03*
X898425D02*
D03*
X911024Y187008D02*
D03*
X904724D02*
D03*
X917323Y194882D02*
D03*
X911024D02*
D03*
X923622Y202756D02*
D03*
X917323D02*
D03*
X937008D02*
D03*
X930709D02*
D03*
X690551Y194882D02*
D03*
X684252D02*
D03*
X696850Y187008D02*
D03*
X690551D02*
D03*
X703150Y194882D02*
D03*
X696850D02*
D03*
X709449Y187008D02*
D03*
X703150D02*
D03*
X715748Y194882D02*
D03*
X709449D02*
D03*
X722047Y187008D02*
D03*
X715748D02*
D03*
X728346Y194882D02*
D03*
X722047D02*
D03*
X734646Y187008D02*
D03*
X728346D02*
D03*
X740945Y194882D02*
D03*
X734646D02*
D03*
X747244Y202756D02*
D03*
X740945D02*
D03*
D80*
X543307Y377953D02*
D03*
Y15748D02*
D03*
X988189D02*
D03*
Y377953D02*
D03*
D81*
X177921Y362205D02*
D03*
X129921D02*
D03*
D82*
X16339Y322835D02*
D03*
Y307087D02*
D03*
D83*
X210630Y23779D02*
D03*
X200787D02*
D03*
X190945D02*
D03*
X181102D02*
D03*
X171260D02*
D03*
X161417D02*
D03*
X151575D02*
D03*
X141732D02*
D03*
X131890D02*
D03*
X122047D02*
D03*
X112205D02*
D03*
X102362D02*
D03*
X92520D02*
D03*
X82677D02*
D03*
X72835D02*
D03*
X62992D02*
D03*
X53150D02*
D03*
X43307D02*
D03*
X33465D02*
D03*
X210630Y13780D02*
D03*
X200787D02*
D03*
X190945D02*
D03*
X181102D02*
D03*
X171260D02*
D03*
X161417D02*
D03*
X151575D02*
D03*
X141732D02*
D03*
X131890D02*
D03*
X122047D02*
D03*
X112205D02*
D03*
X102362D02*
D03*
X92520D02*
D03*
X82677D02*
D03*
X72835D02*
D03*
X62992D02*
D03*
X53150D02*
D03*
X43307D02*
D03*
X210630Y263779D02*
D03*
X200787D02*
D03*
X190945D02*
D03*
X181102D02*
D03*
X171260D02*
D03*
X161417D02*
D03*
X151575D02*
D03*
X141732D02*
D03*
X131890D02*
D03*
X122047D02*
D03*
X112205D02*
D03*
X102362D02*
D03*
X92520D02*
D03*
X82677D02*
D03*
X72835D02*
D03*
X62992D02*
D03*
X53150D02*
D03*
X43307D02*
D03*
X33465D02*
D03*
X210630Y253780D02*
D03*
X200787D02*
D03*
X190945D02*
D03*
X181102D02*
D03*
X171260D02*
D03*
X161417D02*
D03*
X151575D02*
D03*
X141732D02*
D03*
X131890D02*
D03*
X122047D02*
D03*
X112205D02*
D03*
X102362D02*
D03*
X92520D02*
D03*
X82677D02*
D03*
X72835D02*
D03*
X62992D02*
D03*
X53150D02*
D03*
X43307D02*
D03*
D84*
X33465Y13780D02*
D03*
Y253780D02*
D03*
D85*
X236221Y374016D02*
D03*
D86*
X246220D02*
D03*
X256221D02*
D03*
D87*
X236221Y56870D02*
D03*
Y46870D02*
D03*
Y36870D02*
D03*
Y26870D02*
D03*
Y115925D02*
D03*
Y105925D02*
D03*
Y95925D02*
D03*
Y85925D02*
D03*
D88*
Y16870D02*
D03*
Y75925D02*
D03*
D89*
X114173Y315276D02*
D03*
Y305276D02*
D03*
X102362Y315276D02*
D03*
Y305276D02*
D03*
X90551Y315276D02*
D03*
Y305276D02*
D03*
X74803Y315276D02*
D03*
Y305276D02*
D03*
X59055Y315276D02*
D03*
Y305276D02*
D03*
D90*
X114173Y295276D02*
D03*
X102362D02*
D03*
X90551D02*
D03*
X74803D02*
D03*
X59055D02*
D03*
D91*
X704331Y44882D02*
D03*
X863386D02*
D03*
X369291D02*
D03*
X493701D02*
D03*
D92*
X701575Y66929D02*
D03*
X710236D02*
D03*
X718898D02*
D03*
X727559D02*
D03*
X736221D02*
D03*
X744882D02*
D03*
X753543D02*
D03*
X762205D02*
D03*
X770866D02*
D03*
X779528D02*
D03*
X788189D02*
D03*
X796850D02*
D03*
X805512D02*
D03*
X814173D02*
D03*
X822835D02*
D03*
X831496D02*
D03*
X840158D02*
D03*
X848819D02*
D03*
X857480D02*
D03*
X866142D02*
D03*
X701575Y78740D02*
D03*
X710236D02*
D03*
X718898D02*
D03*
X727559D02*
D03*
X736221D02*
D03*
X744882D02*
D03*
X753543D02*
D03*
X762205D02*
D03*
X770866D02*
D03*
X779528D02*
D03*
X788189D02*
D03*
X796850D02*
D03*
X805512D02*
D03*
X814173D02*
D03*
X822835D02*
D03*
X831496D02*
D03*
X840158D02*
D03*
X848819D02*
D03*
X857480D02*
D03*
X866142D02*
D03*
X366535Y66929D02*
D03*
X375197D02*
D03*
X383858D02*
D03*
X392520D02*
D03*
X401181D02*
D03*
X409842D02*
D03*
X418504D02*
D03*
X427165D02*
D03*
X435827D02*
D03*
X444488D02*
D03*
X453150D02*
D03*
X461811D02*
D03*
X470472D02*
D03*
X479134D02*
D03*
X487795D02*
D03*
X496457D02*
D03*
X366535Y78740D02*
D03*
X375197D02*
D03*
X383858D02*
D03*
X392520D02*
D03*
X401181D02*
D03*
X409842D02*
D03*
X418504D02*
D03*
X427165D02*
D03*
X435827D02*
D03*
X444488D02*
D03*
X453150D02*
D03*
X461811D02*
D03*
X470472D02*
D03*
X479134D02*
D03*
X487795D02*
D03*
X496457D02*
D03*
X129764Y381890D02*
D03*
D93*
X139764D02*
D03*
D94*
X15748Y15748D02*
D03*
Y377953D02*
D03*
D95*
X11811Y43307D02*
D03*
X15748Y39370D02*
D03*
X11811Y35433D02*
D03*
X7874Y39370D02*
D03*
X15748Y43307D02*
D03*
Y35433D02*
D03*
X204724Y169291D02*
D03*
X208661D02*
D03*
Y165354D02*
D03*
X204724D02*
D03*
X7874Y43307D02*
D03*
X11811Y39370D02*
D03*
X7874Y35433D02*
D03*
M02*
