G04*
G04 #@! TF.GenerationSoftware,Altium Limited,Altium Designer,24.1.2 (44)*
G04*
G04 Layer_Color=65280*
%FSLAX25Y25*%
%MOIN*%
G70*
G04*
G04 #@! TF.SameCoordinates,B5AD6C99-44BA-4BCA-A26F-11CA4035DA65*
G04*
G04*
G04 #@! TF.FilePolarity,Positive*
G04*
G01*
G75*
%ADD10C,0.00394*%
%ADD12C,0.00787*%
%ADD115C,0.00197*%
D10*
X19094Y299606D02*
Y330315D01*
X-3071Y299606D02*
X19094D01*
X-3071D02*
Y330315D01*
X19094D01*
X336811Y180905D02*
X340551Y184646D01*
X336811Y173228D02*
Y184646D01*
Y173228D02*
X343110D01*
Y184646D01*
X336811D02*
X343110D01*
X247835Y323031D02*
X251575Y326772D01*
X247835Y315354D02*
Y326772D01*
Y315354D02*
X254134D01*
Y326772D01*
X247835D02*
X254134D01*
X241220Y12669D02*
Y61071D01*
X231221D02*
X241220D01*
X231221Y12669D02*
Y61071D01*
Y12669D02*
X241220D01*
Y71724D02*
Y120126D01*
X231221D02*
X241220D01*
X231221Y71724D02*
Y120126D01*
Y71724D02*
X241220D01*
X119685Y289488D02*
Y321063D01*
X108661D02*
X119685D01*
X108661Y289488D02*
Y321063D01*
Y289488D02*
X119685D01*
X107874D02*
Y321063D01*
X96850D02*
X107874D01*
X96850Y289488D02*
Y321063D01*
Y289488D02*
X107874D01*
X96063D02*
Y321063D01*
X85039D02*
X96063D01*
X85039Y289488D02*
Y321063D01*
Y289488D02*
X96063D01*
X80315D02*
Y321063D01*
X69291D02*
X80315D01*
X69291Y289488D02*
Y321063D01*
Y289488D02*
X80315D01*
X64567D02*
Y321063D01*
X53543D02*
X64567D01*
X53543Y289488D02*
Y321063D01*
Y289488D02*
X64567D01*
X864173Y257382D02*
Y262303D01*
X856299D02*
X864173D01*
X856299Y257382D02*
Y262303D01*
Y257382D02*
X864173D01*
X687008Y259350D02*
Y264272D01*
X679134D02*
X687008D01*
X679134Y259350D02*
Y264272D01*
Y259350D02*
X687008D01*
X843996Y248031D02*
X848917D01*
Y255906D01*
X843996D02*
X848917D01*
X843996Y248031D02*
Y255906D01*
X666831Y250000D02*
X671752D01*
Y257874D01*
X666831D02*
X671752D01*
X666831Y250000D02*
Y257874D01*
X842913Y233858D02*
Y240158D01*
X846063D01*
Y233858D02*
Y240158D01*
X842913Y233858D02*
X846063D01*
X835039Y227559D02*
Y233858D01*
X838189D01*
Y227559D02*
Y233858D01*
X835039Y227559D02*
X838189D01*
X842913Y221260D02*
Y227559D01*
X846063D01*
Y221260D02*
Y227559D01*
X842913Y221260D02*
X846063D01*
X835039Y214961D02*
Y221260D01*
X838189D01*
Y214961D02*
Y221260D01*
X835039Y214961D02*
X838189D01*
X842913Y208661D02*
Y214961D01*
X846063D01*
Y208661D02*
Y214961D01*
X842913Y208661D02*
X846063D01*
X835039Y202362D02*
Y208661D01*
X838189D01*
Y202362D02*
Y208661D01*
X835039Y202362D02*
X838189D01*
X860630Y193307D02*
X866929D01*
X860630D02*
Y196457D01*
X866929D01*
Y193307D02*
Y196457D01*
X866929Y185433D02*
X873228D01*
X866929D02*
Y188583D01*
X873228D01*
Y185433D02*
Y188583D01*
Y193307D02*
X879528D01*
X873228D02*
Y196457D01*
X879528D01*
Y193307D02*
Y196457D01*
X879527Y185433D02*
X885827D01*
X879527D02*
Y188583D01*
X885827D01*
Y185433D02*
Y188583D01*
X885827Y193307D02*
X892126D01*
X885827D02*
Y196457D01*
X892126D01*
Y193307D02*
Y196457D01*
X892126Y185433D02*
X898425D01*
X892126D02*
Y188583D01*
X898425D01*
Y185433D02*
Y188583D01*
Y193307D02*
X904724D01*
X898425D02*
Y196457D01*
X904724D01*
Y193307D02*
Y196457D01*
X904724Y185433D02*
X911024D01*
X904724D02*
Y188583D01*
X911024D01*
Y185433D02*
Y188583D01*
Y193307D02*
X917323D01*
X911024D02*
Y196457D01*
X917323D01*
Y193307D02*
Y196457D01*
X917323Y201181D02*
X923622D01*
X917323D02*
Y204331D01*
X923622D01*
Y201181D02*
Y204331D01*
X930709D02*
X937008D01*
Y201181D02*
Y204331D01*
X930709Y201181D02*
X937008D01*
X930709D02*
Y204331D01*
X665748Y235827D02*
Y242126D01*
X668898D01*
Y235827D02*
Y242126D01*
X665748Y235827D02*
X668898D01*
X657874Y229528D02*
Y235827D01*
X661024D01*
Y229528D02*
Y235827D01*
X657874Y229528D02*
X661024D01*
X665748Y223228D02*
Y229528D01*
X668898D01*
Y223228D02*
Y229528D01*
X665748Y223228D02*
X668898D01*
X657874Y216929D02*
Y223228D01*
X661024D01*
Y216929D02*
Y223228D01*
X657874Y216929D02*
X661024D01*
X665748Y210630D02*
Y216929D01*
X668898D01*
Y210630D02*
Y216929D01*
X665748Y210630D02*
X668898D01*
X657874Y204331D02*
Y210630D01*
X661024D01*
Y204331D02*
Y210630D01*
X657874Y204331D02*
X661024D01*
X684252Y193307D02*
X690551D01*
X684252D02*
Y196457D01*
X690551D01*
Y193307D02*
Y196457D01*
Y185433D02*
X696850D01*
X690551D02*
Y188583D01*
X696850D01*
Y185433D02*
Y188583D01*
X696850Y193307D02*
X703150D01*
X696850D02*
Y196457D01*
X703150D01*
Y193307D02*
Y196457D01*
X703150Y185433D02*
X709449D01*
X703150D02*
Y188583D01*
X709449D01*
Y185433D02*
Y188583D01*
X709449Y193307D02*
X715748D01*
X709449D02*
Y196457D01*
X715748D01*
Y193307D02*
Y196457D01*
Y185433D02*
X722047D01*
X715748D02*
Y188583D01*
X722047D01*
Y185433D02*
Y188583D01*
X722047Y193307D02*
X728346D01*
X722047D02*
Y196457D01*
X728346D01*
Y193307D02*
Y196457D01*
X728346Y185433D02*
X734646D01*
X728346D02*
Y188583D01*
X734646D01*
Y185433D02*
Y188583D01*
Y193307D02*
X740945D01*
X734646D02*
Y196457D01*
X740945D01*
Y193307D02*
Y196457D01*
X740945Y201181D02*
X747244D01*
X740945D02*
Y204331D01*
X747244D01*
Y201181D02*
Y204331D01*
X198327Y238189D02*
X203248D01*
Y246063D01*
X198327D02*
X203248D01*
X198327Y238189D02*
Y246063D01*
X168799Y43307D02*
X173721D01*
X168799Y35433D02*
Y43307D01*
Y35433D02*
X173721D01*
Y43307D01*
X158957D02*
X163878D01*
X158957Y35433D02*
Y43307D01*
Y35433D02*
X163878D01*
Y43307D01*
X368898Y145276D02*
X375197D01*
Y142126D02*
Y145276D01*
X368898Y142126D02*
X375197D01*
X368898D02*
Y145276D01*
Y133465D02*
X375197D01*
Y130315D02*
Y133465D01*
X368898Y130315D02*
X375197D01*
X368898D02*
Y133465D01*
X388583Y112598D02*
X394882D01*
X388583D02*
Y115748D01*
X394882D01*
Y112598D02*
Y115748D01*
X388583Y124803D02*
X394882D01*
X388583D02*
Y127953D01*
X394882D01*
Y124803D02*
Y127953D01*
X400394Y133465D02*
X406693D01*
Y130315D02*
Y133465D01*
X400394Y130315D02*
X406693D01*
X400394D02*
Y133465D01*
Y121653D02*
X406693D01*
Y118504D02*
Y121653D01*
X400394Y118504D02*
X406693D01*
X400394D02*
Y121653D01*
X422047Y122441D02*
X428346D01*
X422047D02*
Y125591D01*
X428346D01*
Y122441D02*
Y125591D01*
X422047Y134252D02*
X428346D01*
X422047D02*
Y137402D01*
X428346D01*
Y134252D02*
Y137402D01*
X433858Y145276D02*
X440158D01*
Y142126D02*
Y145276D01*
X433858Y142126D02*
X440158D01*
X433858D02*
Y145276D01*
Y135433D02*
X440158D01*
Y132283D02*
Y135433D01*
X433858Y132283D02*
X440158D01*
X433858D02*
Y135433D01*
X457480Y112598D02*
X463779D01*
X457480D02*
Y115748D01*
X463779D01*
Y112598D02*
Y115748D01*
X457480Y124409D02*
X463779D01*
X457480D02*
Y127559D01*
X463779D01*
Y124409D02*
Y127559D01*
X469291Y133465D02*
X475591D01*
Y130315D02*
Y133465D01*
X469291Y130315D02*
X475591D01*
X469291D02*
Y133465D01*
Y121653D02*
X475591D01*
Y118504D02*
Y121653D01*
X469291Y118504D02*
X475591D01*
X469291D02*
Y121653D01*
X492913Y120472D02*
X499213D01*
X492913D02*
Y123622D01*
X499213D01*
Y120472D02*
Y123622D01*
X492913Y132283D02*
X499213D01*
X492913D02*
Y135433D01*
X499213D01*
Y132283D02*
Y135433D01*
X389764Y174705D02*
Y179626D01*
X381890D02*
X389764D01*
X381890Y174705D02*
Y179626D01*
Y174705D02*
X389764D01*
X450787Y182579D02*
Y187500D01*
Y182579D02*
X458661D01*
Y187500D01*
X450787D02*
X458661D01*
X435267Y186539D02*
Y191460D01*
X427393D02*
X435267D01*
X427393Y186539D02*
Y191460D01*
Y186539D02*
X435267D01*
X369587Y169291D02*
X374508D01*
X369587Y161417D02*
Y169291D01*
Y161417D02*
X374508D01*
Y169291D01*
X438484Y168504D02*
X443405D01*
X438484Y160630D02*
Y168504D01*
Y160630D02*
X443405D01*
Y168504D01*
X357776Y136614D02*
X362697D01*
Y144488D01*
X357776D02*
X362697D01*
X357776Y136614D02*
Y144488D01*
X318799Y149606D02*
X323721D01*
X318799Y141732D02*
Y149606D01*
Y141732D02*
X323721D01*
Y149606D01*
X424705Y155512D02*
X429626D01*
X424705Y147638D02*
Y155512D01*
Y147638D02*
X429626D01*
Y155512D01*
X493847D02*
X498768D01*
X493847Y147638D02*
Y155512D01*
Y147638D02*
X498768D01*
Y155512D01*
X369587Y157480D02*
X374508D01*
X369587Y149606D02*
Y157480D01*
Y149606D02*
X374508D01*
Y157480D01*
X438484Y156693D02*
X443405D01*
X438484Y148819D02*
Y156693D01*
Y148819D02*
X443405D01*
Y156693D01*
X403787Y168799D02*
Y173721D01*
X395913D02*
X403787D01*
X395913Y168799D02*
Y173721D01*
Y168799D02*
X403787D01*
X473472D02*
Y173721D01*
X465598D02*
X473472D01*
X465598Y168799D02*
Y173721D01*
Y168799D02*
X473472D01*
X267717Y121555D02*
Y126476D01*
X259842D02*
X267717D01*
X259842Y121555D02*
Y126476D01*
Y121555D02*
X267717D01*
X287402D02*
Y126476D01*
Y121555D02*
X295276D01*
Y126476D01*
X287402D02*
X295276D01*
X25591Y229823D02*
Y234744D01*
Y229823D02*
X33465D01*
Y234744D01*
X25591D02*
X33465D01*
X129429Y224410D02*
X134350D01*
Y232283D01*
X129429D02*
X134350D01*
X129429Y224410D02*
Y232283D01*
X287402Y62500D02*
Y67421D01*
Y62500D02*
X295276D01*
Y67421D01*
X287402D02*
X295276D01*
X267717Y62500D02*
Y67421D01*
X259842D02*
X267717D01*
X259842Y62500D02*
Y67421D01*
Y62500D02*
X267717D01*
X539370Y245571D02*
Y250492D01*
Y245571D02*
X547244D01*
Y250492D01*
X539370D02*
X547244D01*
X515748Y245571D02*
Y250492D01*
X507874D02*
X515748D01*
X507874Y245571D02*
Y250492D01*
Y245571D02*
X515748D01*
X349902Y175197D02*
X354823D01*
Y183071D01*
X349902D02*
X354823D01*
X349902Y175197D02*
Y183071D01*
X324311Y175197D02*
X329232D01*
Y183071D01*
X324311D02*
X329232D01*
X324311Y175197D02*
Y183071D01*
X302658Y161417D02*
X307579D01*
Y169291D01*
X302658D02*
X307579D01*
X302658Y161417D02*
Y169291D01*
X237697Y161417D02*
X242618D01*
Y169291D01*
X237697D02*
X242618D01*
X237697Y161417D02*
Y169291D01*
X261319Y316929D02*
X266240D01*
Y324803D01*
X261319D02*
X266240D01*
X261319Y316929D02*
Y324803D01*
X206988Y366142D02*
X211910D01*
Y374016D01*
X206988D02*
X211910D01*
X206988Y366142D02*
Y374016D01*
X233760Y316929D02*
X238681D01*
Y324803D01*
X233760D02*
X238681D01*
X233760Y316929D02*
Y324803D01*
X271949Y366142D02*
X276870D01*
Y374016D01*
X271949D02*
X276870D01*
X271949Y366142D02*
Y374016D01*
X750000Y224410D02*
X756299D01*
X750000D02*
Y227559D01*
X756299D01*
Y224410D02*
Y227559D01*
X925591Y224803D02*
X931890D01*
X925591D02*
Y227953D01*
X931890D01*
Y224803D02*
Y227953D01*
X750000Y229528D02*
X756299D01*
X750000D02*
Y232677D01*
X756299D01*
Y229528D02*
Y232677D01*
X925591Y229921D02*
X931890D01*
X925591D02*
Y233071D01*
X931890D01*
Y229921D02*
Y233071D01*
X750000Y239370D02*
X756299D01*
X750000D02*
Y242520D01*
X756299D01*
Y239370D02*
Y242520D01*
X925591Y241732D02*
X931890D01*
X925591D02*
Y244882D01*
X931890D01*
Y241732D02*
Y244882D01*
X750000Y247638D02*
X756299D01*
Y244488D02*
Y247638D01*
X750000Y244488D02*
X756299D01*
X750000D02*
Y247638D01*
X925591Y250000D02*
X931890D01*
Y246850D02*
Y250000D01*
X925591Y246850D02*
X931890D01*
X925591D02*
Y250000D01*
X750000Y249606D02*
X756299D01*
X750000D02*
Y252756D01*
X756299D01*
Y249606D02*
Y252756D01*
X925591Y251969D02*
X931890D01*
X925591D02*
Y255118D01*
X931890D01*
Y251969D02*
Y255118D01*
X734252Y261417D02*
X740551D01*
Y258268D02*
Y261417D01*
X734252Y258268D02*
X740551D01*
X734252D02*
Y261417D01*
X911417Y263386D02*
X917717D01*
Y260236D02*
Y263386D01*
X911417Y260236D02*
X917717D01*
X911417D02*
Y263386D01*
X724409Y269291D02*
X730709D01*
Y266142D02*
Y269291D01*
X724409Y266142D02*
X730709D01*
X724409D02*
Y269291D01*
X902362D02*
X908661D01*
Y266142D02*
Y269291D01*
X902362Y266142D02*
X908661D01*
X902362D02*
Y269291D01*
X714961Y298228D02*
Y308071D01*
X702362D02*
X714961D01*
X702362Y298228D02*
Y308071D01*
Y298228D02*
X714961D01*
X888189D02*
Y308071D01*
X875591D02*
X888189D01*
X875591Y298228D02*
Y308071D01*
Y298228D02*
X888189D01*
D12*
X167961Y362205D02*
X177961D01*
X129921D02*
X139921D01*
X139969Y356693D02*
Y367717D01*
Y356693D02*
X167961D01*
Y367717D01*
X139969D02*
X167961D01*
X686614Y56102D02*
X881102D01*
X686614Y-16339D02*
Y56102D01*
Y-16339D02*
X881102D01*
Y56102D01*
X351575Y49331D02*
X511417D01*
Y-17598D02*
Y49331D01*
X351575Y-17598D02*
X511417D01*
X351575D02*
Y49331D01*
D115*
X245433Y190354D02*
X299370D01*
Y140354D02*
Y190354D01*
X245433Y140354D02*
X299370D01*
X245433D02*
Y190354D01*
X222598Y378953D02*
X269843D01*
Y344764D02*
Y378953D01*
X222598Y344764D02*
X269843D01*
X222598D02*
Y378953D01*
M02*
