G04*
G04 #@! TF.GenerationSoftware,Altium Limited,Altium Designer,23.11.1 (41)*
G04*
G04 Layer_Physical_Order=4*
G04 Layer_Color=16711680*
%FSLAX25Y25*%
%MOIN*%
G70*
G04*
G04 #@! TF.SameCoordinates,3E60C5BA-0C76-47EE-A8DA-6B49124F06CB*
G04*
G04*
G04 #@! TF.FilePolarity,Positive*
G04*
G01*
G75*
%ADD14C,0.01000*%
%ADD29R,0.03543X0.05709*%
%ADD30R,0.10630X0.04331*%
%ADD31R,0.03937X0.03150*%
%ADD32R,0.03150X0.03937*%
%ADD40R,0.07087X0.05197*%
%ADD44R,0.03701X0.02126*%
%ADD45R,0.02126X0.03701*%
%ADD97C,0.02016*%
%ADD98C,0.01500*%
%ADD100C,0.05965*%
%ADD101C,0.01083*%
%ADD102C,0.04724*%
%ADD103R,0.04724X0.04724*%
%ADD104R,0.07087X0.07087*%
%ADD105C,0.07087*%
%ADD106C,0.06791*%
%ADD107R,0.06791X0.06791*%
%ADD108C,0.06496*%
%ADD109R,0.06496X0.06496*%
%ADD110C,0.21260*%
%ADD111C,0.05906*%
%ADD112R,0.05906X0.05906*%
%ADD113C,0.19685*%
%ADD114C,0.01772*%
G36*
X269685Y274758D02*
X141339D01*
X140753Y274641D01*
X140257Y274310D01*
X132929Y266982D01*
X132332Y267142D01*
X131447D01*
X130592Y266913D01*
X129825Y266470D01*
X129199Y265844D01*
X128757Y265077D01*
X128528Y264222D01*
Y263337D01*
X128757Y262482D01*
X129199Y261715D01*
X129825Y261089D01*
X130592Y260647D01*
X131447Y260417D01*
X132332D01*
X133187Y260647D01*
X133954Y261089D01*
X134580Y261715D01*
X135023Y262482D01*
X135252Y263337D01*
Y264222D01*
X135092Y264819D01*
X141972Y271699D01*
X269685D01*
Y244687D01*
X268260Y243262D01*
X164255D01*
X156258Y251259D01*
X156258Y251259D01*
X154777Y252740D01*
X154937Y253337D01*
Y254222D01*
X154708Y255077D01*
X154265Y255844D01*
X153639Y256470D01*
X152873Y256913D01*
X152017Y257142D01*
X151132D01*
X150277Y256913D01*
X149510Y256470D01*
X148884Y255844D01*
X148442Y255077D01*
X148213Y254222D01*
Y253337D01*
X148442Y252482D01*
X148884Y251715D01*
X149510Y251089D01*
X150277Y250646D01*
X151132Y250417D01*
X152017D01*
X152614Y250577D01*
X154095Y249096D01*
X162541Y240651D01*
X163037Y240319D01*
X163622Y240203D01*
X191356D01*
X191563Y239703D01*
X191315Y239454D01*
X191028Y238761D01*
Y238011D01*
X191315Y237318D01*
X191845Y236787D01*
X192538Y236500D01*
X193289D01*
X193982Y236787D01*
X194512Y237318D01*
X194799Y238011D01*
Y238761D01*
X194512Y239454D01*
X194263Y239703D01*
X194470Y240203D01*
X199481D01*
X199538Y240103D01*
X199634Y239703D01*
X199189Y239257D01*
X198953Y238689D01*
X202622D01*
X202386Y239257D01*
X201940Y239703D01*
X202036Y240103D01*
X202094Y240203D01*
X268893D01*
X269185Y240261D01*
X269685Y239902D01*
Y1969D01*
X1969D01*
Y391732D01*
X269685D01*
Y274758D01*
D02*
G37*
G36*
X905118Y220472D02*
X873622D01*
Y251969D01*
X905118D01*
Y220472D01*
D02*
G37*
G36*
X728740D02*
X697244D01*
Y251969D01*
X728740D01*
Y220472D01*
D02*
G37*
G36*
X517717Y17717D02*
X285433D01*
Y207480D01*
X287285D01*
X287402Y207457D01*
X492126D01*
X492242Y207480D01*
X517717D01*
Y17717D01*
D02*
G37*
%LPC*%
G36*
X143717Y385842D02*
X140264D01*
Y382390D01*
X143717D01*
Y385842D01*
D02*
G37*
G36*
X139264D02*
X135811D01*
Y382390D01*
X139264D01*
Y385842D01*
D02*
G37*
G36*
X143717Y381390D02*
X140264D01*
Y377937D01*
X143717D01*
Y381390D01*
D02*
G37*
G36*
X139264D02*
X135811D01*
Y377937D01*
X139264D01*
Y381390D01*
D02*
G37*
G36*
X130284Y385842D02*
X129243D01*
X128238Y385573D01*
X127337Y385053D01*
X126601Y384317D01*
X126080Y383416D01*
X125811Y382410D01*
Y381369D01*
X126080Y380364D01*
X126601Y379463D01*
X127337Y378727D01*
X128238Y378206D01*
X129243Y377937D01*
X130284D01*
X131290Y378206D01*
X132191Y378727D01*
X132927Y379463D01*
X133447Y380364D01*
X133716Y381369D01*
Y382410D01*
X133447Y383416D01*
X132927Y384317D01*
X132191Y385053D01*
X131290Y385573D01*
X130284Y385842D01*
D02*
G37*
G36*
X246819Y378559D02*
X246721D01*
Y374516D01*
X250764D01*
Y374614D01*
X250454Y375769D01*
X249856Y376805D01*
X249010Y377651D01*
X247974Y378249D01*
X246819Y378559D01*
D02*
G37*
G36*
X245721D02*
X245622D01*
X244467Y378249D01*
X243431Y377651D01*
X242585Y376805D01*
X241987Y375769D01*
X241677Y374614D01*
Y374516D01*
X245721D01*
Y378559D01*
D02*
G37*
G36*
X256819D02*
X255622D01*
X254467Y378249D01*
X253431Y377651D01*
X252585Y376805D01*
X251987Y375769D01*
X251677Y374614D01*
Y373418D01*
X251987Y372262D01*
X252585Y371226D01*
X253431Y370380D01*
X254467Y369782D01*
X255622Y369472D01*
X256819D01*
X257974Y369782D01*
X259010Y370380D01*
X259856Y371226D01*
X260454Y372262D01*
X260764Y373418D01*
Y374614D01*
X260454Y375769D01*
X259856Y376805D01*
X259010Y377651D01*
X257974Y378249D01*
X256819Y378559D01*
D02*
G37*
G36*
X240764D02*
X231677D01*
Y369472D01*
X240764D01*
Y378559D01*
D02*
G37*
G36*
X16601Y388795D02*
X14895D01*
X13209Y388528D01*
X11586Y388001D01*
X10065Y387226D01*
X8685Y386223D01*
X7478Y385016D01*
X6475Y383635D01*
X5700Y382115D01*
X5173Y380492D01*
X4905Y378806D01*
Y377099D01*
X5173Y375414D01*
X5700Y373791D01*
X6475Y372270D01*
X7478Y370889D01*
X8685Y369683D01*
X10065Y368679D01*
X11586Y367905D01*
X13209Y367377D01*
X14895Y367110D01*
X16601D01*
X18287Y367377D01*
X19910Y367905D01*
X21431Y368679D01*
X22812Y369683D01*
X24018Y370889D01*
X25021Y372270D01*
X25796Y373791D01*
X26324Y375414D01*
X26591Y377099D01*
Y378806D01*
X26324Y380492D01*
X25796Y382115D01*
X25021Y383635D01*
X24018Y385016D01*
X22812Y386223D01*
X21431Y387226D01*
X19910Y388001D01*
X18287Y388528D01*
X16601Y388795D01*
D02*
G37*
G36*
X178445Y366187D02*
X177397D01*
X176384Y365916D01*
X175476Y365391D01*
X174735Y364650D01*
X174210Y363742D01*
X173939Y362729D01*
Y361680D01*
X174210Y360668D01*
X174735Y359759D01*
X175476Y359018D01*
X176384Y358494D01*
X177397Y358222D01*
X178445D01*
X179458Y358494D01*
X180366Y359018D01*
X181108Y359759D01*
X181632Y360668D01*
X181904Y361680D01*
Y362729D01*
X181632Y363742D01*
X181108Y364650D01*
X180366Y365391D01*
X179458Y365916D01*
X178445Y366187D01*
D02*
G37*
G36*
X130446D02*
X129397D01*
X128384Y365916D01*
X127476Y365391D01*
X126735Y364650D01*
X126210Y363742D01*
X125939Y362729D01*
Y361680D01*
X126210Y360668D01*
X126735Y359759D01*
X127476Y359018D01*
X128384Y358494D01*
X129397Y358222D01*
X130446D01*
X131458Y358494D01*
X132366Y359018D01*
X133108Y359759D01*
X133632Y360668D01*
X133904Y361680D01*
Y362729D01*
X133632Y363742D01*
X133108Y364650D01*
X132366Y365391D01*
X131458Y365916D01*
X130446Y366187D01*
D02*
G37*
G36*
X264155Y326689D02*
X263404D01*
X262711Y326402D01*
X262181Y325871D01*
X261894Y325178D01*
Y324428D01*
X262181Y323735D01*
X262711Y323204D01*
X263404Y322917D01*
X264155D01*
X264848Y323204D01*
X265378Y323735D01*
X265665Y324428D01*
Y325178D01*
X265378Y325871D01*
X264848Y326402D01*
X264155Y326689D01*
D02*
G37*
G36*
X236596D02*
X235845D01*
X235152Y326402D01*
X234622Y325871D01*
X234335Y325178D01*
Y324428D01*
X234622Y323735D01*
X235152Y323204D01*
X235845Y322917D01*
X236596D01*
X237289Y323204D01*
X237819Y323735D01*
X238106Y324428D01*
Y325178D01*
X237819Y325871D01*
X237289Y326402D01*
X236596Y326689D01*
D02*
G37*
G36*
X250764Y373516D02*
X241677D01*
Y373418D01*
X241987Y372262D01*
X242585Y371226D01*
X243431Y370380D01*
X244193Y369940D01*
Y324721D01*
X243488D01*
Y321366D01*
X246260D01*
X249031D01*
Y324721D01*
X248287D01*
Y369963D01*
X249010Y370380D01*
X249856Y371226D01*
X250454Y372262D01*
X250764Y373418D01*
Y373516D01*
D02*
G37*
G36*
X16753Y324917D02*
X15924D01*
X15159Y324600D01*
X14573Y324014D01*
X14256Y323249D01*
Y322420D01*
X14573Y321655D01*
X15159Y321069D01*
X15924Y320752D01*
X16753D01*
X17518Y321069D01*
X18104Y321655D01*
X18421Y322420D01*
Y323249D01*
X18104Y324014D01*
X17518Y324600D01*
X16753Y324917D01*
D02*
G37*
G36*
X264280Y318763D02*
Y317429D01*
X265614D01*
X265378Y317997D01*
X264848Y318528D01*
X264280Y318763D01*
D02*
G37*
G36*
X263280D02*
X262711Y318528D01*
X262181Y317997D01*
X261945Y317429D01*
X263280D01*
Y318763D01*
D02*
G37*
G36*
X256512Y324721D02*
X250969D01*
Y317012D01*
X256512D01*
Y324721D01*
D02*
G37*
G36*
X249031Y320366D02*
X246760D01*
Y317012D01*
X249031D01*
Y320366D01*
D02*
G37*
G36*
X245760D02*
X243488D01*
Y317012D01*
X245760D01*
Y320366D01*
D02*
G37*
G36*
X265614Y316429D02*
X264280D01*
Y315095D01*
X264848Y315330D01*
X265378Y315861D01*
X265614Y316429D01*
D02*
G37*
G36*
X263280D02*
X261945D01*
X262181Y315861D01*
X262711Y315330D01*
X263280Y315095D01*
Y316429D01*
D02*
G37*
G36*
X114733Y319524D02*
X113614D01*
X112533Y319234D01*
X111565Y318675D01*
X110774Y317884D01*
X110215Y316915D01*
X109925Y315835D01*
Y314716D01*
X110215Y313636D01*
X110774Y312667D01*
X111565Y311876D01*
X112533Y311317D01*
X113614Y311028D01*
X114733D01*
X115813Y311317D01*
X116782Y311876D01*
X117572Y312667D01*
X118132Y313636D01*
X118421Y314716D01*
Y315835D01*
X118132Y316915D01*
X117572Y317884D01*
X116782Y318675D01*
X115813Y319234D01*
X114733Y319524D01*
D02*
G37*
G36*
X91110D02*
X89992D01*
X88911Y319234D01*
X87943Y318675D01*
X87152Y317884D01*
X86593Y316915D01*
X86303Y315835D01*
Y314716D01*
X86593Y313636D01*
X87152Y312667D01*
X87943Y311876D01*
X88911Y311317D01*
X89992Y311028D01*
X91110D01*
X92191Y311317D01*
X93160Y311876D01*
X93950Y312667D01*
X94510Y313636D01*
X94799Y314716D01*
Y315835D01*
X94510Y316915D01*
X93950Y317884D01*
X93160Y318675D01*
X92191Y319234D01*
X91110Y319524D01*
D02*
G37*
G36*
X75362D02*
X74244D01*
X73163Y319234D01*
X72195Y318675D01*
X71404Y317884D01*
X70845Y316915D01*
X70555Y315835D01*
Y314716D01*
X70845Y313636D01*
X71404Y312667D01*
X72195Y311876D01*
X73163Y311317D01*
X74244Y311028D01*
X75362D01*
X76443Y311317D01*
X77412Y311876D01*
X78202Y312667D01*
X78762Y313636D01*
X79051Y314716D01*
Y315835D01*
X78762Y316915D01*
X78202Y317884D01*
X77412Y318675D01*
X76443Y319234D01*
X75362Y319524D01*
D02*
G37*
G36*
X59614D02*
X58496D01*
X57415Y319234D01*
X56447Y318675D01*
X55656Y317884D01*
X55097Y316915D01*
X54807Y315835D01*
Y314716D01*
X55097Y313636D01*
X55656Y312667D01*
X56447Y311876D01*
X57415Y311317D01*
X58496Y311028D01*
X59614D01*
X60695Y311317D01*
X61664Y311876D01*
X62454Y312667D01*
X63014Y313636D01*
X63303Y314716D01*
Y315835D01*
X63014Y316915D01*
X62454Y317884D01*
X61664Y318675D01*
X60695Y319234D01*
X59614Y319524D01*
D02*
G37*
G36*
X183571Y306952D02*
Y305618D01*
X184905D01*
X184670Y306186D01*
X184139Y306717D01*
X183571Y306952D01*
D02*
G37*
G36*
X182571D02*
X182003Y306717D01*
X181472Y306186D01*
X181237Y305618D01*
X182571D01*
Y306952D01*
D02*
G37*
G36*
X16753Y309169D02*
X15924D01*
X15159Y308852D01*
X14573Y308266D01*
X14256Y307501D01*
Y306672D01*
X14573Y305907D01*
X15159Y305321D01*
X15924Y305004D01*
X16753D01*
X17518Y305321D01*
X18104Y305907D01*
X18421Y306672D01*
Y307501D01*
X18104Y308266D01*
X17518Y308852D01*
X16753Y309169D01*
D02*
G37*
G36*
X184905Y304618D02*
X183571D01*
Y303284D01*
X184139Y303519D01*
X184670Y304050D01*
X184905Y304618D01*
D02*
G37*
G36*
X182571D02*
X181237D01*
X181472Y304050D01*
X182003Y303519D01*
X182571Y303284D01*
Y304618D01*
D02*
G37*
G36*
X114733Y309524D02*
X113614D01*
X112533Y309234D01*
X111565Y308675D01*
X110774Y307884D01*
X110215Y306915D01*
X109925Y305835D01*
Y304716D01*
X110215Y303636D01*
X110774Y302667D01*
X111565Y301876D01*
X112533Y301317D01*
X113614Y301028D01*
X114733D01*
X115813Y301317D01*
X116782Y301876D01*
X117572Y302667D01*
X118132Y303636D01*
X118421Y304716D01*
Y305835D01*
X118132Y306915D01*
X117572Y307884D01*
X116782Y308675D01*
X115813Y309234D01*
X114733Y309524D01*
D02*
G37*
G36*
X91110D02*
X89992D01*
X88911Y309234D01*
X87943Y308675D01*
X87152Y307884D01*
X86593Y306915D01*
X86303Y305835D01*
Y304716D01*
X86593Y303636D01*
X87152Y302667D01*
X87943Y301876D01*
X88911Y301317D01*
X89992Y301028D01*
X91110D01*
X92191Y301317D01*
X93160Y301876D01*
X93950Y302667D01*
X94510Y303636D01*
X94799Y304716D01*
Y305835D01*
X94510Y306915D01*
X93950Y307884D01*
X93160Y308675D01*
X92191Y309234D01*
X91110Y309524D01*
D02*
G37*
G36*
X75362D02*
X74244D01*
X73163Y309234D01*
X72195Y308675D01*
X71404Y307884D01*
X70845Y306915D01*
X70555Y305835D01*
Y304716D01*
X70845Y303636D01*
X71404Y302667D01*
X72195Y301876D01*
X73163Y301317D01*
X74244Y301028D01*
X75362D01*
X76443Y301317D01*
X77412Y301876D01*
X78202Y302667D01*
X78762Y303636D01*
X79051Y304716D01*
Y305835D01*
X78762Y306915D01*
X78202Y307884D01*
X77412Y308675D01*
X76443Y309234D01*
X75362Y309524D01*
D02*
G37*
G36*
X59614D02*
X58496D01*
X57415Y309234D01*
X56447Y308675D01*
X55656Y307884D01*
X55097Y306915D01*
X54807Y305835D01*
Y304716D01*
X55097Y303636D01*
X55656Y302667D01*
X56447Y301876D01*
X57415Y301317D01*
X58496Y301028D01*
X59614D01*
X60695Y301317D01*
X61664Y301876D01*
X62454Y302667D01*
X63014Y303636D01*
X63303Y304716D01*
Y305835D01*
X63014Y306915D01*
X62454Y307884D01*
X61664Y308675D01*
X60695Y309234D01*
X59614Y309524D01*
D02*
G37*
G36*
X118421Y299524D02*
X114673D01*
Y295776D01*
X118421D01*
Y299524D01*
D02*
G37*
G36*
X94799D02*
X91051D01*
Y295776D01*
X94799D01*
Y299524D01*
D02*
G37*
G36*
X79051D02*
X75303D01*
Y295776D01*
X79051D01*
Y299524D01*
D02*
G37*
G36*
X63303D02*
X59555D01*
Y295776D01*
X63303D01*
Y299524D01*
D02*
G37*
G36*
X113673D02*
X109925D01*
Y295776D01*
X113673D01*
Y299524D01*
D02*
G37*
G36*
X90051D02*
X86303D01*
Y295776D01*
X90051D01*
Y299524D01*
D02*
G37*
G36*
X74303D02*
X70555D01*
Y295776D01*
X74303D01*
Y299524D01*
D02*
G37*
G36*
X58555D02*
X54807D01*
Y295776D01*
X58555D01*
Y299524D01*
D02*
G37*
G36*
X22153Y297110D02*
Y295776D01*
X23488D01*
X23252Y296344D01*
X22722Y296874D01*
X22153Y297110D01*
D02*
G37*
G36*
X21154D02*
X20585Y296874D01*
X20055Y296344D01*
X19819Y295776D01*
X21154D01*
Y297110D01*
D02*
G37*
G36*
X23488Y294776D02*
X22153D01*
Y293442D01*
X22722Y293677D01*
X23252Y294207D01*
X23488Y294776D01*
D02*
G37*
G36*
X21154D02*
X19819D01*
X20055Y294207D01*
X20585Y293677D01*
X21154Y293442D01*
Y294776D01*
D02*
G37*
G36*
X118421Y294776D02*
X114673D01*
Y291028D01*
X118421D01*
Y294776D01*
D02*
G37*
G36*
X113673D02*
X109925D01*
Y291028D01*
X113673D01*
Y294776D01*
D02*
G37*
G36*
X94799D02*
X91051D01*
Y291028D01*
X94799D01*
Y294776D01*
D02*
G37*
G36*
X90051D02*
X86303D01*
Y291028D01*
X90051D01*
Y294776D01*
D02*
G37*
G36*
X79051D02*
X75303D01*
Y291028D01*
X79051D01*
Y294776D01*
D02*
G37*
G36*
X74303D02*
X70555D01*
Y291028D01*
X74303D01*
Y294776D01*
D02*
G37*
G36*
X63303D02*
X59555D01*
Y291028D01*
X63303D01*
Y294776D01*
D02*
G37*
G36*
X58555D02*
X54807D01*
Y291028D01*
X58555D01*
Y294776D01*
D02*
G37*
G36*
X181602Y267126D02*
Y264280D01*
X184449D01*
X184235Y265077D01*
X183793Y265844D01*
X183167Y266470D01*
X182400Y266913D01*
X181602Y267126D01*
D02*
G37*
G36*
X180602Y267126D02*
X179805Y266913D01*
X179038Y266470D01*
X178412Y265844D01*
X177969Y265077D01*
X177755Y264280D01*
X180602D01*
Y267126D01*
D02*
G37*
G36*
X122547Y267126D02*
Y264280D01*
X125394D01*
X125180Y265077D01*
X124738Y265844D01*
X124112Y266470D01*
X123345Y266913D01*
X122547Y267126D01*
D02*
G37*
G36*
X121547D02*
X120749Y266913D01*
X119983Y266470D01*
X119357Y265844D01*
X118914Y265077D01*
X118700Y264280D01*
X121547D01*
Y267126D01*
D02*
G37*
G36*
X180602Y263280D02*
X177755D01*
X177969Y262482D01*
X178412Y261715D01*
X179038Y261089D01*
X179805Y260647D01*
X180602Y260433D01*
Y263280D01*
D02*
G37*
G36*
X121547Y263280D02*
X118700D01*
X118914Y262482D01*
X119357Y261715D01*
X119983Y261089D01*
X120749Y260647D01*
X121547Y260433D01*
Y263280D01*
D02*
G37*
G36*
X125394D02*
X122547D01*
Y260433D01*
X123345Y260647D01*
X124112Y261089D01*
X124738Y261715D01*
X125180Y262482D01*
X125394Y263280D01*
D02*
G37*
G36*
X184449Y263280D02*
X181602D01*
Y260433D01*
X182400Y260647D01*
X183167Y261089D01*
X183793Y261715D01*
X184235Y262482D01*
X184449Y263280D01*
D02*
G37*
G36*
X211073Y267142D02*
X210187D01*
X209332Y266913D01*
X208565Y266470D01*
X207940Y265844D01*
X207497Y265077D01*
X207268Y264222D01*
Y263337D01*
X207497Y262482D01*
X207940Y261715D01*
X208565Y261089D01*
X209332Y260647D01*
X210187Y260417D01*
X211073D01*
X211928Y260647D01*
X212694Y261089D01*
X213320Y261715D01*
X213763Y262482D01*
X213992Y263337D01*
Y264222D01*
X213763Y265077D01*
X213320Y265844D01*
X212694Y266470D01*
X211928Y266913D01*
X211073Y267142D01*
D02*
G37*
G36*
X201230D02*
X200345D01*
X199490Y266913D01*
X198723Y266470D01*
X198097Y265844D01*
X197654Y265077D01*
X197425Y264222D01*
Y263337D01*
X197654Y262482D01*
X198097Y261715D01*
X198723Y261089D01*
X199490Y260647D01*
X200345Y260417D01*
X201230D01*
X202085Y260647D01*
X202852Y261089D01*
X203478Y261715D01*
X203921Y262482D01*
X204150Y263337D01*
Y264222D01*
X203921Y265077D01*
X203478Y265844D01*
X202852Y266470D01*
X202085Y266913D01*
X201230Y267142D01*
D02*
G37*
G36*
X191387D02*
X190502D01*
X189647Y266913D01*
X188880Y266470D01*
X188254Y265844D01*
X187812Y265077D01*
X187583Y264222D01*
Y263337D01*
X187812Y262482D01*
X188254Y261715D01*
X188880Y261089D01*
X189647Y260647D01*
X190502Y260417D01*
X191387D01*
X192243Y260647D01*
X193009Y261089D01*
X193635Y261715D01*
X194078Y262482D01*
X194307Y263337D01*
Y264222D01*
X194078Y265077D01*
X193635Y265844D01*
X193009Y266470D01*
X192243Y266913D01*
X191387Y267142D01*
D02*
G37*
G36*
X171703D02*
X170817D01*
X169962Y266913D01*
X169195Y266470D01*
X168569Y265844D01*
X168127Y265077D01*
X167898Y264222D01*
Y263337D01*
X168127Y262482D01*
X168569Y261715D01*
X169195Y261089D01*
X169962Y260647D01*
X170817Y260417D01*
X171703D01*
X172558Y260647D01*
X173324Y261089D01*
X173950Y261715D01*
X174393Y262482D01*
X174622Y263337D01*
Y264222D01*
X174393Y265077D01*
X173950Y265844D01*
X173324Y266470D01*
X172558Y266913D01*
X171703Y267142D01*
D02*
G37*
G36*
X161860D02*
X160975D01*
X160120Y266913D01*
X159353Y266470D01*
X158727Y265844D01*
X158284Y265077D01*
X158055Y264222D01*
Y263337D01*
X158284Y262482D01*
X158727Y261715D01*
X159353Y261089D01*
X160120Y260647D01*
X160975Y260417D01*
X161860D01*
X162715Y260647D01*
X163482Y261089D01*
X164108Y261715D01*
X164550Y262482D01*
X164779Y263337D01*
Y264222D01*
X164550Y265077D01*
X164108Y265844D01*
X163482Y266470D01*
X162715Y266913D01*
X161860Y267142D01*
D02*
G37*
G36*
X152017D02*
X151132D01*
X150277Y266913D01*
X149510Y266470D01*
X148884Y265844D01*
X148442Y265077D01*
X148213Y264222D01*
Y263337D01*
X148442Y262482D01*
X148884Y261715D01*
X149510Y261089D01*
X150277Y260647D01*
X151132Y260417D01*
X152017D01*
X152873Y260647D01*
X153639Y261089D01*
X154265Y261715D01*
X154708Y262482D01*
X154937Y263337D01*
Y264222D01*
X154708Y265077D01*
X154265Y265844D01*
X153639Y266470D01*
X152873Y266913D01*
X152017Y267142D01*
D02*
G37*
G36*
X142175D02*
X141290D01*
X140435Y266913D01*
X139668Y266470D01*
X139042Y265844D01*
X138599Y265077D01*
X138370Y264222D01*
Y263337D01*
X138599Y262482D01*
X139042Y261715D01*
X139668Y261089D01*
X140435Y260647D01*
X141290Y260417D01*
X142175D01*
X143030Y260647D01*
X143797Y261089D01*
X144423Y261715D01*
X144865Y262482D01*
X145095Y263337D01*
Y264222D01*
X144865Y265077D01*
X144423Y265844D01*
X143797Y266470D01*
X143030Y266913D01*
X142175Y267142D01*
D02*
G37*
G36*
X73277D02*
X72392D01*
X71537Y266913D01*
X70770Y266470D01*
X70144Y265844D01*
X69702Y265077D01*
X69472Y264222D01*
Y263337D01*
X69702Y262482D01*
X70144Y261715D01*
X70770Y261089D01*
X71537Y260647D01*
X72392Y260417D01*
X73277D01*
X74132Y260647D01*
X74899Y261089D01*
X75525Y261715D01*
X75968Y262482D01*
X76197Y263337D01*
Y264222D01*
X75968Y265077D01*
X75525Y265844D01*
X74899Y266470D01*
X74132Y266913D01*
X73277Y267142D01*
D02*
G37*
G36*
X63435D02*
X62550D01*
X61694Y266913D01*
X60928Y266470D01*
X60302Y265844D01*
X59859Y265077D01*
X59630Y264222D01*
Y263337D01*
X59859Y262482D01*
X60302Y261715D01*
X60928Y261089D01*
X61694Y260647D01*
X62550Y260417D01*
X63435D01*
X64290Y260647D01*
X65057Y261089D01*
X65683Y261715D01*
X66125Y262482D01*
X66354Y263337D01*
Y264222D01*
X66125Y265077D01*
X65683Y265844D01*
X65057Y266470D01*
X64290Y266913D01*
X63435Y267142D01*
D02*
G37*
G36*
X53592D02*
X52707D01*
X51852Y266913D01*
X51085Y266470D01*
X50459Y265844D01*
X50016Y265077D01*
X49787Y264222D01*
Y263337D01*
X50016Y262482D01*
X50459Y261715D01*
X51085Y261089D01*
X51852Y260647D01*
X52707Y260417D01*
X53592D01*
X54447Y260647D01*
X55214Y261089D01*
X55840Y261715D01*
X56283Y262482D01*
X56512Y263337D01*
Y264222D01*
X56283Y265077D01*
X55840Y265844D01*
X55214Y266470D01*
X54447Y266913D01*
X53592Y267142D01*
D02*
G37*
G36*
X43750D02*
X42864D01*
X42009Y266913D01*
X41243Y266470D01*
X40617Y265844D01*
X40174Y265077D01*
X39945Y264222D01*
Y263337D01*
X40174Y262482D01*
X40617Y261715D01*
X41243Y261089D01*
X42009Y260647D01*
X42864Y260417D01*
X43750D01*
X44605Y260647D01*
X45371Y261089D01*
X45998Y261715D01*
X46440Y262482D01*
X46669Y263337D01*
Y264222D01*
X46440Y265077D01*
X45998Y265844D01*
X45371Y266470D01*
X44605Y266913D01*
X43750Y267142D01*
D02*
G37*
G36*
X33907D02*
X33022D01*
X32167Y266913D01*
X31400Y266470D01*
X30774Y265844D01*
X30332Y265077D01*
X30102Y264222D01*
Y263337D01*
X30332Y262482D01*
X30774Y261715D01*
X31400Y261089D01*
X32167Y260647D01*
X33022Y260417D01*
X33907D01*
X34762Y260647D01*
X35529Y261089D01*
X36155Y261715D01*
X36598Y262482D01*
X36827Y263337D01*
Y264222D01*
X36598Y265077D01*
X36155Y265844D01*
X35529Y266470D01*
X34762Y266913D01*
X33907Y267142D01*
D02*
G37*
G36*
X27934Y320094D02*
X27184D01*
X26491Y319807D01*
X25960Y319277D01*
X25673Y318584D01*
Y317834D01*
X25960Y317140D01*
X26491Y316610D01*
X26667Y316537D01*
X26780Y316240D01*
X26667Y315944D01*
X26491Y315870D01*
X25960Y315340D01*
X25673Y314647D01*
Y313896D01*
X25960Y313203D01*
X26491Y312673D01*
X27184Y312386D01*
X27934D01*
X28627Y312673D01*
X29131Y313176D01*
X33513D01*
X45239Y301450D01*
Y288410D01*
X45375Y287727D01*
X45762Y287148D01*
X54437Y278472D01*
X54437Y278472D01*
X55016Y278086D01*
X55699Y277950D01*
X72506D01*
X82814Y267642D01*
X82607Y267142D01*
X82235D01*
X81379Y266913D01*
X80613Y266470D01*
X79987Y265844D01*
X79544Y265077D01*
X79315Y264222D01*
Y263337D01*
X79544Y262482D01*
X79987Y261715D01*
X80613Y261089D01*
X81379Y260647D01*
X82235Y260417D01*
X83120D01*
X83975Y260647D01*
X84742Y261089D01*
X85368Y261715D01*
X85810Y262482D01*
X85813Y262494D01*
X86403Y262611D01*
X86981Y262998D01*
X87598Y263615D01*
X88215Y262998D01*
X88794Y262611D01*
X89383Y262494D01*
X89387Y262482D01*
X89829Y261715D01*
X90455Y261089D01*
X91145Y260691D01*
X91145Y260433D01*
X91057Y260191D01*
X87559D01*
X86974Y260074D01*
X86478Y259743D01*
X83717Y256982D01*
X83120Y257142D01*
X82235D01*
X81379Y256913D01*
X80613Y256470D01*
X79987Y255844D01*
X79544Y255077D01*
X79315Y254222D01*
Y253337D01*
X79544Y252482D01*
X79987Y251715D01*
X80613Y251089D01*
X81379Y250646D01*
X82235Y250417D01*
X83120D01*
X83975Y250646D01*
X84742Y251089D01*
X85368Y251715D01*
X85810Y252482D01*
X86039Y253337D01*
Y254222D01*
X85879Y254819D01*
X88193Y257132D01*
X90602D01*
X90736Y256632D01*
X90455Y256470D01*
X89829Y255844D01*
X89387Y255077D01*
X89157Y254222D01*
Y253337D01*
X89387Y252482D01*
X89829Y251715D01*
X90455Y251089D01*
X90990Y250780D01*
Y228346D01*
X91107Y227761D01*
X91438Y227265D01*
X231904Y86799D01*
X231825Y86504D01*
Y85347D01*
X232124Y84228D01*
X232703Y83226D01*
X233522Y82408D01*
X234524Y81829D01*
X235642Y81529D01*
X236799D01*
X237917Y81829D01*
X238919Y82408D01*
X239738Y83226D01*
X240317Y84228D01*
X240616Y85347D01*
Y86504D01*
X240317Y87622D01*
X239738Y88624D01*
X238919Y89443D01*
X237917Y90021D01*
X236799Y90321D01*
X235642D01*
X234524Y90021D01*
X233563Y89466D01*
X187062Y135967D01*
X187253Y136429D01*
X187507D01*
X188092Y136545D01*
X188588Y136877D01*
X190129Y138417D01*
X231871Y96675D01*
X231825Y96504D01*
Y95346D01*
X232124Y94229D01*
X232703Y93226D01*
X233522Y92408D01*
X234524Y91829D01*
X235642Y91530D01*
X236799D01*
X237917Y91829D01*
X238919Y92408D01*
X239738Y93226D01*
X240317Y94229D01*
X240616Y95346D01*
Y96504D01*
X240317Y97622D01*
X239738Y98624D01*
X238919Y99443D01*
X237917Y100021D01*
X236799Y100321D01*
X235642D01*
X234524Y100021D01*
X233522Y99443D01*
X233475Y99396D01*
X192026Y140845D01*
X191662Y141210D01*
X191166Y141541D01*
X190580Y141658D01*
X190124D01*
X189677Y141659D01*
X189653Y142133D01*
Y142585D01*
X189537Y143170D01*
X189205Y143666D01*
X186937Y145934D01*
X186937Y145934D01*
X186121Y146751D01*
X103892Y228980D01*
Y250595D01*
X104246Y250803D01*
X104695Y250550D01*
Y234327D01*
X104811Y233741D01*
X105143Y233245D01*
X231837Y106551D01*
X231825Y106504D01*
Y105347D01*
X232124Y104228D01*
X232703Y103226D01*
X233522Y102408D01*
X234524Y101829D01*
X235642Y101530D01*
X236799D01*
X237917Y101829D01*
X238919Y102408D01*
X239738Y103226D01*
X240317Y104228D01*
X240616Y105347D01*
Y106504D01*
X240317Y107622D01*
X239738Y108624D01*
X238919Y109443D01*
X237917Y110021D01*
X236799Y110321D01*
X235642D01*
X234524Y110021D01*
X233522Y109443D01*
X233397Y109318D01*
X107754Y234960D01*
Y249952D01*
X108216Y250144D01*
X131602Y226757D01*
X131403Y226249D01*
X130822Y226008D01*
X130291Y225478D01*
X130056Y224909D01*
X131890D01*
Y224410D01*
X132390D01*
Y222575D01*
X132958Y222811D01*
X133489Y223341D01*
X133729Y223923D01*
X134238Y224122D01*
X141675Y216684D01*
X142171Y216353D01*
X142756Y216236D01*
X143853D01*
X144070Y216019D01*
X144763Y215732D01*
X145513D01*
X146206Y216019D01*
X146737Y216550D01*
X147024Y217243D01*
Y217862D01*
X147411Y218089D01*
X147486Y218108D01*
X148252Y217341D01*
Y217243D01*
X148539Y216550D01*
X149070Y216019D01*
X149763Y215732D01*
X150513D01*
X151206Y216019D01*
X151736Y216550D01*
X152024Y217243D01*
Y217993D01*
X151736Y218686D01*
X151206Y219217D01*
X150513Y219504D01*
X150415D01*
X117693Y252225D01*
Y271247D01*
X117577Y271832D01*
X117245Y272328D01*
X109207Y280367D01*
Y303787D01*
Y310988D01*
X109090Y311574D01*
X108759Y312070D01*
X106505Y314323D01*
X106610Y314716D01*
Y315835D01*
X106321Y316915D01*
X105762Y317884D01*
X104971Y318675D01*
X104002Y319234D01*
X102921Y319524D01*
X101803D01*
X100723Y319234D01*
X99754Y318675D01*
X98963Y317884D01*
X98404Y316915D01*
X98114Y315835D01*
Y314716D01*
X98404Y313636D01*
X98963Y312667D01*
X99754Y311876D01*
X100723Y311317D01*
X101803Y311028D01*
X102921D01*
X104002Y311317D01*
X104752Y311750D01*
X106148Y310355D01*
Y308158D01*
X105648Y307998D01*
X104971Y308675D01*
X104002Y309234D01*
X102921Y309524D01*
X101803D01*
X100723Y309234D01*
X99754Y308675D01*
X98963Y307884D01*
X98404Y306915D01*
X98114Y305835D01*
Y304716D01*
X98281Y304096D01*
X95966Y301781D01*
X95634Y301285D01*
X95518Y300699D01*
Y280906D01*
X95634Y280320D01*
X95966Y279824D01*
X106738Y269052D01*
Y257682D01*
X106276Y257490D01*
X104024Y259743D01*
X103528Y260074D01*
X103487Y260083D01*
X103470Y260596D01*
X103660Y260647D01*
X104427Y261089D01*
X105053Y261715D01*
X105495Y262482D01*
X105724Y263337D01*
Y264222D01*
X105495Y265077D01*
X105053Y265844D01*
X104427Y266470D01*
X103660Y266913D01*
X102805Y267142D01*
X101920D01*
X101064Y266913D01*
X100298Y266470D01*
X99672Y265844D01*
X99229Y265077D01*
X99000Y264222D01*
Y263337D01*
X99229Y262482D01*
X99672Y261715D01*
X100298Y261089D01*
X100988Y260691D01*
X100987Y260433D01*
X100899Y260191D01*
X93982D01*
X93895Y260433D01*
X93894Y260691D01*
X94584Y261089D01*
X95210Y261715D01*
X95653Y262482D01*
X95882Y263337D01*
Y264222D01*
X95653Y265077D01*
X95210Y265844D01*
X94584Y266470D01*
X93817Y266913D01*
X92962Y267142D01*
X92077D01*
X91222Y266913D01*
X90883Y266717D01*
X90383Y267005D01*
Y267209D01*
X90247Y267892D01*
X89860Y268471D01*
X89860Y268471D01*
X75335Y282996D01*
X74757Y283383D01*
X74074Y283518D01*
X57266D01*
X50807Y289977D01*
Y303018D01*
X50672Y303701D01*
X50285Y304279D01*
X36342Y318222D01*
X35763Y318609D01*
X35080Y318745D01*
X29620D01*
X29207Y319157D01*
X29158Y319277D01*
X28627Y319807D01*
X27934Y320094D01*
D02*
G37*
G36*
X73335Y257126D02*
Y254279D01*
X76182D01*
X75968Y255077D01*
X75525Y255844D01*
X74899Y256470D01*
X74132Y256913D01*
X73335Y257126D01*
D02*
G37*
G36*
X72335D02*
X71537Y256913D01*
X70770Y256470D01*
X70144Y255844D01*
X69702Y255077D01*
X69488Y254279D01*
X72335D01*
Y257126D01*
D02*
G37*
G36*
Y253279D02*
X69488D01*
X69702Y252482D01*
X70144Y251715D01*
X70770Y251089D01*
X71537Y250646D01*
X72335Y250433D01*
Y253279D01*
D02*
G37*
G36*
X76182D02*
X73335D01*
Y250433D01*
X74132Y250646D01*
X74899Y251089D01*
X75525Y251715D01*
X75968Y252482D01*
X76182Y253279D01*
D02*
G37*
G36*
X211073Y257142D02*
X210187D01*
X209332Y256913D01*
X208565Y256470D01*
X207940Y255844D01*
X207497Y255077D01*
X207268Y254222D01*
Y253337D01*
X207497Y252482D01*
X207940Y251715D01*
X208565Y251089D01*
X209332Y250646D01*
X210187Y250417D01*
X211073D01*
X211928Y250646D01*
X212694Y251089D01*
X213320Y251715D01*
X213763Y252482D01*
X213992Y253337D01*
Y254222D01*
X213763Y255077D01*
X213320Y255844D01*
X212694Y256470D01*
X211928Y256913D01*
X211073Y257142D01*
D02*
G37*
G36*
X201230D02*
X200345D01*
X199490Y256913D01*
X198723Y256470D01*
X198097Y255844D01*
X197654Y255077D01*
X197425Y254222D01*
Y253337D01*
X197654Y252482D01*
X198097Y251715D01*
X198723Y251089D01*
X199490Y250646D01*
X200345Y250417D01*
X201230D01*
X202085Y250646D01*
X202852Y251089D01*
X203478Y251715D01*
X203921Y252482D01*
X204150Y253337D01*
Y254222D01*
X203921Y255077D01*
X203478Y255844D01*
X202852Y256470D01*
X202085Y256913D01*
X201230Y257142D01*
D02*
G37*
G36*
X191387D02*
X190502D01*
X189647Y256913D01*
X188880Y256470D01*
X188254Y255844D01*
X187812Y255077D01*
X187583Y254222D01*
Y253337D01*
X187812Y252482D01*
X188254Y251715D01*
X188880Y251089D01*
X189647Y250646D01*
X190502Y250417D01*
X191387D01*
X192243Y250646D01*
X193009Y251089D01*
X193635Y251715D01*
X194078Y252482D01*
X194307Y253337D01*
Y254222D01*
X194078Y255077D01*
X193635Y255844D01*
X193009Y256470D01*
X192243Y256913D01*
X191387Y257142D01*
D02*
G37*
G36*
X181545D02*
X180660D01*
X179805Y256913D01*
X179038Y256470D01*
X178412Y255844D01*
X177969Y255077D01*
X177740Y254222D01*
Y253337D01*
X177969Y252482D01*
X178412Y251715D01*
X179038Y251089D01*
X179805Y250646D01*
X180660Y250417D01*
X181545D01*
X182400Y250646D01*
X183167Y251089D01*
X183793Y251715D01*
X184235Y252482D01*
X184465Y253337D01*
Y254222D01*
X184235Y255077D01*
X183793Y255844D01*
X183167Y256470D01*
X182400Y256913D01*
X181545Y257142D01*
D02*
G37*
G36*
X171703D02*
X170817D01*
X169962Y256913D01*
X169195Y256470D01*
X168569Y255844D01*
X168127Y255077D01*
X167898Y254222D01*
Y253337D01*
X168127Y252482D01*
X168569Y251715D01*
X169195Y251089D01*
X169962Y250646D01*
X170817Y250417D01*
X171703D01*
X172558Y250646D01*
X173324Y251089D01*
X173950Y251715D01*
X174393Y252482D01*
X174622Y253337D01*
Y254222D01*
X174393Y255077D01*
X173950Y255844D01*
X173324Y256470D01*
X172558Y256913D01*
X171703Y257142D01*
D02*
G37*
G36*
X161860D02*
X160975D01*
X160120Y256913D01*
X159353Y256470D01*
X158727Y255844D01*
X158284Y255077D01*
X158055Y254222D01*
Y253337D01*
X158284Y252482D01*
X158727Y251715D01*
X159353Y251089D01*
X160120Y250646D01*
X160975Y250417D01*
X161860D01*
X162715Y250646D01*
X163482Y251089D01*
X164108Y251715D01*
X164550Y252482D01*
X164779Y253337D01*
Y254222D01*
X164550Y255077D01*
X164108Y255844D01*
X163482Y256470D01*
X162715Y256913D01*
X161860Y257142D01*
D02*
G37*
G36*
X142175D02*
X141290D01*
X140435Y256913D01*
X139668Y256470D01*
X139042Y255844D01*
X138599Y255077D01*
X138370Y254222D01*
Y253337D01*
X138599Y252482D01*
X139042Y251715D01*
X139668Y251089D01*
X140435Y250646D01*
X141290Y250417D01*
X142175D01*
X143030Y250646D01*
X143797Y251089D01*
X144423Y251715D01*
X144865Y252482D01*
X145095Y253337D01*
Y254222D01*
X144865Y255077D01*
X144423Y255844D01*
X143797Y256470D01*
X143030Y256913D01*
X142175Y257142D01*
D02*
G37*
G36*
X132332D02*
X131447D01*
X130592Y256913D01*
X129825Y256470D01*
X129199Y255844D01*
X128757Y255077D01*
X128528Y254222D01*
Y253337D01*
X128757Y252482D01*
X129199Y251715D01*
X129825Y251089D01*
X130592Y250646D01*
X131447Y250417D01*
X132332D01*
X133187Y250646D01*
X133954Y251089D01*
X134580Y251715D01*
X135023Y252482D01*
X135252Y253337D01*
Y254222D01*
X135023Y255077D01*
X134580Y255844D01*
X133954Y256470D01*
X133187Y256913D01*
X132332Y257142D01*
D02*
G37*
G36*
X122490D02*
X121605D01*
X120749Y256913D01*
X119983Y256470D01*
X119357Y255844D01*
X118914Y255077D01*
X118685Y254222D01*
Y253337D01*
X118914Y252482D01*
X119357Y251715D01*
X119983Y251089D01*
X120749Y250646D01*
X121605Y250417D01*
X122490D01*
X123345Y250646D01*
X124112Y251089D01*
X124738Y251715D01*
X125180Y252482D01*
X125409Y253337D01*
Y254222D01*
X125180Y255077D01*
X124738Y255844D01*
X124112Y256470D01*
X123345Y256913D01*
X122490Y257142D01*
D02*
G37*
G36*
X63435D02*
X62550D01*
X61694Y256913D01*
X60928Y256470D01*
X60302Y255844D01*
X59859Y255077D01*
X59630Y254222D01*
Y253337D01*
X59859Y252482D01*
X60302Y251715D01*
X60928Y251089D01*
X61694Y250646D01*
X62550Y250417D01*
X63435D01*
X64290Y250646D01*
X65057Y251089D01*
X65683Y251715D01*
X66125Y252482D01*
X66354Y253337D01*
Y254222D01*
X66125Y255077D01*
X65683Y255844D01*
X65057Y256470D01*
X64290Y256913D01*
X63435Y257142D01*
D02*
G37*
G36*
X53592D02*
X52707D01*
X51852Y256913D01*
X51085Y256470D01*
X50459Y255844D01*
X50016Y255077D01*
X49787Y254222D01*
Y253337D01*
X50016Y252482D01*
X50459Y251715D01*
X51085Y251089D01*
X51852Y250646D01*
X52707Y250417D01*
X53592D01*
X54447Y250646D01*
X55214Y251089D01*
X55840Y251715D01*
X56283Y252482D01*
X56512Y253337D01*
Y254222D01*
X56283Y255077D01*
X55840Y255844D01*
X55214Y256470D01*
X54447Y256913D01*
X53592Y257142D01*
D02*
G37*
G36*
X43750D02*
X42864D01*
X42009Y256913D01*
X41243Y256470D01*
X40617Y255844D01*
X40174Y255077D01*
X39945Y254222D01*
Y253337D01*
X40174Y252482D01*
X40617Y251715D01*
X41243Y251089D01*
X42009Y250646D01*
X42864Y250417D01*
X43750D01*
X44605Y250646D01*
X45371Y251089D01*
X45998Y251715D01*
X46440Y252482D01*
X46669Y253337D01*
Y254222D01*
X46440Y255077D01*
X45998Y255844D01*
X45371Y256470D01*
X44605Y256913D01*
X43750Y257142D01*
D02*
G37*
G36*
X36827D02*
X30102D01*
Y250417D01*
X36827D01*
Y257142D01*
D02*
G37*
G36*
X201163Y247949D02*
X200412D01*
X199719Y247662D01*
X199189Y247131D01*
X198902Y246438D01*
Y245688D01*
X199189Y244995D01*
X199719Y244464D01*
X200412Y244177D01*
X201163D01*
X201856Y244464D01*
X202386Y244995D01*
X202673Y245688D01*
Y246438D01*
X202386Y247131D01*
X201856Y247662D01*
X201163Y247949D01*
D02*
G37*
G36*
X155513Y240961D02*
X154763D01*
X154070Y240673D01*
X153539Y240143D01*
X153252Y239450D01*
Y238700D01*
X153539Y238007D01*
X154070Y237476D01*
X154763Y237189D01*
X155513D01*
X156206Y237476D01*
X156737Y238007D01*
X157024Y238700D01*
Y239450D01*
X156737Y240143D01*
X156206Y240673D01*
X155513Y240961D01*
D02*
G37*
G36*
X140513D02*
X139763D01*
X139070Y240673D01*
X138539Y240143D01*
X138252Y239450D01*
Y238700D01*
X138539Y238007D01*
X139070Y237476D01*
X139763Y237189D01*
X140513D01*
X141206Y237476D01*
X141736Y238007D01*
X142024Y238700D01*
Y239450D01*
X141736Y240143D01*
X141206Y240673D01*
X140513Y240961D01*
D02*
G37*
G36*
X202622Y237689D02*
X201287D01*
Y236355D01*
X201856Y236590D01*
X202386Y237121D01*
X202622Y237689D01*
D02*
G37*
G36*
X200287D02*
X198953D01*
X199189Y237121D01*
X199719Y236590D01*
X200287Y236355D01*
Y237689D01*
D02*
G37*
G36*
X26091Y234118D02*
Y232784D01*
X27425D01*
X27189Y233352D01*
X26659Y233882D01*
X26091Y234118D01*
D02*
G37*
G36*
X25091D02*
X24522Y233882D01*
X23992Y233352D01*
X23756Y232784D01*
X25091D01*
Y234118D01*
D02*
G37*
G36*
X27425Y231784D02*
X26091D01*
Y230449D01*
X26659Y230685D01*
X27189Y231215D01*
X27425Y231784D01*
D02*
G37*
G36*
X25091D02*
X23756D01*
X23992Y231215D01*
X24522Y230685D01*
X25091Y230449D01*
Y231784D01*
D02*
G37*
G36*
X84646Y234331D02*
X33465D01*
X32681Y234175D01*
X32017Y233731D01*
X31573Y233067D01*
X31417Y232283D01*
X31573Y231500D01*
X32017Y230836D01*
X32681Y230392D01*
X33465Y230236D01*
X61311D01*
X61518Y229736D01*
X61393Y229611D01*
X61106Y228918D01*
Y228168D01*
X61393Y227475D01*
X61924Y226945D01*
X62617Y226658D01*
X63367D01*
X64060Y226945D01*
X64591Y227475D01*
X64878Y228168D01*
Y228918D01*
X64591Y229611D01*
X64466Y229736D01*
X64673Y230236D01*
X84646D01*
X85429Y230392D01*
X86093Y230836D01*
X86537Y231500D01*
X86693Y232283D01*
X86537Y233067D01*
X86093Y233731D01*
X85429Y234175D01*
X84646Y234331D01*
D02*
G37*
G36*
X131390Y223909D02*
X130056D01*
X130291Y223341D01*
X130822Y222811D01*
X131390Y222575D01*
Y223909D01*
D02*
G37*
G36*
X183446Y228264D02*
X182696D01*
X182003Y227977D01*
X181472Y227446D01*
X181185Y226753D01*
Y226003D01*
X181472Y225310D01*
X182003Y224779D01*
X182242Y224680D01*
Y224139D01*
X182003Y224040D01*
X181472Y223509D01*
X181185Y222816D01*
Y222066D01*
X181472Y221373D01*
X182003Y220842D01*
X182696Y220555D01*
X183446D01*
X184139Y220842D01*
X184670Y221373D01*
X184957Y222066D01*
Y222816D01*
X184670Y223509D01*
X184139Y224040D01*
X183900Y224139D01*
Y224680D01*
X184139Y224779D01*
X184670Y225310D01*
X184957Y226003D01*
Y226753D01*
X184670Y227446D01*
X184139Y227977D01*
X183446Y228264D01*
D02*
G37*
G36*
X86989Y222752D02*
X86239D01*
X85546Y222465D01*
X85015Y221934D01*
X84728Y221241D01*
Y220491D01*
X85015Y219798D01*
X85546Y219267D01*
X86239Y218980D01*
X86989D01*
X87682Y219267D01*
X88213Y219798D01*
X88500Y220491D01*
Y221241D01*
X88213Y221934D01*
X87682Y222465D01*
X86989Y222752D01*
D02*
G37*
G36*
X94060Y215681D02*
X93310D01*
X92617Y215394D01*
X92086Y214863D01*
X91799Y214170D01*
Y213420D01*
X92086Y212727D01*
X92617Y212196D01*
X93310Y211909D01*
X94060D01*
X94753Y212196D01*
X95284Y212727D01*
X95571Y213420D01*
Y214170D01*
X95284Y214863D01*
X94753Y215394D01*
X94060Y215681D01*
D02*
G37*
G36*
X240533Y171177D02*
X239782D01*
X239089Y170890D01*
X238559Y170360D01*
X238272Y169667D01*
Y168916D01*
X238559Y168223D01*
X239089Y167693D01*
X239782Y167405D01*
X240533D01*
X241226Y167693D01*
X241756Y168223D01*
X242043Y168916D01*
Y169667D01*
X241756Y170360D01*
X241226Y170890D01*
X240533Y171177D01*
D02*
G37*
G36*
X138170Y161335D02*
X137420D01*
X136727Y161047D01*
X136197Y160517D01*
X136097Y160278D01*
X135556D01*
X135457Y160517D01*
X134926Y161047D01*
X134233Y161335D01*
X133483D01*
X132790Y161047D01*
X132260Y160517D01*
X131973Y159824D01*
Y159726D01*
X110336Y138089D01*
X110004Y137593D01*
X109888Y137008D01*
Y56145D01*
X102122Y48380D01*
X32677D01*
X32092Y48263D01*
X31596Y47932D01*
X26625Y42962D01*
X26294Y42465D01*
X26177Y41880D01*
Y20263D01*
X25677Y20143D01*
X25021Y21431D01*
X24018Y22812D01*
X22812Y24018D01*
X21431Y25021D01*
X19910Y25796D01*
X18287Y26324D01*
X16601Y26591D01*
X14895D01*
X13209Y26324D01*
X11586Y25796D01*
X10065Y25021D01*
X8685Y24018D01*
X7478Y22812D01*
X6475Y21431D01*
X5700Y19910D01*
X5173Y18287D01*
X4905Y16601D01*
Y14895D01*
X5173Y13209D01*
X5700Y11586D01*
X6475Y10065D01*
X7478Y8685D01*
X8685Y7478D01*
X10065Y6475D01*
X11586Y5700D01*
X13209Y5173D01*
X14895Y4905D01*
X16601D01*
X18287Y5173D01*
X19910Y5700D01*
X21431Y6475D01*
X22812Y7478D01*
X24018Y8685D01*
X25021Y10065D01*
X25796Y11586D01*
X26324Y13209D01*
X26591Y14895D01*
Y16601D01*
X26368Y18006D01*
X26836Y18245D01*
X30102Y14979D01*
Y10417D01*
X36827D01*
Y17142D01*
X32265D01*
X29236Y20171D01*
Y41247D01*
X33311Y45321D01*
X102756D01*
X103341Y45437D01*
X103738Y45703D01*
X104057Y45314D01*
X101611Y42868D01*
X54128D01*
X53543Y42752D01*
X53197Y42520D01*
X53015Y42435D01*
X52561Y42641D01*
X52443Y42818D01*
X52225Y43036D01*
X51729Y43367D01*
X51143Y43483D01*
X49398D01*
X48813Y43367D01*
X48451Y43125D01*
X48317Y43036D01*
X47862D01*
X47728Y43125D01*
X47366Y43367D01*
X46781Y43483D01*
X45036D01*
X44451Y43367D01*
X43955Y43036D01*
X43737Y42818D01*
X43619Y42641D01*
X43165Y42435D01*
X42983Y42520D01*
X42636Y42752D01*
X42051Y42868D01*
X35039D01*
X34454Y42752D01*
X33958Y42420D01*
X32383Y40845D01*
X32052Y40349D01*
X31935Y39764D01*
Y26779D01*
X31400Y26470D01*
X30774Y25844D01*
X30332Y25077D01*
X30102Y24222D01*
Y23337D01*
X30332Y22482D01*
X30774Y21715D01*
X31400Y21089D01*
X32167Y20647D01*
X33022Y20417D01*
X33907D01*
X34762Y20647D01*
X35529Y21089D01*
X36155Y21715D01*
X36598Y22482D01*
X36827Y23337D01*
Y24222D01*
X36598Y25077D01*
X36155Y25844D01*
X35529Y26470D01*
X34994Y26779D01*
Y39130D01*
X35673Y39809D01*
X41108D01*
Y38147D01*
X41224Y37561D01*
X41556Y37065D01*
X41774Y36847D01*
X42270Y36516D01*
X42855Y36399D01*
X44600D01*
X45185Y36516D01*
X45681Y36847D01*
X45909Y37057D01*
X46136Y36847D01*
X46136Y36847D01*
X46270Y36757D01*
X46632Y36516D01*
X47217Y36399D01*
X48962D01*
X49547Y36516D01*
X50044Y36847D01*
X50271Y37057D01*
X50498Y36847D01*
X50498Y36847D01*
X50632Y36757D01*
X50994Y36516D01*
X51579Y36399D01*
X53324D01*
X53910Y36516D01*
X54406Y36847D01*
X54624Y37065D01*
X54956Y37561D01*
X55072Y38147D01*
Y39809D01*
X102244D01*
X102829Y39926D01*
X103325Y40257D01*
X117499Y54430D01*
X117830Y54927D01*
X117947Y55512D01*
Y137437D01*
X138072Y157563D01*
X138170D01*
X138864Y157850D01*
X139394Y158381D01*
X139681Y159074D01*
Y159824D01*
X139394Y160517D01*
X138864Y161047D01*
X138170Y161335D01*
D02*
G37*
G36*
X16123Y163106D02*
X15373D01*
X14680Y162819D01*
X14149Y162289D01*
X13862Y161596D01*
Y160845D01*
X14149Y160152D01*
X14680Y159622D01*
X15373Y159335D01*
X16123D01*
X16816Y159622D01*
X17347Y160152D01*
X17634Y160845D01*
Y161596D01*
X17347Y162289D01*
X16816Y162819D01*
X16123Y163106D01*
D02*
G37*
G36*
X16248Y143369D02*
Y142035D01*
X17582D01*
X17347Y142604D01*
X16816Y143134D01*
X16248Y143369D01*
D02*
G37*
G36*
X15248D02*
X14680Y143134D01*
X14149Y142604D01*
X13914Y142035D01*
X15248D01*
Y143369D01*
D02*
G37*
G36*
X17582Y141035D02*
X16248D01*
Y139701D01*
X16816Y139937D01*
X17347Y140467D01*
X17582Y141035D01*
D02*
G37*
G36*
X15248D02*
X13914D01*
X14149Y140467D01*
X14680Y139937D01*
X15248Y139701D01*
Y141035D01*
D02*
G37*
G36*
X16123Y135941D02*
X15373D01*
X14680Y135654D01*
X14149Y135123D01*
X13862Y134430D01*
Y133680D01*
X14149Y132987D01*
X14680Y132456D01*
X15373Y132169D01*
X16123D01*
X16816Y132456D01*
X17347Y132987D01*
X17634Y133680D01*
Y134430D01*
X17347Y135123D01*
X16816Y135654D01*
X16123Y135941D01*
D02*
G37*
G36*
X260218Y125902D02*
X259467D01*
X258774Y125615D01*
X258244Y125084D01*
X257957Y124391D01*
Y123641D01*
X258244Y122948D01*
X258774Y122417D01*
X259467Y122130D01*
X260218D01*
X260911Y122417D01*
X261441Y122948D01*
X261728Y123641D01*
Y124391D01*
X261441Y125084D01*
X260911Y125615D01*
X260218Y125902D01*
D02*
G37*
G36*
X259332Y87811D02*
X258582D01*
X257889Y87524D01*
X257358Y86993D01*
X257071Y86300D01*
Y85550D01*
X257358Y84857D01*
X257889Y84326D01*
X258582Y84039D01*
X259332D01*
X260025Y84326D01*
X260555Y84857D01*
X260842Y85550D01*
Y86300D01*
X260555Y86993D01*
X260025Y87524D01*
X259332Y87811D01*
D02*
G37*
G36*
X240616Y80321D02*
X236720D01*
Y76425D01*
X240616D01*
Y80321D01*
D02*
G37*
G36*
X235720D02*
X231825D01*
Y76425D01*
X235720D01*
Y80321D01*
D02*
G37*
G36*
X240616Y75425D02*
X236720D01*
Y71530D01*
X240616D01*
Y75425D01*
D02*
G37*
G36*
X235720D02*
X231825D01*
Y71530D01*
X235720D01*
Y75425D01*
D02*
G37*
G36*
X260218Y66847D02*
X259467D01*
X258774Y66559D01*
X258244Y66029D01*
X257957Y65336D01*
Y64586D01*
X258244Y63892D01*
X258774Y63362D01*
X259467Y63075D01*
X260218D01*
X260911Y63362D01*
X261441Y63892D01*
X261728Y64586D01*
Y65336D01*
X261441Y66029D01*
X260911Y66559D01*
X260218Y66847D01*
D02*
G37*
G36*
X183446D02*
X182696D01*
X182003Y66559D01*
X181472Y66029D01*
X181185Y65336D01*
Y64586D01*
X181472Y63892D01*
X182003Y63362D01*
X182696Y63075D01*
X183446D01*
X184139Y63362D01*
X184670Y63892D01*
X184957Y64586D01*
Y65336D01*
X184670Y66029D01*
X184139Y66559D01*
X183446Y66847D01*
D02*
G37*
G36*
X236799Y120321D02*
X235642D01*
X234524Y120021D01*
X233522Y119443D01*
X232703Y118624D01*
X232124Y117622D01*
X231825Y116504D01*
Y115347D01*
X232124Y114228D01*
X232703Y113226D01*
X233522Y112408D01*
X234524Y111829D01*
X235642Y111530D01*
X236799D01*
X237917Y111829D01*
X238204Y111995D01*
X246502Y103697D01*
Y69315D01*
X238067Y60880D01*
X237917Y60966D01*
X236799Y61266D01*
X235642D01*
X234524Y60966D01*
X234374Y60880D01*
X227243Y68011D01*
X226747Y68342D01*
X226161Y68458D01*
X192913D01*
X192328Y68342D01*
X191832Y68011D01*
X174115Y50294D01*
X173784Y49798D01*
X173668Y49213D01*
Y29685D01*
X173784Y29100D01*
X174115Y28604D01*
X177900Y24819D01*
X177740Y24222D01*
Y23337D01*
X177969Y22482D01*
X178412Y21715D01*
X179038Y21089D01*
X179805Y20647D01*
X180660Y20417D01*
X181545D01*
X182400Y20647D01*
X183167Y21089D01*
X183793Y21715D01*
X184235Y22482D01*
X184465Y23337D01*
Y24222D01*
X184235Y25077D01*
X183793Y25844D01*
X183167Y26470D01*
X182400Y26913D01*
X181545Y27142D01*
X180660D01*
X180063Y26982D01*
X176726Y30318D01*
Y48579D01*
X193547Y65400D01*
X225528D01*
X232211Y58717D01*
X232124Y58567D01*
X231825Y57449D01*
Y56291D01*
X232124Y55173D01*
X232703Y54171D01*
X233522Y53353D01*
X234524Y52774D01*
X235642Y52474D01*
X236799D01*
X237917Y52774D01*
X238919Y53353D01*
X239738Y54171D01*
X240317Y55173D01*
X240616Y56291D01*
Y57449D01*
X240317Y58567D01*
X240230Y58717D01*
X249113Y67600D01*
X249445Y68096D01*
X249561Y68681D01*
Y104331D01*
X249445Y104916D01*
X249113Y105412D01*
X240309Y114216D01*
X240317Y114228D01*
X240616Y115347D01*
Y116504D01*
X240317Y117622D01*
X239738Y118624D01*
X238919Y119443D01*
X237917Y120021D01*
X236799Y120321D01*
D02*
G37*
G36*
X166642Y45141D02*
Y43807D01*
X167976D01*
X167740Y44375D01*
X167210Y44906D01*
X166642Y45141D01*
D02*
G37*
G36*
X165642D02*
X165074Y44906D01*
X164543Y44375D01*
X164308Y43807D01*
X165642D01*
Y45141D01*
D02*
G37*
G36*
X236799Y51266D02*
X235642D01*
X234524Y50966D01*
X233522Y50388D01*
X232703Y49569D01*
X232124Y48567D01*
X231825Y47449D01*
Y46291D01*
X232124Y45173D01*
X232703Y44171D01*
X233522Y43353D01*
X234524Y42774D01*
X235642Y42474D01*
X236799D01*
X237917Y42774D01*
X238919Y43353D01*
X239738Y44171D01*
X240317Y45173D01*
X240616Y46291D01*
Y47449D01*
X240317Y48567D01*
X239738Y49569D01*
X238919Y50388D01*
X237917Y50966D01*
X236799Y51266D01*
D02*
G37*
G36*
X167976Y42807D02*
X166642D01*
Y41473D01*
X167210Y41708D01*
X167740Y42239D01*
X167976Y42807D01*
D02*
G37*
G36*
X165642D02*
X164308D01*
X164543Y42239D01*
X165074Y41708D01*
X165642Y41473D01*
Y42807D01*
D02*
G37*
G36*
X179509Y44996D02*
X178759D01*
X178066Y44709D01*
X177535Y44179D01*
X177248Y43485D01*
Y42735D01*
X177535Y42042D01*
X178066Y41511D01*
X178759Y41224D01*
X179509D01*
X180202Y41511D01*
X180733Y42042D01*
X181020Y42735D01*
Y43485D01*
X180733Y44179D01*
X180202Y44709D01*
X179509Y44996D01*
D02*
G37*
G36*
X153918D02*
X153168D01*
X152475Y44709D01*
X151945Y44179D01*
X151657Y43485D01*
Y42735D01*
X151945Y42042D01*
X152475Y41511D01*
X153168Y41224D01*
X153918D01*
X154612Y41511D01*
X155142Y42042D01*
X155429Y42735D01*
Y43485D01*
X155142Y44179D01*
X154612Y44709D01*
X153918Y44996D01*
D02*
G37*
G36*
X171635Y37319D02*
X170885D01*
X170192Y37032D01*
X169661Y36501D01*
X169374Y35808D01*
Y35058D01*
X169661Y34365D01*
X170192Y33834D01*
X170885Y33547D01*
X171635D01*
X172328Y33834D01*
X172859Y34365D01*
X173146Y35058D01*
Y35808D01*
X172859Y36501D01*
X172328Y37032D01*
X171635Y37319D01*
D02*
G37*
G36*
X161792D02*
X161042D01*
X160349Y37032D01*
X159819Y36501D01*
X159531Y35808D01*
Y35058D01*
X159819Y34365D01*
X160349Y33834D01*
X161042Y33547D01*
X161792D01*
X162486Y33834D01*
X163016Y34365D01*
X163303Y35058D01*
Y35808D01*
X163016Y36501D01*
X162486Y37032D01*
X161792Y37319D01*
D02*
G37*
G36*
X216535Y64521D02*
X196850D01*
X196265Y64405D01*
X195769Y64074D01*
X183958Y52263D01*
X183626Y51766D01*
X183510Y51181D01*
Y33710D01*
X183626Y33125D01*
X183958Y32629D01*
X186172Y30415D01*
X186669Y30083D01*
X187254Y29967D01*
X210577D01*
X211162Y30083D01*
X211659Y30415D01*
X211978Y30734D01*
X212330Y31052D01*
X212648Y30737D01*
X212970Y30415D01*
X213466Y30083D01*
X214051Y29967D01*
X216974D01*
Y22287D01*
X211669Y16982D01*
X211073Y17142D01*
X210187D01*
X209332Y16913D01*
X208565Y16470D01*
X207940Y15844D01*
X207497Y15077D01*
X207268Y14222D01*
Y13337D01*
X207497Y12482D01*
X207940Y11715D01*
X208565Y11089D01*
X209332Y10646D01*
X210187Y10417D01*
X211073D01*
X211928Y10646D01*
X212694Y11089D01*
X213320Y11715D01*
X213763Y12482D01*
X213992Y13337D01*
Y14222D01*
X213832Y14819D01*
X219585Y20572D01*
X219917Y21068D01*
X220033Y21654D01*
Y31496D01*
X219917Y32081D01*
X219585Y32577D01*
X219089Y32909D01*
X218504Y33026D01*
X214942D01*
Y39566D01*
X214826Y40151D01*
X214494Y40648D01*
X213840Y41302D01*
X213344Y41633D01*
X212758Y41750D01*
X193841D01*
Y43697D01*
X194319Y43977D01*
X194322Y43977D01*
X194493Y43863D01*
X195078Y43746D01*
X211207D01*
X211792Y43863D01*
X212288Y44194D01*
X212631Y44536D01*
X212973Y44194D01*
X213469Y43863D01*
X214054Y43746D01*
X215902D01*
X216974Y42674D01*
Y39370D01*
X217091Y38785D01*
X217423Y38289D01*
X222880Y32831D01*
Y14413D01*
X217870Y9403D01*
X207326D01*
X203990Y12740D01*
X204150Y13337D01*
Y14222D01*
X203921Y15077D01*
X203478Y15844D01*
X202852Y16470D01*
X202085Y16913D01*
X201230Y17142D01*
X200345D01*
X199490Y16913D01*
X198723Y16470D01*
X198097Y15844D01*
X197654Y15077D01*
X197425Y14222D01*
Y13337D01*
X197654Y12482D01*
X198097Y11715D01*
X198723Y11089D01*
X199490Y10646D01*
X200345Y10417D01*
X201230D01*
X201827Y10577D01*
X205611Y6793D01*
X206108Y6461D01*
X206693Y6345D01*
X218504D01*
X219089Y6461D01*
X219585Y6793D01*
X225491Y12698D01*
X225822Y13194D01*
X225939Y13780D01*
Y33465D01*
X225822Y34050D01*
X225491Y34546D01*
X220033Y40004D01*
Y43307D01*
X219917Y43892D01*
X219585Y44388D01*
X217617Y46357D01*
X217121Y46689D01*
X216535Y46805D01*
X215060D01*
Y55464D01*
X215003Y55749D01*
X215464Y55995D01*
X220912Y50548D01*
Y40650D01*
X221028Y40064D01*
X221359Y39568D01*
X232211Y28717D01*
X232124Y28567D01*
X231825Y27449D01*
Y26291D01*
X232124Y25173D01*
X232703Y24171D01*
X233522Y23353D01*
X234524Y22774D01*
X235642Y22474D01*
X236799D01*
X237917Y22774D01*
X238919Y23353D01*
X239738Y24171D01*
X240317Y25173D01*
X240616Y26291D01*
Y27449D01*
X240317Y28567D01*
X239738Y29569D01*
X238919Y30387D01*
X237917Y30966D01*
X236799Y31266D01*
X235642D01*
X234524Y30966D01*
X234374Y30880D01*
X223970Y41283D01*
Y51181D01*
X223854Y51766D01*
X223522Y52263D01*
X215648Y60137D01*
X215152Y60468D01*
X214567Y60584D01*
X198819D01*
X198234Y60468D01*
X197738Y60137D01*
X191832Y54231D01*
X191500Y53735D01*
X191384Y53150D01*
Y47440D01*
X191500Y46855D01*
X191665Y46609D01*
X191395Y46112D01*
X190785D01*
X190200Y45996D01*
X189704Y45664D01*
X189049Y45010D01*
X188718Y44514D01*
X188601Y43928D01*
Y38694D01*
X188718Y38108D01*
X189049Y37612D01*
X189174Y37488D01*
X189130Y37047D01*
X189032Y36922D01*
X188395Y36285D01*
X188064Y35789D01*
X187947Y35204D01*
Y34332D01*
X188026Y33933D01*
X187787Y33463D01*
X187706Y33381D01*
X187555Y33358D01*
X186569Y34344D01*
Y50548D01*
X197484Y61463D01*
X215902D01*
X224849Y52516D01*
Y46713D01*
X224965Y46127D01*
X225296Y45631D01*
X232211Y38717D01*
X232124Y38567D01*
X231825Y37449D01*
Y36291D01*
X232124Y35173D01*
X232703Y34171D01*
X233522Y33353D01*
X234524Y32774D01*
X235642Y32474D01*
X236799D01*
X237917Y32774D01*
X238919Y33353D01*
X239738Y34171D01*
X240317Y35173D01*
X240616Y36291D01*
Y37449D01*
X240317Y38567D01*
X239738Y39569D01*
X238919Y40387D01*
X237917Y40966D01*
X236799Y41266D01*
X235642D01*
X234524Y40966D01*
X234374Y40880D01*
X227907Y47346D01*
Y53150D01*
X227791Y53735D01*
X227459Y54231D01*
X217617Y64074D01*
X217121Y64405D01*
X216535Y64521D01*
D02*
G37*
G36*
X259332Y28756D02*
X258582D01*
X257889Y28469D01*
X257358Y27938D01*
X257071Y27245D01*
Y26495D01*
X257358Y25802D01*
X257889Y25271D01*
X258582Y24984D01*
X259332D01*
X260025Y25271D01*
X260555Y25802D01*
X260842Y26495D01*
Y27245D01*
X260555Y27938D01*
X260025Y28469D01*
X259332Y28756D01*
D02*
G37*
G36*
X132390Y27126D02*
Y24280D01*
X135237D01*
X135023Y25077D01*
X134580Y25844D01*
X133954Y26470D01*
X133187Y26913D01*
X132390Y27126D01*
D02*
G37*
G36*
X122547D02*
Y24280D01*
X125394D01*
X125180Y25077D01*
X124738Y25844D01*
X124112Y26470D01*
X123345Y26913D01*
X122547Y27126D01*
D02*
G37*
G36*
X63492D02*
Y24280D01*
X66339D01*
X66125Y25077D01*
X65683Y25844D01*
X65057Y26470D01*
X64290Y26913D01*
X63492Y27126D01*
D02*
G37*
G36*
X131390D02*
X130592Y26913D01*
X129825Y26470D01*
X129199Y25844D01*
X128757Y25077D01*
X128543Y24280D01*
X131390D01*
Y27126D01*
D02*
G37*
G36*
X121547D02*
X120749Y26913D01*
X119983Y26470D01*
X119357Y25844D01*
X118914Y25077D01*
X118700Y24280D01*
X121547D01*
Y27126D01*
D02*
G37*
G36*
X62492D02*
X61694Y26913D01*
X60928Y26470D01*
X60302Y25844D01*
X59859Y25077D01*
X59645Y24280D01*
X62492D01*
Y27126D01*
D02*
G37*
G36*
X125394Y23280D02*
X122547D01*
Y20433D01*
X123345Y20647D01*
X124112Y21089D01*
X124738Y21715D01*
X125180Y22482D01*
X125394Y23280D01*
D02*
G37*
G36*
X135237D02*
X132390D01*
Y20433D01*
X133187Y20647D01*
X133954Y21089D01*
X134580Y21715D01*
X135023Y22482D01*
X135237Y23280D01*
D02*
G37*
G36*
X66339D02*
X63492D01*
Y20433D01*
X64290Y20647D01*
X65057Y21089D01*
X65683Y21715D01*
X66125Y22482D01*
X66339Y23280D01*
D02*
G37*
G36*
X62492D02*
X59645D01*
X59859Y22482D01*
X60302Y21715D01*
X60928Y21089D01*
X61694Y20647D01*
X62492Y20433D01*
Y23280D01*
D02*
G37*
G36*
X131390D02*
X128543D01*
X128757Y22482D01*
X129199Y21715D01*
X129825Y21089D01*
X130592Y20647D01*
X131390Y20433D01*
Y23280D01*
D02*
G37*
G36*
X121547D02*
X118700D01*
X118914Y22482D01*
X119357Y21715D01*
X119983Y21089D01*
X120749Y20647D01*
X121547Y20433D01*
Y23280D01*
D02*
G37*
G36*
X211073Y27142D02*
X210187D01*
X209332Y26913D01*
X208565Y26470D01*
X207940Y25844D01*
X207497Y25077D01*
X207268Y24222D01*
Y23337D01*
X207497Y22482D01*
X207940Y21715D01*
X208565Y21089D01*
X209332Y20647D01*
X210187Y20417D01*
X211073D01*
X211928Y20647D01*
X212694Y21089D01*
X213320Y21715D01*
X213763Y22482D01*
X213992Y23337D01*
Y24222D01*
X213763Y25077D01*
X213320Y25844D01*
X212694Y26470D01*
X211928Y26913D01*
X211073Y27142D01*
D02*
G37*
G36*
X201230D02*
X200345D01*
X199490Y26913D01*
X198723Y26470D01*
X198097Y25844D01*
X197654Y25077D01*
X197425Y24222D01*
Y23337D01*
X197654Y22482D01*
X198097Y21715D01*
X198723Y21089D01*
X199490Y20647D01*
X200345Y20417D01*
X201230D01*
X202085Y20647D01*
X202852Y21089D01*
X203478Y21715D01*
X203921Y22482D01*
X204150Y23337D01*
Y24222D01*
X203921Y25077D01*
X203478Y25844D01*
X202852Y26470D01*
X202085Y26913D01*
X201230Y27142D01*
D02*
G37*
G36*
X191387D02*
X190502D01*
X189647Y26913D01*
X188880Y26470D01*
X188254Y25844D01*
X187812Y25077D01*
X187583Y24222D01*
Y23337D01*
X187812Y22482D01*
X188254Y21715D01*
X188880Y21089D01*
X189647Y20647D01*
X190502Y20417D01*
X191387D01*
X192243Y20647D01*
X193009Y21089D01*
X193635Y21715D01*
X194078Y22482D01*
X194307Y23337D01*
Y24222D01*
X194078Y25077D01*
X193635Y25844D01*
X193009Y26470D01*
X192243Y26913D01*
X191387Y27142D01*
D02*
G37*
G36*
X171703D02*
X170817D01*
X169962Y26913D01*
X169195Y26470D01*
X168569Y25844D01*
X168127Y25077D01*
X167898Y24222D01*
Y23337D01*
X168127Y22482D01*
X168569Y21715D01*
X169195Y21089D01*
X169962Y20647D01*
X170817Y20417D01*
X171703D01*
X172558Y20647D01*
X173324Y21089D01*
X173950Y21715D01*
X174393Y22482D01*
X174622Y23337D01*
Y24222D01*
X174393Y25077D01*
X173950Y25844D01*
X173324Y26470D01*
X172558Y26913D01*
X171703Y27142D01*
D02*
G37*
G36*
X161860D02*
X160975D01*
X160120Y26913D01*
X159353Y26470D01*
X158727Y25844D01*
X158284Y25077D01*
X158055Y24222D01*
Y23337D01*
X158284Y22482D01*
X158727Y21715D01*
X159353Y21089D01*
X160120Y20647D01*
X160975Y20417D01*
X161860D01*
X162715Y20647D01*
X163482Y21089D01*
X164108Y21715D01*
X164550Y22482D01*
X164779Y23337D01*
Y24222D01*
X164550Y25077D01*
X164108Y25844D01*
X163482Y26470D01*
X162715Y26913D01*
X161860Y27142D01*
D02*
G37*
G36*
X152017D02*
X151132D01*
X150277Y26913D01*
X149510Y26470D01*
X148884Y25844D01*
X148442Y25077D01*
X148213Y24222D01*
Y23337D01*
X148442Y22482D01*
X148884Y21715D01*
X149510Y21089D01*
X150277Y20647D01*
X151132Y20417D01*
X152017D01*
X152873Y20647D01*
X153639Y21089D01*
X154265Y21715D01*
X154708Y22482D01*
X154937Y23337D01*
Y24222D01*
X154708Y25077D01*
X154265Y25844D01*
X153639Y26470D01*
X152873Y26913D01*
X152017Y27142D01*
D02*
G37*
G36*
X138170Y179051D02*
X137420D01*
X136727Y178764D01*
X136197Y178234D01*
X135909Y177541D01*
Y176790D01*
X136197Y176097D01*
X136727Y175567D01*
X137420Y175279D01*
X137518D01*
X142171Y170626D01*
Y64118D01*
X136714Y58660D01*
X136382Y58164D01*
X136266Y57579D01*
Y20319D01*
X132929Y16982D01*
X132332Y17142D01*
X131447D01*
X130592Y16913D01*
X129825Y16470D01*
X129199Y15844D01*
X128757Y15077D01*
X128528Y14222D01*
Y13337D01*
X128757Y12482D01*
X129199Y11715D01*
X129825Y11089D01*
X130592Y10646D01*
X131447Y10417D01*
X132332D01*
X133187Y10646D01*
X133954Y11089D01*
X134580Y11715D01*
X135023Y12482D01*
X135252Y13337D01*
Y14222D01*
X135092Y14819D01*
X138877Y18604D01*
X139208Y19100D01*
X139325Y19685D01*
Y20777D01*
X139825Y20999D01*
X140435Y20647D01*
X141290Y20417D01*
X142175D01*
X143030Y20647D01*
X143797Y21089D01*
X144423Y21715D01*
X144865Y22482D01*
X145095Y23337D01*
Y24222D01*
X144865Y25077D01*
X144423Y25844D01*
X143797Y26470D01*
X143030Y26913D01*
X142175Y27142D01*
X141290D01*
X140435Y26913D01*
X139825Y26561D01*
X139325Y26781D01*
Y56945D01*
X144782Y62403D01*
X145114Y62899D01*
X145230Y63484D01*
Y171260D01*
X145114Y171845D01*
X144782Y172341D01*
X139681Y177442D01*
Y177541D01*
X139394Y178234D01*
X138864Y178764D01*
X138170Y179051D01*
D02*
G37*
G36*
X112647Y27142D02*
X111762D01*
X110907Y26913D01*
X110140Y26470D01*
X109514Y25844D01*
X109072Y25077D01*
X108843Y24222D01*
Y23337D01*
X109072Y22482D01*
X109514Y21715D01*
X110140Y21089D01*
X110907Y20647D01*
X111762Y20417D01*
X112647D01*
X113503Y20647D01*
X114269Y21089D01*
X114895Y21715D01*
X115338Y22482D01*
X115567Y23337D01*
Y24222D01*
X115338Y25077D01*
X114895Y25844D01*
X114269Y26470D01*
X113503Y26913D01*
X112647Y27142D01*
D02*
G37*
G36*
X102805D02*
X101920D01*
X101064Y26913D01*
X100298Y26470D01*
X99672Y25844D01*
X99229Y25077D01*
X99000Y24222D01*
Y23337D01*
X99229Y22482D01*
X99672Y21715D01*
X100298Y21089D01*
X101064Y20647D01*
X101920Y20417D01*
X102805D01*
X103660Y20647D01*
X104427Y21089D01*
X105053Y21715D01*
X105495Y22482D01*
X105724Y23337D01*
Y24222D01*
X105495Y25077D01*
X105053Y25844D01*
X104427Y26470D01*
X103660Y26913D01*
X102805Y27142D01*
D02*
G37*
G36*
X92962D02*
X92077D01*
X91222Y26913D01*
X90455Y26470D01*
X89829Y25844D01*
X89387Y25077D01*
X89157Y24222D01*
Y23337D01*
X89387Y22482D01*
X89829Y21715D01*
X90455Y21089D01*
X91222Y20647D01*
X92077Y20417D01*
X92962D01*
X93817Y20647D01*
X94584Y21089D01*
X95210Y21715D01*
X95653Y22482D01*
X95882Y23337D01*
Y24222D01*
X95653Y25077D01*
X95210Y25844D01*
X94584Y26470D01*
X93817Y26913D01*
X92962Y27142D01*
D02*
G37*
G36*
X83120D02*
X82235D01*
X81379Y26913D01*
X80613Y26470D01*
X79987Y25844D01*
X79544Y25077D01*
X79315Y24222D01*
Y23337D01*
X79544Y22482D01*
X79987Y21715D01*
X80613Y21089D01*
X81379Y20647D01*
X82235Y20417D01*
X83120D01*
X83975Y20647D01*
X84742Y21089D01*
X85368Y21715D01*
X85810Y22482D01*
X86039Y23337D01*
Y24222D01*
X85810Y25077D01*
X85368Y25844D01*
X84742Y26470D01*
X83975Y26913D01*
X83120Y27142D01*
D02*
G37*
G36*
X73277D02*
X72392D01*
X71537Y26913D01*
X70770Y26470D01*
X70144Y25844D01*
X69702Y25077D01*
X69472Y24222D01*
Y23337D01*
X69702Y22482D01*
X70144Y21715D01*
X70770Y21089D01*
X71537Y20647D01*
X72392Y20417D01*
X73277D01*
X74132Y20647D01*
X74899Y21089D01*
X75525Y21715D01*
X75968Y22482D01*
X76197Y23337D01*
Y24222D01*
X75968Y25077D01*
X75525Y25844D01*
X74899Y26470D01*
X74132Y26913D01*
X73277Y27142D01*
D02*
G37*
G36*
X53592D02*
X52707D01*
X51852Y26913D01*
X51085Y26470D01*
X50459Y25844D01*
X50016Y25077D01*
X49787Y24222D01*
Y23337D01*
X50016Y22482D01*
X50459Y21715D01*
X51085Y21089D01*
X51852Y20647D01*
X52707Y20417D01*
X53592D01*
X54447Y20647D01*
X55214Y21089D01*
X55840Y21715D01*
X56283Y22482D01*
X56512Y23337D01*
Y24222D01*
X56283Y25077D01*
X55840Y25844D01*
X55214Y26470D01*
X54447Y26913D01*
X53592Y27142D01*
D02*
G37*
G36*
X43750D02*
X42864D01*
X42009Y26913D01*
X41243Y26470D01*
X40617Y25844D01*
X40174Y25077D01*
X39945Y24222D01*
Y23337D01*
X40174Y22482D01*
X40617Y21715D01*
X41243Y21089D01*
X42009Y20647D01*
X42864Y20417D01*
X43750D01*
X44605Y20647D01*
X45371Y21089D01*
X45998Y21715D01*
X46440Y22482D01*
X46669Y23337D01*
Y24222D01*
X46440Y25077D01*
X45998Y25844D01*
X45371Y26470D01*
X44605Y26913D01*
X43750Y27142D01*
D02*
G37*
G36*
X240616Y21266D02*
X236720D01*
Y17370D01*
X240616D01*
Y21266D01*
D02*
G37*
G36*
X235720D02*
X231825D01*
Y17370D01*
X235720D01*
Y21266D01*
D02*
G37*
G36*
X122547Y17126D02*
Y14279D01*
X125394D01*
X125180Y15077D01*
X124738Y15844D01*
X124112Y16470D01*
X123345Y16913D01*
X122547Y17126D01*
D02*
G37*
G36*
X121547D02*
X120749Y16913D01*
X119983Y16470D01*
X119357Y15844D01*
X118914Y15077D01*
X118700Y14279D01*
X121547D01*
Y17126D01*
D02*
G37*
G36*
X240616Y16370D02*
X236720D01*
Y12474D01*
X240616D01*
Y16370D01*
D02*
G37*
G36*
X235720D02*
X231825D01*
Y12474D01*
X235720D01*
Y16370D01*
D02*
G37*
G36*
X125394Y13280D02*
X122547D01*
Y10433D01*
X123345Y10646D01*
X124112Y11089D01*
X124738Y11715D01*
X125180Y12482D01*
X125394Y13280D01*
D02*
G37*
G36*
X121547D02*
X118700D01*
X118914Y12482D01*
X119357Y11715D01*
X119983Y11089D01*
X120749Y10646D01*
X121547Y10433D01*
Y13280D01*
D02*
G37*
G36*
X191387Y17142D02*
X190502D01*
X189647Y16913D01*
X188880Y16470D01*
X188254Y15844D01*
X187812Y15077D01*
X187583Y14222D01*
Y13337D01*
X187812Y12482D01*
X188254Y11715D01*
X188880Y11089D01*
X189647Y10646D01*
X190502Y10417D01*
X191387D01*
X192243Y10646D01*
X193009Y11089D01*
X193635Y11715D01*
X194078Y12482D01*
X194307Y13337D01*
Y14222D01*
X194078Y15077D01*
X193635Y15844D01*
X193009Y16470D01*
X192243Y16913D01*
X191387Y17142D01*
D02*
G37*
G36*
X181545D02*
X180660D01*
X179805Y16913D01*
X179038Y16470D01*
X178412Y15844D01*
X177969Y15077D01*
X177740Y14222D01*
Y13337D01*
X177969Y12482D01*
X178412Y11715D01*
X179038Y11089D01*
X179805Y10646D01*
X180660Y10417D01*
X181545D01*
X182400Y10646D01*
X183167Y11089D01*
X183793Y11715D01*
X184235Y12482D01*
X184465Y13337D01*
Y14222D01*
X184235Y15077D01*
X183793Y15844D01*
X183167Y16470D01*
X182400Y16913D01*
X181545Y17142D01*
D02*
G37*
G36*
X171703D02*
X170817D01*
X169962Y16913D01*
X169195Y16470D01*
X168569Y15844D01*
X168127Y15077D01*
X167898Y14222D01*
Y13337D01*
X168127Y12482D01*
X168569Y11715D01*
X169195Y11089D01*
X169962Y10646D01*
X170817Y10417D01*
X171703D01*
X172558Y10646D01*
X173324Y11089D01*
X173950Y11715D01*
X174393Y12482D01*
X174622Y13337D01*
Y14222D01*
X174393Y15077D01*
X173950Y15844D01*
X173324Y16470D01*
X172558Y16913D01*
X171703Y17142D01*
D02*
G37*
G36*
X161860D02*
X160975D01*
X160120Y16913D01*
X159353Y16470D01*
X158727Y15844D01*
X158284Y15077D01*
X158055Y14222D01*
Y13337D01*
X158284Y12482D01*
X158727Y11715D01*
X159353Y11089D01*
X160120Y10646D01*
X160975Y10417D01*
X161860D01*
X162715Y10646D01*
X163482Y11089D01*
X164108Y11715D01*
X164550Y12482D01*
X164779Y13337D01*
Y14222D01*
X164550Y15077D01*
X164108Y15844D01*
X163482Y16470D01*
X162715Y16913D01*
X161860Y17142D01*
D02*
G37*
G36*
X152017D02*
X151132D01*
X150277Y16913D01*
X149510Y16470D01*
X148884Y15844D01*
X148442Y15077D01*
X148213Y14222D01*
Y13337D01*
X148442Y12482D01*
X148884Y11715D01*
X149510Y11089D01*
X150277Y10646D01*
X151132Y10417D01*
X152017D01*
X152873Y10646D01*
X153639Y11089D01*
X154265Y11715D01*
X154708Y12482D01*
X154937Y13337D01*
Y14222D01*
X154708Y15077D01*
X154265Y15844D01*
X153639Y16470D01*
X152873Y16913D01*
X152017Y17142D01*
D02*
G37*
G36*
X142175D02*
X141290D01*
X140435Y16913D01*
X139668Y16470D01*
X139042Y15844D01*
X138599Y15077D01*
X138370Y14222D01*
Y13337D01*
X138599Y12482D01*
X139042Y11715D01*
X139668Y11089D01*
X140435Y10646D01*
X141290Y10417D01*
X142175D01*
X143030Y10646D01*
X143797Y11089D01*
X144423Y11715D01*
X144865Y12482D01*
X145095Y13337D01*
Y14222D01*
X144865Y15077D01*
X144423Y15844D01*
X143797Y16470D01*
X143030Y16913D01*
X142175Y17142D01*
D02*
G37*
G36*
X112647D02*
X111762D01*
X110907Y16913D01*
X110140Y16470D01*
X109514Y15844D01*
X109072Y15077D01*
X108843Y14222D01*
Y13337D01*
X109072Y12482D01*
X109514Y11715D01*
X110140Y11089D01*
X110907Y10646D01*
X111762Y10417D01*
X112647D01*
X113503Y10646D01*
X114269Y11089D01*
X114895Y11715D01*
X115338Y12482D01*
X115567Y13337D01*
Y14222D01*
X115338Y15077D01*
X114895Y15844D01*
X114269Y16470D01*
X113503Y16913D01*
X112647Y17142D01*
D02*
G37*
G36*
X102805D02*
X101920D01*
X101064Y16913D01*
X100298Y16470D01*
X99672Y15844D01*
X99229Y15077D01*
X99000Y14222D01*
Y13337D01*
X99229Y12482D01*
X99672Y11715D01*
X100298Y11089D01*
X101064Y10646D01*
X101920Y10417D01*
X102805D01*
X103660Y10646D01*
X104427Y11089D01*
X105053Y11715D01*
X105495Y12482D01*
X105724Y13337D01*
Y14222D01*
X105495Y15077D01*
X105053Y15844D01*
X104427Y16470D01*
X103660Y16913D01*
X102805Y17142D01*
D02*
G37*
G36*
X92962D02*
X92077D01*
X91222Y16913D01*
X90455Y16470D01*
X89829Y15844D01*
X89387Y15077D01*
X89157Y14222D01*
Y13337D01*
X89387Y12482D01*
X89829Y11715D01*
X90455Y11089D01*
X91222Y10646D01*
X92077Y10417D01*
X92962D01*
X93817Y10646D01*
X94584Y11089D01*
X95210Y11715D01*
X95653Y12482D01*
X95882Y13337D01*
Y14222D01*
X95653Y15077D01*
X95210Y15844D01*
X94584Y16470D01*
X93817Y16913D01*
X92962Y17142D01*
D02*
G37*
G36*
X83120D02*
X82235D01*
X81379Y16913D01*
X80613Y16470D01*
X79987Y15844D01*
X79544Y15077D01*
X79315Y14222D01*
Y13337D01*
X79544Y12482D01*
X79987Y11715D01*
X80613Y11089D01*
X81379Y10646D01*
X82235Y10417D01*
X83120D01*
X83975Y10646D01*
X84742Y11089D01*
X85368Y11715D01*
X85810Y12482D01*
X86039Y13337D01*
Y14222D01*
X85810Y15077D01*
X85368Y15844D01*
X84742Y16470D01*
X83975Y16913D01*
X83120Y17142D01*
D02*
G37*
G36*
X73277D02*
X72392D01*
X71537Y16913D01*
X70770Y16470D01*
X70144Y15844D01*
X69702Y15077D01*
X69472Y14222D01*
Y13337D01*
X69702Y12482D01*
X70144Y11715D01*
X70770Y11089D01*
X71537Y10646D01*
X72392Y10417D01*
X73277D01*
X74132Y10646D01*
X74899Y11089D01*
X75525Y11715D01*
X75968Y12482D01*
X76197Y13337D01*
Y14222D01*
X75968Y15077D01*
X75525Y15844D01*
X74899Y16470D01*
X74132Y16913D01*
X73277Y17142D01*
D02*
G37*
G36*
X63435D02*
X62550D01*
X61694Y16913D01*
X60928Y16470D01*
X60302Y15844D01*
X59859Y15077D01*
X59630Y14222D01*
Y13337D01*
X59859Y12482D01*
X60302Y11715D01*
X60928Y11089D01*
X61694Y10646D01*
X62550Y10417D01*
X63435D01*
X64290Y10646D01*
X65057Y11089D01*
X65683Y11715D01*
X66125Y12482D01*
X66354Y13337D01*
Y14222D01*
X66125Y15077D01*
X65683Y15844D01*
X65057Y16470D01*
X64290Y16913D01*
X63435Y17142D01*
D02*
G37*
G36*
X53592D02*
X52707D01*
X51852Y16913D01*
X51085Y16470D01*
X50459Y15844D01*
X50016Y15077D01*
X49787Y14222D01*
Y13337D01*
X50016Y12482D01*
X50459Y11715D01*
X51085Y11089D01*
X51852Y10646D01*
X52707Y10417D01*
X53592D01*
X54447Y10646D01*
X55214Y11089D01*
X55840Y11715D01*
X56283Y12482D01*
X56512Y13337D01*
Y14222D01*
X56283Y15077D01*
X55840Y15844D01*
X55214Y16470D01*
X54447Y16913D01*
X53592Y17142D01*
D02*
G37*
G36*
X43750D02*
X42864D01*
X42009Y16913D01*
X41243Y16470D01*
X40617Y15844D01*
X40174Y15077D01*
X39945Y14222D01*
Y13337D01*
X40174Y12482D01*
X40617Y11715D01*
X41243Y11089D01*
X42009Y10646D01*
X42864Y10417D01*
X43750D01*
X44605Y10646D01*
X45371Y11089D01*
X45998Y11715D01*
X46440Y12482D01*
X46669Y13337D01*
Y14222D01*
X46440Y15077D01*
X45998Y15844D01*
X45371Y16470D01*
X44605Y16913D01*
X43750Y17142D01*
D02*
G37*
%LPD*%
G36*
X102862Y291028D02*
X106148D01*
Y279734D01*
X106264Y279149D01*
X106596Y278653D01*
X114635Y270614D01*
Y266753D01*
X114135Y266548D01*
X113503Y266913D01*
X112647Y267142D01*
X111762D01*
X110907Y266913D01*
X110297Y266561D01*
X109797Y266781D01*
Y269685D01*
X109681Y270270D01*
X109349Y270766D01*
X98577Y281539D01*
Y291028D01*
X101862D01*
Y295276D01*
X102862D01*
Y291028D01*
D02*
G37*
G36*
X114808Y250921D02*
X115083Y250511D01*
X131132Y234461D01*
X131035Y233970D01*
X130822Y233882D01*
X130291Y233352D01*
X130183Y233090D01*
X129692Y232993D01*
X112747Y249938D01*
X112906Y250486D01*
X113503Y250646D01*
X114229Y251066D01*
X114332Y251069D01*
X114808Y250921D01*
D02*
G37*
G36*
X145627Y219966D02*
X145609Y219892D01*
X145382Y219504D01*
X144763D01*
X144259Y219295D01*
X143390D01*
X132599Y230086D01*
X132697Y230576D01*
X132958Y230685D01*
X133489Y231215D01*
X133577Y231428D01*
X134067Y231526D01*
X145627Y219966D01*
D02*
G37*
G36*
X100578Y256632D02*
X100298Y256470D01*
X99672Y255844D01*
X99229Y255077D01*
X99000Y254222D01*
Y253337D01*
X99229Y252482D01*
X99672Y251715D01*
X100298Y251089D01*
X100833Y250780D01*
Y228346D01*
X100949Y227761D01*
X101281Y227265D01*
X183228Y145318D01*
X183063Y144775D01*
X182803Y144724D01*
X182307Y144392D01*
X181690Y143775D01*
X181358Y143279D01*
X181242Y142694D01*
Y142441D01*
X180780Y142249D01*
X94049Y228980D01*
Y250780D01*
X94584Y251089D01*
X95210Y251715D01*
X95653Y252482D01*
X95882Y253337D01*
Y254222D01*
X95653Y255077D01*
X95210Y255844D01*
X94584Y256470D01*
X94303Y256632D01*
X94437Y257132D01*
X100444D01*
X100578Y256632D01*
D02*
G37*
G36*
X114888Y137609D02*
Y56145D01*
X112953Y54211D01*
X112565Y54529D01*
X112830Y54927D01*
X112947Y55512D01*
Y136374D01*
X114388Y137816D01*
X114888Y137609D01*
D02*
G37*
%LPC*%
G36*
X897744Y245929D02*
Y244595D01*
X899078D01*
X898843Y245163D01*
X898312Y245693D01*
X897744Y245929D01*
D02*
G37*
G36*
X896744D02*
X896176Y245693D01*
X895645Y245163D01*
X895410Y244595D01*
X896744D01*
Y245929D01*
D02*
G37*
G36*
X889870D02*
Y244595D01*
X891204D01*
X890969Y245163D01*
X890438Y245693D01*
X889870Y245929D01*
D02*
G37*
G36*
X888870D02*
X888302Y245693D01*
X887771Y245163D01*
X887536Y244595D01*
X888870D01*
Y245929D01*
D02*
G37*
G36*
X881996D02*
Y244595D01*
X883330D01*
X883095Y245163D01*
X882564Y245693D01*
X881996Y245929D01*
D02*
G37*
G36*
X880996D02*
X880428Y245693D01*
X879897Y245163D01*
X879662Y244595D01*
X880996D01*
Y245929D01*
D02*
G37*
G36*
X899078Y243595D02*
X897744D01*
Y242260D01*
X898312Y242496D01*
X898843Y243026D01*
X899078Y243595D01*
D02*
G37*
G36*
X896744D02*
X895410D01*
X895645Y243026D01*
X896176Y242496D01*
X896744Y242260D01*
Y243595D01*
D02*
G37*
G36*
X891204D02*
X889870D01*
Y242260D01*
X890438Y242496D01*
X890969Y243026D01*
X891204Y243595D01*
D02*
G37*
G36*
X888870D02*
X887536D01*
X887771Y243026D01*
X888302Y242496D01*
X888870Y242260D01*
Y243595D01*
D02*
G37*
G36*
X883330D02*
X881996D01*
Y242260D01*
X882564Y242496D01*
X883095Y243026D01*
X883330Y243595D01*
D02*
G37*
G36*
X880996D02*
X879662D01*
X879897Y243026D01*
X880428Y242496D01*
X880996Y242260D01*
Y243595D01*
D02*
G37*
G36*
X897744Y238055D02*
Y236720D01*
X899078D01*
X898843Y237289D01*
X898312Y237819D01*
X897744Y238055D01*
D02*
G37*
G36*
X896744D02*
X896176Y237819D01*
X895645Y237289D01*
X895410Y236720D01*
X896744D01*
Y238055D01*
D02*
G37*
G36*
X889870D02*
Y236720D01*
X891204D01*
X890969Y237289D01*
X890438Y237819D01*
X889870Y238055D01*
D02*
G37*
G36*
X888870D02*
X888302Y237819D01*
X887771Y237289D01*
X887536Y236720D01*
X888870D01*
Y238055D01*
D02*
G37*
G36*
X881996D02*
Y236720D01*
X883330D01*
X883095Y237289D01*
X882564Y237819D01*
X881996Y238055D01*
D02*
G37*
G36*
X880996D02*
X880428Y237819D01*
X879897Y237289D01*
X879662Y236720D01*
X880996D01*
Y238055D01*
D02*
G37*
G36*
X899078Y235720D02*
X897744D01*
Y234386D01*
X898312Y234622D01*
X898843Y235152D01*
X899078Y235720D01*
D02*
G37*
G36*
X896744D02*
X895410D01*
X895645Y235152D01*
X896176Y234622D01*
X896744Y234386D01*
Y235720D01*
D02*
G37*
G36*
X891204D02*
X889870D01*
Y234386D01*
X890438Y234622D01*
X890969Y235152D01*
X891204Y235720D01*
D02*
G37*
G36*
X888870D02*
X887536D01*
X887771Y235152D01*
X888302Y234622D01*
X888870Y234386D01*
Y235720D01*
D02*
G37*
G36*
X883330D02*
X881996D01*
Y234386D01*
X882564Y234622D01*
X883095Y235152D01*
X883330Y235720D01*
D02*
G37*
G36*
X880996D02*
X879662D01*
X879897Y235152D01*
X880428Y234622D01*
X880996Y234386D01*
Y235720D01*
D02*
G37*
G36*
X897744Y230181D02*
Y228847D01*
X899078D01*
X898843Y229415D01*
X898312Y229945D01*
X897744Y230181D01*
D02*
G37*
G36*
X896744D02*
X896176Y229945D01*
X895645Y229415D01*
X895410Y228847D01*
X896744D01*
Y230181D01*
D02*
G37*
G36*
X889870D02*
Y228847D01*
X891204D01*
X890969Y229415D01*
X890438Y229945D01*
X889870Y230181D01*
D02*
G37*
G36*
X888870D02*
X888302Y229945D01*
X887771Y229415D01*
X887536Y228847D01*
X888870D01*
Y230181D01*
D02*
G37*
G36*
X881996D02*
Y228847D01*
X883330D01*
X883095Y229415D01*
X882564Y229945D01*
X881996Y230181D01*
D02*
G37*
G36*
X880996D02*
X880428Y229945D01*
X879897Y229415D01*
X879662Y228847D01*
X880996D01*
Y230181D01*
D02*
G37*
G36*
X899078Y227847D02*
X897744D01*
Y226512D01*
X898312Y226748D01*
X898843Y227278D01*
X899078Y227847D01*
D02*
G37*
G36*
X896744D02*
X895410D01*
X895645Y227278D01*
X896176Y226748D01*
X896744Y226512D01*
Y227847D01*
D02*
G37*
G36*
X891204D02*
X889870D01*
Y226512D01*
X890438Y226748D01*
X890969Y227278D01*
X891204Y227847D01*
D02*
G37*
G36*
X888870D02*
X887536D01*
X887771Y227278D01*
X888302Y226748D01*
X888870Y226512D01*
Y227847D01*
D02*
G37*
G36*
X883330D02*
X881996D01*
Y226512D01*
X882564Y226748D01*
X883095Y227278D01*
X883330Y227847D01*
D02*
G37*
G36*
X880996D02*
X879662D01*
X879897Y227278D01*
X880428Y226748D01*
X880996Y226512D01*
Y227847D01*
D02*
G37*
G36*
X721366Y245929D02*
Y244595D01*
X722700D01*
X722465Y245163D01*
X721934Y245693D01*
X721366Y245929D01*
D02*
G37*
G36*
X720366D02*
X719798Y245693D01*
X719267Y245163D01*
X719032Y244595D01*
X720366D01*
Y245929D01*
D02*
G37*
G36*
X713492D02*
Y244595D01*
X714826D01*
X714591Y245163D01*
X714060Y245693D01*
X713492Y245929D01*
D02*
G37*
G36*
X712492D02*
X711924Y245693D01*
X711393Y245163D01*
X711158Y244595D01*
X712492D01*
Y245929D01*
D02*
G37*
G36*
X705618D02*
Y244595D01*
X706952D01*
X706717Y245163D01*
X706186Y245693D01*
X705618Y245929D01*
D02*
G37*
G36*
X704618D02*
X704050Y245693D01*
X703519Y245163D01*
X703284Y244595D01*
X704618D01*
Y245929D01*
D02*
G37*
G36*
X722700Y243595D02*
X721366D01*
Y242260D01*
X721934Y242496D01*
X722465Y243026D01*
X722700Y243595D01*
D02*
G37*
G36*
X720366D02*
X719032D01*
X719267Y243026D01*
X719798Y242496D01*
X720366Y242260D01*
Y243595D01*
D02*
G37*
G36*
X714826D02*
X713492D01*
Y242260D01*
X714060Y242496D01*
X714591Y243026D01*
X714826Y243595D01*
D02*
G37*
G36*
X712492D02*
X711158D01*
X711393Y243026D01*
X711924Y242496D01*
X712492Y242260D01*
Y243595D01*
D02*
G37*
G36*
X706952D02*
X705618D01*
Y242260D01*
X706186Y242496D01*
X706717Y243026D01*
X706952Y243595D01*
D02*
G37*
G36*
X704618D02*
X703284D01*
X703519Y243026D01*
X704050Y242496D01*
X704618Y242260D01*
Y243595D01*
D02*
G37*
G36*
X721366Y238055D02*
Y236720D01*
X722700D01*
X722465Y237289D01*
X721934Y237819D01*
X721366Y238055D01*
D02*
G37*
G36*
X720366D02*
X719798Y237819D01*
X719267Y237289D01*
X719032Y236720D01*
X720366D01*
Y238055D01*
D02*
G37*
G36*
X713492D02*
Y236720D01*
X714826D01*
X714591Y237289D01*
X714060Y237819D01*
X713492Y238055D01*
D02*
G37*
G36*
X712492D02*
X711924Y237819D01*
X711393Y237289D01*
X711158Y236720D01*
X712492D01*
Y238055D01*
D02*
G37*
G36*
X705618D02*
Y236720D01*
X706952D01*
X706717Y237289D01*
X706186Y237819D01*
X705618Y238055D01*
D02*
G37*
G36*
X704618D02*
X704050Y237819D01*
X703519Y237289D01*
X703284Y236720D01*
X704618D01*
Y238055D01*
D02*
G37*
G36*
X722700Y235720D02*
X721366D01*
Y234386D01*
X721934Y234622D01*
X722465Y235152D01*
X722700Y235720D01*
D02*
G37*
G36*
X720366D02*
X719032D01*
X719267Y235152D01*
X719798Y234622D01*
X720366Y234386D01*
Y235720D01*
D02*
G37*
G36*
X714826D02*
X713492D01*
Y234386D01*
X714060Y234622D01*
X714591Y235152D01*
X714826Y235720D01*
D02*
G37*
G36*
X712492D02*
X711158D01*
X711393Y235152D01*
X711924Y234622D01*
X712492Y234386D01*
Y235720D01*
D02*
G37*
G36*
X706952D02*
X705618D01*
Y234386D01*
X706186Y234622D01*
X706717Y235152D01*
X706952Y235720D01*
D02*
G37*
G36*
X704618D02*
X703284D01*
X703519Y235152D01*
X704050Y234622D01*
X704618Y234386D01*
Y235720D01*
D02*
G37*
G36*
X721366Y230181D02*
Y228847D01*
X722700D01*
X722465Y229415D01*
X721934Y229945D01*
X721366Y230181D01*
D02*
G37*
G36*
X720366D02*
X719798Y229945D01*
X719267Y229415D01*
X719032Y228847D01*
X720366D01*
Y230181D01*
D02*
G37*
G36*
X713492D02*
Y228847D01*
X714826D01*
X714591Y229415D01*
X714060Y229945D01*
X713492Y230181D01*
D02*
G37*
G36*
X712492D02*
X711924Y229945D01*
X711393Y229415D01*
X711158Y228847D01*
X712492D01*
Y230181D01*
D02*
G37*
G36*
X705618D02*
Y228847D01*
X706952D01*
X706717Y229415D01*
X706186Y229945D01*
X705618Y230181D01*
D02*
G37*
G36*
X704618D02*
X704050Y229945D01*
X703519Y229415D01*
X703284Y228847D01*
X704618D01*
Y230181D01*
D02*
G37*
G36*
X722700Y227847D02*
X721366D01*
Y226512D01*
X721934Y226748D01*
X722465Y227278D01*
X722700Y227847D01*
D02*
G37*
G36*
X720366D02*
X719032D01*
X719267Y227278D01*
X719798Y226748D01*
X720366Y226512D01*
Y227847D01*
D02*
G37*
G36*
X714826D02*
X713492D01*
Y226512D01*
X714060Y226748D01*
X714591Y227278D01*
X714826Y227847D01*
D02*
G37*
G36*
X712492D02*
X711158D01*
X711393Y227278D01*
X711924Y226748D01*
X712492Y226512D01*
Y227847D01*
D02*
G37*
G36*
X706952D02*
X705618D01*
Y226512D01*
X706186Y226748D01*
X706717Y227278D01*
X706952Y227847D01*
D02*
G37*
G36*
X704618D02*
X703284D01*
X703519Y227278D01*
X704050Y226748D01*
X704618Y226512D01*
Y227847D01*
D02*
G37*
G36*
X437101Y188499D02*
X435767D01*
Y187165D01*
X436335Y187400D01*
X436865Y187931D01*
X437101Y188499D01*
D02*
G37*
G36*
X434767D02*
X433433D01*
X433668Y187931D01*
X434198Y187400D01*
X434767Y187165D01*
Y188499D01*
D02*
G37*
G36*
X316871Y185941D02*
X316121D01*
X315428Y185654D01*
X314897Y185123D01*
X314610Y184430D01*
Y183680D01*
X314897Y182987D01*
X315428Y182456D01*
X316121Y182169D01*
X316871D01*
X317564Y182456D01*
X318095Y182987D01*
X318382Y183680D01*
Y184430D01*
X318095Y185123D01*
X317564Y185654D01*
X316871Y185941D01*
D02*
G37*
G36*
X407855Y184957D02*
X407105D01*
X406412Y184670D01*
X406343Y184600D01*
X393701D01*
X393115Y184484D01*
X392619Y184152D01*
X378801Y170334D01*
X378301Y170541D01*
Y171414D01*
X382167Y175279D01*
X382265D01*
X382958Y175567D01*
X383488Y176097D01*
X383776Y176790D01*
Y177541D01*
X383488Y178234D01*
X382958Y178764D01*
X382265Y179051D01*
X381515D01*
X380821Y178764D01*
X380291Y178234D01*
X380004Y177541D01*
Y177442D01*
X375690Y173129D01*
X375359Y172633D01*
X375242Y172047D01*
Y153893D01*
X375173Y153824D01*
X374886Y153131D01*
Y152381D01*
X375173Y151688D01*
X375703Y151157D01*
X376396Y150870D01*
X377147D01*
X377840Y151157D01*
X378370Y151688D01*
X378658Y152381D01*
Y152594D01*
X379073Y152871D01*
X379152Y152839D01*
X379903D01*
X380596Y153126D01*
X381126Y153656D01*
X381413Y154349D01*
Y155099D01*
X381126Y155793D01*
X381057Y155862D01*
Y168264D01*
X394334Y181542D01*
X406343D01*
X406412Y181472D01*
X407105Y181185D01*
X407855D01*
X408548Y181472D01*
X409079Y182003D01*
X409366Y182696D01*
Y183446D01*
X409079Y184139D01*
X408548Y184670D01*
X407855Y184957D01*
D02*
G37*
G36*
X403918Y181020D02*
X403168D01*
X402475Y180733D01*
X401945Y180202D01*
X401657Y179509D01*
Y178759D01*
X401945Y178066D01*
X402475Y177535D01*
X403168Y177248D01*
X403918D01*
X404611Y177535D01*
X405142Y178066D01*
X405429Y178759D01*
Y179509D01*
X405142Y180202D01*
X404611Y180733D01*
X403918Y181020D01*
D02*
G37*
G36*
X470472Y206254D02*
X340551D01*
X339966Y206137D01*
X339470Y205806D01*
X323722Y190058D01*
X323390Y189562D01*
X323274Y188976D01*
Y150913D01*
X323174Y150855D01*
X322774Y150759D01*
X322328Y151205D01*
X321635Y151492D01*
X320885D01*
X320192Y151205D01*
X319661Y150674D01*
X319374Y149981D01*
Y149231D01*
X319661Y148538D01*
X320192Y148008D01*
X320885Y147721D01*
X321635D01*
X322328Y148008D01*
X322774Y148453D01*
X323174Y148357D01*
X323274Y148300D01*
Y118744D01*
X311985Y107455D01*
X297299D01*
X297230Y107524D01*
X296536Y107811D01*
X295786D01*
X295093Y107524D01*
X294563Y106993D01*
X294276Y106300D01*
Y105550D01*
X294563Y104857D01*
X295093Y104326D01*
X295786Y104039D01*
X296536D01*
X297230Y104326D01*
X297299Y104396D01*
X312156D01*
X312363Y103896D01*
X310922Y102455D01*
X297299D01*
X297230Y102524D01*
X296536Y102811D01*
X295786D01*
X295093Y102524D01*
X294563Y101993D01*
X294276Y101300D01*
Y100550D01*
X294563Y99857D01*
X295093Y99326D01*
X295786Y99039D01*
X296536D01*
X297230Y99326D01*
X297299Y99396D01*
X311093D01*
X311300Y98896D01*
X309859Y97455D01*
X297299D01*
X297230Y97524D01*
X296536Y97811D01*
X295786D01*
X295093Y97524D01*
X294563Y96993D01*
X294276Y96300D01*
Y95550D01*
X294563Y94857D01*
X295093Y94327D01*
X295786Y94039D01*
X296536D01*
X297230Y94327D01*
X297299Y94396D01*
X310030D01*
X310237Y93896D01*
X308796Y92455D01*
X297299D01*
X297230Y92524D01*
X296536Y92811D01*
X295786D01*
X295093Y92524D01*
X294563Y91993D01*
X294276Y91300D01*
Y90550D01*
X294563Y89857D01*
X295093Y89327D01*
X295786Y89039D01*
X296536D01*
X297230Y89327D01*
X297299Y89396D01*
X309429D01*
X310014Y89512D01*
X310511Y89844D01*
X331790Y111123D01*
X332122Y111619D01*
X332238Y112205D01*
Y182437D01*
X347090Y197290D01*
X428607D01*
X434593Y191303D01*
X434476Y190713D01*
X434198Y190598D01*
X433668Y190067D01*
X433433Y189499D01*
X437101D01*
X437093Y189517D01*
X437371Y189932D01*
X437778D01*
X438364Y190049D01*
X438860Y190380D01*
X445726Y197247D01*
X452535Y190437D01*
X453032Y190106D01*
X453617Y189989D01*
X454798D01*
X455383Y190106D01*
X455879Y190437D01*
X462732Y197290D01*
X463933D01*
X486303Y174920D01*
Y174822D01*
X486590Y174129D01*
X487121Y173598D01*
X487814Y173311D01*
X488564D01*
X489257Y173598D01*
X489788Y174129D01*
X489887Y174368D01*
X490428D01*
X490527Y174129D01*
X491058Y173598D01*
X491751Y173311D01*
X492501D01*
X493194Y173598D01*
X493725Y174129D01*
X493824Y174368D01*
X494365D01*
X494464Y174129D01*
X494995Y173598D01*
X495688Y173311D01*
X496438D01*
X497131Y173598D01*
X497662Y174129D01*
X497761Y174368D01*
X498302D01*
X498401Y174129D01*
X498932Y173598D01*
X499625Y173311D01*
X500375D01*
X501068Y173598D01*
X501599Y174129D01*
X501886Y174822D01*
Y175572D01*
X501599Y176265D01*
X501068Y176796D01*
X500375Y177083D01*
X500277D01*
X471554Y205806D01*
X471058Y206137D01*
X470472Y206254D01*
D02*
G37*
G36*
X473848Y173146D02*
X473097D01*
X472404Y172859D01*
X471874Y172328D01*
X471587Y171635D01*
Y170885D01*
X471874Y170192D01*
X472404Y169661D01*
X473097Y169374D01*
X473848D01*
X474541Y169661D01*
X475071Y170192D01*
X475358Y170885D01*
Y171635D01*
X475071Y172328D01*
X474541Y172859D01*
X473848Y173146D01*
D02*
G37*
G36*
X441445Y170338D02*
Y169004D01*
X442779D01*
X442544Y169572D01*
X442013Y170103D01*
X441445Y170338D01*
D02*
G37*
G36*
X440445D02*
X439877Y170103D01*
X439346Y169572D01*
X439111Y169004D01*
X440445D01*
Y170338D01*
D02*
G37*
G36*
X442779Y168004D02*
X441445D01*
Y166670D01*
X442013Y166905D01*
X442544Y167436D01*
X442779Y168004D01*
D02*
G37*
G36*
X440445D02*
X439111D01*
X439346Y167436D01*
X439877Y166905D01*
X440445Y166670D01*
Y168004D01*
D02*
G37*
G36*
X413386Y196411D02*
X348425D01*
X347840Y196295D01*
X347344Y195963D01*
X333564Y182184D01*
X333233Y181688D01*
X333116Y181102D01*
Y57720D01*
X324170Y48774D01*
X297081D01*
X296685Y48695D01*
X296536Y48756D01*
X295786D01*
X295093Y48469D01*
X294563Y47938D01*
X294276Y47245D01*
Y46495D01*
X294563Y45802D01*
X295093Y45271D01*
X295786Y44984D01*
X296536D01*
X297230Y45271D01*
X297673Y45715D01*
X324341D01*
X324548Y45215D01*
X322733Y43400D01*
X297299D01*
X297230Y43469D01*
X296536Y43756D01*
X295786D01*
X295093Y43469D01*
X294563Y42938D01*
X294276Y42245D01*
Y41495D01*
X294563Y40802D01*
X295093Y40271D01*
X295786Y39984D01*
X296536D01*
X297230Y40271D01*
X297299Y40341D01*
X322904D01*
X323111Y39841D01*
X321670Y38399D01*
X297299D01*
X297230Y38469D01*
X296536Y38756D01*
X295786D01*
X295093Y38469D01*
X294563Y37938D01*
X294276Y37245D01*
Y36495D01*
X294563Y35802D01*
X295093Y35271D01*
X295786Y34984D01*
X296536D01*
X297230Y35271D01*
X297299Y35341D01*
X321841D01*
X322048Y34841D01*
X320607Y33400D01*
X297299D01*
X297230Y33469D01*
X296536Y33756D01*
X295786D01*
X295093Y33469D01*
X294563Y32938D01*
X294276Y32245D01*
Y31495D01*
X294563Y30802D01*
X295093Y30271D01*
X295786Y29984D01*
X296536D01*
X297230Y30271D01*
X297299Y30341D01*
X321240D01*
X321825Y30457D01*
X322322Y30789D01*
X341633Y50100D01*
X341964Y50596D01*
X342081Y51181D01*
Y53016D01*
X346980Y57916D01*
X347312Y58412D01*
X347428Y58997D01*
Y59997D01*
X347312Y60583D01*
X346980Y61079D01*
X342214Y65845D01*
X346980Y70611D01*
X347312Y71107D01*
X347428Y71693D01*
Y72693D01*
X347312Y73278D01*
X346980Y73774D01*
X342214Y78540D01*
X346980Y83307D01*
X347312Y83803D01*
X347428Y84388D01*
Y85388D01*
X347312Y85973D01*
X346980Y86469D01*
X342081Y91369D01*
Y92520D01*
Y174563D01*
X350016Y182499D01*
X350606Y182382D01*
X350764Y182003D01*
X351294Y181472D01*
X351987Y181185D01*
X352737D01*
X353430Y181472D01*
X353961Y182003D01*
X354248Y182696D01*
Y183446D01*
X353961Y184139D01*
X353430Y184670D01*
X353051Y184827D01*
X352934Y185416D01*
X354964Y187447D01*
X406847D01*
X413825Y180469D01*
Y164523D01*
X413756Y164454D01*
X413469Y163761D01*
Y163011D01*
X413756Y162318D01*
X414286Y161787D01*
X414979Y161500D01*
X415729D01*
X416423Y161787D01*
X416953Y162318D01*
X417052Y162557D01*
X417593D01*
X417693Y162318D01*
X418223Y161787D01*
X418916Y161500D01*
X419666D01*
X420360Y161787D01*
X420890Y162318D01*
X420989Y162557D01*
X421530D01*
X421630Y162318D01*
X422160Y161787D01*
X422853Y161500D01*
X423603D01*
X424297Y161787D01*
X424827Y162318D01*
X424926Y162557D01*
X425467D01*
X425567Y162318D01*
X426097Y161787D01*
X426790Y161500D01*
X427540D01*
X428234Y161787D01*
X428764Y162318D01*
X429051Y163011D01*
Y163761D01*
X428764Y164454D01*
X428695Y164523D01*
Y181102D01*
X428578Y181688D01*
X428247Y182184D01*
X414467Y195963D01*
X413971Y196295D01*
X413386Y196411D01*
D02*
G37*
G36*
X441320Y162516D02*
X440570D01*
X439877Y162229D01*
X439346Y161698D01*
X439059Y161005D01*
Y160255D01*
X439346Y159562D01*
X439877Y159031D01*
X440116Y158932D01*
Y158391D01*
X439877Y158292D01*
X439346Y157761D01*
X439247Y157522D01*
X438706D01*
X438607Y157761D01*
X438076Y158292D01*
X437383Y158579D01*
X436633D01*
X435940Y158292D01*
X435457Y157809D01*
X435183Y157834D01*
X434932Y157915D01*
X434670Y158548D01*
X434139Y159079D01*
X433446Y159366D01*
X432696D01*
X432003Y159079D01*
X431472Y158548D01*
X431185Y157855D01*
Y157105D01*
X431472Y156412D01*
X432003Y155882D01*
X432696Y155595D01*
X433446D01*
X434139Y155882D01*
X434622Y156365D01*
X434896Y156339D01*
X435147Y156258D01*
X435409Y155625D01*
X435940Y155094D01*
X436633Y154807D01*
X437383D01*
X438076Y155094D01*
X438607Y155625D01*
X438706Y155864D01*
X439247D01*
X439346Y155625D01*
X439877Y155094D01*
X440570Y154807D01*
X441320D01*
X442013Y155094D01*
X442544Y155625D01*
X442831Y156318D01*
Y157068D01*
X442544Y157761D01*
X442013Y158292D01*
X441774Y158391D01*
Y158932D01*
X442013Y159031D01*
X442544Y159562D01*
X442831Y160255D01*
Y161005D01*
X442544Y161698D01*
X442013Y162229D01*
X441320Y162516D01*
D02*
G37*
G36*
X496807Y157346D02*
Y156012D01*
X498141D01*
X497906Y156580D01*
X497375Y157111D01*
X496807Y157346D01*
D02*
G37*
G36*
X495807D02*
X495239Y157111D01*
X494708Y156580D01*
X494473Y156012D01*
X495807D01*
Y157346D01*
D02*
G37*
G36*
X427665D02*
Y156012D01*
X428999D01*
X428764Y156580D01*
X428234Y157111D01*
X427665Y157346D01*
D02*
G37*
G36*
X426665D02*
X426097Y157111D01*
X425567Y156580D01*
X425331Y156012D01*
X426665D01*
Y157346D01*
D02*
G37*
G36*
X372422Y163303D02*
X371672D01*
X370979Y163016D01*
X370448Y162486D01*
X370161Y161792D01*
Y161042D01*
X370448Y160349D01*
X370979Y159819D01*
X371218Y159719D01*
Y159178D01*
X370979Y159079D01*
X370448Y158549D01*
X370161Y157855D01*
Y157105D01*
X370448Y156412D01*
X370979Y155882D01*
X371672Y155595D01*
X372422D01*
X373115Y155882D01*
X373646Y156412D01*
X373933Y157105D01*
Y157855D01*
X373646Y158549D01*
X373115Y159079D01*
X372876Y159178D01*
Y159719D01*
X373115Y159819D01*
X373646Y160349D01*
X373933Y161042D01*
Y161792D01*
X373646Y162486D01*
X373115Y163016D01*
X372422Y163303D01*
D02*
G37*
G36*
X498141Y155012D02*
X496807D01*
Y153678D01*
X497375Y153913D01*
X497906Y154444D01*
X498141Y155012D01*
D02*
G37*
G36*
X495807D02*
X494473D01*
X494708Y154444D01*
X495239Y153913D01*
X495807Y153678D01*
Y155012D01*
D02*
G37*
G36*
X428999D02*
X427665D01*
Y153678D01*
X428234Y153913D01*
X428764Y154444D01*
X428999Y155012D01*
D02*
G37*
G36*
X426665D02*
X425331D01*
X425567Y154444D01*
X426097Y153913D01*
X426665Y153678D01*
Y155012D01*
D02*
G37*
G36*
X366642Y151440D02*
Y150106D01*
X367976D01*
X367741Y150674D01*
X367210Y151205D01*
X366642Y151440D01*
D02*
G37*
G36*
X365642D02*
X365073Y151205D01*
X364543Y150674D01*
X364308Y150106D01*
X365642D01*
Y151440D01*
D02*
G37*
G36*
X445651Y182201D02*
X444901D01*
X444207Y181914D01*
X443677Y181383D01*
X443390Y180690D01*
Y179940D01*
X443677Y179247D01*
X443746Y179177D01*
Y154681D01*
X443677Y154612D01*
X443390Y153918D01*
Y153168D01*
X443677Y152475D01*
X444207Y151945D01*
X444901Y151657D01*
X445651D01*
X446039Y151819D01*
X446539Y151487D01*
Y151294D01*
X446827Y150601D01*
X447357Y150071D01*
X448050Y149784D01*
X448800D01*
X449493Y150071D01*
X450024Y150601D01*
X450311Y151294D01*
Y152045D01*
X450024Y152738D01*
X449978Y152784D01*
Y166516D01*
X458742Y175279D01*
X458840D01*
X459533Y175567D01*
X460063Y176097D01*
X460350Y176790D01*
Y177541D01*
X460063Y178234D01*
X459533Y178764D01*
X458840Y179051D01*
X458089D01*
X457396Y178764D01*
X456866Y178234D01*
X456579Y177541D01*
Y177442D01*
X447367Y168231D01*
X447305Y168138D01*
X446805Y168289D01*
Y179177D01*
X446874Y179247D01*
X447161Y179940D01*
Y180690D01*
X446874Y181383D01*
X446344Y181914D01*
X445651Y182201D01*
D02*
G37*
G36*
X435933Y150653D02*
Y149319D01*
X437267D01*
X437032Y149887D01*
X436501Y150418D01*
X435933Y150653D01*
D02*
G37*
G36*
X434933D02*
X434365Y150418D01*
X433834Y149887D01*
X433599Y149319D01*
X434933D01*
Y150653D01*
D02*
G37*
G36*
X367976Y149106D02*
X366642D01*
Y147772D01*
X367210Y148008D01*
X367741Y148538D01*
X367976Y149106D01*
D02*
G37*
G36*
X365642D02*
X364308D01*
X364543Y148538D01*
X365073Y148008D01*
X365642Y147772D01*
Y149106D01*
D02*
G37*
G36*
X437267Y148319D02*
X435933D01*
Y146985D01*
X436501Y147220D01*
X437032Y147751D01*
X437267Y148319D01*
D02*
G37*
G36*
X434933D02*
X433599D01*
X433834Y147751D01*
X434365Y147220D01*
X434933Y146985D01*
Y148319D01*
D02*
G37*
G36*
X496682Y149524D02*
X495932D01*
X495239Y149237D01*
X494708Y148706D01*
X494421Y148013D01*
Y147263D01*
X494708Y146570D01*
X495239Y146039D01*
X495932Y145752D01*
X496682D01*
X497375Y146039D01*
X497906Y146570D01*
X498193Y147263D01*
Y148013D01*
X497906Y148706D01*
X497375Y149237D01*
X496682Y149524D01*
D02*
G37*
G36*
X427540D02*
X426790D01*
X426097Y149237D01*
X425567Y148706D01*
X425280Y148013D01*
Y147263D01*
X425567Y146570D01*
X426097Y146039D01*
X426790Y145752D01*
X427540D01*
X428234Y146039D01*
X428764Y146570D01*
X429051Y147263D01*
Y148013D01*
X428764Y148706D01*
X428234Y149237D01*
X427540Y149524D01*
D02*
G37*
G36*
X434358Y145535D02*
Y144201D01*
X435692D01*
X435457Y144769D01*
X434927Y145299D01*
X434358Y145535D01*
D02*
G37*
G36*
X433358D02*
X432790Y145299D01*
X432260Y144769D01*
X432024Y144201D01*
X433358D01*
Y145535D01*
D02*
G37*
G36*
X369398D02*
Y144201D01*
X370732D01*
X370496Y144769D01*
X369966Y145299D01*
X369398Y145535D01*
D02*
G37*
G36*
X368398D02*
X367829Y145299D01*
X367299Y144769D01*
X367063Y144201D01*
X368398D01*
Y145535D01*
D02*
G37*
G36*
X435692Y143201D02*
X434358D01*
Y141867D01*
X434927Y142102D01*
X435457Y142633D01*
X435692Y143201D01*
D02*
G37*
G36*
X433358D02*
X432024D01*
X432260Y142633D01*
X432790Y142102D01*
X433358Y141867D01*
Y143201D01*
D02*
G37*
G36*
X370732D02*
X369398D01*
Y141867D01*
X369966Y142102D01*
X370496Y142633D01*
X370732Y143201D01*
D02*
G37*
G36*
X368398D02*
X367063D01*
X367299Y142633D01*
X367829Y142102D01*
X368398Y141867D01*
Y143201D01*
D02*
G37*
G36*
X428722Y143618D02*
X427971D01*
X427278Y143331D01*
X426748Y142800D01*
X426461Y142107D01*
Y141357D01*
X426748Y140664D01*
X427278Y140134D01*
X427971Y139847D01*
X428722D01*
X429415Y140134D01*
X429945Y140664D01*
X430232Y141357D01*
Y142107D01*
X429945Y142800D01*
X429415Y143331D01*
X428722Y143618D01*
D02*
G37*
G36*
X440533Y140862D02*
X439782D01*
X439089Y140575D01*
X439020Y140506D01*
X438189D01*
X437604Y140389D01*
X437108Y140058D01*
X436244Y139194D01*
X435744Y139351D01*
X435457Y140045D01*
X434927Y140575D01*
X434233Y140862D01*
X433483D01*
X432790Y140575D01*
X432260Y140045D01*
X431972Y139351D01*
Y138601D01*
X432260Y137908D01*
X432790Y137378D01*
X433483Y137091D01*
X434233D01*
X434927Y137378D01*
X434978Y137430D01*
X435478Y137223D01*
Y135612D01*
X434978Y135405D01*
X434927Y135457D01*
X434358Y135692D01*
Y133858D01*
Y132024D01*
X434927Y132260D01*
X434978Y132311D01*
X435478Y132104D01*
Y130888D01*
X434978Y130681D01*
X434927Y130733D01*
X434233Y131020D01*
X433483D01*
X432790Y130733D01*
X432260Y130202D01*
X431972Y129509D01*
Y128759D01*
X432260Y128066D01*
X432790Y127535D01*
X433483Y127248D01*
X434233D01*
X434927Y127535D01*
X434978Y127587D01*
X435478Y127380D01*
Y126618D01*
X435336Y126475D01*
X435004Y125979D01*
X434888Y125394D01*
Y95232D01*
X434819Y95163D01*
X434531Y94470D01*
Y93719D01*
X434819Y93026D01*
X435349Y92496D01*
X436042Y92209D01*
X436792D01*
X437486Y92496D01*
X438016Y93026D01*
X438303Y93719D01*
Y94470D01*
X438016Y95163D01*
X437947Y95232D01*
Y101859D01*
X438447Y101958D01*
X438559Y101688D01*
X439089Y101157D01*
X439657Y100922D01*
Y102756D01*
Y104590D01*
X439089Y104355D01*
X438559Y103824D01*
X438447Y103554D01*
X437947Y103653D01*
Y124760D01*
X438089Y124903D01*
X438421Y125399D01*
X438537Y125984D01*
Y137162D01*
X438823Y137447D01*
X439020D01*
X439089Y137378D01*
X439782Y137091D01*
X440533D01*
X441226Y137378D01*
X441756Y137908D01*
X442043Y138601D01*
Y139351D01*
X441756Y140045D01*
X441226Y140575D01*
X440533Y140862D01*
D02*
G37*
G36*
X499588Y141650D02*
X498838D01*
X498144Y141363D01*
X497614Y140832D01*
X497327Y140139D01*
Y139389D01*
X497614Y138696D01*
X498144Y138165D01*
X498838Y137878D01*
X499588D01*
X500281Y138165D01*
X500811Y138696D01*
X501098Y139389D01*
Y140139D01*
X500811Y140832D01*
X500281Y141363D01*
X499588Y141650D01*
D02*
G37*
G36*
X428847Y137661D02*
Y136327D01*
X430181D01*
X429945Y136895D01*
X429415Y137425D01*
X428847Y137661D01*
D02*
G37*
G36*
X369273Y139681D02*
X368523D01*
X367829Y139394D01*
X367299Y138864D01*
X367012Y138170D01*
Y137420D01*
X367299Y136727D01*
X367829Y136197D01*
X368523Y135909D01*
X369273D01*
X369966Y136197D01*
X370496Y136727D01*
X370783Y137420D01*
Y138170D01*
X370496Y138864D01*
X369966Y139394D01*
X369273Y139681D01*
D02*
G37*
G36*
X499713Y135692D02*
Y134358D01*
X501047D01*
X500811Y134926D01*
X500281Y135457D01*
X499713Y135692D01*
D02*
G37*
G36*
X433358D02*
X432790Y135457D01*
X432260Y134926D01*
X432024Y134358D01*
X433358D01*
Y135692D01*
D02*
G37*
G36*
X430181Y135327D02*
X428847D01*
Y133993D01*
X429415Y134228D01*
X429945Y134758D01*
X430181Y135327D01*
D02*
G37*
G36*
X422422Y137713D02*
X421672D01*
X420979Y137425D01*
X420448Y136895D01*
X420161Y136202D01*
Y135452D01*
X420448Y134758D01*
X420979Y134228D01*
X421672Y133941D01*
X422422D01*
X423115Y134228D01*
X423185Y134297D01*
X423382D01*
X423667Y134012D01*
Y120079D01*
X423784Y119493D01*
X424115Y118997D01*
X425045Y118067D01*
Y103653D01*
X424545Y103554D01*
X424433Y103824D01*
X423903Y104355D01*
X423335Y104590D01*
Y102756D01*
Y100922D01*
X423903Y101157D01*
X424433Y101688D01*
X424545Y101958D01*
X425045Y101859D01*
Y95232D01*
X424976Y95163D01*
X424689Y94470D01*
Y93719D01*
X424976Y93026D01*
X425507Y92496D01*
X426200Y92209D01*
X426950D01*
X427643Y92496D01*
X428173Y93026D01*
X428461Y93719D01*
Y94470D01*
X428173Y95163D01*
X428104Y95232D01*
Y118701D01*
X427988Y119286D01*
X427656Y119782D01*
X426726Y120712D01*
Y122262D01*
X427226Y122469D01*
X427278Y122417D01*
X427846Y122182D01*
Y124016D01*
Y125850D01*
X427278Y125615D01*
X427226Y125563D01*
X426726Y125770D01*
Y128167D01*
X427226Y128375D01*
X427278Y128323D01*
X427971Y128035D01*
X428722D01*
X429415Y128323D01*
X429945Y128853D01*
X430232Y129546D01*
Y130296D01*
X429945Y130990D01*
X429415Y131520D01*
X428722Y131807D01*
X427971D01*
X427278Y131520D01*
X427226Y131468D01*
X426726Y131675D01*
Y134073D01*
X427226Y134280D01*
X427278Y134228D01*
X427846Y133993D01*
Y135827D01*
Y137661D01*
X427278Y137425D01*
X426748Y136895D01*
X426461Y136202D01*
X425961Y136045D01*
X425097Y136908D01*
X424601Y137240D01*
X424016Y137356D01*
X423185D01*
X423115Y137425D01*
X422422Y137713D01*
D02*
G37*
G36*
X375572Y139681D02*
X374822D01*
X374129Y139394D01*
X373598Y138864D01*
X373311Y138170D01*
Y138072D01*
X370966Y135727D01*
X370634Y135231D01*
X370518Y134646D01*
Y133644D01*
X370018Y133437D01*
X369966Y133489D01*
X369398Y133724D01*
Y131890D01*
Y130056D01*
X369966Y130291D01*
X370018Y130343D01*
X370518Y130136D01*
Y127738D01*
X370018Y127531D01*
X369966Y127583D01*
X369273Y127870D01*
X368523D01*
X367829Y127583D01*
X367299Y127052D01*
X367012Y126359D01*
Y125609D01*
X367299Y124916D01*
X367829Y124385D01*
X368523Y124098D01*
X369273D01*
X369966Y124385D01*
X370018Y124437D01*
X370518Y124230D01*
Y122681D01*
X366044Y118207D01*
X365713Y117711D01*
X365597Y117126D01*
Y95232D01*
X365527Y95163D01*
X365240Y94470D01*
Y93719D01*
X365527Y93026D01*
X366058Y92496D01*
X366751Y92209D01*
X367501D01*
X368194Y92496D01*
X368725Y93026D01*
X369012Y93719D01*
Y94470D01*
X368725Y95163D01*
X368655Y95232D01*
Y101859D01*
X369155Y101958D01*
X369267Y101688D01*
X369798Y101157D01*
X370366Y100922D01*
Y102756D01*
Y104590D01*
X369798Y104355D01*
X369267Y103824D01*
X369155Y103554D01*
X368655Y103653D01*
Y116492D01*
X373129Y120966D01*
X373460Y121462D01*
X373577Y122047D01*
Y134012D01*
X375474Y135909D01*
X375572D01*
X376265Y136197D01*
X376796Y136727D01*
X377083Y137420D01*
Y138170D01*
X376796Y138864D01*
X376265Y139394D01*
X375572Y139681D01*
D02*
G37*
G36*
X469791Y133724D02*
Y132390D01*
X471125D01*
X470890Y132958D01*
X470360Y133489D01*
X469791Y133724D01*
D02*
G37*
G36*
X468791D02*
X468223Y133489D01*
X467693Y132958D01*
X467457Y132390D01*
X468791D01*
Y133724D01*
D02*
G37*
G36*
X400894D02*
Y132390D01*
X402228D01*
X401992Y132958D01*
X401462Y133489D01*
X400894Y133724D01*
D02*
G37*
G36*
X399894D02*
X399325Y133489D01*
X398795Y132958D01*
X398560Y132390D01*
X399894D01*
Y133724D01*
D02*
G37*
G36*
X368398D02*
X367829Y133489D01*
X367299Y132958D01*
X367063Y132390D01*
X368398D01*
Y133724D01*
D02*
G37*
G36*
X501047Y133358D02*
X499713D01*
Y132024D01*
X500281Y132260D01*
X500811Y132790D01*
X501047Y133358D01*
D02*
G37*
G36*
X493289Y135744D02*
X492538D01*
X491845Y135457D01*
X491315Y134926D01*
X491028Y134233D01*
Y133483D01*
X491315Y132790D01*
X491845Y132260D01*
X492538Y131973D01*
X493289D01*
X493837Y132200D01*
X494232Y132011D01*
X494337Y131908D01*
Y103653D01*
X493837Y103554D01*
X493725Y103824D01*
X493194Y104355D01*
X492626Y104590D01*
Y102756D01*
Y100922D01*
X493194Y101157D01*
X493725Y101688D01*
X493837Y101958D01*
X494337Y101859D01*
Y95232D01*
X494267Y95163D01*
X493980Y94470D01*
Y93719D01*
X494267Y93026D01*
X494798Y92496D01*
X495491Y92209D01*
X496241D01*
X496934Y92496D01*
X497465Y93026D01*
X497752Y93719D01*
Y94470D01*
X497465Y95163D01*
X497396Y95232D01*
Y120490D01*
X497895Y120697D01*
X498144Y120449D01*
X498713Y120213D01*
Y122047D01*
Y123881D01*
X498144Y123646D01*
X497895Y123397D01*
X497396Y123604D01*
Y126396D01*
X497895Y126603D01*
X498144Y126354D01*
X498838Y126067D01*
X499588D01*
X500281Y126354D01*
X500811Y126884D01*
X501098Y127578D01*
Y128328D01*
X500811Y129021D01*
X500281Y129551D01*
X499588Y129839D01*
X498838D01*
X498144Y129551D01*
X497895Y129303D01*
X497396Y129510D01*
Y132301D01*
X497895Y132508D01*
X498144Y132260D01*
X498713Y132024D01*
Y133858D01*
Y135692D01*
X498144Y135457D01*
X497614Y134926D01*
X497441Y134510D01*
X497209Y134434D01*
X496867Y134430D01*
X496357Y134940D01*
X495861Y135271D01*
X495276Y135388D01*
X494051D01*
X493982Y135457D01*
X493289Y135744D01*
D02*
G37*
G36*
X433358Y133358D02*
X432024D01*
X432260Y132790D01*
X432790Y132260D01*
X433358Y132024D01*
Y133358D01*
D02*
G37*
G36*
X471125Y131390D02*
X469791D01*
Y130056D01*
X470360Y130291D01*
X470890Y130822D01*
X471125Y131390D01*
D02*
G37*
G36*
X468791D02*
X467457D01*
X467693Y130822D01*
X468223Y130291D01*
X468791Y130056D01*
Y131390D01*
D02*
G37*
G36*
X402228D02*
X400894D01*
Y130056D01*
X401462Y130291D01*
X401992Y130822D01*
X402228Y131390D01*
D02*
G37*
G36*
X399894D02*
X398560D01*
X398795Y130822D01*
X399325Y130291D01*
X399894Y130056D01*
Y131390D01*
D02*
G37*
G36*
X368398D02*
X367063D01*
X367299Y130822D01*
X367829Y130291D01*
X368398Y130056D01*
Y131390D01*
D02*
G37*
G36*
X464155Y133776D02*
X463404D01*
X462711Y133489D01*
X462181Y132958D01*
X461894Y132265D01*
Y131515D01*
X462181Y130822D01*
X462711Y130291D01*
X463404Y130004D01*
X464155D01*
X464848Y130291D01*
X465378Y130822D01*
X465665Y131515D01*
Y132265D01*
X465378Y132958D01*
X464848Y133489D01*
X464155Y133776D01*
D02*
G37*
G36*
X395257D02*
X394507D01*
X393814Y133489D01*
X393283Y132958D01*
X392996Y132265D01*
Y131515D01*
X393283Y130822D01*
X393814Y130291D01*
X394507Y130004D01*
X395257D01*
X395950Y130291D01*
X396481Y130822D01*
X396768Y131515D01*
Y132265D01*
X396481Y132958D01*
X395950Y133489D01*
X395257Y133776D01*
D02*
G37*
G36*
X395382Y128212D02*
Y126878D01*
X396716D01*
X396481Y127446D01*
X395950Y127977D01*
X395382Y128212D01*
D02*
G37*
G36*
X464280Y127818D02*
Y126484D01*
X465614D01*
X465378Y127052D01*
X464848Y127583D01*
X464280Y127818D01*
D02*
G37*
G36*
X475966Y127870D02*
X475215D01*
X474522Y127583D01*
X474453Y127514D01*
X473622D01*
X473037Y127397D01*
X472541Y127066D01*
X471677Y126202D01*
X471177Y126359D01*
X470890Y127052D01*
X470360Y127583D01*
X469666Y127870D01*
X468916D01*
X468223Y127583D01*
X467693Y127052D01*
X467406Y126359D01*
Y125609D01*
X467693Y124916D01*
X468223Y124385D01*
X468916Y124098D01*
X469666D01*
X470360Y124385D01*
X470411Y124437D01*
X470912Y124230D01*
Y121833D01*
X470411Y121625D01*
X470360Y121677D01*
X469791Y121913D01*
Y120079D01*
Y118245D01*
X470360Y118480D01*
X470411Y118532D01*
X470912Y118325D01*
Y115927D01*
X470411Y115720D01*
X470360Y115772D01*
X469666Y116059D01*
X468916D01*
X468223Y115772D01*
X467693Y115242D01*
X467406Y114548D01*
Y113798D01*
X467693Y113105D01*
X468223Y112575D01*
X468916Y112287D01*
X469666D01*
X470360Y112575D01*
X470411Y112627D01*
X470912Y112419D01*
Y105561D01*
X469981Y104631D01*
X469650Y104135D01*
X469534Y103549D01*
Y95232D01*
X469464Y95163D01*
X469177Y94470D01*
Y93719D01*
X469464Y93026D01*
X469995Y92496D01*
X470688Y92209D01*
X471438D01*
X472131Y92496D01*
X472662Y93026D01*
X472949Y93719D01*
Y94470D01*
X472662Y95163D01*
X472592Y95232D01*
Y101859D01*
X473092Y101958D01*
X473204Y101688D01*
X473735Y101157D01*
X474303Y100922D01*
Y102756D01*
Y104654D01*
X474241Y104705D01*
X473970Y104993D01*
Y124170D01*
X474256Y124455D01*
X474453D01*
X474522Y124385D01*
X475215Y124098D01*
X475966D01*
X476659Y124385D01*
X477189Y124916D01*
X477476Y125609D01*
Y126359D01*
X477189Y127052D01*
X476659Y127583D01*
X475966Y127870D01*
D02*
G37*
G36*
X407068D02*
X406318D01*
X405625Y127583D01*
X405555Y127514D01*
X404724D01*
X404139Y127397D01*
X403643Y127066D01*
X402779Y126202D01*
X402280Y126359D01*
X401992Y127052D01*
X401462Y127583D01*
X400769Y127870D01*
X400019D01*
X399325Y127583D01*
X398795Y127052D01*
X398508Y126359D01*
Y125609D01*
X398795Y124916D01*
X399325Y124385D01*
X400019Y124098D01*
X400769D01*
X401462Y124385D01*
X401514Y124437D01*
X402014Y124230D01*
Y121833D01*
X401514Y121625D01*
X401462Y121677D01*
X400894Y121913D01*
Y120079D01*
Y118245D01*
X401462Y118480D01*
X401514Y118532D01*
X402014Y118325D01*
Y115927D01*
X401514Y115720D01*
X401462Y115772D01*
X400769Y116059D01*
X400019D01*
X399325Y115772D01*
X398795Y115242D01*
X398508Y114548D01*
Y113798D01*
X398795Y113105D01*
X399325Y112575D01*
X400019Y112287D01*
X400756D01*
X400791Y112250D01*
X401030Y111855D01*
X400690Y111514D01*
X400359Y111018D01*
X400242Y110433D01*
Y95232D01*
X400173Y95163D01*
X399886Y94470D01*
Y93719D01*
X400173Y93026D01*
X400703Y92496D01*
X401397Y92209D01*
X402147D01*
X402840Y92496D01*
X403370Y93026D01*
X403657Y93719D01*
Y94470D01*
X403370Y95163D01*
X403301Y95232D01*
Y101859D01*
X403801Y101958D01*
X403913Y101688D01*
X404444Y101157D01*
X405012Y100922D01*
Y102756D01*
Y104590D01*
X404444Y104355D01*
X403913Y103824D01*
X403801Y103554D01*
X403301Y103653D01*
Y109800D01*
X404625Y111123D01*
X404956Y111619D01*
X405073Y112205D01*
Y124170D01*
X405358Y124455D01*
X405555D01*
X405625Y124385D01*
X406318Y124098D01*
X407068D01*
X407761Y124385D01*
X408292Y124916D01*
X408579Y125609D01*
Y126359D01*
X408292Y127052D01*
X407761Y127583D01*
X407068Y127870D01*
D02*
G37*
G36*
X396716Y125878D02*
X395382D01*
Y124544D01*
X395950Y124779D01*
X396481Y125310D01*
X396716Y125878D01*
D02*
G37*
G36*
X388958Y128264D02*
X388208D01*
X387514Y127977D01*
X386984Y127446D01*
X386697Y126753D01*
Y126003D01*
X386984Y125310D01*
X387514Y124779D01*
X388208Y124492D01*
X388958D01*
X389651Y124779D01*
X389720Y124849D01*
X389918D01*
X390203Y124563D01*
Y110236D01*
X390319Y109651D01*
X390400Y109531D01*
Y103653D01*
X389900Y103554D01*
X389788Y103824D01*
X389257Y104355D01*
X388689Y104590D01*
Y102756D01*
Y100922D01*
X389257Y101157D01*
X389788Y101688D01*
X389900Y101958D01*
X390400Y101859D01*
Y95232D01*
X390330Y95163D01*
X390043Y94470D01*
Y93719D01*
X390330Y93026D01*
X390861Y92496D01*
X391554Y92209D01*
X392304D01*
X392997Y92496D01*
X393528Y93026D01*
X393815Y93719D01*
Y94470D01*
X393528Y95163D01*
X393459Y95232D01*
Y110039D01*
X393342Y110625D01*
X393262Y110745D01*
Y112419D01*
X393762Y112627D01*
X393814Y112575D01*
X394382Y112339D01*
Y114173D01*
Y116007D01*
X393814Y115772D01*
X393762Y115720D01*
X393262Y115927D01*
Y118325D01*
X393762Y118532D01*
X393814Y118480D01*
X394507Y118193D01*
X395257D01*
X395950Y118480D01*
X396481Y119010D01*
X396768Y119704D01*
Y120454D01*
X396481Y121147D01*
X395950Y121677D01*
X395257Y121965D01*
X394507D01*
X393814Y121677D01*
X393762Y121625D01*
X393262Y121833D01*
Y124624D01*
X393762Y124831D01*
X393814Y124779D01*
X394382Y124544D01*
Y126378D01*
Y128212D01*
X393814Y127977D01*
X393283Y127446D01*
X392996Y126753D01*
X392496Y126596D01*
X391633Y127459D01*
X391137Y127791D01*
X390551Y127907D01*
X389720D01*
X389651Y127977D01*
X388958Y128264D01*
D02*
G37*
G36*
X428847Y125850D02*
Y124516D01*
X430181D01*
X429945Y125084D01*
X429415Y125615D01*
X428847Y125850D01*
D02*
G37*
G36*
X465614Y125484D02*
X464280D01*
Y124150D01*
X464848Y124385D01*
X465378Y124916D01*
X465614Y125484D01*
D02*
G37*
G36*
X457855Y127870D02*
X457105D01*
X456412Y127583D01*
X455882Y127052D01*
X455594Y126359D01*
Y125609D01*
X455882Y124916D01*
X456412Y124385D01*
X457105Y124098D01*
X457855D01*
X458548Y124385D01*
X458618Y124455D01*
X458815D01*
X459100Y124170D01*
Y110236D01*
X459217Y109651D01*
X459549Y109155D01*
X459691Y109012D01*
Y103653D01*
X459191Y103554D01*
X459079Y103824D01*
X458548Y104355D01*
X457980Y104590D01*
Y102756D01*
Y100922D01*
X458548Y101157D01*
X459079Y101688D01*
X459191Y101958D01*
X459691Y101859D01*
Y95232D01*
X459622Y95163D01*
X459335Y94470D01*
Y93719D01*
X459622Y93026D01*
X460152Y92496D01*
X460845Y92209D01*
X461596D01*
X462289Y92496D01*
X462819Y93026D01*
X463106Y93719D01*
Y94470D01*
X462819Y95163D01*
X462750Y95232D01*
Y109646D01*
X462633Y110231D01*
X462302Y110727D01*
X462159Y110870D01*
Y112419D01*
X462659Y112627D01*
X462711Y112575D01*
X463279Y112339D01*
Y114173D01*
Y116007D01*
X462711Y115772D01*
X462659Y115720D01*
X462159Y115927D01*
Y118325D01*
X462659Y118532D01*
X462711Y118480D01*
X463404Y118193D01*
X464155D01*
X464848Y118480D01*
X465378Y119010D01*
X465665Y119704D01*
Y120454D01*
X465378Y121147D01*
X464848Y121677D01*
X464155Y121965D01*
X463404D01*
X462711Y121677D01*
X462659Y121625D01*
X462159Y121833D01*
Y124230D01*
X462659Y124437D01*
X462711Y124385D01*
X463279Y124150D01*
Y125984D01*
Y127818D01*
X462711Y127583D01*
X462181Y127052D01*
X461894Y126359D01*
X461394Y126202D01*
X460530Y127066D01*
X460034Y127397D01*
X459449Y127514D01*
X458618D01*
X458548Y127583D01*
X457855Y127870D01*
D02*
G37*
G36*
X499713Y123881D02*
Y122547D01*
X501047D01*
X500811Y123116D01*
X500281Y123646D01*
X499713Y123881D01*
D02*
G37*
G36*
X430181Y123516D02*
X428847D01*
Y122182D01*
X429415Y122417D01*
X429945Y122948D01*
X430181Y123516D01*
D02*
G37*
G36*
X295651Y125902D02*
X294900D01*
X294207Y125615D01*
X293677Y125084D01*
X293390Y124391D01*
Y123641D01*
X293677Y122948D01*
X294207Y122417D01*
X294900Y122130D01*
X295651D01*
X296344Y122417D01*
X296874Y122948D01*
X297161Y123641D01*
Y124391D01*
X296874Y125084D01*
X296344Y125615D01*
X295651Y125902D01*
D02*
G37*
G36*
X468791Y121913D02*
X468223Y121677D01*
X467693Y121147D01*
X467457Y120579D01*
X468791D01*
Y121913D01*
D02*
G37*
G36*
X399894D02*
X399325Y121677D01*
X398795Y121147D01*
X398560Y120579D01*
X399894D01*
Y121913D01*
D02*
G37*
G36*
X501047Y121547D02*
X499713D01*
Y120213D01*
X500281Y120449D01*
X500811Y120979D01*
X501047Y121547D01*
D02*
G37*
G36*
X468791Y119579D02*
X467457D01*
X467693Y119010D01*
X468223Y118480D01*
X468791Y118245D01*
Y119579D01*
D02*
G37*
G36*
X399894D02*
X398560D01*
X398795Y119010D01*
X399325Y118480D01*
X399894Y118245D01*
Y119579D01*
D02*
G37*
G36*
X464280Y116007D02*
Y114673D01*
X465614D01*
X465378Y115242D01*
X464848Y115772D01*
X464280Y116007D01*
D02*
G37*
G36*
X395382D02*
Y114673D01*
X396716D01*
X396481Y115242D01*
X395950Y115772D01*
X395382Y116007D01*
D02*
G37*
G36*
X465614Y113673D02*
X464280D01*
Y112339D01*
X464848Y112575D01*
X465378Y113105D01*
X465614Y113673D01*
D02*
G37*
G36*
X396716D02*
X395382D01*
Y112339D01*
X395950Y112575D01*
X396481Y113105D01*
X396716Y113673D01*
D02*
G37*
G36*
X352737Y116059D02*
X351987D01*
X351294Y115772D01*
X350764Y115242D01*
X350476Y114548D01*
Y113798D01*
X350764Y113105D01*
X351294Y112575D01*
X351987Y112287D01*
X352737D01*
X353430Y112575D01*
X353961Y113105D01*
X354248Y113798D01*
Y114548D01*
X353961Y115242D01*
X353430Y115772D01*
X352737Y116059D01*
D02*
G37*
G36*
X491626Y104590D02*
X491058Y104355D01*
X490527Y103824D01*
X490292Y103256D01*
X491626D01*
Y104590D01*
D02*
G37*
G36*
X475303D02*
Y103256D01*
X476637D01*
X476402Y103824D01*
X475871Y104355D01*
X475303Y104590D01*
D02*
G37*
G36*
X456980D02*
X456412Y104355D01*
X455882Y103824D01*
X455646Y103256D01*
X456980D01*
Y104590D01*
D02*
G37*
G36*
X440658D02*
Y103256D01*
X441992D01*
X441756Y103824D01*
X441226Y104355D01*
X440658Y104590D01*
D02*
G37*
G36*
X422335D02*
X421766Y104355D01*
X421236Y103824D01*
X421001Y103256D01*
X422335D01*
Y104590D01*
D02*
G37*
G36*
X406012D02*
Y103256D01*
X407346D01*
X407111Y103824D01*
X406580Y104355D01*
X406012Y104590D01*
D02*
G37*
G36*
X387689D02*
X387121Y104355D01*
X386590Y103824D01*
X386355Y103256D01*
X387689D01*
Y104590D01*
D02*
G37*
G36*
X371366D02*
Y103256D01*
X372700D01*
X372465Y103824D01*
X371934Y104355D01*
X371366Y104590D01*
D02*
G37*
G36*
X491626Y102256D02*
X490292D01*
X490527Y101688D01*
X491058Y101157D01*
X491626Y100922D01*
Y102256D01*
D02*
G37*
G36*
X476637D02*
X475303D01*
Y100922D01*
X475871Y101157D01*
X476402Y101688D01*
X476637Y102256D01*
D02*
G37*
G36*
X456980D02*
X455646D01*
X455882Y101688D01*
X456412Y101157D01*
X456980Y100922D01*
Y102256D01*
D02*
G37*
G36*
X441992D02*
X440658D01*
Y100922D01*
X441226Y101157D01*
X441756Y101688D01*
X441992Y102256D01*
D02*
G37*
G36*
X422335D02*
X421001D01*
X421236Y101688D01*
X421766Y101157D01*
X422335Y100922D01*
Y102256D01*
D02*
G37*
G36*
X407346D02*
X406012D01*
Y100922D01*
X406580Y101157D01*
X407111Y101688D01*
X407346Y102256D01*
D02*
G37*
G36*
X387689D02*
X386355D01*
X386590Y101688D01*
X387121Y101157D01*
X387689Y100922D01*
Y102256D01*
D02*
G37*
G36*
X372700D02*
X371366D01*
Y100922D01*
X371934Y101157D01*
X372465Y101688D01*
X372700Y102256D01*
D02*
G37*
G36*
X462331Y82693D02*
X462311D01*
Y79240D01*
X465764D01*
Y79261D01*
X465494Y80266D01*
X464974Y81167D01*
X464238Y81903D01*
X463337Y82424D01*
X462331Y82693D01*
D02*
G37*
G36*
X401701D02*
X401681D01*
Y79240D01*
X405134D01*
Y79261D01*
X404865Y80266D01*
X404344Y81167D01*
X403608Y81903D01*
X402707Y82424D01*
X401701Y82693D01*
D02*
G37*
G36*
X461311D02*
X461291D01*
X460285Y82424D01*
X459384Y81903D01*
X458648Y81167D01*
X458128Y80266D01*
X457858Y79261D01*
Y79240D01*
X461311D01*
Y82693D01*
D02*
G37*
G36*
X400681D02*
X400661D01*
X399655Y82424D01*
X398754Y81903D01*
X398018Y81167D01*
X397498Y80266D01*
X397228Y79261D01*
Y79240D01*
X400681D01*
Y82693D01*
D02*
G37*
G36*
X488316D02*
X488295D01*
Y79240D01*
X491748D01*
Y79261D01*
X491479Y80266D01*
X490958Y81167D01*
X490222Y81903D01*
X489321Y82424D01*
X488316Y82693D01*
D02*
G37*
G36*
X445009D02*
X444988D01*
Y79240D01*
X448441D01*
Y79261D01*
X448172Y80266D01*
X447651Y81167D01*
X446915Y81903D01*
X446014Y82424D01*
X445009Y82693D01*
D02*
G37*
G36*
X427686D02*
X427665D01*
Y79240D01*
X431118D01*
Y79261D01*
X430849Y80266D01*
X430328Y81167D01*
X429592Y81903D01*
X428691Y82424D01*
X427686Y82693D01*
D02*
G37*
G36*
X367056D02*
X367035D01*
Y79240D01*
X370488D01*
Y79261D01*
X370219Y80266D01*
X369698Y81167D01*
X368963Y81903D01*
X368061Y82424D01*
X367056Y82693D01*
D02*
G37*
G36*
X487295D02*
X487275D01*
X486270Y82424D01*
X485368Y81903D01*
X484632Y81167D01*
X484112Y80266D01*
X483843Y79261D01*
Y79240D01*
X487295D01*
Y82693D01*
D02*
G37*
G36*
X443988D02*
X443968D01*
X442963Y82424D01*
X442061Y81903D01*
X441325Y81167D01*
X440805Y80266D01*
X440535Y79261D01*
Y79240D01*
X443988D01*
Y82693D01*
D02*
G37*
G36*
X426665D02*
X426645D01*
X425640Y82424D01*
X424738Y81903D01*
X424002Y81167D01*
X423482Y80266D01*
X423213Y79261D01*
Y79240D01*
X426665D01*
Y82693D01*
D02*
G37*
G36*
X366035D02*
X366015D01*
X365010Y82424D01*
X364108Y81903D01*
X363372Y81167D01*
X362852Y80266D01*
X362583Y79261D01*
Y79240D01*
X366035D01*
Y82693D01*
D02*
G37*
G36*
X470993D02*
X470972D01*
Y79240D01*
X474425D01*
Y79261D01*
X474156Y80266D01*
X473635Y81167D01*
X472899Y81903D01*
X471998Y82424D01*
X470993Y82693D01*
D02*
G37*
G36*
X453670D02*
X453650D01*
Y79240D01*
X457102D01*
Y79261D01*
X456833Y80266D01*
X456313Y81167D01*
X455577Y81903D01*
X454675Y82424D01*
X453670Y82693D01*
D02*
G37*
G36*
X410363D02*
X410343D01*
Y79240D01*
X413795D01*
Y79261D01*
X413526Y80266D01*
X413005Y81167D01*
X412270Y81903D01*
X411368Y82424D01*
X410363Y82693D01*
D02*
G37*
G36*
X393040D02*
X393020D01*
Y79240D01*
X396472D01*
Y79261D01*
X396203Y80266D01*
X395683Y81167D01*
X394947Y81903D01*
X394045Y82424D01*
X393040Y82693D01*
D02*
G37*
G36*
X469972D02*
X469952D01*
X468947Y82424D01*
X468045Y81903D01*
X467310Y81167D01*
X466789Y80266D01*
X466520Y79261D01*
Y79240D01*
X469972D01*
Y82693D01*
D02*
G37*
G36*
X452650D02*
X452629D01*
X451624Y82424D01*
X450723Y81903D01*
X449987Y81167D01*
X449466Y80266D01*
X449197Y79261D01*
Y79240D01*
X452650D01*
Y82693D01*
D02*
G37*
G36*
X409342D02*
X409322D01*
X408317Y82424D01*
X407415Y81903D01*
X406679Y81167D01*
X406159Y80266D01*
X405890Y79261D01*
Y79240D01*
X409342D01*
Y82693D01*
D02*
G37*
G36*
X392020D02*
X391999D01*
X390994Y82424D01*
X390093Y81903D01*
X389357Y81167D01*
X388836Y80266D01*
X388567Y79261D01*
Y79240D01*
X392020D01*
Y82693D01*
D02*
G37*
G36*
X496977D02*
X496957D01*
Y79240D01*
X500409D01*
Y79261D01*
X500140Y80266D01*
X499620Y81167D01*
X498884Y81903D01*
X497982Y82424D01*
X496977Y82693D01*
D02*
G37*
G36*
X436347D02*
X436327D01*
Y79240D01*
X439780D01*
Y79261D01*
X439510Y80266D01*
X438990Y81167D01*
X438254Y81903D01*
X437353Y82424D01*
X436347Y82693D01*
D02*
G37*
G36*
X419024D02*
X419004D01*
Y79240D01*
X422457D01*
Y79261D01*
X422187Y80266D01*
X421667Y81167D01*
X420931Y81903D01*
X420030Y82424D01*
X419024Y82693D01*
D02*
G37*
G36*
X375717D02*
X375697D01*
Y79240D01*
X379150D01*
Y79261D01*
X378880Y80266D01*
X378360Y81167D01*
X377624Y81903D01*
X376723Y82424D01*
X375717Y82693D01*
D02*
G37*
G36*
X495957D02*
X495936D01*
X494931Y82424D01*
X494030Y81903D01*
X493294Y81167D01*
X492773Y80266D01*
X492504Y79261D01*
Y79240D01*
X495957D01*
Y82693D01*
D02*
G37*
G36*
X435327D02*
X435306D01*
X434301Y82424D01*
X433400Y81903D01*
X432664Y81167D01*
X432143Y80266D01*
X431874Y79261D01*
Y79240D01*
X435327D01*
Y82693D01*
D02*
G37*
G36*
X418004D02*
X417983D01*
X416978Y82424D01*
X416077Y81903D01*
X415341Y81167D01*
X414821Y80266D01*
X414551Y79261D01*
Y79240D01*
X418004D01*
Y82693D01*
D02*
G37*
G36*
X374697D02*
X374676D01*
X373671Y82424D01*
X372770Y81903D01*
X372034Y81167D01*
X371514Y80266D01*
X371244Y79261D01*
Y79240D01*
X374697D01*
Y82693D01*
D02*
G37*
G36*
X479654D02*
X479634D01*
Y79240D01*
X483087D01*
Y79261D01*
X482817Y80266D01*
X482297Y81167D01*
X481561Y81903D01*
X480660Y82424D01*
X479654Y82693D01*
D02*
G37*
G36*
X384379D02*
X384358D01*
Y79240D01*
X387811D01*
Y79261D01*
X387542Y80266D01*
X387021Y81167D01*
X386285Y81903D01*
X385384Y82424D01*
X384379Y82693D01*
D02*
G37*
G36*
X478634D02*
X478614D01*
X477608Y82424D01*
X476707Y81903D01*
X475971Y81167D01*
X475451Y80266D01*
X475181Y79261D01*
Y79240D01*
X478634D01*
Y82693D01*
D02*
G37*
G36*
X383358D02*
X383338D01*
X382332Y82424D01*
X381431Y81903D01*
X380695Y81167D01*
X380175Y80266D01*
X379906Y79261D01*
Y79240D01*
X383358D01*
Y82693D01*
D02*
G37*
G36*
X500409Y78240D02*
X496957D01*
Y74787D01*
X496977D01*
X497982Y75057D01*
X498884Y75577D01*
X499620Y76313D01*
X500140Y77214D01*
X500409Y78220D01*
Y78240D01*
D02*
G37*
G36*
X495957D02*
X492504D01*
Y78220D01*
X492773Y77214D01*
X493294Y76313D01*
X494030Y75577D01*
X494931Y75057D01*
X495936Y74787D01*
X495957D01*
Y78240D01*
D02*
G37*
G36*
X491748Y78240D02*
X488295D01*
Y74787D01*
X488316D01*
X489321Y75057D01*
X490222Y75577D01*
X490958Y76313D01*
X491479Y77214D01*
X491748Y78220D01*
Y78240D01*
D02*
G37*
G36*
X487295D02*
X483843D01*
Y78220D01*
X484112Y77214D01*
X484632Y76313D01*
X485368Y75577D01*
X486270Y75057D01*
X487275Y74787D01*
X487295D01*
Y78240D01*
D02*
G37*
G36*
X483087Y78240D02*
X479634D01*
Y74787D01*
X479654D01*
X480660Y75057D01*
X481561Y75577D01*
X482297Y76313D01*
X482817Y77214D01*
X483087Y78220D01*
Y78240D01*
D02*
G37*
G36*
X478634D02*
X475181D01*
Y78220D01*
X475451Y77214D01*
X475971Y76313D01*
X476707Y75577D01*
X477608Y75057D01*
X478614Y74787D01*
X478634D01*
Y78240D01*
D02*
G37*
G36*
X474425Y78240D02*
X470972D01*
Y74787D01*
X470993D01*
X471998Y75057D01*
X472899Y75577D01*
X473635Y76313D01*
X474156Y77214D01*
X474425Y78220D01*
Y78240D01*
D02*
G37*
G36*
X469972D02*
X466520D01*
Y78220D01*
X466789Y77214D01*
X467310Y76313D01*
X468045Y75577D01*
X468947Y75057D01*
X469952Y74787D01*
X469972D01*
Y78240D01*
D02*
G37*
G36*
X465764Y78240D02*
X462311D01*
Y74787D01*
X462331D01*
X463337Y75057D01*
X464238Y75577D01*
X464974Y76313D01*
X465494Y77214D01*
X465764Y78220D01*
Y78240D01*
D02*
G37*
G36*
X461311D02*
X457858D01*
Y78220D01*
X458128Y77214D01*
X458648Y76313D01*
X459384Y75577D01*
X460285Y75057D01*
X461291Y74787D01*
X461311D01*
Y78240D01*
D02*
G37*
G36*
X457102Y78240D02*
X453650D01*
Y74787D01*
X453670D01*
X454675Y75057D01*
X455577Y75577D01*
X456313Y76313D01*
X456833Y77214D01*
X457102Y78220D01*
Y78240D01*
D02*
G37*
G36*
X452650D02*
X449197D01*
Y78220D01*
X449466Y77214D01*
X449987Y76313D01*
X450723Y75577D01*
X451624Y75057D01*
X452629Y74787D01*
X452650D01*
Y78240D01*
D02*
G37*
G36*
X448441Y78240D02*
X444988D01*
Y74787D01*
X445009D01*
X446014Y75057D01*
X446915Y75577D01*
X447651Y76313D01*
X448172Y77214D01*
X448441Y78220D01*
Y78240D01*
D02*
G37*
G36*
X443988D02*
X440535D01*
Y78220D01*
X440805Y77214D01*
X441325Y76313D01*
X442061Y75577D01*
X442963Y75057D01*
X443968Y74787D01*
X443988D01*
Y78240D01*
D02*
G37*
G36*
X439780Y78240D02*
X436327D01*
Y74787D01*
X436347D01*
X437353Y75057D01*
X438254Y75577D01*
X438990Y76313D01*
X439510Y77214D01*
X439780Y78220D01*
Y78240D01*
D02*
G37*
G36*
X435327D02*
X431874D01*
Y78220D01*
X432143Y77214D01*
X432664Y76313D01*
X433400Y75577D01*
X434301Y75057D01*
X435306Y74787D01*
X435327D01*
Y78240D01*
D02*
G37*
G36*
X431118Y78240D02*
X427665D01*
Y74787D01*
X427686D01*
X428691Y75057D01*
X429592Y75577D01*
X430328Y76313D01*
X430849Y77214D01*
X431118Y78220D01*
Y78240D01*
D02*
G37*
G36*
X426665D02*
X423213D01*
Y78220D01*
X423482Y77214D01*
X424002Y76313D01*
X424738Y75577D01*
X425640Y75057D01*
X426645Y74787D01*
X426665D01*
Y78240D01*
D02*
G37*
G36*
X422457Y78240D02*
X419004D01*
Y74787D01*
X419024D01*
X420030Y75057D01*
X420931Y75577D01*
X421667Y76313D01*
X422187Y77214D01*
X422457Y78220D01*
Y78240D01*
D02*
G37*
G36*
X418004D02*
X414551D01*
Y78220D01*
X414821Y77214D01*
X415341Y76313D01*
X416077Y75577D01*
X416978Y75057D01*
X417983Y74787D01*
X418004D01*
Y78240D01*
D02*
G37*
G36*
X413795Y78240D02*
X410343D01*
Y74787D01*
X410363D01*
X411368Y75057D01*
X412270Y75577D01*
X413005Y76313D01*
X413526Y77214D01*
X413795Y78220D01*
Y78240D01*
D02*
G37*
G36*
X409342D02*
X405890D01*
Y78220D01*
X406159Y77214D01*
X406679Y76313D01*
X407415Y75577D01*
X408317Y75057D01*
X409322Y74787D01*
X409342D01*
Y78240D01*
D02*
G37*
G36*
X405134Y78240D02*
X401681D01*
Y74787D01*
X401701D01*
X402707Y75057D01*
X403608Y75577D01*
X404344Y76313D01*
X404865Y77214D01*
X405134Y78220D01*
Y78240D01*
D02*
G37*
G36*
X400681D02*
X397228D01*
Y78220D01*
X397498Y77214D01*
X398018Y76313D01*
X398754Y75577D01*
X399655Y75057D01*
X400661Y74787D01*
X400681D01*
Y78240D01*
D02*
G37*
G36*
X396472Y78240D02*
X393020D01*
Y74787D01*
X393040D01*
X394045Y75057D01*
X394947Y75577D01*
X395683Y76313D01*
X396203Y77214D01*
X396472Y78220D01*
Y78240D01*
D02*
G37*
G36*
X392020D02*
X388567D01*
Y78220D01*
X388836Y77214D01*
X389357Y76313D01*
X390093Y75577D01*
X390994Y75057D01*
X391999Y74787D01*
X392020D01*
Y78240D01*
D02*
G37*
G36*
X387811Y78240D02*
X384358D01*
Y74787D01*
X384379D01*
X385384Y75057D01*
X386285Y75577D01*
X387021Y76313D01*
X387542Y77214D01*
X387811Y78220D01*
Y78240D01*
D02*
G37*
G36*
X383358D02*
X379906D01*
Y78220D01*
X380175Y77214D01*
X380695Y76313D01*
X381431Y75577D01*
X382332Y75057D01*
X383338Y74787D01*
X383358D01*
Y78240D01*
D02*
G37*
G36*
X379150Y78240D02*
X375697D01*
Y74787D01*
X375717D01*
X376723Y75057D01*
X377624Y75577D01*
X378360Y76313D01*
X378880Y77214D01*
X379150Y78220D01*
Y78240D01*
D02*
G37*
G36*
X374697D02*
X371244D01*
Y78220D01*
X371514Y77214D01*
X372034Y76313D01*
X372770Y75577D01*
X373671Y75057D01*
X374676Y74787D01*
X374697D01*
Y78240D01*
D02*
G37*
G36*
X370488Y78240D02*
X367035D01*
Y74787D01*
X367056D01*
X368061Y75057D01*
X368963Y75577D01*
X369698Y76313D01*
X370219Y77214D01*
X370488Y78220D01*
Y78240D01*
D02*
G37*
G36*
X366035D02*
X362583D01*
Y78220D01*
X362852Y77214D01*
X363372Y76313D01*
X364108Y75577D01*
X365010Y75057D01*
X366015Y74787D01*
X366035D01*
Y78240D01*
D02*
G37*
G36*
X295651Y66847D02*
X294900D01*
X294207Y66559D01*
X293677Y66029D01*
X293390Y65336D01*
Y64586D01*
X293677Y63892D01*
X294207Y63362D01*
X294900Y63075D01*
X295651D01*
X296344Y63362D01*
X296874Y63892D01*
X297161Y64586D01*
Y65336D01*
X296874Y66029D01*
X296344Y66559D01*
X295651Y66847D01*
D02*
G37*
G36*
X496977Y70882D02*
X495936D01*
X494931Y70613D01*
X494030Y70092D01*
X493294Y69356D01*
X492773Y68455D01*
X492504Y67449D01*
Y66409D01*
X492773Y65403D01*
X493294Y64502D01*
X494030Y63766D01*
X494931Y63246D01*
X495936Y62976D01*
X496977D01*
X497982Y63246D01*
X498884Y63766D01*
X499620Y64502D01*
X500140Y65403D01*
X500409Y66409D01*
Y67449D01*
X500140Y68455D01*
X499620Y69356D01*
X498884Y70092D01*
X497982Y70613D01*
X496977Y70882D01*
D02*
G37*
G36*
X488316D02*
X487275D01*
X486270Y70613D01*
X485368Y70092D01*
X484632Y69356D01*
X484112Y68455D01*
X483843Y67449D01*
Y66409D01*
X484112Y65403D01*
X484632Y64502D01*
X485368Y63766D01*
X486270Y63246D01*
X487275Y62976D01*
X488316D01*
X489321Y63246D01*
X490222Y63766D01*
X490958Y64502D01*
X491479Y65403D01*
X491748Y66409D01*
Y67449D01*
X491479Y68455D01*
X490958Y69356D01*
X490222Y70092D01*
X489321Y70613D01*
X488316Y70882D01*
D02*
G37*
G36*
X479654D02*
X478614D01*
X477608Y70613D01*
X476707Y70092D01*
X475971Y69356D01*
X475451Y68455D01*
X475181Y67449D01*
Y66409D01*
X475451Y65403D01*
X475971Y64502D01*
X476707Y63766D01*
X477608Y63246D01*
X478614Y62976D01*
X479654D01*
X480660Y63246D01*
X481561Y63766D01*
X482297Y64502D01*
X482817Y65403D01*
X483087Y66409D01*
Y67449D01*
X482817Y68455D01*
X482297Y69356D01*
X481561Y70092D01*
X480660Y70613D01*
X479654Y70882D01*
D02*
G37*
G36*
X470993D02*
X469952D01*
X468947Y70613D01*
X468045Y70092D01*
X467310Y69356D01*
X466789Y68455D01*
X466520Y67449D01*
Y66409D01*
X466789Y65403D01*
X467310Y64502D01*
X468045Y63766D01*
X468947Y63246D01*
X469952Y62976D01*
X470993D01*
X471998Y63246D01*
X472899Y63766D01*
X473635Y64502D01*
X474156Y65403D01*
X474425Y66409D01*
Y67449D01*
X474156Y68455D01*
X473635Y69356D01*
X472899Y70092D01*
X471998Y70613D01*
X470993Y70882D01*
D02*
G37*
G36*
X462331D02*
X461291D01*
X460285Y70613D01*
X459384Y70092D01*
X458648Y69356D01*
X458128Y68455D01*
X457858Y67449D01*
Y66409D01*
X458128Y65403D01*
X458648Y64502D01*
X459384Y63766D01*
X460285Y63246D01*
X461291Y62976D01*
X462331D01*
X463337Y63246D01*
X464238Y63766D01*
X464974Y64502D01*
X465494Y65403D01*
X465764Y66409D01*
Y67449D01*
X465494Y68455D01*
X464974Y69356D01*
X464238Y70092D01*
X463337Y70613D01*
X462331Y70882D01*
D02*
G37*
G36*
X453670D02*
X452629D01*
X451624Y70613D01*
X450723Y70092D01*
X449987Y69356D01*
X449466Y68455D01*
X449197Y67449D01*
Y66409D01*
X449466Y65403D01*
X449987Y64502D01*
X450723Y63766D01*
X451624Y63246D01*
X452629Y62976D01*
X453670D01*
X454675Y63246D01*
X455577Y63766D01*
X456313Y64502D01*
X456833Y65403D01*
X457102Y66409D01*
Y67449D01*
X456833Y68455D01*
X456313Y69356D01*
X455577Y70092D01*
X454675Y70613D01*
X453670Y70882D01*
D02*
G37*
G36*
X445009D02*
X443968D01*
X442963Y70613D01*
X442061Y70092D01*
X441325Y69356D01*
X440805Y68455D01*
X440535Y67449D01*
Y66409D01*
X440805Y65403D01*
X441325Y64502D01*
X442061Y63766D01*
X442963Y63246D01*
X443968Y62976D01*
X445009D01*
X446014Y63246D01*
X446915Y63766D01*
X447651Y64502D01*
X448172Y65403D01*
X448441Y66409D01*
Y67449D01*
X448172Y68455D01*
X447651Y69356D01*
X446915Y70092D01*
X446014Y70613D01*
X445009Y70882D01*
D02*
G37*
G36*
X436347D02*
X435306D01*
X434301Y70613D01*
X433400Y70092D01*
X432664Y69356D01*
X432143Y68455D01*
X431874Y67449D01*
Y66409D01*
X432143Y65403D01*
X432664Y64502D01*
X433400Y63766D01*
X434301Y63246D01*
X435306Y62976D01*
X436347D01*
X437353Y63246D01*
X438254Y63766D01*
X438990Y64502D01*
X439510Y65403D01*
X439780Y66409D01*
Y67449D01*
X439510Y68455D01*
X438990Y69356D01*
X438254Y70092D01*
X437353Y70613D01*
X436347Y70882D01*
D02*
G37*
G36*
X427686D02*
X426645D01*
X425640Y70613D01*
X424738Y70092D01*
X424002Y69356D01*
X423482Y68455D01*
X423213Y67449D01*
Y66409D01*
X423482Y65403D01*
X424002Y64502D01*
X424738Y63766D01*
X425640Y63246D01*
X426645Y62976D01*
X427686D01*
X428691Y63246D01*
X429592Y63766D01*
X430328Y64502D01*
X430849Y65403D01*
X431118Y66409D01*
Y67449D01*
X430849Y68455D01*
X430328Y69356D01*
X429592Y70092D01*
X428691Y70613D01*
X427686Y70882D01*
D02*
G37*
G36*
X419024D02*
X417983D01*
X416978Y70613D01*
X416077Y70092D01*
X415341Y69356D01*
X414821Y68455D01*
X414551Y67449D01*
Y66409D01*
X414821Y65403D01*
X415341Y64502D01*
X416077Y63766D01*
X416978Y63246D01*
X417983Y62976D01*
X419024D01*
X420030Y63246D01*
X420931Y63766D01*
X421667Y64502D01*
X422187Y65403D01*
X422457Y66409D01*
Y67449D01*
X422187Y68455D01*
X421667Y69356D01*
X420931Y70092D01*
X420030Y70613D01*
X419024Y70882D01*
D02*
G37*
G36*
X410363D02*
X409322D01*
X408317Y70613D01*
X407415Y70092D01*
X406679Y69356D01*
X406159Y68455D01*
X405890Y67449D01*
Y66409D01*
X406159Y65403D01*
X406679Y64502D01*
X407415Y63766D01*
X408317Y63246D01*
X409322Y62976D01*
X410363D01*
X411368Y63246D01*
X412270Y63766D01*
X413005Y64502D01*
X413526Y65403D01*
X413795Y66409D01*
Y67449D01*
X413526Y68455D01*
X413005Y69356D01*
X412270Y70092D01*
X411368Y70613D01*
X410363Y70882D01*
D02*
G37*
G36*
X401701D02*
X400661D01*
X399655Y70613D01*
X398754Y70092D01*
X398018Y69356D01*
X397498Y68455D01*
X397228Y67449D01*
Y66409D01*
X397498Y65403D01*
X398018Y64502D01*
X398754Y63766D01*
X399655Y63246D01*
X400661Y62976D01*
X401701D01*
X402707Y63246D01*
X403608Y63766D01*
X404344Y64502D01*
X404865Y65403D01*
X405134Y66409D01*
Y67449D01*
X404865Y68455D01*
X404344Y69356D01*
X403608Y70092D01*
X402707Y70613D01*
X401701Y70882D01*
D02*
G37*
G36*
X393040D02*
X391999D01*
X390994Y70613D01*
X390093Y70092D01*
X389357Y69356D01*
X388836Y68455D01*
X388567Y67449D01*
Y66409D01*
X388836Y65403D01*
X389357Y64502D01*
X390093Y63766D01*
X390994Y63246D01*
X391999Y62976D01*
X393040D01*
X394045Y63246D01*
X394947Y63766D01*
X395683Y64502D01*
X396203Y65403D01*
X396472Y66409D01*
Y67449D01*
X396203Y68455D01*
X395683Y69356D01*
X394947Y70092D01*
X394045Y70613D01*
X393040Y70882D01*
D02*
G37*
G36*
X384379D02*
X383338D01*
X382332Y70613D01*
X381431Y70092D01*
X380695Y69356D01*
X380175Y68455D01*
X379906Y67449D01*
Y66409D01*
X380175Y65403D01*
X380695Y64502D01*
X381431Y63766D01*
X382332Y63246D01*
X383338Y62976D01*
X384379D01*
X385384Y63246D01*
X386285Y63766D01*
X387021Y64502D01*
X387542Y65403D01*
X387811Y66409D01*
Y67449D01*
X387542Y68455D01*
X387021Y69356D01*
X386285Y70092D01*
X385384Y70613D01*
X384379Y70882D01*
D02*
G37*
G36*
X375717D02*
X374676D01*
X373671Y70613D01*
X372770Y70092D01*
X372034Y69356D01*
X371514Y68455D01*
X371244Y67449D01*
Y66409D01*
X371514Y65403D01*
X372034Y64502D01*
X372770Y63766D01*
X373671Y63246D01*
X374676Y62976D01*
X375717D01*
X376723Y63246D01*
X377624Y63766D01*
X378360Y64502D01*
X378880Y65403D01*
X379150Y66409D01*
Y67449D01*
X378880Y68455D01*
X378360Y69356D01*
X377624Y70092D01*
X376723Y70613D01*
X375717Y70882D01*
D02*
G37*
G36*
X367056D02*
X366015D01*
X365010Y70613D01*
X364108Y70092D01*
X363372Y69356D01*
X362852Y68455D01*
X362583Y67449D01*
Y66409D01*
X362852Y65403D01*
X363372Y64502D01*
X364108Y63766D01*
X365010Y63246D01*
X366015Y62976D01*
X367056D01*
X368061Y63246D01*
X368963Y63766D01*
X369698Y64502D01*
X370219Y65403D01*
X370488Y66409D01*
Y67449D01*
X370219Y68455D01*
X369698Y69356D01*
X368963Y70092D01*
X368061Y70613D01*
X367056Y70882D01*
D02*
G37*
G36*
X494616Y56512D02*
X494201D01*
Y45382D01*
X505331D01*
Y45797D01*
X505044Y47605D01*
X504479Y49346D01*
X503648Y50977D01*
X502572Y52458D01*
X501277Y53753D01*
X499796Y54829D01*
X498165Y55660D01*
X496424Y56225D01*
X494616Y56512D01*
D02*
G37*
G36*
X370207D02*
X369791D01*
Y45382D01*
X380921D01*
Y45797D01*
X380635Y47605D01*
X380069Y49346D01*
X379238Y50977D01*
X378162Y52458D01*
X376868Y53753D01*
X375387Y54829D01*
X373756Y55660D01*
X372015Y56225D01*
X370207Y56512D01*
D02*
G37*
G36*
X493201D02*
X492786D01*
X490977Y56225D01*
X489236Y55660D01*
X487605Y54829D01*
X486124Y53753D01*
X484830Y52458D01*
X483754Y50977D01*
X482923Y49346D01*
X482357Y47605D01*
X482071Y45797D01*
Y45382D01*
X493201D01*
Y56512D01*
D02*
G37*
G36*
X368791D02*
X368376D01*
X366568Y56225D01*
X364827Y55660D01*
X363196Y54829D01*
X361715Y53753D01*
X360420Y52458D01*
X359345Y50977D01*
X358513Y49346D01*
X357948Y47605D01*
X357661Y45797D01*
Y45382D01*
X368791D01*
Y56512D01*
D02*
G37*
G36*
X505331Y44382D02*
X494201D01*
Y33252D01*
X494616D01*
X496424Y33538D01*
X498165Y34104D01*
X499796Y34935D01*
X501277Y36011D01*
X502572Y37306D01*
X503648Y38787D01*
X504479Y40418D01*
X505044Y42158D01*
X505331Y43967D01*
Y44382D01*
D02*
G37*
G36*
X493201D02*
X482071D01*
Y43967D01*
X482357Y42158D01*
X482923Y40418D01*
X483754Y38787D01*
X484830Y37306D01*
X486124Y36011D01*
X487605Y34935D01*
X489236Y34104D01*
X490977Y33538D01*
X492786Y33252D01*
X493201D01*
Y44382D01*
D02*
G37*
G36*
X380921D02*
X369791D01*
Y33252D01*
X370207D01*
X372015Y33538D01*
X373756Y34104D01*
X375387Y34935D01*
X376868Y36011D01*
X378162Y37306D01*
X379238Y38787D01*
X380069Y40418D01*
X380635Y42158D01*
X380921Y43967D01*
Y44382D01*
D02*
G37*
G36*
X368791D02*
X357661D01*
Y43967D01*
X357948Y42158D01*
X358513Y40418D01*
X359345Y38787D01*
X360420Y37306D01*
X361715Y36011D01*
X363196Y34935D01*
X364827Y34104D01*
X366568Y33538D01*
X368376Y33252D01*
X368791D01*
Y44382D01*
D02*
G37*
G36*
X296536Y28756D02*
X295786D01*
X295093Y28469D01*
X294563Y27938D01*
X294276Y27245D01*
Y26495D01*
X294563Y25802D01*
X295093Y25271D01*
X295786Y24984D01*
X296536D01*
X297230Y25271D01*
X297760Y25802D01*
X298047Y26495D01*
Y27245D01*
X297760Y27938D01*
X297230Y28469D01*
X296536Y28756D01*
D02*
G37*
%LPD*%
D14*
X175197Y49213D02*
X192913Y66929D01*
X175197Y29685D02*
Y49213D01*
Y29685D02*
X181102Y23779D01*
X54128Y41339D02*
X55889D01*
X53543Y40753D02*
X54128Y41339D01*
X53543Y38147D02*
Y40753D01*
X53324Y37929D02*
X53543Y38147D01*
X51579Y37929D02*
X53324D01*
X51361Y38147D02*
X51579Y37929D01*
X51361Y38147D02*
Y41736D01*
X51143Y41954D02*
X51361Y41736D01*
X49398Y41954D02*
X51143D01*
X49180Y41736D02*
X49398Y41954D01*
X49180Y38147D02*
Y41736D01*
X48962Y37929D02*
X49180Y38147D01*
X47217Y37929D02*
X48962D01*
X46999Y38147D02*
X47217Y37929D01*
X46999Y38147D02*
Y41736D01*
X46781Y41954D02*
X46999Y41736D01*
X45036Y41954D02*
X46781D01*
X44818Y41736D02*
X45036Y41954D01*
X44818Y38147D02*
Y41736D01*
X44600Y37929D02*
X44818Y38147D01*
X42855Y37929D02*
X44600D01*
X42637Y38147D02*
X42855Y37929D01*
X42637Y38147D02*
Y40753D01*
X42051Y41339D02*
X42637Y40753D01*
X39370Y41339D02*
X42051D01*
X55889D02*
X102244D01*
X35039D02*
X39370D01*
X102244D02*
X116417Y55512D01*
X33465Y39764D02*
X35039Y41339D01*
X32677Y46850D02*
X102756D01*
X33465Y23779D02*
Y39764D01*
X27707Y41880D02*
X32677Y46850D01*
X27707Y19537D02*
Y41880D01*
Y19537D02*
X33465Y13780D01*
X137795Y177165D02*
X143701Y171260D01*
X137795Y57579D02*
X143701Y63484D01*
Y171260D01*
X116417Y55512D02*
Y138071D01*
X137795Y159449D01*
X111417Y137008D02*
X133858Y159449D01*
X111417Y55512D02*
Y137008D01*
X137795Y19685D02*
Y57579D01*
X211207Y48850D02*
X211743Y49387D01*
X197887Y47063D02*
X211207D01*
X213531Y45812D02*
Y55464D01*
Y45799D02*
X214054Y45276D01*
X201612Y54749D02*
X202148Y54213D01*
X213531Y45799D02*
Y45812D01*
X201612Y55464D02*
X202148Y56000D01*
X197351Y51889D02*
X197887Y52425D01*
X201612Y54749D02*
Y55464D01*
X211207Y52425D02*
X211743Y52961D01*
Y49387D02*
Y50102D01*
X202148Y56000D02*
X212995D01*
X211207Y47063D02*
X211743Y46527D01*
X197351Y48314D02*
X197887Y48850D01*
X211207Y45276D02*
X211743Y45812D01*
X197351Y47599D02*
X197887Y47063D01*
Y50638D02*
X211207D01*
Y54213D02*
X211743Y53676D01*
X211207Y50638D02*
X211743Y50102D01*
X214054Y45276D02*
X214567D01*
X197887Y52425D02*
X211207D01*
X197351Y51174D02*
X197887Y50638D01*
X212995Y56000D02*
X213531Y55464D01*
X197351Y51174D02*
Y51889D01*
X202148Y54213D02*
X211207D01*
X211743Y52961D02*
Y53676D01*
X197887Y48850D02*
X211207D01*
X197351Y47599D02*
Y48314D01*
X211743Y45812D02*
Y46527D01*
X196850Y45276D02*
X211207D01*
X437008Y137795D02*
X438189Y138976D01*
X437008Y125984D02*
Y137795D01*
X462098Y198819D02*
X462598D01*
X454798Y191518D02*
X462098Y198819D01*
X453617Y191518D02*
X454798D01*
X446317Y198819D02*
X453617Y191518D01*
X445135Y198819D02*
X446317D01*
X437778Y191462D02*
X445135Y198819D01*
X436597Y191462D02*
X437778D01*
X429240Y198819D02*
X436597Y191462D01*
X428740Y198819D02*
X429240D01*
X443020Y200787D02*
X444882D01*
X441051Y198819D02*
X443020Y200787D01*
X439870Y198819D02*
X441051D01*
X437902Y200787D02*
X439870Y198819D01*
X436721Y200787D02*
X437902D01*
X434752Y198819D02*
X436721Y200787D01*
X433571Y198819D02*
X434752D01*
X431602Y200787D02*
X433571Y198819D01*
X431102Y200787D02*
X431602D01*
X444882D02*
X448819D01*
X344488D02*
X431102D01*
X460736D02*
X462598D01*
X458768Y198819D02*
X460736Y200787D01*
X457587Y198819D02*
X458768D01*
X455618Y200787D02*
X457587Y198819D01*
X454437Y200787D02*
X455618D01*
X452468Y198819D02*
X454437Y200787D01*
X451287Y198819D02*
X452468D01*
X449319Y200787D02*
X451287Y198819D01*
X448819Y200787D02*
X449319D01*
X462598D02*
X466535D01*
X346457Y198819D02*
X428740D01*
X338583Y76272D02*
Y76772D01*
Y76272D02*
X341520Y73335D01*
Y72335D02*
Y73335D01*
X338583Y69398D02*
X341520Y72335D01*
X338583Y68898D02*
Y69398D01*
Y76772D02*
Y80709D01*
X340551Y90736D02*
Y92520D01*
Y90736D02*
X345899Y85388D01*
Y84388D02*
Y85388D01*
X340551Y79040D02*
X345899Y84388D01*
X340551Y78040D02*
Y79040D01*
Y78040D02*
X345899Y72693D01*
Y71693D02*
Y72693D01*
X340551Y66345D02*
X345899Y71693D01*
X340551Y65345D02*
Y66345D01*
Y65345D02*
X345899Y59997D01*
Y58997D02*
Y59997D01*
X340551Y53650D02*
X345899Y58997D01*
X340551Y53150D02*
Y53650D01*
Y92520D02*
Y175197D01*
X427165Y163386D02*
Y181102D01*
X348425Y194882D02*
X413386D01*
X427165Y181102D01*
X423228Y163386D02*
Y181102D01*
X411417Y192913D02*
X423228Y181102D01*
X350394Y192913D02*
X411417D01*
X352362Y190945D02*
X409449D01*
X419291Y163386D02*
Y181102D01*
X409449Y190945D02*
X419291Y181102D01*
X407480Y188976D02*
X415354Y181102D01*
Y163386D02*
Y181102D01*
X354331Y188976D02*
X407480D01*
X470472Y204724D02*
X500000Y175197D01*
X340551Y204724D02*
X470472D01*
X342520Y202756D02*
X468504D01*
X466535Y200787D02*
X492126Y175197D01*
X462598Y198819D02*
X462598Y198819D01*
X464567D02*
X488189Y175197D01*
X462598Y198819D02*
X464567D01*
X324803Y188976D02*
X340551Y204724D01*
X326772Y187008D02*
X342520Y202756D01*
X468504D02*
X496063Y175197D01*
X328740Y185039D02*
X344488Y200787D01*
X330709Y183071D02*
X346457Y198819D01*
X334646Y181102D02*
X348425Y194882D01*
X336614Y179134D02*
X350394Y192913D01*
X338583Y177165D02*
X352362Y190945D01*
X340551Y175197D02*
X354331Y188976D01*
X116164Y251592D02*
X150138Y217618D01*
X131890Y13780D02*
X137795Y19685D01*
X234941Y85925D02*
X236221D01*
X92520Y228346D02*
X234941Y85925D01*
X102362Y228346D02*
X185039Y145669D01*
X92520Y228346D02*
Y253780D01*
X106224Y234327D02*
X232962Y107590D01*
X102362Y228346D02*
Y253780D01*
X232962Y107590D02*
X232989D01*
X234653Y105925D01*
X106224Y234327D02*
Y255379D01*
X234653Y105925D02*
X236221D01*
X108268Y252255D02*
Y269685D01*
X116164Y251592D02*
Y271247D01*
X108268Y252255D02*
X142756Y217766D01*
X144990D02*
X145138Y217618D01*
X142756Y217766D02*
X144990D01*
X82677Y253780D02*
X87559Y258661D01*
X102756Y46850D02*
X111417Y55512D01*
X97047Y280906D02*
X108268Y269685D01*
X97047Y280906D02*
Y300699D01*
X101623Y305276D01*
X87559Y258661D02*
X102942D01*
X106224Y255379D01*
X107677Y303787D02*
Y310988D01*
X103390Y315276D02*
X107677Y310988D01*
Y279734D02*
Y303787D01*
Y279734D02*
X116164Y271247D01*
X102362Y315276D02*
X103390D01*
X101623Y305276D02*
X102362D01*
X131890Y263779D02*
X141339Y273228D01*
X155177Y250178D02*
X163622Y241732D01*
X236437Y115925D02*
X248031Y104331D01*
X236221Y115925D02*
X236437D01*
X248031Y68681D02*
Y104331D01*
X236221Y56870D02*
X248031Y68681D01*
X226161Y66929D02*
X236221Y56870D01*
X192913Y66929D02*
X226161D01*
X163622Y241732D02*
X268893D01*
X155177Y250178D02*
Y250178D01*
X151575Y253780D02*
X155177Y250178D01*
X268893Y241732D02*
X295251Y268091D01*
X141339Y273228D02*
X295276D01*
X923228Y243307D02*
X931102D01*
X923228D02*
Y248031D01*
Y237008D02*
X931102D01*
X923228Y232283D02*
Y237008D01*
X919291Y242126D02*
X919579D01*
X920760Y243307D01*
X923228D01*
X919291Y238189D02*
X919579D01*
X920760Y237008D01*
X923228D01*
X746063Y239370D02*
X751968D01*
X746063D02*
Y244094D01*
X748531Y233071D02*
X748531Y233071D01*
X751968D01*
X746063Y233071D02*
X748531D01*
X746063Y228346D02*
Y233071D01*
X742126Y238189D02*
X742413D01*
X743595Y239370D01*
X746063D01*
X742126Y234252D02*
X742413D01*
X743595Y233071D01*
X746063D01*
X185039Y145669D02*
X185856Y144853D01*
Y144853D02*
Y144853D01*
Y144853D02*
X188124Y142585D01*
Y141660D02*
Y142585D01*
X187507Y141043D02*
X188124Y141660D01*
X186581Y141043D02*
X187507D01*
X184313Y143311D02*
X186581Y141043D01*
X184313Y143311D02*
X184313Y143311D01*
X183388Y143311D02*
X184313D01*
X182771Y142694D02*
X183388Y143311D01*
X182771Y141769D02*
Y142694D01*
Y141769D02*
X186581Y137958D01*
X187507D01*
X189666Y140117D01*
X189677Y140128D01*
X190580D01*
X190591Y140117D01*
X190945Y139764D01*
X190945D02*
X234784Y95925D01*
X236221D01*
X188976Y31496D02*
X210577D01*
X211231Y32150D01*
Y33023D01*
X210577Y33677D02*
X211231Y33023D01*
X190131Y33677D02*
X210577D01*
X189476Y34332D02*
X190131Y33677D01*
X189476Y34332D02*
Y35204D01*
X190131Y35858D01*
X210577D01*
X211231Y36513D01*
Y37385D01*
X210577Y38039D02*
X211231Y37385D01*
X190785Y38039D02*
X210577D01*
X190131Y38694D02*
X190785Y38039D01*
X190131Y38694D02*
Y43928D01*
X190785Y44583D01*
X191657D01*
X192312Y43928D01*
Y40875D02*
Y43928D01*
Y40875D02*
X192966Y40220D01*
X212758D01*
X213413Y39566D01*
Y32150D02*
Y39566D01*
Y32135D02*
Y32150D01*
Y32135D02*
X214051Y31496D01*
X214567D01*
X187254D02*
X188976D01*
X185039Y33710D02*
X187254Y31496D01*
X185039Y33710D02*
Y51181D01*
X196850Y62992D01*
X216535Y45276D02*
X218504Y43307D01*
Y39370D02*
Y43307D01*
Y39370D02*
X224410Y33465D01*
X214567Y45276D02*
X216535D01*
X214567Y31496D02*
X218504D01*
X216535Y62992D02*
X226378Y53150D01*
X196850Y62992D02*
X216535D01*
X226378Y46713D02*
Y53150D01*
X198819Y59055D02*
X214567D01*
X222441Y40650D02*
Y51181D01*
X214567Y59055D02*
X222441Y51181D01*
X192913Y53150D02*
X198819Y59055D01*
X192913Y47440D02*
Y53150D01*
X195078Y45276D02*
X196850D01*
X192913Y47440D02*
X195078Y45276D01*
X224410Y13780D02*
Y33465D01*
X222441Y40650D02*
X236221Y26870D01*
X218504Y21654D02*
Y31496D01*
X210630Y13780D02*
X218504Y21654D01*
Y7874D02*
X224410Y13780D01*
X206693Y7874D02*
X218504D01*
X226378Y46713D02*
X236221Y36870D01*
X200787Y13780D02*
X206693Y7874D01*
X296161Y46870D02*
X296309Y47018D01*
X296855D01*
X297081Y47244D01*
X324803D01*
X334646Y57087D01*
X448425Y151670D02*
X448449Y151693D01*
Y167150D01*
X445276Y153543D02*
Y180315D01*
X448449Y167150D02*
X458465Y177165D01*
X393701Y183071D02*
X407480D01*
X708453Y198634D02*
X709440Y197646D01*
Y194891D02*
X709449Y194882D01*
X709440Y194891D02*
Y197646D01*
X706878Y198634D02*
X708453D01*
X709449Y187008D02*
Y194882D01*
X706693Y198819D02*
X706878Y198634D01*
X715748Y187008D02*
Y198031D01*
X713386Y200394D02*
X715748Y198031D01*
X722047Y187008D02*
Y198294D01*
X719553Y200787D02*
X722047Y198294D01*
X719291Y200787D02*
X719553D01*
X728338Y194891D02*
Y197646D01*
X727351Y198634D02*
X728338Y197646D01*
X725776Y198634D02*
X727351D01*
X728338Y194891D02*
X728346Y194882D01*
X725591Y198819D02*
X725776Y198634D01*
X732677Y200394D02*
X734646Y198425D01*
X730709Y200394D02*
X732677D01*
X845276Y214961D02*
X848425Y218110D01*
Y221260D01*
X849484Y211689D02*
Y215232D01*
X836614Y208661D02*
X844488D01*
X846990Y209194D02*
X849484Y211689D01*
X844488Y208661D02*
X845021Y209194D01*
X846990D01*
X849484Y215232D02*
X849606Y215354D01*
X845049Y221260D02*
X845612Y221823D01*
Y223171D01*
X852510Y230069D01*
X836614Y221260D02*
X845049D01*
X852510Y230069D02*
Y233317D01*
X852362Y233465D02*
X852510Y233317D01*
X869870Y198634D02*
X870264D01*
X869685Y198819D02*
X869870Y198634D01*
X873228Y187008D02*
Y195669D01*
X870264Y198634D02*
X873228Y195669D01*
X876132Y199065D02*
Y199459D01*
Y199065D02*
X879528Y195669D01*
X875984Y199606D02*
X876132Y199459D01*
X885827Y187008D02*
Y195669D01*
X883256Y198240D02*
X885827Y195669D01*
X883256Y198240D02*
Y198634D01*
X883071Y198819D02*
X883256Y198634D01*
X889555Y198240D02*
X892126Y195669D01*
Y194882D02*
Y195669D01*
X889370Y198819D02*
X889555Y198634D01*
Y198240D02*
Y198634D01*
X895669Y198819D02*
X895855Y198634D01*
X898425Y187008D02*
Y195669D01*
X895855Y198240D02*
Y198634D01*
Y198240D02*
X898425Y195669D01*
X901575Y198819D02*
X901575D01*
X904724Y195669D01*
X907666Y198634D02*
X908059D01*
X907480Y198819D02*
X907666Y198634D01*
X908059D02*
X911024Y195669D01*
Y187008D02*
Y195669D01*
X921260Y214526D02*
Y214567D01*
X922905Y212922D02*
X923622Y212205D01*
X922864Y212922D02*
X922905D01*
X921260Y214526D02*
X922864Y212922D01*
X850515Y242533D02*
X850601D01*
X852132Y244063D01*
X852394D01*
X673205Y240921D02*
Y244465D01*
X673228Y244488D01*
X667323Y235827D02*
X668110D01*
X659449D02*
X667323D01*
X668673Y236390D02*
X673205Y240921D01*
X675067Y236551D02*
X675425Y236909D01*
X675067Y235697D02*
Y236551D01*
X675425Y236909D02*
Y239535D01*
X669461Y230090D02*
X675067Y235697D01*
X667886Y230090D02*
X669461D01*
X667323Y229528D02*
X667886Y230090D01*
X673075Y228193D02*
Y230492D01*
X673260Y230677D01*
X668673Y223791D02*
X673075Y228193D01*
X669824Y217462D02*
X672047Y219685D01*
Y223219D01*
X668110Y223228D02*
X668673Y223791D01*
X659449Y223228D02*
X668110D01*
X668673Y223791D02*
Y223791D01*
X338583Y88083D02*
Y88583D01*
Y88083D02*
X341520Y85146D01*
Y84146D02*
Y85146D01*
X338583Y81209D02*
X341520Y84146D01*
X338583Y80709D02*
Y81209D01*
Y62992D02*
Y68898D01*
Y62492D02*
Y62992D01*
Y62492D02*
X341520Y59555D01*
Y58555D02*
Y59555D01*
X338583Y55618D02*
X341520Y58555D01*
X338583Y55118D02*
Y55618D01*
Y53150D02*
Y55118D01*
Y88583D02*
Y177165D01*
X340551Y51181D02*
Y53150D01*
X336614Y55118D02*
Y179134D01*
X334646Y57087D02*
Y181102D01*
X870472Y99567D02*
X871417D01*
X866929Y187008D02*
Y209240D01*
X696850Y173228D02*
Y194882D01*
X766535Y99587D02*
Y105905D01*
Y99567D02*
Y99587D01*
X757874D02*
Y104331D01*
Y99567D02*
Y99587D01*
X740551D02*
Y103543D01*
Y99567D02*
Y99587D01*
X866929Y168504D02*
Y187008D01*
X703150D02*
Y194882D01*
Y172835D02*
Y187008D01*
X296161Y31870D02*
X321240D01*
X340551Y51181D01*
X296161Y36870D02*
X322303D01*
X338583Y53150D01*
X323366Y41870D02*
X336614Y55118D01*
X296161Y41870D02*
X323366D01*
X330709Y112205D02*
Y183071D01*
X309429Y90925D02*
X330709Y112205D01*
X310492Y95925D02*
X328740Y114173D01*
Y185039D01*
X311555Y100925D02*
X326772Y116142D01*
Y187008D01*
X324803Y118110D02*
Y188976D01*
X312618Y105925D02*
X324803Y118110D01*
X296161Y90925D02*
X309429D01*
X296161Y95925D02*
X310492D01*
X296161Y100925D02*
X311555D01*
X296161Y105925D02*
X312618D01*
X379528Y168898D02*
X393701Y183071D01*
X935039Y248031D02*
X937008Y250000D01*
X929528Y248031D02*
X935039D01*
Y232283D02*
X937008Y230315D01*
X929528Y232283D02*
X935039D01*
X757874Y228346D02*
X759842Y226378D01*
X752362Y228346D02*
X757874D01*
X752362Y244882D02*
X753543Y246063D01*
X761811D01*
X752362Y244094D02*
Y244882D01*
X908323Y286602D02*
Y286811D01*
Y286602D02*
X908709Y286216D01*
Y286173D02*
X923228Y271654D01*
X908709Y286173D02*
Y286216D01*
X746063Y274158D02*
X758716Y286811D01*
X731157D02*
X733409D01*
X746063Y274158D01*
X747244Y202756D02*
X761811D01*
X801181Y163386D01*
X740945Y194882D02*
X755905D01*
X785433Y165354D01*
X740945Y194882D02*
X740945Y194882D01*
X820866Y183071D02*
Y228346D01*
X801181Y163386D02*
X820866Y183071D01*
X624803Y150000D02*
Y166142D01*
X645669Y187008D02*
Y232283D01*
X624803Y166142D02*
X645669Y187008D01*
Y232283D02*
X655512Y242126D01*
X667323D01*
X647638Y228346D02*
X655118Y235827D01*
X639764Y171260D02*
X647638Y179134D01*
Y228346D01*
X655118Y235827D02*
X659449D01*
X656684Y229519D02*
X659440D01*
X649606Y222441D02*
X656684Y229519D01*
X649606Y165354D02*
Y222441D01*
X659440Y229519D02*
X659449Y229528D01*
X635827Y171260D02*
X639764Y175197D01*
X635827Y144488D02*
Y171260D01*
X646850Y150000D02*
Y162598D01*
X649606Y165354D01*
X651575Y179134D02*
Y218898D01*
X655905Y223228D01*
X668898Y150000D02*
Y167717D01*
X653958Y182657D02*
X668898Y167717D01*
X658661Y210630D02*
X659449D01*
X656311Y186209D02*
X669291Y173228D01*
X656311Y186209D02*
Y208279D01*
X658661Y210630D01*
X653958Y182657D02*
Y214981D01*
X655905Y216929D01*
X651575Y179134D02*
X655512Y175197D01*
X655905Y216929D02*
X659449D01*
X659449Y223228D02*
X659449Y223228D01*
X655905Y223228D02*
X659449D01*
X655512Y171051D02*
Y171260D01*
Y171051D02*
X657874Y168689D01*
Y144488D02*
Y168689D01*
X673228Y169291D02*
X679134D01*
X679921Y144488D02*
Y168504D01*
X679134Y169291D02*
X679921Y168504D01*
X669291Y173228D02*
X673228D01*
X750000Y187008D02*
X779134Y157874D01*
X734646Y187008D02*
X750000D01*
X779134Y150000D02*
Y157874D01*
X790158Y144488D02*
Y156693D01*
X785433Y161417D02*
X790158Y156693D01*
X746063Y144488D02*
Y155512D01*
X732283Y167323D02*
X734252D01*
X746063Y155512D01*
X715748Y179921D02*
X732283Y163386D01*
X715748Y179921D02*
Y187008D01*
X690551Y171653D02*
Y187008D01*
X696850Y161417D02*
Y165354D01*
X690551Y171653D02*
X696850Y165354D01*
X703150Y172835D02*
X712598Y163386D01*
X716535D02*
X724016Y155905D01*
Y144488D02*
Y155905D01*
X709449Y180315D02*
X735039Y154724D01*
Y150000D02*
Y154724D01*
X709449Y180315D02*
Y187008D01*
X712992Y150000D02*
Y157087D01*
X696850Y173228D02*
X712992Y157087D01*
X690551Y187008D02*
Y194882D01*
X700787Y161208D02*
X701968Y160027D01*
X700787Y161208D02*
Y161417D01*
X701968Y144488D02*
Y160027D01*
X728355Y184243D02*
X737402Y175197D01*
X746063D01*
X728346Y187008D02*
X728355Y186999D01*
Y184243D02*
Y186999D01*
X728346Y187008D02*
Y194882D01*
X722047Y179527D02*
X724409Y177165D01*
X722047Y179527D02*
Y187008D01*
X732283Y177165D02*
X744095Y165354D01*
X724409Y177165D02*
X732283D01*
X744095Y165354D02*
Y165354D01*
Y165354D02*
X757087Y152362D01*
Y150000D02*
Y152362D01*
X690945Y150000D02*
Y159449D01*
X684252Y166142D02*
Y194882D01*
Y166142D02*
X690945Y159449D01*
X703150Y194882D02*
X703150Y194882D01*
X709449Y187008D02*
X709449Y187008D01*
X722047Y187008D02*
X722047Y187008D01*
X734646D02*
Y194882D01*
Y198425D01*
X728346Y194882D02*
X728346Y194882D01*
X740945Y194882D02*
Y202756D01*
X746063Y171260D02*
X751968D01*
X768110Y155118D01*
Y144488D02*
Y155118D01*
X731890Y99587D02*
Y103150D01*
Y99567D02*
Y99587D01*
X812205Y144488D02*
Y156693D01*
X814961Y159449D01*
Y163386D02*
X822835Y171260D01*
X830709Y161417D02*
X834252Y157874D01*
Y144488D02*
Y157874D01*
X826772Y169082D02*
X830500Y165354D01*
X826772Y169082D02*
Y216535D01*
X830500Y165354D02*
X830709D01*
X826772Y216535D02*
X831496Y221260D01*
X836614D01*
X822835Y171260D02*
Y225197D01*
X824803Y158661D02*
Y222441D01*
X844488Y233858D02*
X845276D01*
X836614D02*
X844488D01*
X822835Y225197D02*
X831496Y233858D01*
X836614D01*
X823228Y150000D02*
X823228Y150000D01*
Y157087D01*
X824803Y158661D01*
Y222441D02*
X829921Y227559D01*
X836614D01*
X820866Y228346D02*
X832677Y240158D01*
X844488D01*
X801181Y150000D02*
Y163386D01*
X845276Y150000D02*
Y163386D01*
X828740Y179921D02*
X845276Y163386D01*
X828740Y179921D02*
Y212598D01*
X831102Y214961D02*
X836614D01*
X828740Y212598D02*
X831102Y214961D01*
X830709Y190945D02*
Y206693D01*
Y190945D02*
X852362Y169291D01*
Y161417D02*
Y169291D01*
X856299Y144488D02*
Y161417D01*
X830709Y206693D02*
X832677Y208661D01*
X836614Y198819D02*
Y202362D01*
Y198819D02*
X840551Y194882D01*
X836614Y202362D02*
X848032D01*
X840551Y194882D02*
X860630D01*
X848032Y202362D02*
X852362Y206693D01*
X832677Y208661D02*
X836614D01*
X935882Y284307D02*
Y286811D01*
X923228Y257874D02*
Y271654D01*
X935882Y284307D01*
X919291Y253937D02*
X923228Y257874D01*
X798104Y295276D02*
X956693D01*
X797276Y297276D02*
X957521D01*
X966504Y250969D02*
Y285465D01*
X956693Y295276D02*
X966504Y285465D01*
X957521Y297276D02*
X968504Y286293D01*
Y250140D02*
Y286293D01*
X785465Y282636D02*
X798104Y295276D01*
X783465Y283465D02*
X797276Y297276D01*
X785465Y240329D02*
Y282636D01*
X783465Y241158D02*
Y283465D01*
X770079Y239370D02*
X771642D01*
X779528Y237221D02*
X783465Y241158D01*
X773791Y237221D02*
X779528D01*
X771642Y239370D02*
X773791Y237221D01*
X780356Y235221D02*
X785465Y240329D01*
X773791Y235221D02*
X780356D01*
X771642Y233071D02*
X773791Y235221D01*
X770079Y233071D02*
X771642D01*
X957521Y239158D02*
X968504Y250140D01*
X956693Y241158D02*
X966504Y250969D01*
X952925Y241158D02*
X956693D01*
X950776Y243307D02*
X952925Y241158D01*
X949213Y243307D02*
X950776D01*
X952925Y239158D02*
X957521D01*
X950776Y237008D02*
X952925Y239158D01*
X949213Y237008D02*
X950776D01*
X938976Y187008D02*
X966535Y159449D01*
X918504Y190945D02*
X938976D01*
X917323Y192126D02*
X918504Y190945D01*
X917323Y192126D02*
Y194882D01*
X917323Y194882D01*
X917323Y171260D02*
X937008D01*
X909449Y175197D02*
X917323D01*
X904724Y179921D02*
Y187008D01*
Y179921D02*
X909449Y175197D01*
X937008Y171260D02*
X944488Y163779D01*
X911417Y163386D02*
X917323D01*
X922441Y144488D02*
Y158268D01*
X917323Y163386D02*
X922441Y158268D01*
X909449Y159449D02*
X911417D01*
X892126Y176772D02*
X909449Y159449D01*
X917323Y167323D02*
X931566Y153080D01*
X910630Y167323D02*
X917323D01*
X898425Y179528D02*
X910630Y167323D01*
X898425Y179528D02*
Y187008D01*
X931566Y151665D02*
Y153080D01*
Y151665D02*
X933231Y150000D01*
X933465D01*
X892126Y176772D02*
Y187008D01*
X909913Y151505D02*
Y153080D01*
X885827Y177165D02*
Y187008D01*
X909913Y151505D02*
X911417Y150000D01*
X885827Y177165D02*
X909913Y153080D01*
X899606Y159240D02*
Y159449D01*
Y159240D02*
X900394Y158453D01*
Y144488D02*
Y158453D01*
X889370Y150000D02*
Y153937D01*
X873228Y170079D02*
Y187008D01*
Y170079D02*
X889370Y153937D01*
X875984Y163386D02*
X878347Y161024D01*
Y144488D02*
Y161024D01*
X879527Y175591D02*
Y187008D01*
Y175591D02*
X895669Y159449D01*
X866929Y168504D02*
X872047Y163386D01*
X867323Y150000D02*
Y157480D01*
X860630Y164173D02*
Y194882D01*
Y164173D02*
X867323Y157480D01*
X944488Y144488D02*
Y163779D01*
X955512Y150000D02*
Y160630D01*
X911024Y187008D02*
X929134D01*
X955512Y160630D01*
X966535Y144488D02*
Y159449D01*
X923622Y196457D02*
X925197Y194882D01*
X944488D02*
X977559Y161811D01*
X925197Y194882D02*
X944488D01*
X923622Y196457D02*
Y202756D01*
X860630Y194882D02*
X860630Y194882D01*
X977559Y150000D02*
Y161811D01*
X884252Y122047D02*
X976973D01*
X880512Y113976D02*
Y118307D01*
X884252Y122047D01*
X880512Y108661D02*
Y113976D01*
X977559Y122633D02*
Y138189D01*
X976973Y122047D02*
X977559Y122633D01*
X875394Y119685D02*
X879724Y124016D01*
X865158Y119685D02*
X871457Y125984D01*
X949213Y124016D02*
X955512Y130315D01*
X932283Y125984D02*
X933465Y127165D01*
X871457Y125984D02*
X932283D01*
X879724Y124016D02*
X949213D01*
X823228Y128937D02*
Y138189D01*
X813976Y113976D02*
Y119685D01*
X823228Y128937D01*
X836417Y131890D02*
X843701D01*
X824213Y119685D02*
X836417Y131890D01*
X824213Y113976D02*
Y119685D01*
X834449D02*
X846653Y131890D01*
X834449Y113976D02*
Y119685D01*
X846653Y131890D02*
X866737D01*
X854921Y129921D02*
X888189D01*
X844685Y119685D02*
X854921Y129921D01*
X844685Y113976D02*
Y119685D01*
X863189Y127953D02*
X910832D01*
X854921Y113976D02*
Y119685D01*
X863189Y127953D01*
X865158Y113976D02*
Y119685D01*
X875394Y113976D02*
Y119685D01*
X910832Y127953D02*
X911417Y128539D01*
Y138189D01*
X888189Y129921D02*
X889370Y131102D01*
X845276Y133465D02*
Y138189D01*
X843701Y131890D02*
X845276Y133465D01*
X867323Y132475D02*
Y138189D01*
X866737Y131890D02*
X867323Y132475D01*
X834449Y110827D02*
Y113976D01*
X824213Y109252D02*
Y113976D01*
X813976Y108858D02*
Y113976D01*
X798622D02*
X801181Y116535D01*
X633465Y120079D02*
X720472D01*
X624803Y128740D02*
X633465Y120079D01*
X624803Y128740D02*
Y138189D01*
X721850Y113976D02*
Y118701D01*
X720472Y120079D02*
X721850Y118701D01*
Y113976D02*
X721998Y113829D01*
X655512Y122047D02*
X724803D01*
X726968Y119882D01*
Y113976D02*
Y119882D01*
X646850Y130709D02*
X655512Y122047D01*
X690945Y132283D02*
X697244Y125984D01*
X740551D02*
X747441Y119095D01*
X732677Y124016D02*
X737205Y119488D01*
X677165Y124016D02*
X732677D01*
X668898Y132283D02*
X677165Y124016D01*
X697244Y125984D02*
X740551D01*
X737205Y113976D02*
Y119488D01*
X747441Y113976D02*
Y119095D01*
X752756Y127953D02*
X757677Y123031D01*
X717323Y127953D02*
X752756D01*
X757677Y113976D02*
Y123031D01*
X712992Y132283D02*
X717323Y127953D01*
X739764Y129921D02*
X761417D01*
X767913Y123425D01*
X735039Y134646D02*
X739764Y129921D01*
X759055Y131890D02*
X768110D01*
X757087Y133858D02*
X759055Y131890D01*
X768110D02*
X778150Y121850D01*
X732087Y112008D02*
X740551Y103543D01*
X742323Y111221D02*
X749213Y104331D01*
Y99587D02*
Y104331D01*
X646850Y130709D02*
Y138189D01*
X721998Y113041D02*
Y113829D01*
Y113041D02*
X731890Y103150D01*
X668898Y132283D02*
Y138189D01*
X767913Y113976D02*
Y123425D01*
X735039Y134646D02*
Y138189D01*
X690945Y132283D02*
Y138189D01*
X712992Y132283D02*
Y138189D01*
X767913Y112008D02*
Y113976D01*
X757087Y133858D02*
Y138189D01*
X778150Y113976D02*
Y121850D01*
Y109646D02*
Y113976D01*
X788386D02*
Y121457D01*
X779134Y130709D02*
X788386Y121457D01*
X779134Y130709D02*
Y138189D01*
X801181Y116535D02*
Y138189D01*
X889370Y131102D02*
Y138189D01*
X933465Y127165D02*
Y138189D01*
X955512Y130315D02*
Y138189D01*
X857480Y66929D02*
X861811Y71260D01*
Y88602D01*
X727559Y66929D02*
X731890Y71260D01*
Y88602D01*
X736221Y66929D02*
X740551Y71260D01*
Y88602D01*
X749213Y71260D02*
Y88602D01*
X744882Y66929D02*
X749213Y71260D01*
X753543Y66929D02*
X757874Y71260D01*
Y88602D01*
X766535Y71260D02*
Y88602D01*
X762205Y66929D02*
X766535Y71260D01*
X770866Y66929D02*
X775197Y71260D01*
Y88602D01*
X783858Y71260D02*
Y88602D01*
X779528Y66929D02*
X783858Y71260D01*
X792520Y71260D02*
Y88602D01*
X788189Y66929D02*
X792520Y71260D01*
X796850Y66929D02*
X801181Y71260D01*
Y88602D01*
X805512Y66929D02*
X809842Y71260D01*
Y88602D01*
X814173Y66929D02*
X818504Y71260D01*
Y88602D01*
X822835Y66929D02*
X827165Y71260D01*
Y88602D01*
X831496Y66929D02*
X835827Y71260D01*
Y88602D01*
X840158Y66929D02*
X844488Y71260D01*
Y88602D01*
X848819Y66929D02*
X853150Y71260D01*
Y88602D01*
X866142Y66929D02*
X870472Y71260D01*
Y88602D01*
X866929Y209240D02*
X867717Y210027D01*
Y210236D01*
X848425Y230709D02*
Y233061D01*
X850394Y235030D01*
X845276Y227559D02*
X848425Y230709D01*
X850394Y237795D02*
X850579D01*
X852153Y239370D01*
X852362D01*
X850394Y235030D02*
Y237795D01*
X845276Y233858D02*
X848425Y237008D01*
Y240442D01*
X850515Y242533D01*
X836614Y227559D02*
X844488D01*
Y227559D02*
X845276D01*
X844488Y214961D02*
X845276D01*
X844488Y214961D02*
X844488Y214961D01*
Y246063D02*
X846457Y248031D01*
X844488Y240158D02*
Y246063D01*
X836614Y233858D02*
X836614Y233858D01*
X836614Y214961D02*
X844488D01*
X836614Y208661D02*
X836614Y208661D01*
X908661Y209449D02*
X915748D01*
X917323Y202756D02*
Y207874D01*
X915748Y209449D02*
X917323Y207874D01*
Y194882D02*
Y202756D01*
X904724Y194882D02*
Y195669D01*
X879528Y194882D02*
Y195669D01*
X917323Y194882D02*
X917323Y194882D01*
X904724Y194882D02*
X904724Y194882D01*
X904724Y187008D02*
Y194882D01*
X892126Y187008D02*
Y194882D01*
X892126Y194882D01*
X879527Y194882D02*
X879528Y194882D01*
X879527Y187008D02*
Y194882D01*
X937402Y237008D02*
X942913D01*
X937402Y243307D02*
X942913D01*
X923622Y202756D02*
X930709D01*
X923622D02*
Y212205D01*
X732087Y112008D02*
Y113976D01*
X742323Y111221D02*
Y113976D01*
X752559Y109646D02*
Y113976D01*
Y109646D02*
X757874Y104331D01*
X762795Y109646D02*
Y113976D01*
Y109646D02*
X766535Y105905D01*
X775197Y99587D02*
Y104724D01*
X767913Y112008D02*
X775197Y104724D01*
X783858Y99587D02*
Y103937D01*
X778150Y109646D02*
X783858Y103937D01*
X788386Y109252D02*
Y113976D01*
Y109252D02*
X792520Y105118D01*
Y99587D02*
Y105118D01*
X827165Y103543D02*
X834449Y110827D01*
X827165Y99587D02*
Y103543D01*
X818504Y103543D02*
X824213Y109252D01*
X818504Y99587D02*
Y103543D01*
X801181Y99587D02*
Y106299D01*
X803740Y108858D02*
Y113976D01*
X801181Y106299D02*
X803740Y108858D01*
X809842Y99587D02*
Y104724D01*
X813976Y108858D01*
X839567Y109252D02*
Y113976D01*
X835827Y99587D02*
Y105512D01*
X839567Y109252D01*
X844488Y105118D02*
X849803Y110433D01*
X844488Y99587D02*
Y105118D01*
X849803Y110433D02*
Y113976D01*
X853150Y99587D02*
Y104331D01*
X860039Y111221D02*
Y113976D01*
X853150Y104331D02*
X860039Y111221D01*
X861811Y103543D02*
X870114Y111847D01*
Y113815D01*
X861811Y99587D02*
Y103543D01*
X870114Y113815D02*
X870276Y113976D01*
X871417Y99567D02*
X880512Y108661D01*
X659449Y235827D02*
X659449Y235827D01*
X659449Y229528D02*
X667323D01*
X659449Y216929D02*
X667323D01*
X667323Y216929D01*
X659449Y210630D02*
X659449Y210630D01*
X667323D01*
X659457Y202354D02*
Y204322D01*
Y202354D02*
X666929Y194882D01*
X684252D01*
X659449Y204331D02*
X659457Y204322D01*
X659449Y204331D02*
X672626D01*
X673020Y204724D02*
X673228D01*
X672626Y204331D02*
X673020Y204724D01*
X673081Y214419D02*
X673228Y214567D01*
X671900Y214419D02*
X673081D01*
X667323Y210630D02*
X668110D01*
X671900Y214419D01*
X667856Y217462D02*
X669824D01*
X667323Y216929D02*
X667856Y217462D01*
X668110Y235827D02*
X668673Y236390D01*
Y236390D01*
X667323Y242126D02*
Y248031D01*
X669291Y250000D01*
X690158Y210421D02*
X690551Y210027D01*
X690158Y210421D02*
Y210630D01*
X690551Y194882D02*
Y210027D01*
X696850Y194882D02*
Y202756D01*
X700787Y198819D02*
X702587Y197020D01*
Y195445D02*
Y197020D01*
Y195445D02*
X703150Y194882D01*
X738976Y210630D02*
X740945Y208661D01*
X734252Y210630D02*
X738976D01*
X740945Y202756D02*
Y208661D01*
X744095Y214567D02*
X747244Y211417D01*
Y202756D02*
Y211417D01*
X746063Y255906D02*
Y274158D01*
X744095Y253937D02*
X746063Y255906D01*
X758268Y239370D02*
X763779D01*
X758268Y233071D02*
X763779D01*
X379528Y154724D02*
Y168898D01*
X372047Y134646D02*
X375197Y137795D01*
X372047Y122047D02*
Y134646D01*
X367126Y117126D02*
X372047Y122047D01*
X367126Y94095D02*
Y117126D01*
X438189Y138976D02*
X440158D01*
X436417Y125394D02*
X437008Y125984D01*
X436417Y94095D02*
Y125394D01*
X425197Y120079D02*
X426575Y118701D01*
X422047Y135827D02*
X424016D01*
X425197Y120079D02*
Y134646D01*
X424016Y135827D02*
X425197Y134646D01*
X426575Y94095D02*
Y118701D01*
X495866Y94095D02*
Y133268D01*
X495276Y133858D02*
X495866Y133268D01*
X492913Y133858D02*
X495276D01*
X460630Y110236D02*
Y124803D01*
X457480Y125984D02*
X459449D01*
X460630Y124803D01*
X472441Y104927D02*
Y124803D01*
X473622Y125984D02*
X475591D01*
X472441Y124803D02*
X473622Y125984D01*
X404724D02*
X406693D01*
X403543Y124803D02*
X404724Y125984D01*
X403543Y112205D02*
Y124803D01*
X390551Y126378D02*
X391732Y125197D01*
Y110236D02*
Y125197D01*
X388583Y126378D02*
X390551D01*
X391732Y110236D02*
X391929Y110039D01*
Y94095D02*
Y110039D01*
X401772Y110433D02*
X403543Y112205D01*
X401772Y94095D02*
Y110433D01*
X461221Y94095D02*
Y109646D01*
X460630Y110236D02*
X461221Y109646D01*
X471063Y94095D02*
Y103549D01*
X472441Y104927D01*
X376772Y152756D02*
Y172047D01*
X381890Y177165D01*
D29*
X246260Y320866D02*
D03*
X253740D02*
D03*
D30*
X801181Y150000D02*
D03*
Y138189D02*
D03*
X823228Y150000D02*
D03*
Y138189D02*
D03*
X845276Y150000D02*
D03*
Y138189D02*
D03*
X867323Y150000D02*
D03*
Y138189D02*
D03*
X889370Y150000D02*
D03*
Y138189D02*
D03*
X911417Y150000D02*
D03*
Y138189D02*
D03*
X933465Y150000D02*
D03*
Y138189D02*
D03*
X955512Y150000D02*
D03*
Y138189D02*
D03*
X977559Y150000D02*
D03*
Y138189D02*
D03*
X624803Y150000D02*
D03*
Y138189D02*
D03*
X646850Y150000D02*
D03*
Y138189D02*
D03*
X668898Y150000D02*
D03*
Y138189D02*
D03*
X690945Y150000D02*
D03*
Y138189D02*
D03*
X712992Y150000D02*
D03*
Y138189D02*
D03*
X735039Y150000D02*
D03*
Y138189D02*
D03*
X757087Y150000D02*
D03*
Y138189D02*
D03*
X779134Y150000D02*
D03*
Y138189D02*
D03*
D31*
X746063Y233071D02*
D03*
Y239370D02*
D03*
X923228Y237008D02*
D03*
Y243307D02*
D03*
X812205Y144488D02*
D03*
Y138189D02*
D03*
X834252Y144488D02*
D03*
Y138189D02*
D03*
X856299Y144488D02*
D03*
Y138189D02*
D03*
X878347Y144488D02*
D03*
Y138189D02*
D03*
X900394Y144488D02*
D03*
Y138189D02*
D03*
X922441Y144488D02*
D03*
Y138189D02*
D03*
X944488Y144488D02*
D03*
Y138189D02*
D03*
X966535Y144488D02*
D03*
Y138189D02*
D03*
X635827Y144488D02*
D03*
Y138189D02*
D03*
X657874Y144488D02*
D03*
Y138189D02*
D03*
X679921Y144488D02*
D03*
Y138189D02*
D03*
X701968Y144488D02*
D03*
Y138189D02*
D03*
X724016Y144488D02*
D03*
Y138189D02*
D03*
X746063Y144488D02*
D03*
Y138189D02*
D03*
X768110Y144488D02*
D03*
Y138189D02*
D03*
X790158Y144488D02*
D03*
Y138189D02*
D03*
D32*
X751968Y233071D02*
D03*
X758268D02*
D03*
X751968Y239370D02*
D03*
X758268D02*
D03*
X931102Y243307D02*
D03*
X937402D02*
D03*
X931102Y237008D02*
D03*
X937402D02*
D03*
D40*
X731890Y99587D02*
D03*
Y88602D02*
D03*
X740551Y99587D02*
D03*
Y88602D02*
D03*
X749213Y99587D02*
D03*
Y88602D02*
D03*
X757874Y99587D02*
D03*
Y88602D02*
D03*
X766535Y99587D02*
D03*
Y88602D02*
D03*
X775197Y99587D02*
D03*
Y88602D02*
D03*
X783858Y99587D02*
D03*
Y88602D02*
D03*
X792520Y99587D02*
D03*
Y88602D02*
D03*
X801181Y99587D02*
D03*
Y88602D02*
D03*
X809842Y99587D02*
D03*
Y88602D02*
D03*
X818504Y99587D02*
D03*
Y88602D02*
D03*
X827165Y99587D02*
D03*
Y88602D02*
D03*
X835827Y99587D02*
D03*
Y88602D02*
D03*
X844488Y99587D02*
D03*
Y88602D02*
D03*
X853150Y99587D02*
D03*
Y88602D02*
D03*
X861811Y99587D02*
D03*
Y88602D02*
D03*
X870472Y99587D02*
D03*
Y88602D02*
D03*
D44*
X844488Y233858D02*
D03*
Y240158D02*
D03*
X836614Y227559D02*
D03*
Y233858D02*
D03*
X844488Y221260D02*
D03*
Y227559D02*
D03*
X836614Y214961D02*
D03*
Y221260D02*
D03*
X844488Y208661D02*
D03*
Y214961D02*
D03*
X836614Y202362D02*
D03*
Y208661D02*
D03*
X667323Y235827D02*
D03*
Y242126D02*
D03*
X659449Y229528D02*
D03*
Y235827D02*
D03*
X667323Y223228D02*
D03*
Y229528D02*
D03*
X659449Y216929D02*
D03*
Y223228D02*
D03*
X667323Y210630D02*
D03*
Y216929D02*
D03*
X659449Y204331D02*
D03*
Y210630D02*
D03*
D45*
X752362Y228346D02*
D03*
X746063D02*
D03*
X752362Y244094D02*
D03*
X746063D02*
D03*
X770079Y233071D02*
D03*
X763779D02*
D03*
X770079Y239370D02*
D03*
X763779D02*
D03*
X949213Y243307D02*
D03*
X942913D02*
D03*
X949213Y237008D02*
D03*
X942913D02*
D03*
X929528Y232283D02*
D03*
X923228D02*
D03*
X929528Y248031D02*
D03*
X923228D02*
D03*
X866929Y194882D02*
D03*
X860630D02*
D03*
X873228Y187008D02*
D03*
X866929D02*
D03*
X879528Y194882D02*
D03*
X873228D02*
D03*
X885827Y187008D02*
D03*
X879527D02*
D03*
X892126Y194882D02*
D03*
X885827D02*
D03*
X898425Y187008D02*
D03*
X892126D02*
D03*
X904724Y194882D02*
D03*
X898425D02*
D03*
X911024Y187008D02*
D03*
X904724D02*
D03*
X917323Y194882D02*
D03*
X911024D02*
D03*
X923622Y202756D02*
D03*
X917323D02*
D03*
X937008D02*
D03*
X930709D02*
D03*
X690551Y194882D02*
D03*
X684252D02*
D03*
X696850Y187008D02*
D03*
X690551D02*
D03*
X703150Y194882D02*
D03*
X696850D02*
D03*
X709449Y187008D02*
D03*
X703150D02*
D03*
X715748Y194882D02*
D03*
X709449D02*
D03*
X722047Y187008D02*
D03*
X715748D02*
D03*
X728346Y194882D02*
D03*
X722047D02*
D03*
X734646Y187008D02*
D03*
X728346D02*
D03*
X740945Y194882D02*
D03*
X734646D02*
D03*
X747244Y202756D02*
D03*
X740945D02*
D03*
D97*
X246220Y374016D02*
X246240Y373996D01*
Y320886D02*
Y373996D01*
Y320886D02*
X246260Y320866D01*
X33465Y232283D02*
X84646D01*
D98*
X28881Y316961D02*
X35080D01*
X49023Y303018D01*
X27633Y318209D02*
X28881Y316961D01*
X27633Y314272D02*
X28322Y314961D01*
X34252D01*
X47023Y302189D01*
X49023Y289238D02*
Y303018D01*
X47023Y288410D02*
Y302189D01*
X74074Y281734D02*
X88598Y267209D01*
X56528Y281734D02*
X74074D01*
X88598Y265138D02*
Y267209D01*
X49023Y289238D02*
X56528Y281734D01*
X92040Y264260D02*
X92520Y263779D01*
X88598Y265138D02*
X89477Y264260D01*
X92040D01*
X73245Y279734D02*
X86598Y266381D01*
X55699Y279734D02*
X73245D01*
X86598Y265138D02*
Y266381D01*
X47023Y288410D02*
X55699Y279734D01*
X85720Y264260D02*
X86598Y265138D01*
X83157Y264260D02*
X85720D01*
X82677Y263779D02*
X83157Y264260D01*
X27559Y318209D02*
X27633D01*
X27559Y314272D02*
X27633D01*
X751968Y233071D02*
X751968Y233071D01*
D100*
X177921Y362205D02*
D03*
X129921D02*
D03*
D101*
X16339Y322835D02*
D03*
Y307087D02*
D03*
D102*
X210630Y23779D02*
D03*
X200787D02*
D03*
X190945D02*
D03*
X181102D02*
D03*
X171260D02*
D03*
X161417D02*
D03*
X151575D02*
D03*
X141732D02*
D03*
X131890D02*
D03*
X122047D02*
D03*
X112205D02*
D03*
X102362D02*
D03*
X92520D02*
D03*
X82677D02*
D03*
X72835D02*
D03*
X62992D02*
D03*
X53150D02*
D03*
X43307D02*
D03*
X33465D02*
D03*
X210630Y13780D02*
D03*
X200787D02*
D03*
X190945D02*
D03*
X181102D02*
D03*
X171260D02*
D03*
X161417D02*
D03*
X151575D02*
D03*
X141732D02*
D03*
X131890D02*
D03*
X122047D02*
D03*
X112205D02*
D03*
X102362D02*
D03*
X92520D02*
D03*
X82677D02*
D03*
X72835D02*
D03*
X62992D02*
D03*
X53150D02*
D03*
X43307D02*
D03*
X210630Y263779D02*
D03*
X200787D02*
D03*
X190945D02*
D03*
X181102D02*
D03*
X171260D02*
D03*
X161417D02*
D03*
X151575D02*
D03*
X141732D02*
D03*
X131890D02*
D03*
X122047D02*
D03*
X112205D02*
D03*
X102362D02*
D03*
X92520D02*
D03*
X82677D02*
D03*
X72835D02*
D03*
X62992D02*
D03*
X53150D02*
D03*
X43307D02*
D03*
X33465D02*
D03*
X210630Y253780D02*
D03*
X200787D02*
D03*
X190945D02*
D03*
X181102D02*
D03*
X171260D02*
D03*
X161417D02*
D03*
X151575D02*
D03*
X141732D02*
D03*
X131890D02*
D03*
X122047D02*
D03*
X112205D02*
D03*
X102362D02*
D03*
X92520D02*
D03*
X82677D02*
D03*
X72835D02*
D03*
X62992D02*
D03*
X53150D02*
D03*
X43307D02*
D03*
D103*
X33465Y13780D02*
D03*
Y253780D02*
D03*
D104*
X236221Y374016D02*
D03*
D105*
X246220D02*
D03*
X256221D02*
D03*
D106*
X236221Y56870D02*
D03*
Y46870D02*
D03*
Y36870D02*
D03*
Y26870D02*
D03*
Y115925D02*
D03*
Y105925D02*
D03*
Y95925D02*
D03*
Y85925D02*
D03*
D107*
Y16870D02*
D03*
Y75925D02*
D03*
D108*
X114173Y315276D02*
D03*
Y305276D02*
D03*
X102362Y315276D02*
D03*
Y305276D02*
D03*
X90551Y315276D02*
D03*
Y305276D02*
D03*
X74803Y315276D02*
D03*
Y305276D02*
D03*
X59055Y315276D02*
D03*
Y305276D02*
D03*
D109*
X114173Y295276D02*
D03*
X102362D02*
D03*
X90551D02*
D03*
X74803D02*
D03*
X59055D02*
D03*
D110*
X704331Y44882D02*
D03*
X863386D02*
D03*
X369291D02*
D03*
X493701D02*
D03*
D111*
X701575Y66929D02*
D03*
X710236D02*
D03*
X718898D02*
D03*
X727559D02*
D03*
X736221D02*
D03*
X744882D02*
D03*
X753543D02*
D03*
X762205D02*
D03*
X770866D02*
D03*
X779528D02*
D03*
X788189D02*
D03*
X796850D02*
D03*
X805512D02*
D03*
X814173D02*
D03*
X822835D02*
D03*
X831496D02*
D03*
X840158D02*
D03*
X848819D02*
D03*
X857480D02*
D03*
X866142D02*
D03*
X701575Y78740D02*
D03*
X710236D02*
D03*
X718898D02*
D03*
X727559D02*
D03*
X736221D02*
D03*
X744882D02*
D03*
X753543D02*
D03*
X762205D02*
D03*
X770866D02*
D03*
X779528D02*
D03*
X788189D02*
D03*
X796850D02*
D03*
X805512D02*
D03*
X814173D02*
D03*
X822835D02*
D03*
X831496D02*
D03*
X840158D02*
D03*
X848819D02*
D03*
X857480D02*
D03*
X866142D02*
D03*
X366535Y66929D02*
D03*
X375197D02*
D03*
X383858D02*
D03*
X392520D02*
D03*
X401181D02*
D03*
X409842D02*
D03*
X418504D02*
D03*
X427165D02*
D03*
X435827D02*
D03*
X444488D02*
D03*
X453150D02*
D03*
X461811D02*
D03*
X470472D02*
D03*
X479134D02*
D03*
X487795D02*
D03*
X496457D02*
D03*
X366535Y78740D02*
D03*
X375197D02*
D03*
X383858D02*
D03*
X392520D02*
D03*
X401181D02*
D03*
X409842D02*
D03*
X418504D02*
D03*
X427165D02*
D03*
X435827D02*
D03*
X444488D02*
D03*
X453150D02*
D03*
X461811D02*
D03*
X470472D02*
D03*
X479134D02*
D03*
X487795D02*
D03*
X496457D02*
D03*
X129764Y381890D02*
D03*
D112*
X139764D02*
D03*
D113*
X15748Y15748D02*
D03*
Y377953D02*
D03*
D114*
X11811Y43307D02*
D03*
X15748Y39370D02*
D03*
X11811Y35433D02*
D03*
X7874Y39370D02*
D03*
X15748Y43307D02*
D03*
Y35433D02*
D03*
X204724Y169291D02*
D03*
X208661D02*
D03*
Y165354D02*
D03*
X204724D02*
D03*
X7874Y43307D02*
D03*
X11811Y39370D02*
D03*
X7874Y35433D02*
D03*
X137795Y159449D02*
D03*
X133858D02*
D03*
X137795Y177165D02*
D03*
X433858Y138976D02*
D03*
X27559Y314272D02*
D03*
Y318209D02*
D03*
X155138Y239075D02*
D03*
X183071Y226378D02*
D03*
Y222441D02*
D03*
X150138Y217618D02*
D03*
X293307Y153543D02*
D03*
X297244D02*
D03*
Y157480D02*
D03*
X293307D02*
D03*
X183071Y305118D02*
D03*
X86614Y220866D02*
D03*
X93685Y213795D02*
D03*
X183071Y64961D02*
D03*
X15748Y141535D02*
D03*
Y134055D02*
D03*
Y161221D02*
D03*
X200787Y238189D02*
D03*
X62992Y228543D02*
D03*
X153543Y43110D02*
D03*
X179134D02*
D03*
X166142Y43307D02*
D03*
X171260Y35433D02*
D03*
X161417D02*
D03*
X84646Y232283D02*
D03*
X192913Y238386D02*
D03*
X200787Y246063D02*
D03*
X253740Y320866D02*
D03*
X21654Y295276D02*
D03*
X33465Y232283D02*
D03*
X25591D02*
D03*
X131890Y232283D02*
D03*
Y224410D02*
D03*
X145138Y217618D02*
D03*
X140138Y239075D02*
D03*
X240158Y169291D02*
D03*
X236221Y324803D02*
D03*
X263779D02*
D03*
Y316929D02*
D03*
X274410Y366142D02*
D03*
X295276Y273228D02*
D03*
X295251Y268091D02*
D03*
X547244Y248031D02*
D03*
X546161Y263090D02*
D03*
X539370Y248031D02*
D03*
X515748D02*
D03*
X508957Y263090D02*
D03*
Y293091D02*
D03*
X546161D02*
D03*
X919291Y242126D02*
D03*
Y238189D02*
D03*
X742126D02*
D03*
Y234252D02*
D03*
X448425Y151670D02*
D03*
X445276Y153543D02*
D03*
X407480Y183071D02*
D03*
X706693Y198819D02*
D03*
X713386Y200394D02*
D03*
X719291Y200787D02*
D03*
X725591Y198819D02*
D03*
X730709Y200394D02*
D03*
X848425Y221260D02*
D03*
X849606Y215354D02*
D03*
X852362Y233465D02*
D03*
X869685Y198819D02*
D03*
X875984Y199606D02*
D03*
X883071Y198819D02*
D03*
X889370D02*
D03*
X895669D02*
D03*
X901575D02*
D03*
X907480D02*
D03*
X921260Y214567D02*
D03*
X852394Y244063D02*
D03*
X673228Y244488D02*
D03*
X675425Y239535D02*
D03*
X673260Y230677D02*
D03*
X672047Y223228D02*
D03*
X445276Y180315D02*
D03*
X296161Y90925D02*
D03*
Y100925D02*
D03*
Y31870D02*
D03*
Y36870D02*
D03*
Y41870D02*
D03*
Y46870D02*
D03*
Y95925D02*
D03*
Y105925D02*
D03*
X427165Y163386D02*
D03*
X423228D02*
D03*
X419291D02*
D03*
X415354D02*
D03*
X403543Y179134D02*
D03*
X496063Y175197D02*
D03*
X500000D02*
D03*
X492126D02*
D03*
X488189D02*
D03*
X917323Y267717D02*
D03*
X913386D02*
D03*
X940945Y230315D02*
D03*
Y226378D02*
D03*
X937008D02*
D03*
Y230315D02*
D03*
Y253937D02*
D03*
Y250000D02*
D03*
X940945D02*
D03*
Y253937D02*
D03*
X258957Y85925D02*
D03*
X864173Y259842D02*
D03*
X897244Y236221D02*
D03*
X889370Y244094D02*
D03*
X897244D02*
D03*
X881496Y236221D02*
D03*
X889370D02*
D03*
X881496Y228346D02*
D03*
X889370D02*
D03*
X897244D02*
D03*
X881496Y244094D02*
D03*
X720866Y228346D02*
D03*
X705118D02*
D03*
Y244094D02*
D03*
X720866D02*
D03*
Y236221D02*
D03*
X712992Y244094D02*
D03*
X705118Y236221D02*
D03*
X712992Y228346D02*
D03*
Y236221D02*
D03*
X765748Y250000D02*
D03*
Y246063D02*
D03*
X759842Y222441D02*
D03*
X763779D02*
D03*
Y226378D02*
D03*
X759842D02*
D03*
X761811Y246063D02*
D03*
Y250000D02*
D03*
X738189Y267717D02*
D03*
X734252D02*
D03*
X687008Y261811D02*
D03*
X820866Y236221D02*
D03*
X702953Y303150D02*
D03*
X627953Y271654D02*
D03*
X698819Y269685D02*
D03*
X990551Y150000D02*
D03*
X876181Y303150D02*
D03*
X872047Y275590D02*
D03*
X649606Y297244D02*
D03*
X645669D02*
D03*
X641732D02*
D03*
X893701Y267717D02*
D03*
Y271654D02*
D03*
X908323Y286811D02*
D03*
X731157D02*
D03*
X758716D02*
D03*
X931102Y261811D02*
D03*
X718504Y267717D02*
D03*
X757874Y257874D02*
D03*
X637795Y229921D02*
D03*
X639764Y171260D02*
D03*
Y175197D02*
D03*
X655512D02*
D03*
Y171260D02*
D03*
X673228Y169291D02*
D03*
Y173228D02*
D03*
X433858Y143701D02*
D03*
X368898D02*
D03*
X785433Y165354D02*
D03*
Y161417D02*
D03*
X732283Y167323D02*
D03*
Y163386D02*
D03*
X716535D02*
D03*
X712598D02*
D03*
X696850Y161417D02*
D03*
X700787D02*
D03*
X746063Y171260D02*
D03*
Y175197D02*
D03*
X814961Y244094D02*
D03*
Y159449D02*
D03*
Y163386D02*
D03*
X830709Y165354D02*
D03*
Y161417D02*
D03*
X856299D02*
D03*
X852362D02*
D03*
X935882Y286811D02*
D03*
X919291Y253937D02*
D03*
X938976Y187008D02*
D03*
Y190945D02*
D03*
X917323Y171260D02*
D03*
Y175197D02*
D03*
X911417Y163386D02*
D03*
Y159449D02*
D03*
X899606D02*
D03*
X875984Y163386D02*
D03*
X895669Y159449D02*
D03*
X872047Y163386D02*
D03*
X937008Y202756D02*
D03*
X721850Y113976D02*
D03*
X865158D02*
D03*
X860039D02*
D03*
X767913D02*
D03*
X773032D02*
D03*
X778150D02*
D03*
X732087D02*
D03*
X726968D02*
D03*
X737205D02*
D03*
X742323D02*
D03*
X747441D02*
D03*
X752559D02*
D03*
X757677D02*
D03*
X762795D02*
D03*
X783268D02*
D03*
X788386D02*
D03*
X793504D02*
D03*
X798622D02*
D03*
X803740D02*
D03*
X808858D02*
D03*
X813976D02*
D03*
X819094D02*
D03*
X824213D02*
D03*
X829331D02*
D03*
X834449D02*
D03*
X839567D02*
D03*
X844685D02*
D03*
X849803D02*
D03*
X854921D02*
D03*
X870276D02*
D03*
X875394D02*
D03*
X744095Y253937D02*
D03*
X852362Y239370D02*
D03*
Y206693D02*
D03*
X846457Y248031D02*
D03*
X908661Y209449D02*
D03*
X867717Y210236D02*
D03*
X880512Y113976D02*
D03*
X673228Y204724D02*
D03*
Y214567D02*
D03*
X669291Y250000D02*
D03*
X690158Y210630D02*
D03*
X696850Y202756D02*
D03*
X700787Y198819D02*
D03*
X734252Y210630D02*
D03*
X744095Y214567D02*
D03*
X624803Y138189D02*
D03*
X635827D02*
D03*
X646850D02*
D03*
X657874D02*
D03*
X668898D02*
D03*
X679921D02*
D03*
X690945D02*
D03*
X701968D02*
D03*
X712992D02*
D03*
X724016D02*
D03*
X735039D02*
D03*
X746063D02*
D03*
X757087D02*
D03*
X768110D02*
D03*
X779134D02*
D03*
X790158D02*
D03*
X801181D02*
D03*
X812205D02*
D03*
X823228D02*
D03*
X834252D02*
D03*
X845276D02*
D03*
X856299D02*
D03*
X867323D02*
D03*
X878347D02*
D03*
X889370D02*
D03*
X900394D02*
D03*
X911417D02*
D03*
X922441D02*
D03*
X933465D02*
D03*
X944488D02*
D03*
X955512D02*
D03*
X966535D02*
D03*
X977559D02*
D03*
X259842Y64961D02*
D03*
X258957Y26870D02*
D03*
X259842Y124016D02*
D03*
X440945Y160630D02*
D03*
X372047Y161417D02*
D03*
X391732Y165354D02*
D03*
X379528Y154724D02*
D03*
X427165Y155512D02*
D03*
X437008Y156693D02*
D03*
X433071Y157480D02*
D03*
X368898Y131890D02*
D03*
Y125984D02*
D03*
X496307Y147638D02*
D03*
Y155512D02*
D03*
X427165Y147638D02*
D03*
X440945Y156693D02*
D03*
X473472Y171260D02*
D03*
X458465Y177165D02*
D03*
X435433Y148819D02*
D03*
X352362Y114173D02*
D03*
Y183071D02*
D03*
X394882Y126378D02*
D03*
X463779Y125984D02*
D03*
Y114173D02*
D03*
X469291Y120079D02*
D03*
X440158Y138976D02*
D03*
X422835Y102756D02*
D03*
X422047Y135827D02*
D03*
X388189Y102756D02*
D03*
X375197Y137795D02*
D03*
X388583Y126378D02*
D03*
X406693Y125984D02*
D03*
X457480D02*
D03*
X461221Y94095D02*
D03*
X436417D02*
D03*
X426575D02*
D03*
X401772D02*
D03*
X391929D02*
D03*
X367126D02*
D03*
X475591Y125984D02*
D03*
X492913Y133858D02*
D03*
X471063Y94095D02*
D03*
X495866D02*
D03*
X296161Y26870D02*
D03*
X295276Y64961D02*
D03*
Y124016D02*
D03*
X372047Y157480D02*
D03*
X321260Y149606D02*
D03*
X316496Y184055D02*
D03*
X376772Y152756D02*
D03*
X391732Y149606D02*
D03*
X381890Y177165D02*
D03*
X366142Y149606D02*
D03*
X399606Y165354D02*
D03*
X401181Y149606D02*
D03*
X401575Y137795D02*
D03*
X395669D02*
D03*
X435267Y188999D02*
D03*
X499213Y139764D02*
D03*
Y133858D02*
D03*
Y127953D02*
D03*
Y122047D02*
D03*
X463779Y131890D02*
D03*
X469291D02*
D03*
Y125984D02*
D03*
X463779Y120079D02*
D03*
X469291Y114173D02*
D03*
X440945Y168504D02*
D03*
X428346Y124016D02*
D03*
X433858Y129134D02*
D03*
X428346Y129921D02*
D03*
X433858Y133858D02*
D03*
X428346Y135827D02*
D03*
Y141732D02*
D03*
X394882Y120079D02*
D03*
Y114173D02*
D03*
X400394D02*
D03*
Y120079D02*
D03*
Y125984D02*
D03*
Y131890D02*
D03*
X394882D02*
D03*
X368898Y137795D02*
D03*
X370866Y102756D02*
D03*
X405512D02*
D03*
X440158D02*
D03*
X457480D02*
D03*
X474803D02*
D03*
X492126D02*
D03*
M02*
