G04*
G04 #@! TF.GenerationSoftware,Altium Limited,Altium Designer,23.11.1 (41)*
G04*
G04 Layer_Color=16711935*
%FSLAX25Y25*%
%MOIN*%
G70*
G04*
G04 #@! TF.SameCoordinates,3E60C5BA-0C76-47EE-A8DA-6B49124F06CB*
G04*
G04*
G04 #@! TF.FilePolarity,Positive*
G04*
G01*
G75*
%ADD115C,0.00197*%
D115*
X744410Y230787D02*
X754016D01*
X744410Y225905D02*
Y230787D01*
Y225905D02*
X754016D01*
Y230787D01*
X744410Y246535D02*
X754016D01*
X744410Y241653D02*
Y246535D01*
Y241653D02*
X754016D01*
Y246535D01*
X762126Y235512D02*
X771732D01*
X762126Y230630D02*
Y235512D01*
Y230630D02*
X771732D01*
Y235512D01*
X762126Y241811D02*
X771732D01*
X762126Y236929D02*
Y241811D01*
Y236929D02*
X771732D01*
Y241811D01*
X941260Y245748D02*
X950866D01*
X941260Y240866D02*
Y245748D01*
Y240866D02*
X950866D01*
Y245748D01*
X941260Y239449D02*
X950866D01*
X941260Y234567D02*
Y239449D01*
Y234567D02*
X950866D01*
Y239449D01*
X921575Y234724D02*
X931181D01*
X921575Y229842D02*
Y234724D01*
Y229842D02*
X931181D01*
Y234724D01*
X921575Y250472D02*
X931181D01*
X921575Y245591D02*
Y250472D01*
Y245591D02*
X931181D01*
Y250472D01*
X846929Y232205D02*
Y241811D01*
X842047D02*
X846929D01*
X842047Y232205D02*
Y241811D01*
Y232205D02*
X846929D01*
X839055Y225905D02*
Y235512D01*
X834173D02*
X839055D01*
X834173Y225905D02*
Y235512D01*
Y225905D02*
X839055D01*
X846929Y219606D02*
Y229213D01*
X842047D02*
X846929D01*
X842047Y219606D02*
Y229213D01*
Y219606D02*
X846929D01*
X839055Y213307D02*
Y222913D01*
X834173D02*
X839055D01*
X834173Y213307D02*
Y222913D01*
Y213307D02*
X839055D01*
X846929Y207008D02*
Y216614D01*
X842047D02*
X846929D01*
X842047Y207008D02*
Y216614D01*
Y207008D02*
X846929D01*
X839055Y200709D02*
Y210315D01*
X834173D02*
X839055D01*
X834173Y200709D02*
Y210315D01*
Y200709D02*
X839055D01*
X858976Y197323D02*
X868583D01*
X858976Y192441D02*
Y197323D01*
Y192441D02*
X868583D01*
Y197323D01*
X865276Y189449D02*
X874882D01*
X865276Y184567D02*
Y189449D01*
Y184567D02*
X874882D01*
Y189449D01*
X871575Y197323D02*
X881181D01*
X871575Y192441D02*
Y197323D01*
Y192441D02*
X881181D01*
Y197323D01*
X877874Y189449D02*
X887480D01*
X877874Y184567D02*
Y189449D01*
Y184567D02*
X887480D01*
Y189449D01*
X884173Y197323D02*
X893779D01*
X884173Y192441D02*
Y197323D01*
Y192441D02*
X893779D01*
Y197323D01*
X890472Y189449D02*
X900079D01*
X890472Y184567D02*
Y189449D01*
Y184567D02*
X900079D01*
Y189449D01*
X896772Y197323D02*
X906378D01*
X896772Y192441D02*
Y197323D01*
Y192441D02*
X906378D01*
Y197323D01*
X903071Y189449D02*
X912677D01*
X903071Y184567D02*
Y189449D01*
Y184567D02*
X912677D01*
Y189449D01*
X909370Y197323D02*
X918976D01*
X909370Y192441D02*
Y197323D01*
Y192441D02*
X918976D01*
Y197323D01*
X915669Y205197D02*
X925276D01*
X915669Y200315D02*
Y205197D01*
Y200315D02*
X925276D01*
Y205197D01*
X929055D02*
X938661D01*
X929055Y200315D02*
Y205197D01*
Y200315D02*
X938661D01*
Y205197D01*
X669764Y234173D02*
Y243779D01*
X664882D02*
X669764D01*
X664882Y234173D02*
Y243779D01*
Y234173D02*
X669764D01*
X661890Y227874D02*
Y237480D01*
X657008D02*
X661890D01*
X657008Y227874D02*
Y237480D01*
Y227874D02*
X661890D01*
X669764Y221575D02*
Y231181D01*
X664882D02*
X669764D01*
X664882Y221575D02*
Y231181D01*
Y221575D02*
X669764D01*
X661890Y215276D02*
Y224882D01*
X657008D02*
X661890D01*
X657008Y215276D02*
Y224882D01*
Y215276D02*
X661890D01*
X669764Y208976D02*
Y218583D01*
X664882D02*
X669764D01*
X664882Y208976D02*
Y218583D01*
Y208976D02*
X669764D01*
X661890Y202677D02*
Y212283D01*
X657008D02*
X661890D01*
X657008Y202677D02*
Y212283D01*
Y202677D02*
X661890D01*
X682598Y197323D02*
X692205D01*
X682598Y192441D02*
Y197323D01*
Y192441D02*
X692205D01*
Y197323D01*
X688898Y189449D02*
X698504D01*
X688898Y184567D02*
Y189449D01*
Y184567D02*
X698504D01*
Y189449D01*
X695197Y197323D02*
X704803D01*
X695197Y192441D02*
Y197323D01*
Y192441D02*
X704803D01*
Y197323D01*
X701496Y189449D02*
X711102D01*
X701496Y184567D02*
Y189449D01*
Y184567D02*
X711102D01*
Y189449D01*
X707795Y197323D02*
X717402D01*
X707795Y192441D02*
Y197323D01*
Y192441D02*
X717402D01*
Y197323D01*
X714094Y189449D02*
X723701D01*
X714094Y184567D02*
Y189449D01*
Y184567D02*
X723701D01*
Y189449D01*
X720394Y197323D02*
X730000D01*
X720394Y192441D02*
Y197323D01*
Y192441D02*
X730000D01*
Y197323D01*
X726693Y189449D02*
X736299D01*
X726693Y184567D02*
Y189449D01*
Y184567D02*
X736299D01*
Y189449D01*
X732992Y197323D02*
X742598D01*
X732992Y192441D02*
Y197323D01*
Y192441D02*
X742598D01*
Y197323D01*
X739291Y205197D02*
X748898D01*
X739291Y200315D02*
Y205197D01*
Y200315D02*
X748898D01*
Y205197D01*
M02*
