G04*
G04 #@! TF.GenerationSoftware,Altium Limited,Altium Designer,24.1.2 (44)*
G04*
G04 Layer_Color=16711935*
%FSLAX25Y25*%
%MOIN*%
G70*
G04*
G04 #@! TF.SameCoordinates,B5AD6C99-44BA-4BCA-A26F-11CA4035DA65*
G04*
G04*
G04 #@! TF.FilePolarity,Positive*
G04*
G01*
G75*
%ADD10C,0.00394*%
D10*
X746063Y229921D02*
X752362D01*
X746063Y226772D02*
Y229921D01*
Y226772D02*
X752362D01*
Y229921D01*
X746063Y245669D02*
X752362D01*
X746063Y242520D02*
Y245669D01*
Y242520D02*
X752362D01*
Y245669D01*
X763779Y234646D02*
X770079D01*
X763779Y231496D02*
Y234646D01*
Y231496D02*
X770079D01*
Y234646D01*
X763779Y240945D02*
X770079D01*
X763779Y237795D02*
Y240945D01*
Y237795D02*
X770079D01*
Y240945D01*
X942913Y244882D02*
X949213D01*
X942913Y241732D02*
Y244882D01*
Y241732D02*
X949213D01*
Y244882D01*
X942913Y238583D02*
X949213D01*
X942913Y235433D02*
Y238583D01*
Y235433D02*
X949213D01*
Y238583D01*
X923228Y233858D02*
X929528D01*
X923228Y230709D02*
Y233858D01*
Y230709D02*
X929528D01*
Y233858D01*
X923228Y249606D02*
X929528D01*
X923228Y246457D02*
Y249606D01*
Y246457D02*
X929528D01*
Y249606D01*
X846063Y233858D02*
Y240158D01*
X842913D02*
X846063D01*
X842913Y233858D02*
Y240158D01*
Y233858D02*
X846063D01*
X838189Y227559D02*
Y233858D01*
X835039D02*
X838189D01*
X835039Y227559D02*
Y233858D01*
Y227559D02*
X838189D01*
X846063Y221260D02*
Y227559D01*
X842913D02*
X846063D01*
X842913Y221260D02*
Y227559D01*
Y221260D02*
X846063D01*
X838189Y214961D02*
Y221260D01*
X835039D02*
X838189D01*
X835039Y214961D02*
Y221260D01*
Y214961D02*
X838189D01*
X846063Y208661D02*
Y214961D01*
X842913D02*
X846063D01*
X842913Y208661D02*
Y214961D01*
Y208661D02*
X846063D01*
X838189Y202362D02*
Y208661D01*
X835039D02*
X838189D01*
X835039Y202362D02*
Y208661D01*
Y202362D02*
X838189D01*
X860630Y196457D02*
X866929D01*
X860630Y193307D02*
Y196457D01*
Y193307D02*
X866929D01*
Y196457D01*
X866929Y188583D02*
X873228D01*
X866929Y185433D02*
Y188583D01*
Y185433D02*
X873228D01*
Y188583D01*
Y196457D02*
X879528D01*
X873228Y193307D02*
Y196457D01*
Y193307D02*
X879528D01*
Y196457D01*
X879527Y188583D02*
X885827D01*
X879527Y185433D02*
Y188583D01*
Y185433D02*
X885827D01*
Y188583D01*
X885827Y196457D02*
X892126D01*
X885827Y193307D02*
Y196457D01*
Y193307D02*
X892126D01*
Y196457D01*
X892126Y188583D02*
X898425D01*
X892126Y185433D02*
Y188583D01*
Y185433D02*
X898425D01*
Y188583D01*
Y196457D02*
X904724D01*
X898425Y193307D02*
Y196457D01*
Y193307D02*
X904724D01*
Y196457D01*
X904724Y188583D02*
X911024D01*
X904724Y185433D02*
Y188583D01*
Y185433D02*
X911024D01*
Y188583D01*
Y196457D02*
X917323D01*
X911024Y193307D02*
Y196457D01*
Y193307D02*
X917323D01*
Y196457D01*
X917323Y204331D02*
X923622D01*
X917323Y201181D02*
Y204331D01*
Y201181D02*
X923622D01*
Y204331D01*
X930709D02*
X937008D01*
X930709Y201181D02*
Y204331D01*
Y201181D02*
X937008D01*
Y204331D01*
X668898Y235827D02*
Y242126D01*
X665748D02*
X668898D01*
X665748Y235827D02*
Y242126D01*
Y235827D02*
X668898D01*
X661024Y229528D02*
Y235827D01*
X657874D02*
X661024D01*
X657874Y229528D02*
Y235827D01*
Y229528D02*
X661024D01*
X668898Y223228D02*
Y229528D01*
X665748D02*
X668898D01*
X665748Y223228D02*
Y229528D01*
Y223228D02*
X668898D01*
X661024Y216929D02*
Y223228D01*
X657874D02*
X661024D01*
X657874Y216929D02*
Y223228D01*
Y216929D02*
X661024D01*
X668898Y210630D02*
Y216929D01*
X665748D02*
X668898D01*
X665748Y210630D02*
Y216929D01*
Y210630D02*
X668898D01*
X661024Y204331D02*
Y210630D01*
X657874D02*
X661024D01*
X657874Y204331D02*
Y210630D01*
Y204331D02*
X661024D01*
X684252Y196457D02*
X690551D01*
X684252Y193307D02*
Y196457D01*
Y193307D02*
X690551D01*
Y196457D01*
Y188583D02*
X696850D01*
X690551Y185433D02*
Y188583D01*
Y185433D02*
X696850D01*
Y188583D01*
X696850Y196457D02*
X703150D01*
X696850Y193307D02*
Y196457D01*
Y193307D02*
X703150D01*
Y196457D01*
X703150Y188583D02*
X709449D01*
X703150Y185433D02*
Y188583D01*
Y185433D02*
X709449D01*
Y188583D01*
X709449Y196457D02*
X715748D01*
X709449Y193307D02*
Y196457D01*
Y193307D02*
X715748D01*
Y196457D01*
Y188583D02*
X722047D01*
X715748Y185433D02*
Y188583D01*
Y185433D02*
X722047D01*
Y188583D01*
X722047Y196457D02*
X728346D01*
X722047Y193307D02*
Y196457D01*
Y193307D02*
X728346D01*
Y196457D01*
X728346Y188583D02*
X734646D01*
X728346Y185433D02*
Y188583D01*
Y185433D02*
X734646D01*
Y188583D01*
Y196457D02*
X740945D01*
X734646Y193307D02*
Y196457D01*
Y193307D02*
X740945D01*
Y196457D01*
X740945Y204331D02*
X747244D01*
X740945Y201181D02*
Y204331D01*
Y201181D02*
X747244D01*
Y204331D01*
M02*
