M48
;Layer_Color=9474304
;FILE_FORMAT=2:4
INCH,TZ
;TYPE=PLATED
T01F00S00C0.0118
T02F00S00C0.0236
T03F00S00C0.0354
T04F00S00C0.0398
T05F00S00C0.0433
T06F00S00C0.0453
T07F00S00C0.0472
T08F00S00C0.1260
T09F00S00C0.1417
;TYPE=NON_PLATED
T10F00S00C0.0217
T11F00S00C0.1181
%
T01
X787Y3543
X1181
X1575
Y3937
Y4331
X1181
X787
Y3937
X1181
X1575Y13406
Y14154
X15354Y4311
X16614Y4331
X16142Y3543
X17126
X17913Y4311
X18307Y6496
X25984
X25896Y8593
X25984Y12402
X29528
X29616Y10593
Y10093
Y9593
Y9093
X29528Y6496
X29616Y4687
Y4187
Y3687
Y3187
Y2687
X25896
X29331Y15354
X29724
X32126Y14961
X36614Y14961
X36890Y14370
Y13780
Y13189
Y12598
X37520Y13780
X37677Y15276
X37953Y15472
X39173Y14961
X40118
X40157Y13780
X39567
X39488Y13189
Y12638
X40039Y12598
Y12008
X39488
Y11417
X40039
X40551Y10276
X40177Y9409
X39193
X38819Y10276
X37087
X36713Y9409
X35236Y11417
X38858Y12638
X40039Y13189
X40669Y12598
X42835Y12402
Y12992
Y13583
Y14173
X42717Y14764
Y15551
X43543Y14882
X43386Y14370
Y13898
Y13386
Y12913
X44016Y13898
X44528Y15354
X44843Y15167
X45748Y12598
X46378
Y13189
Y12008
Y11417
X45748Y10276
X46122Y9409
X43642
X42657
X42283Y10276
X44016
X42205Y13583
X46929Y13189
Y12598
Y12008
Y11417
X47480Y10276
X47106Y9409
X49587
X49213Y10276
X49921Y12205
Y12795
Y13386
Y13976
X49631Y14764
Y15551
X49291Y13386
X47559Y12598
X62480Y13819
X63583
X64685
X65787
X66890
X67992
X69094
X70197
X71299
X72402
X73504
X74606
X75709
X76811
X77913
X77815Y11398
X77303
X76791
X76280
X75768
X75256
X74744
X74232
X73720
X73209
X72697
X72185
X78327
X78839
X79350
X79862
X80374
X80886
X81398
X81909
X82421
X82933
X83445
X83957
X84468
X84980
X85492
X86004
X86516
X87028
X87539
X88051
X87835Y13819
X88937
X90039
X91142
X92244
X93346
X86732
X85630
X84528
X83425
X82323
X81220
X80118
X79016
X94449
X95551
X96654
X97756
X99055Y15000
X93898Y18701
Y19094
X94094Y22638
Y23031
Y25000
Y25394
X93701
Y25000
X93110Y26181
X91929Y25394
Y24213
Y23819
X89724Y23622
X88937
Y22835
X89724
Y24409
X88937
X88150
Y23622
Y22835
X88307Y19882
X88937
X89567
X90157
X90748
X90866Y20945
X92126Y21457
X93701Y22638
Y23031
Y20276
X91732Y17520
Y17126
X91142Y16339
Y15945
X89961
X89567
X87598Y16339
X87205
X85630Y16142
X85236
X83071
Y16535
X81496Y16339
Y15945
X78543Y16142
Y16535
X82087Y23622
X81496Y24409
X84646Y24803
X85239Y24406
X85236Y23937
Y23346
X84843Y22126
X84961Y21535
X85236Y20669
X86772Y21024
X86968Y19882
X87598Y19961
X86417Y25984
X87205Y27559
X89370Y27165
Y26772
X91339
X91732
X90832Y28681
X93588
X87618Y30315
X75872Y28681
X73116
X73425Y26772
X73819
X71850
X69882Y26969
X68701Y26181
X66929Y25000
X67323Y24449
X67543Y23954
X67326Y23068
X67205Y22323
X67323Y21457
Y20472
X69016Y21063
X69685Y20276
X70079Y19882
X70669
X71339Y20039
X71929Y20079
X72559Y19882
X73071Y20039
X73425Y21063
X74409Y21457
X74213Y23425
Y23819
X74409Y25394
X75787Y25787
X76181Y25000
X76575
Y24606
X76181
X75984Y22638
Y22244
X76378
Y22638
X72087Y22835
Y23622
X71299
Y22835
X70512
Y23622
Y24409
X71299
X72087
X70295Y30315
X64961Y29724
X64567
X64173
X62795Y27165
X63780Y22992
X63976Y17520
Y17126
X65551
Y17520
X67323Y17323
Y16929
X69685Y16142
X70079
X71260Y16339
X71654
X73228
Y16732
X74606Y17126
Y17520
X50000
X49606
X49213
X48819
X47347Y17126
X51575Y24803
X50896Y26309
Y29309
X54616
Y26309
X54724Y24803
X53937
X45846Y17717
X44528Y18032
X44094Y16850
Y16063
Y15669
X43701Y15669
X43307Y15748
X42717Y16339
X42323
X41929
X41535
X39961Y16535
X39173
X38189Y17717
X40354Y17913
X40748Y18307
X43527Y18900
X35236Y18307
X31650Y18406
X37205Y16142
Y15748
X29724Y15748
X29331
X24016Y16929
X20866
X20472
Y16535
X20866
X20079Y23819
Y24606
X19291Y23839
X18307Y22638
Y22244
Y30512
X29528Y27323
X29525Y26809
X15514Y23907
X14014
X13189Y23228
Y22441
X14514Y21762
X15014
X13780Y17717
Y15945
X13386
X9369Y21380
X8661Y22087
X8465Y23228
X6299Y22854
X3346Y23228
X2559
X2165Y29528
X1575Y16122
X2756Y31427
Y31821
X23622Y32480
X25374Y32087
X26378Y32480
Y31693
X27441Y36614
T02
X3346Y1378
X4331
X5315
X6299
X7283
X8268
X9252
X10236
X11220
X12205
X13189
X14173
X15157
Y2378
X14173
X13189
X12205
X11220
X10236
X9252
X8268
X7283
X6299
X5315
X4331
X3346
X16142
X17126
X18110
X19094
X20079
X21063
Y1378
X20079
X19094
X18110
X17126
X16142
Y25378
X17126
X18110
X19094
X20079
X21063
Y26378
X20079
X19094
X18110
X17126
X16142
X15157
X14173
X13189
X12205
X11220
X10236
X9252
X8268
X7283
X6299
X5315
X4331
X3346
Y25378
X4331
X5315
X6299
X7283
X8268
X9252
X10236
X11220
X12205
X13189
X14173
X15157
T03
X12976Y38189
X13976
T04
X12992Y36220
X17792
T05
X5906Y29528
Y30528
X7480
Y29528
X9055
Y30528
X10236
Y29528
X11417
Y30528
Y31528
X10236
X9055
X7480
X5906
T06
X23622Y1687
Y2687
Y3687
Y4687
Y5687
Y7593
Y8593
Y9593
Y10593
Y11593
T07
X36654Y6693
X37520
X38386
X39252
X40118
X40984
X41850
X42717
X43583
X44449
X45315
X46181
Y7874
X45315
X44449
X43583
X42717
X41850
X40984
X40118
X39252
X38386
X37520
X36654
X47047
X47913
X48780
X49646
Y6693
X48780
X47913
X47047
X70157
X71024
X71890
X72756
X73622
X74488
X75354
X76220
X77087
X77953
Y7874
X77087
X76220
X75354
X74488
X73622
X72756
X71890
X71024
X70157
X78819
X79685
X80551
X81417
X82283
X83150
X84016
X84882
X85748
X86614
Y6693
X85748
X84882
X84016
X83150
X82283
X81417
X80551
X79685
X78819
X25622Y37402
X24622
X23622
T08
X1575Y1575
Y37795
T09
X36929Y4488
X49370
X70433
X86339
T10
X1634Y30709
Y32283
T11
X54331Y1575
X98819
X54331Y37795
X98819
M30
