G04*
G04 #@! TF.GenerationSoftware,Altium Limited,Altium Designer,23.11.1 (41)*
G04*
G04 Layer_Color=8421504*
%FSLAX25Y25*%
%MOIN*%
G70*
G04*
G04 #@! TF.SameCoordinates,3E60C5BA-0C76-47EE-A8DA-6B49124F06CB*
G04*
G04*
G04 #@! TF.FilePolarity,Positive*
G04*
G01*
G75*
%ADD18R,0.06594X0.01181*%
%ADD19R,0.05315X0.01575*%
%ADD20R,0.07480X0.07480*%
%ADD21R,0.06102X0.02756*%
%ADD22R,0.02756X0.06102*%
%ADD23R,0.07677X0.02559*%
%ADD24R,0.02362X0.04134*%
%ADD25R,0.06102X0.08661*%
%ADD26R,0.01968X0.04134*%
%ADD27R,0.05709X0.03543*%
%ADD28R,0.06004X0.02559*%
%ADD29R,0.03543X0.05709*%
%ADD30R,0.10630X0.04331*%
%ADD31R,0.03937X0.03150*%
%ADD32R,0.03150X0.03937*%
%ADD33R,0.10630X0.05315*%
%ADD34R,0.05315X0.10630*%
%ADD35R,0.21850X0.24016*%
%ADD36R,0.03937X0.11221*%
%ADD37R,0.03937X0.08268*%
%ADD38R,0.05709X0.01772*%
%ADD39R,0.04724X0.02362*%
%ADD40R,0.07087X0.05197*%
%ADD41R,0.08661X0.06102*%
%ADD42R,0.02441X0.05787*%
%ADD43R,0.05787X0.02441*%
%ADD44R,0.03701X0.02126*%
%ADD45R,0.02126X0.03701*%
%ADD46R,0.04016X0.11102*%
%ADD47R,0.25591X0.25591*%
%ADD48R,0.01181X0.06594*%
D18*
X454181Y165354D02*
D03*
Y163386D02*
D03*
Y161417D02*
D03*
Y159449D02*
D03*
Y157480D02*
D03*
Y155512D02*
D03*
Y153543D02*
D03*
Y151575D02*
D03*
Y149606D02*
D03*
Y147638D02*
D03*
Y145669D02*
D03*
Y143701D02*
D03*
Y141732D02*
D03*
Y139764D02*
D03*
Y137795D02*
D03*
X478102D02*
D03*
Y139764D02*
D03*
Y141732D02*
D03*
Y143701D02*
D03*
Y145669D02*
D03*
Y147638D02*
D03*
Y149606D02*
D03*
Y151575D02*
D03*
Y153543D02*
D03*
Y155512D02*
D03*
Y157480D02*
D03*
Y159449D02*
D03*
Y161417D02*
D03*
Y163386D02*
D03*
Y165354D02*
D03*
X735976Y250984D02*
D03*
Y249016D02*
D03*
Y247047D02*
D03*
Y245079D02*
D03*
Y243110D02*
D03*
Y241142D02*
D03*
Y239173D02*
D03*
Y237205D02*
D03*
Y235236D02*
D03*
Y233268D02*
D03*
Y231299D02*
D03*
Y229331D02*
D03*
Y227362D02*
D03*
Y225394D02*
D03*
Y223425D02*
D03*
Y221457D02*
D03*
X690008D02*
D03*
Y223425D02*
D03*
Y225394D02*
D03*
Y227362D02*
D03*
Y229331D02*
D03*
Y231299D02*
D03*
Y233268D02*
D03*
Y235236D02*
D03*
Y237205D02*
D03*
Y239173D02*
D03*
Y241142D02*
D03*
Y243110D02*
D03*
Y245079D02*
D03*
Y247047D02*
D03*
Y249016D02*
D03*
Y250984D02*
D03*
X912354D02*
D03*
Y249016D02*
D03*
Y247047D02*
D03*
Y245079D02*
D03*
Y243110D02*
D03*
Y241142D02*
D03*
Y239173D02*
D03*
Y237205D02*
D03*
Y235236D02*
D03*
Y233268D02*
D03*
Y231299D02*
D03*
Y229331D02*
D03*
Y227362D02*
D03*
Y225394D02*
D03*
Y223425D02*
D03*
Y221457D02*
D03*
X866386D02*
D03*
Y223425D02*
D03*
Y225394D02*
D03*
Y227362D02*
D03*
Y229331D02*
D03*
Y231299D02*
D03*
Y233268D02*
D03*
Y235236D02*
D03*
Y237205D02*
D03*
Y239173D02*
D03*
Y241142D02*
D03*
Y243110D02*
D03*
Y245079D02*
D03*
Y247047D02*
D03*
Y249016D02*
D03*
Y250984D02*
D03*
X408811Y165354D02*
D03*
Y163386D02*
D03*
Y161417D02*
D03*
Y159449D02*
D03*
Y157480D02*
D03*
Y155512D02*
D03*
Y153543D02*
D03*
Y151575D02*
D03*
Y149606D02*
D03*
Y147638D02*
D03*
Y145669D02*
D03*
Y143701D02*
D03*
Y141732D02*
D03*
Y139764D02*
D03*
Y137795D02*
D03*
X384890D02*
D03*
Y139764D02*
D03*
Y141732D02*
D03*
Y143701D02*
D03*
Y145669D02*
D03*
Y147638D02*
D03*
Y149606D02*
D03*
Y151575D02*
D03*
Y153543D02*
D03*
Y155512D02*
D03*
Y157480D02*
D03*
Y159449D02*
D03*
Y161417D02*
D03*
Y163386D02*
D03*
Y165354D02*
D03*
D19*
X18406Y320079D02*
D03*
Y317520D02*
D03*
Y314961D02*
D03*
Y312402D02*
D03*
Y309842D02*
D03*
D20*
X7874Y330512D02*
D03*
Y319685D02*
D03*
Y310236D02*
D03*
Y299410D02*
D03*
D21*
X40256Y209035D02*
D03*
Y214035D02*
D03*
Y219035D02*
D03*
Y224035D02*
D03*
X18799D02*
D03*
Y219035D02*
D03*
Y214035D02*
D03*
Y209035D02*
D03*
D22*
X155138Y239075D02*
D03*
X150138D02*
D03*
X145138D02*
D03*
X140138D02*
D03*
Y217618D02*
D03*
X145138D02*
D03*
X150138D02*
D03*
X155138D02*
D03*
D23*
X258957Y56870D02*
D03*
Y51870D02*
D03*
Y46870D02*
D03*
Y41870D02*
D03*
Y36870D02*
D03*
Y31870D02*
D03*
Y26870D02*
D03*
Y21870D02*
D03*
X296161D02*
D03*
Y26870D02*
D03*
Y31870D02*
D03*
Y36870D02*
D03*
Y41870D02*
D03*
Y46870D02*
D03*
Y51870D02*
D03*
Y56870D02*
D03*
X258957Y115925D02*
D03*
Y110925D02*
D03*
Y105925D02*
D03*
Y100925D02*
D03*
Y95925D02*
D03*
Y90925D02*
D03*
Y85925D02*
D03*
Y80925D02*
D03*
X296161D02*
D03*
Y85925D02*
D03*
Y90925D02*
D03*
Y95925D02*
D03*
Y100925D02*
D03*
Y105925D02*
D03*
Y110925D02*
D03*
Y115925D02*
D03*
X546161Y258090D02*
D03*
Y263090D02*
D03*
Y268091D02*
D03*
Y273091D02*
D03*
Y278091D02*
D03*
Y283090D02*
D03*
Y288090D02*
D03*
Y293091D02*
D03*
X508957D02*
D03*
Y288090D02*
D03*
Y283090D02*
D03*
Y278091D02*
D03*
Y273091D02*
D03*
Y268091D02*
D03*
Y263090D02*
D03*
Y258090D02*
D03*
D24*
X367126Y94095D02*
D03*
X374606D02*
D03*
X370866Y102756D02*
D03*
X384449Y94095D02*
D03*
X391929D02*
D03*
X388189Y102756D02*
D03*
X401772Y94095D02*
D03*
X409252D02*
D03*
X405512Y102756D02*
D03*
X419095Y94095D02*
D03*
X426575D02*
D03*
X422835Y102756D02*
D03*
X436417Y94095D02*
D03*
X443898D02*
D03*
X440158Y102756D02*
D03*
X453740Y94095D02*
D03*
X461221D02*
D03*
X457480Y102756D02*
D03*
X471063Y94095D02*
D03*
X478543D02*
D03*
X474803Y102756D02*
D03*
X488386Y94095D02*
D03*
X495866D02*
D03*
X492126Y102756D02*
D03*
D25*
X637795Y229921D02*
D03*
Y246063D02*
D03*
X814961Y227953D02*
D03*
Y244094D02*
D03*
D26*
X724409Y122244D02*
D03*
X726968Y113976D02*
D03*
X721850D02*
D03*
X734646Y122244D02*
D03*
X737205Y113976D02*
D03*
X732087D02*
D03*
X744882Y122244D02*
D03*
X747441Y113976D02*
D03*
X742323D02*
D03*
X755118Y122244D02*
D03*
X757677Y113976D02*
D03*
X752559D02*
D03*
X765354Y122244D02*
D03*
X767913Y113976D02*
D03*
X762795D02*
D03*
X775591Y122244D02*
D03*
X778150Y113976D02*
D03*
X773032D02*
D03*
X785827Y122244D02*
D03*
X788386Y113976D02*
D03*
X783268D02*
D03*
X796063Y122244D02*
D03*
X798622Y113976D02*
D03*
X793504D02*
D03*
X806299Y122244D02*
D03*
X808858Y113976D02*
D03*
X803740D02*
D03*
X816535Y122244D02*
D03*
X819094Y113976D02*
D03*
X813976D02*
D03*
X826772Y122244D02*
D03*
X829331Y113976D02*
D03*
X824213D02*
D03*
X837008Y122244D02*
D03*
X839567Y113976D02*
D03*
X834449D02*
D03*
X847244Y122244D02*
D03*
X849803Y113976D02*
D03*
X844685D02*
D03*
X857480Y122244D02*
D03*
X860039Y113976D02*
D03*
X854921D02*
D03*
X867717Y122244D02*
D03*
X870276Y113976D02*
D03*
X865158D02*
D03*
X877953Y122244D02*
D03*
X880512Y113976D02*
D03*
X875394D02*
D03*
D27*
X62992Y236024D02*
D03*
Y228543D02*
D03*
X53150Y43110D02*
D03*
Y35630D02*
D03*
X141732Y54921D02*
D03*
Y47441D02*
D03*
X190945D02*
D03*
Y54921D02*
D03*
X192913Y245866D02*
D03*
Y238386D02*
D03*
X179134Y35630D02*
D03*
Y43110D02*
D03*
X153543Y35630D02*
D03*
Y43110D02*
D03*
X206693Y291339D02*
D03*
Y283858D02*
D03*
X194882Y291339D02*
D03*
Y283858D02*
D03*
X183071Y291339D02*
D03*
Y283858D02*
D03*
X316496Y176575D02*
D03*
Y184055D02*
D03*
X279528Y346457D02*
D03*
Y353937D02*
D03*
X200787Y346457D02*
D03*
Y353937D02*
D03*
X15748Y153740D02*
D03*
Y161221D02*
D03*
Y141535D02*
D03*
Y134055D02*
D03*
X206693Y305512D02*
D03*
Y298031D02*
D03*
X194882Y305118D02*
D03*
Y297638D02*
D03*
X183071Y305118D02*
D03*
Y297638D02*
D03*
X316496Y161221D02*
D03*
Y168701D02*
D03*
X289370Y353937D02*
D03*
Y346457D02*
D03*
X210630Y353937D02*
D03*
Y346457D02*
D03*
D28*
X352457Y154606D02*
D03*
Y149606D02*
D03*
Y144606D02*
D03*
Y139606D02*
D03*
X331102D02*
D03*
Y144606D02*
D03*
Y149606D02*
D03*
Y154606D02*
D03*
D29*
X833071Y259842D02*
D03*
X840551D02*
D03*
X655905Y261811D02*
D03*
X663386D02*
D03*
X389567Y185039D02*
D03*
X382087D02*
D03*
X450984Y177165D02*
D03*
X458465D02*
D03*
D30*
X812205Y150000D02*
D03*
Y138189D02*
D03*
X834252Y150000D02*
D03*
Y138189D02*
D03*
X856299Y150000D02*
D03*
Y138189D02*
D03*
X878347Y150000D02*
D03*
Y138189D02*
D03*
X900394Y150000D02*
D03*
Y138189D02*
D03*
X922441Y150000D02*
D03*
Y138189D02*
D03*
X944488Y150000D02*
D03*
Y138189D02*
D03*
X966535Y150000D02*
D03*
Y138189D02*
D03*
X635827Y150000D02*
D03*
Y138189D02*
D03*
X657874Y150000D02*
D03*
Y138189D02*
D03*
X679921Y150000D02*
D03*
Y138189D02*
D03*
X701968Y150000D02*
D03*
Y138189D02*
D03*
X724016Y150000D02*
D03*
Y138189D02*
D03*
X746063Y150000D02*
D03*
Y138189D02*
D03*
X768110Y150000D02*
D03*
Y138189D02*
D03*
X790158Y150000D02*
D03*
Y138189D02*
D03*
X990551D02*
D03*
Y150000D02*
D03*
D31*
X801181Y144488D02*
D03*
Y138189D02*
D03*
X823228Y144488D02*
D03*
Y138189D02*
D03*
X845276Y144488D02*
D03*
Y138189D02*
D03*
X867323Y144488D02*
D03*
Y138189D02*
D03*
X889370Y144488D02*
D03*
Y138189D02*
D03*
X911417Y144488D02*
D03*
Y138189D02*
D03*
X933465Y144488D02*
D03*
Y138189D02*
D03*
X955512Y144488D02*
D03*
Y138189D02*
D03*
X977559Y144488D02*
D03*
Y138189D02*
D03*
X624803Y144488D02*
D03*
Y138189D02*
D03*
X646850Y144488D02*
D03*
Y138189D02*
D03*
X668898Y144488D02*
D03*
Y138189D02*
D03*
X690945Y144488D02*
D03*
Y138189D02*
D03*
X712992Y144488D02*
D03*
Y138189D02*
D03*
X735039Y144488D02*
D03*
Y138189D02*
D03*
X757087Y144488D02*
D03*
Y138189D02*
D03*
X779134Y144488D02*
D03*
Y138189D02*
D03*
D32*
X368898Y137795D02*
D03*
X375197D02*
D03*
X368898Y125984D02*
D03*
X375197D02*
D03*
X394882Y120079D02*
D03*
X388583D02*
D03*
X394882Y131890D02*
D03*
X388583D02*
D03*
X400394Y125984D02*
D03*
X406693D02*
D03*
X400394Y114173D02*
D03*
X406693D02*
D03*
X428346Y129921D02*
D03*
X422047D02*
D03*
X428346Y141732D02*
D03*
X422047D02*
D03*
X433858Y138976D02*
D03*
X440158D02*
D03*
X433858Y129134D02*
D03*
X440158D02*
D03*
X463779Y120079D02*
D03*
X457480D02*
D03*
X463779Y131890D02*
D03*
X457480D02*
D03*
X469291Y125984D02*
D03*
X475591D02*
D03*
X469291Y114173D02*
D03*
X475591D02*
D03*
X499213Y127953D02*
D03*
X492913D02*
D03*
X499213Y139764D02*
D03*
X492913D02*
D03*
D33*
X688976Y318110D02*
D03*
Y300000D02*
D03*
X862205Y318110D02*
D03*
Y300000D02*
D03*
D34*
X717717Y318898D02*
D03*
X699606D02*
D03*
X890945D02*
D03*
X872835D02*
D03*
D35*
X767717Y312992D02*
D03*
X740158D02*
D03*
X917323D02*
D03*
X944882D02*
D03*
D36*
X776717Y286811D02*
D03*
X758716D02*
D03*
X749157D02*
D03*
X731157D02*
D03*
X926323D02*
D03*
X908323D02*
D03*
X953882D02*
D03*
X935882D02*
D03*
D37*
X257402Y145472D02*
D03*
X287402D02*
D03*
Y185236D02*
D03*
X257402D02*
D03*
X267402Y145472D02*
D03*
D38*
X440402Y175295D02*
D03*
Y177854D02*
D03*
Y180413D02*
D03*
Y182972D02*
D03*
X423079D02*
D03*
Y180413D02*
D03*
Y177854D02*
D03*
Y175295D02*
D03*
D39*
X344882Y182677D02*
D03*
Y175197D02*
D03*
X335039D02*
D03*
Y178937D02*
D03*
Y182677D02*
D03*
X255906Y324803D02*
D03*
Y317323D02*
D03*
X246063D02*
D03*
Y321063D02*
D03*
Y324803D02*
D03*
D40*
X736221Y99587D02*
D03*
Y88602D02*
D03*
X744882Y99587D02*
D03*
Y88602D02*
D03*
X753543Y99587D02*
D03*
Y88602D02*
D03*
X762205Y99587D02*
D03*
Y88602D02*
D03*
X770866Y99587D02*
D03*
Y88602D02*
D03*
X779528Y99587D02*
D03*
Y88602D02*
D03*
X788189Y99587D02*
D03*
Y88602D02*
D03*
X796850Y99587D02*
D03*
Y88602D02*
D03*
X805512Y99587D02*
D03*
Y88602D02*
D03*
X814173Y99587D02*
D03*
Y88602D02*
D03*
X822835Y99587D02*
D03*
Y88602D02*
D03*
X831496Y99587D02*
D03*
Y88602D02*
D03*
X840158Y99587D02*
D03*
Y88602D02*
D03*
X848819Y99587D02*
D03*
Y88602D02*
D03*
X857480Y99587D02*
D03*
Y88602D02*
D03*
X866142Y99587D02*
D03*
Y88602D02*
D03*
D41*
X161811Y381890D02*
D03*
X177953D02*
D03*
D42*
X856299Y259842D02*
D03*
X864173D02*
D03*
X679134Y261811D02*
D03*
X687008D02*
D03*
X381890Y177165D02*
D03*
X389764D02*
D03*
X458661Y185039D02*
D03*
X450787D02*
D03*
X427393Y188999D02*
D03*
X435267D02*
D03*
X395913Y171260D02*
D03*
X403787D02*
D03*
X465598D02*
D03*
X473472D02*
D03*
X259842Y124016D02*
D03*
X267717D02*
D03*
X295276D02*
D03*
X287402D02*
D03*
X33465Y232283D02*
D03*
X25591D02*
D03*
X295276Y64961D02*
D03*
X287402D02*
D03*
X259842D02*
D03*
X267717D02*
D03*
X547244Y248031D02*
D03*
X539370D02*
D03*
X507874D02*
D03*
X515748D02*
D03*
D43*
X846457Y255906D02*
D03*
Y248031D02*
D03*
X669291Y257874D02*
D03*
Y250000D02*
D03*
X200787Y246063D02*
D03*
Y238189D02*
D03*
X171260Y35433D02*
D03*
Y43307D02*
D03*
X161417Y35433D02*
D03*
Y43307D02*
D03*
X372047Y161417D02*
D03*
Y169291D02*
D03*
X440945Y160630D02*
D03*
Y168504D02*
D03*
X360236Y144488D02*
D03*
Y136614D02*
D03*
X321260Y141732D02*
D03*
Y149606D02*
D03*
X427165Y147638D02*
D03*
Y155512D02*
D03*
X496307Y147638D02*
D03*
Y155512D02*
D03*
X372047Y149606D02*
D03*
Y157480D02*
D03*
X440945Y148819D02*
D03*
Y156693D02*
D03*
X131890Y232283D02*
D03*
Y224410D02*
D03*
X352362Y183071D02*
D03*
Y175197D02*
D03*
X326772Y183071D02*
D03*
Y175197D02*
D03*
X305118Y169291D02*
D03*
Y161417D02*
D03*
X240158Y169291D02*
D03*
Y161417D02*
D03*
X263779Y324803D02*
D03*
Y316929D02*
D03*
X209449Y374016D02*
D03*
Y366142D02*
D03*
X236221Y324803D02*
D03*
Y316929D02*
D03*
X274410Y374016D02*
D03*
Y366142D02*
D03*
D44*
X844488Y233858D02*
D03*
Y240158D02*
D03*
X836614Y227559D02*
D03*
Y233858D02*
D03*
X844488Y221260D02*
D03*
Y227559D02*
D03*
X836614Y214961D02*
D03*
Y221260D02*
D03*
X844488Y208661D02*
D03*
Y214961D02*
D03*
X836614Y202362D02*
D03*
Y208661D02*
D03*
X667323Y235827D02*
D03*
Y242126D02*
D03*
X659449Y229528D02*
D03*
Y235827D02*
D03*
X667323Y223228D02*
D03*
Y229528D02*
D03*
X659449Y216929D02*
D03*
Y223228D02*
D03*
X667323Y210630D02*
D03*
Y216929D02*
D03*
X659449Y204331D02*
D03*
Y210630D02*
D03*
D45*
X866929Y194882D02*
D03*
X860630D02*
D03*
X873228Y187008D02*
D03*
X866929D02*
D03*
X879528Y194882D02*
D03*
X873228D02*
D03*
X885827Y187008D02*
D03*
X879527D02*
D03*
X892126Y194882D02*
D03*
X885827D02*
D03*
X898425Y187008D02*
D03*
X892126D02*
D03*
X904724Y194882D02*
D03*
X898425D02*
D03*
X911024Y187008D02*
D03*
X904724D02*
D03*
X917323Y194882D02*
D03*
X911024D02*
D03*
X923622Y202756D02*
D03*
X917323D02*
D03*
X930709D02*
D03*
X937008D02*
D03*
X690551Y194882D02*
D03*
X684252D02*
D03*
X696850Y187008D02*
D03*
X690551D02*
D03*
X703150Y194882D02*
D03*
X696850D02*
D03*
X709449Y187008D02*
D03*
X703150D02*
D03*
X715748Y194882D02*
D03*
X709449D02*
D03*
X722047Y187008D02*
D03*
X715748D02*
D03*
X728346Y194882D02*
D03*
X722047D02*
D03*
X734646Y187008D02*
D03*
X728346D02*
D03*
X740945Y194882D02*
D03*
X734646D02*
D03*
X747244Y202756D02*
D03*
X740945D02*
D03*
X368898Y143701D02*
D03*
X375197D02*
D03*
X368898Y131890D02*
D03*
X375197D02*
D03*
X394882Y114173D02*
D03*
X388583D02*
D03*
X394882Y126378D02*
D03*
X388583D02*
D03*
X400394Y131890D02*
D03*
X406693D02*
D03*
X400394Y120079D02*
D03*
X406693D02*
D03*
X428346Y124016D02*
D03*
X422047D02*
D03*
X428346Y135827D02*
D03*
X422047D02*
D03*
X433858Y143701D02*
D03*
X440158D02*
D03*
X433858Y133858D02*
D03*
X440158D02*
D03*
X463779Y114173D02*
D03*
X457480D02*
D03*
X463779Y125984D02*
D03*
X457480D02*
D03*
X469291Y131890D02*
D03*
X475591D02*
D03*
X469291Y120079D02*
D03*
X475591D02*
D03*
X499213Y122047D02*
D03*
X492913D02*
D03*
X499213Y133858D02*
D03*
X492913D02*
D03*
X756299Y225984D02*
D03*
X750000D02*
D03*
X931890Y226378D02*
D03*
X925591D02*
D03*
X756299Y231102D02*
D03*
X750000D02*
D03*
X931890Y231496D02*
D03*
X925591D02*
D03*
X756299Y240945D02*
D03*
X750000D02*
D03*
X931890Y243307D02*
D03*
X925591D02*
D03*
X750000Y246063D02*
D03*
X756299D02*
D03*
X925591Y248425D02*
D03*
X931890D02*
D03*
X756299Y251181D02*
D03*
X750000D02*
D03*
X931890Y253543D02*
D03*
X925591D02*
D03*
X734252Y259842D02*
D03*
X740551D02*
D03*
X911417Y261811D02*
D03*
X917717D02*
D03*
X724409Y267717D02*
D03*
X730709D02*
D03*
X902362D02*
D03*
X908661D02*
D03*
D46*
X702953Y303150D02*
D03*
X714370D02*
D03*
X876181D02*
D03*
X887598D02*
D03*
D47*
X712992Y236221D02*
D03*
X889370D02*
D03*
D48*
X698228Y259205D02*
D03*
X700197D02*
D03*
X702165D02*
D03*
X704134D02*
D03*
X706102D02*
D03*
X708071D02*
D03*
X710039D02*
D03*
X712008D02*
D03*
X713976D02*
D03*
X715945D02*
D03*
X717913D02*
D03*
X719882D02*
D03*
X721850D02*
D03*
X723819D02*
D03*
X725787D02*
D03*
X727756D02*
D03*
Y213236D02*
D03*
X725787D02*
D03*
X723819D02*
D03*
X721850D02*
D03*
X719882D02*
D03*
X717913D02*
D03*
X715945D02*
D03*
X713976D02*
D03*
X712008D02*
D03*
X710039D02*
D03*
X708071D02*
D03*
X706102D02*
D03*
X704134D02*
D03*
X702165D02*
D03*
X700197D02*
D03*
X698228D02*
D03*
X874606Y259205D02*
D03*
X876575D02*
D03*
X878543D02*
D03*
X880512D02*
D03*
X882480D02*
D03*
X884449D02*
D03*
X886417D02*
D03*
X888386D02*
D03*
X890354D02*
D03*
X892323D02*
D03*
X894291D02*
D03*
X896260D02*
D03*
X898228D02*
D03*
X900197D02*
D03*
X902165D02*
D03*
X904134D02*
D03*
Y213236D02*
D03*
X902165D02*
D03*
X900197D02*
D03*
X898228D02*
D03*
X896260D02*
D03*
X894291D02*
D03*
X892323D02*
D03*
X890354D02*
D03*
X888386D02*
D03*
X886417D02*
D03*
X884449D02*
D03*
X882480D02*
D03*
X880512D02*
D03*
X878543D02*
D03*
X876575D02*
D03*
X874606D02*
D03*
M02*
