G04*
G04 #@! TF.GenerationSoftware,Altium Limited,Altium Designer,24.1.2 (44)*
G04*
G04 Layer_Color=32768*
%FSLAX25Y25*%
%MOIN*%
G70*
G04*
G04 #@! TF.SameCoordinates,B5AD6C99-44BA-4BCA-A26F-11CA4035DA65*
G04*
G04*
G04 #@! TF.FilePolarity,Positive*
G04*
G01*
G75*
%ADD10C,0.00394*%
%ADD115C,0.00197*%
D10*
X184921Y352756D02*
Y371654D01*
X123000Y352756D02*
X184921D01*
X123000D02*
Y371654D01*
X184921D01*
X25000Y291732D02*
Y338189D01*
X-7008Y291732D02*
X25000D01*
X-7008D02*
Y338189D01*
X25000D01*
X684646Y84547D02*
X883071D01*
X684646Y-18307D02*
Y84547D01*
Y-18307D02*
X883071D01*
Y84547D01*
X347638Y90158D02*
X515354D01*
X347638Y-21535D02*
Y90158D01*
Y-21535D02*
X515354D01*
Y90158D01*
D115*
X242205Y11685D02*
Y62055D01*
X230236D02*
X242205D01*
X230236Y11685D02*
Y62055D01*
Y11685D02*
X242205D01*
Y70740D02*
Y121110D01*
X230236D02*
X242205D01*
X230236Y70740D02*
Y121110D01*
Y70740D02*
X242205D01*
X120669Y288504D02*
Y322047D01*
X107677D02*
X120669D01*
X107677Y288504D02*
Y322047D01*
Y288504D02*
X120669D01*
X108858D02*
Y322047D01*
X95866D02*
X108858D01*
X95866Y288504D02*
Y322047D01*
Y288504D02*
X108858D01*
X97047D02*
Y322047D01*
X84055D02*
X97047D01*
X84055Y288504D02*
Y322047D01*
Y288504D02*
X97047D01*
X81299D02*
Y322047D01*
X68307D02*
X81299D01*
X68307Y288504D02*
Y322047D01*
Y288504D02*
X81299D01*
X65551D02*
Y322047D01*
X52559D02*
X65551D01*
X52559Y288504D02*
Y322047D01*
Y288504D02*
X65551D01*
X865984Y256339D02*
Y263347D01*
X854488D02*
X865984D01*
X854488Y256339D02*
Y263347D01*
Y256339D02*
X865984D01*
X688819Y258307D02*
Y265315D01*
X677323D02*
X688819D01*
X677323Y258307D02*
Y265315D01*
Y258307D02*
X688819D01*
X842953Y246220D02*
X849961D01*
Y257716D01*
X842953D02*
X849961D01*
X842953Y246220D02*
Y257716D01*
X665787Y248189D02*
X672795D01*
Y259685D01*
X665787D02*
X672795D01*
X665787Y248189D02*
Y259685D01*
X842047Y232205D02*
Y241811D01*
X846929D01*
Y232205D02*
Y241811D01*
X842047Y232205D02*
X846929D01*
X834173Y225905D02*
Y235512D01*
X839055D01*
Y225905D02*
Y235512D01*
X834173Y225905D02*
X839055D01*
X842047Y219606D02*
Y229213D01*
X846929D01*
Y219606D02*
Y229213D01*
X842047Y219606D02*
X846929D01*
X834173Y213307D02*
Y222913D01*
X839055D01*
Y213307D02*
Y222913D01*
X834173Y213307D02*
X839055D01*
X842047Y207008D02*
Y216614D01*
X846929D01*
Y207008D02*
Y216614D01*
X842047Y207008D02*
X846929D01*
X834173Y200709D02*
Y210315D01*
X839055D01*
Y200709D02*
Y210315D01*
X834173Y200709D02*
X839055D01*
X858976Y192441D02*
X868583D01*
X858976D02*
Y197323D01*
X868583D01*
Y192441D02*
Y197323D01*
X865276Y184567D02*
X874882D01*
X865276D02*
Y189449D01*
X874882D01*
Y184567D02*
Y189449D01*
X871575Y192441D02*
X881181D01*
X871575D02*
Y197323D01*
X881181D01*
Y192441D02*
Y197323D01*
X877874Y184567D02*
X887480D01*
X877874D02*
Y189449D01*
X887480D01*
Y184567D02*
Y189449D01*
X884173Y192441D02*
X893779D01*
X884173D02*
Y197323D01*
X893779D01*
Y192441D02*
Y197323D01*
X890472Y184567D02*
X900079D01*
X890472D02*
Y189449D01*
X900079D01*
Y184567D02*
Y189449D01*
X896772Y192441D02*
X906378D01*
X896772D02*
Y197323D01*
X906378D01*
Y192441D02*
Y197323D01*
X903071Y184567D02*
X912677D01*
X903071D02*
Y189449D01*
X912677D01*
Y184567D02*
Y189449D01*
X909370Y192441D02*
X918976D01*
X909370D02*
Y197323D01*
X918976D01*
Y192441D02*
Y197323D01*
X915669Y200315D02*
X925276D01*
X915669D02*
Y205197D01*
X925276D01*
Y200315D02*
Y205197D01*
X929055D02*
X938661D01*
Y200315D02*
Y205197D01*
X929055Y200315D02*
X938661D01*
X929055D02*
Y205197D01*
X664882Y234173D02*
Y243779D01*
X669764D01*
Y234173D02*
Y243779D01*
X664882Y234173D02*
X669764D01*
X657008Y227874D02*
Y237480D01*
X661890D01*
Y227874D02*
Y237480D01*
X657008Y227874D02*
X661890D01*
X664882Y221575D02*
Y231181D01*
X669764D01*
Y221575D02*
Y231181D01*
X664882Y221575D02*
X669764D01*
X657008Y215276D02*
Y224882D01*
X661890D01*
Y215276D02*
Y224882D01*
X657008Y215276D02*
X661890D01*
X664882Y208976D02*
Y218583D01*
X669764D01*
Y208976D02*
Y218583D01*
X664882Y208976D02*
X669764D01*
X657008Y202677D02*
Y212283D01*
X661890D01*
Y202677D02*
Y212283D01*
X657008Y202677D02*
X661890D01*
X682598Y192441D02*
X692205D01*
X682598D02*
Y197323D01*
X692205D01*
Y192441D02*
Y197323D01*
X688898Y184567D02*
X698504D01*
X688898D02*
Y189449D01*
X698504D01*
Y184567D02*
Y189449D01*
X695197Y192441D02*
X704803D01*
X695197D02*
Y197323D01*
X704803D01*
Y192441D02*
Y197323D01*
X701496Y184567D02*
X711102D01*
X701496D02*
Y189449D01*
X711102D01*
Y184567D02*
Y189449D01*
X707795Y192441D02*
X717402D01*
X707795D02*
Y197323D01*
X717402D01*
Y192441D02*
Y197323D01*
X714094Y184567D02*
X723701D01*
X714094D02*
Y189449D01*
X723701D01*
Y184567D02*
Y189449D01*
X720394Y192441D02*
X730000D01*
X720394D02*
Y197323D01*
X730000D01*
Y192441D02*
Y197323D01*
X726693Y184567D02*
X736299D01*
X726693D02*
Y189449D01*
X736299D01*
Y184567D02*
Y189449D01*
X732992Y192441D02*
X742598D01*
X732992D02*
Y197323D01*
X742598D01*
Y192441D02*
Y197323D01*
X739291Y200315D02*
X748898D01*
X739291D02*
Y205197D01*
X748898D01*
Y200315D02*
Y205197D01*
X197283Y236378D02*
X204291D01*
Y247874D01*
X197283D02*
X204291D01*
X197283Y236378D02*
Y247874D01*
X167756Y45118D02*
X174764D01*
X167756Y33622D02*
Y45118D01*
Y33622D02*
X174764D01*
Y45118D01*
X157913D02*
X164921D01*
X157913Y33622D02*
Y45118D01*
Y33622D02*
X164921D01*
Y45118D01*
X367244Y146142D02*
X376850D01*
Y141260D02*
Y146142D01*
X367244Y141260D02*
X376850D01*
X367244D02*
Y146142D01*
Y134331D02*
X376850D01*
Y129449D02*
Y134331D01*
X367244Y129449D02*
X376850D01*
X367244D02*
Y134331D01*
X386929Y111732D02*
X396535D01*
X386929D02*
Y116614D01*
X396535D01*
Y111732D02*
Y116614D01*
X386929Y123937D02*
X396535D01*
X386929D02*
Y128819D01*
X396535D01*
Y123937D02*
Y128819D01*
X398740Y134331D02*
X408347D01*
Y129449D02*
Y134331D01*
X398740Y129449D02*
X408347D01*
X398740D02*
Y134331D01*
Y122520D02*
X408347D01*
Y117638D02*
Y122520D01*
X398740Y117638D02*
X408347D01*
X398740D02*
Y122520D01*
X420394Y121575D02*
X430000D01*
X420394D02*
Y126457D01*
X430000D01*
Y121575D02*
Y126457D01*
X420394Y133386D02*
X430000D01*
X420394D02*
Y138268D01*
X430000D01*
Y133386D02*
Y138268D01*
X432205Y146142D02*
X441811D01*
Y141260D02*
Y146142D01*
X432205Y141260D02*
X441811D01*
X432205D02*
Y146142D01*
Y136299D02*
X441811D01*
Y131417D02*
Y136299D01*
X432205Y131417D02*
X441811D01*
X432205D02*
Y136299D01*
X455827Y111732D02*
X465433D01*
X455827D02*
Y116614D01*
X465433D01*
Y111732D02*
Y116614D01*
X455827Y123543D02*
X465433D01*
X455827D02*
Y128425D01*
X465433D01*
Y123543D02*
Y128425D01*
X467638Y134331D02*
X477244D01*
Y129449D02*
Y134331D01*
X467638Y129449D02*
X477244D01*
X467638D02*
Y134331D01*
Y122520D02*
X477244D01*
Y117638D02*
Y122520D01*
X467638Y117638D02*
X477244D01*
X467638D02*
Y122520D01*
X491260Y119606D02*
X500866D01*
X491260D02*
Y124488D01*
X500866D01*
Y119606D02*
Y124488D01*
X491260Y131417D02*
X500866D01*
X491260D02*
Y136299D01*
X500866D01*
Y131417D02*
Y136299D01*
X391575Y173661D02*
Y180669D01*
X380079D02*
X391575D01*
X380079Y173661D02*
Y180669D01*
Y173661D02*
X391575D01*
X448976Y181535D02*
Y188543D01*
Y181535D02*
X460472D01*
Y188543D01*
X448976D02*
X460472D01*
X437078Y185495D02*
Y192503D01*
X425582D02*
X437078D01*
X425582Y185495D02*
Y192503D01*
Y185495D02*
X437078D01*
X368543Y171102D02*
X375551D01*
X368543Y159606D02*
Y171102D01*
Y159606D02*
X375551D01*
Y171102D01*
X437441Y170315D02*
X444449D01*
X437441Y158819D02*
Y170315D01*
Y158819D02*
X444449D01*
Y170315D01*
X356732Y134803D02*
X363740D01*
Y146299D01*
X356732D02*
X363740D01*
X356732Y134803D02*
Y146299D01*
X317756Y151417D02*
X324764D01*
X317756Y139921D02*
Y151417D01*
Y139921D02*
X324764D01*
Y151417D01*
X423661Y157323D02*
X430669D01*
X423661Y145827D02*
Y157323D01*
Y145827D02*
X430669D01*
Y157323D01*
X492803D02*
X499811D01*
X492803Y145827D02*
Y157323D01*
Y145827D02*
X499811D01*
Y157323D01*
X368543Y159291D02*
X375551D01*
X368543Y147795D02*
Y159291D01*
Y147795D02*
X375551D01*
Y159291D01*
X437441Y158504D02*
X444449D01*
X437441Y147008D02*
Y158504D01*
Y147008D02*
X444449D01*
Y158504D01*
X405598Y167756D02*
Y174764D01*
X394102D02*
X405598D01*
X394102Y167756D02*
Y174764D01*
Y167756D02*
X405598D01*
X475283D02*
Y174764D01*
X463787D02*
X475283D01*
X463787Y167756D02*
Y174764D01*
Y167756D02*
X475283D01*
X269528Y120512D02*
Y127520D01*
X258032D02*
X269528D01*
X258032Y120512D02*
Y127520D01*
Y120512D02*
X269528D01*
X285591D02*
Y127520D01*
Y120512D02*
X297087D01*
Y127520D01*
X285591D02*
X297087D01*
X23779Y228780D02*
Y235787D01*
Y228780D02*
X35276D01*
Y235787D01*
X23779D02*
X35276D01*
X128386Y222598D02*
X135394D01*
Y234095D01*
X128386D02*
X135394D01*
X128386Y222598D02*
Y234095D01*
X285591Y61457D02*
Y68465D01*
Y61457D02*
X297087D01*
Y68465D01*
X285591D02*
X297087D01*
X269528Y61457D02*
Y68465D01*
X258032D02*
X269528D01*
X258032Y61457D02*
Y68465D01*
Y61457D02*
X269528D01*
X537559Y244528D02*
Y251535D01*
Y244528D02*
X549055D01*
Y251535D01*
X537559D02*
X549055D01*
X517559Y244528D02*
Y251535D01*
X506063D02*
X517559D01*
X506063Y244528D02*
Y251535D01*
Y244528D02*
X517559D01*
X348858Y173386D02*
X355866D01*
Y184882D01*
X348858D02*
X355866D01*
X348858Y173386D02*
Y184882D01*
X323268Y173386D02*
X330276D01*
Y184882D01*
X323268D02*
X330276D01*
X323268Y173386D02*
Y184882D01*
X301614Y159606D02*
X308622D01*
Y171102D01*
X301614D02*
X308622D01*
X301614Y159606D02*
Y171102D01*
X236653Y159606D02*
X243661D01*
Y171102D01*
X236653D02*
X243661D01*
X236653Y159606D02*
Y171102D01*
X260276Y315118D02*
X267284D01*
Y326614D01*
X260276D02*
X267284D01*
X260276Y315118D02*
Y326614D01*
X205945Y364331D02*
X212953D01*
Y375827D01*
X205945D02*
X212953D01*
X205945Y364331D02*
Y375827D01*
X232716Y315118D02*
X239724D01*
Y326614D01*
X232716D02*
X239724D01*
X232716Y315118D02*
Y326614D01*
X270905Y364331D02*
X277913D01*
Y375827D01*
X270905D02*
X277913D01*
X270905Y364331D02*
Y375827D01*
X748347Y223543D02*
X757953D01*
X748347D02*
Y228425D01*
X757953D01*
Y223543D02*
Y228425D01*
X923937Y223937D02*
X933543D01*
X923937D02*
Y228819D01*
X933543D01*
Y223937D02*
Y228819D01*
X748347Y228661D02*
X757953D01*
X748347D02*
Y233543D01*
X757953D01*
Y228661D02*
Y233543D01*
X923937Y229055D02*
X933543D01*
X923937D02*
Y233937D01*
X933543D01*
Y229055D02*
Y233937D01*
X748347Y238504D02*
X757953D01*
X748347D02*
Y243386D01*
X757953D01*
Y238504D02*
Y243386D01*
X923937Y240866D02*
X933543D01*
X923937D02*
Y245748D01*
X933543D01*
Y240866D02*
Y245748D01*
X748347Y248504D02*
X757953D01*
Y243622D02*
Y248504D01*
X748347Y243622D02*
X757953D01*
X748347D02*
Y248504D01*
X923937Y250866D02*
X933543D01*
Y245984D02*
Y250866D01*
X923937Y245984D02*
X933543D01*
X923937D02*
Y250866D01*
X748347Y248740D02*
X757953D01*
X748347D02*
Y253622D01*
X757953D01*
Y248740D02*
Y253622D01*
X923937Y251102D02*
X933543D01*
X923937D02*
Y255984D01*
X933543D01*
Y251102D02*
Y255984D01*
X732598Y262283D02*
X742205D01*
Y257402D02*
Y262283D01*
X732598Y257402D02*
X742205D01*
X732598D02*
Y262283D01*
X909764Y264252D02*
X919370D01*
Y259370D02*
Y264252D01*
X909764Y259370D02*
X919370D01*
X909764D02*
Y264252D01*
X722756Y270158D02*
X732362D01*
Y265276D02*
Y270158D01*
X722756Y265276D02*
X732362D01*
X722756D02*
Y270158D01*
X900709D02*
X910315D01*
Y265276D02*
Y270158D01*
X900709Y265276D02*
X910315D01*
X900709D02*
Y270158D01*
X716968Y297008D02*
Y309291D01*
X700354D02*
X716968D01*
X700354Y297008D02*
Y309291D01*
Y297008D02*
X716968D01*
X890197D02*
Y309291D01*
X873583D02*
X890197D01*
X873583Y297008D02*
Y309291D01*
Y297008D02*
X890197D01*
M02*
