G04*
G04 #@! TF.GenerationSoftware,Altium Limited,Altium Designer,24.1.2 (44)*
G04*
G04 Layer_Color=32768*
%FSLAX25Y25*%
%MOIN*%
G70*
G04*
G04 #@! TF.SameCoordinates,B5AD6C99-44BA-4BCA-A26F-11CA4035DA65*
G04*
G04*
G04 #@! TF.FilePolarity,Positive*
G04*
G01*
G75*
%ADD10C,0.00394*%
%ADD12C,0.00787*%
%ADD115C,0.00197*%
%ADD116C,0.00004*%
D10*
X457480Y166929D02*
X474803D01*
Y136221D02*
Y166929D01*
X457480Y136221D02*
X474803D01*
X457480D02*
Y166929D01*
Y164961D02*
X459449Y166929D01*
X21850Y206890D02*
X37205D01*
X21850D02*
Y226181D01*
X37205D01*
Y206890D02*
Y226181D01*
X32205Y206890D02*
X37205Y211890D01*
X157283Y220669D02*
Y236024D01*
X137992Y220669D02*
X157283D01*
X137992D02*
Y236024D01*
X157283D01*
X152284D02*
X157283Y231024D01*
X262795Y59646D02*
X292323D01*
Y19094D02*
Y59646D01*
X262795Y19094D02*
X292323D01*
X262795D02*
Y59646D01*
Y54646D02*
X267795Y59646D01*
X262795Y118701D02*
X292323D01*
Y78150D02*
Y118701D01*
X262795Y78150D02*
X292323D01*
X262795D02*
Y118701D01*
Y113701D02*
X267795Y118701D01*
X512795Y255315D02*
X542323D01*
X512795D02*
Y295866D01*
X542323D01*
Y255315D02*
Y295866D01*
X537323Y255315D02*
X542323Y260315D01*
X365158Y95866D02*
Y100984D01*
X376575D01*
Y95866D02*
Y100984D01*
X365158Y95866D02*
X376575D01*
X365158Y99606D02*
X368898Y95866D01*
X382480D02*
Y100984D01*
X393898D01*
Y95866D02*
Y100984D01*
X382480Y95866D02*
X393898D01*
X382480Y99606D02*
X386221Y95866D01*
X399803D02*
Y100984D01*
X411221D01*
Y95866D02*
Y100984D01*
X399803Y95866D02*
X411221D01*
X399803Y99606D02*
X403543Y95866D01*
X417126D02*
Y100984D01*
X428543D01*
Y95866D02*
Y100984D01*
X417126Y95866D02*
X428543D01*
X417126Y99606D02*
X420866Y95866D01*
X434449D02*
Y100984D01*
X445866D01*
Y95866D02*
Y100984D01*
X434449Y95866D02*
X445866D01*
X434449Y99606D02*
X438189Y95866D01*
X451772D02*
Y100984D01*
X463189D01*
Y95866D02*
Y100984D01*
X451772Y95866D02*
X463189D01*
X451772Y99606D02*
X455512Y95866D01*
X469095D02*
Y100984D01*
X480512D01*
Y95866D02*
Y100984D01*
X469095Y95866D02*
X480512D01*
X469095Y99606D02*
X472835Y95866D01*
X486417D02*
Y100984D01*
X497835D01*
Y95866D02*
Y100984D01*
X486417Y95866D02*
X497835D01*
X486417Y99606D02*
X490158Y95866D01*
X639850Y247913D02*
X642906Y244862D01*
X632685Y247913D02*
X642906D01*
X632685Y228071D02*
Y247913D01*
Y228071D02*
X642906D01*
Y247913D01*
X817016Y245945D02*
X820071Y242894D01*
X809850Y245945D02*
X820071D01*
X809850Y226102D02*
Y245945D01*
Y226102D02*
X820071D01*
Y245945D01*
X720472Y118209D02*
X723032Y115650D01*
X720472D02*
X728346D01*
Y120571D01*
X720472D02*
X728346D01*
X720472Y115650D02*
Y120571D01*
X730709Y118209D02*
X733268Y115650D01*
X730709D02*
X738583D01*
Y120571D01*
X730709D02*
X738583D01*
X730709Y115650D02*
Y120571D01*
X740945Y118209D02*
X743504Y115650D01*
X740945D02*
X748819D01*
Y120571D01*
X740945D02*
X748819D01*
X740945Y115650D02*
Y120571D01*
X751181Y118209D02*
X753740Y115650D01*
X751181D02*
X759055D01*
Y120571D01*
X751181D02*
X759055D01*
X751181Y115650D02*
Y120571D01*
X761417Y118209D02*
X763976Y115650D01*
X761417D02*
X769291D01*
Y120571D01*
X761417D02*
X769291D01*
X761417Y115650D02*
Y120571D01*
X771654Y118209D02*
X774213Y115650D01*
X771654D02*
X779528D01*
Y120571D01*
X771654D02*
X779528D01*
X771654Y115650D02*
Y120571D01*
X781890Y118209D02*
X784449Y115650D01*
X781890D02*
X789764D01*
Y120571D01*
X781890D02*
X789764D01*
X781890Y115650D02*
Y120571D01*
X792126Y118209D02*
X794685Y115650D01*
X792126D02*
X800000D01*
Y120571D01*
X792126D02*
X800000D01*
X792126Y115650D02*
Y120571D01*
X802362Y118209D02*
X804921Y115650D01*
X802362D02*
X810236D01*
Y120571D01*
X802362D02*
X810236D01*
X802362Y115650D02*
Y120571D01*
X812598Y118209D02*
X815158Y115650D01*
X812598D02*
X820472D01*
Y120571D01*
X812598D02*
X820472D01*
X812598Y115650D02*
Y120571D01*
X822835Y118209D02*
X825394Y115650D01*
X822835D02*
X830709D01*
Y120571D01*
X822835D02*
X830709D01*
X822835Y115650D02*
Y120571D01*
X833071Y118209D02*
X835630Y115650D01*
X833071D02*
X840945D01*
Y120571D01*
X833071D02*
X840945D01*
X833071Y115650D02*
Y120571D01*
X843307Y118209D02*
X845866Y115650D01*
X843307D02*
X851181D01*
Y120571D01*
X843307D02*
X851181D01*
X843307Y115650D02*
Y120571D01*
X853543Y118209D02*
X856102Y115650D01*
X853543D02*
X861417D01*
Y120571D01*
X853543D02*
X861417D01*
X853543Y115650D02*
Y120571D01*
X863780Y118209D02*
X866339Y115650D01*
X863780D02*
X871653D01*
Y120571D01*
X863780D02*
X871653D01*
X863780Y115650D02*
Y120571D01*
X874016Y118209D02*
X876575Y115650D01*
X874016D02*
X881890D01*
Y120571D01*
X874016D02*
X881890D01*
X874016Y115650D02*
Y120571D01*
X65453Y228346D02*
Y236221D01*
X60532Y228346D02*
X65453D01*
X60532D02*
Y236221D01*
X65453D01*
X55610Y35433D02*
Y43307D01*
X50689Y35433D02*
X55610D01*
X50689D02*
Y43307D01*
X55610D01*
X144193Y47244D02*
Y55118D01*
X139272Y47244D02*
X144193D01*
X139272D02*
Y55118D01*
X144193D01*
X188484Y47244D02*
Y55118D01*
X193405D01*
Y47244D02*
Y55118D01*
X188484Y47244D02*
X193405D01*
X334102Y151752D02*
X339102Y156752D01*
X334102Y137461D02*
Y156752D01*
Y137461D02*
X349457D01*
Y156752D01*
X334102D02*
X349457D01*
X744390Y239272D02*
X747736D01*
Y233169D02*
Y239272D01*
X744390Y233169D02*
X747736D01*
X744390D02*
Y239272D01*
X758169Y231398D02*
Y234744D01*
X752067Y231398D02*
X758169D01*
X752067D02*
Y234744D01*
X758169D01*
Y237697D02*
Y241043D01*
X752067Y237697D02*
X758169D01*
X752067D02*
Y241043D01*
X758169D01*
X937303Y241634D02*
Y244980D01*
X931201Y241634D02*
X937303D01*
X931201D02*
Y244980D01*
X937303D01*
Y235335D02*
Y238681D01*
X931201Y235335D02*
X937303D01*
X931201D02*
Y238681D01*
X937303D01*
X921555Y243209D02*
X924902D01*
Y237106D02*
Y243209D01*
X921555Y237106D02*
X924902D01*
X921555D02*
Y243209D01*
X832874Y262303D02*
X840748D01*
Y257382D02*
Y262303D01*
X832874Y257382D02*
X840748D01*
X832874D02*
Y262303D01*
X655709Y264272D02*
X663583D01*
Y259350D02*
Y264272D01*
X655709Y259350D02*
X663583D01*
X655709D02*
Y264272D01*
X796260Y137795D02*
X806102D01*
X796260D02*
Y150394D01*
X806102D01*
Y137795D02*
Y150394D01*
X807283Y137795D02*
X817126D01*
Y150394D01*
X807283D02*
X817126D01*
X807283Y137795D02*
Y150394D01*
X818307Y137795D02*
X828150D01*
X818307D02*
Y150394D01*
X828150D01*
Y137795D02*
Y150394D01*
X829331Y137795D02*
X839173D01*
Y150394D01*
X829331D02*
X839173D01*
X829331Y137795D02*
Y150394D01*
X840354Y137795D02*
X850197D01*
X840354D02*
Y150394D01*
X850197D01*
Y137795D02*
Y150394D01*
X851378Y137795D02*
X861220D01*
Y150394D01*
X851378D02*
X861220D01*
X851378Y137795D02*
Y150394D01*
X862402Y137795D02*
X872244D01*
X862402D02*
Y150394D01*
X872244D01*
Y137795D02*
Y150394D01*
X873425Y137795D02*
X883268D01*
Y150394D01*
X873425D02*
X883268D01*
X873425Y137795D02*
Y150394D01*
X884449Y137795D02*
X894291D01*
X884449D02*
Y150394D01*
X894291D01*
Y137795D02*
Y150394D01*
X895472Y137795D02*
X905315D01*
Y150394D01*
X895472D02*
X905315D01*
X895472Y137795D02*
Y150394D01*
X906496Y137795D02*
X916339D01*
X906496D02*
Y150394D01*
X916339D01*
Y137795D02*
Y150394D01*
X917520Y137795D02*
X927362D01*
Y150394D01*
X917520D02*
X927362D01*
X917520Y137795D02*
Y150394D01*
X928543Y137795D02*
X938386D01*
X928543D02*
Y150394D01*
X938386D01*
Y137795D02*
Y150394D01*
X939567Y137795D02*
X949409D01*
Y150394D01*
X939567D02*
X949409D01*
X939567Y137795D02*
Y150394D01*
X950591Y137795D02*
X960433D01*
X950591D02*
Y150394D01*
X960433D01*
Y137795D02*
Y150394D01*
X961614Y137795D02*
X971457D01*
Y150394D01*
X961614D02*
X971457D01*
X961614Y137795D02*
Y150394D01*
X972638Y137795D02*
X982480D01*
X972638D02*
Y150394D01*
X982480D01*
Y137795D02*
Y150394D01*
X619882Y137795D02*
X629724D01*
X619882D02*
Y150394D01*
X629724D01*
Y137795D02*
Y150394D01*
X630905Y137795D02*
X640748D01*
Y150394D01*
X630905D02*
X640748D01*
X630905Y137795D02*
Y150394D01*
X641929Y137795D02*
X651772D01*
X641929D02*
Y150394D01*
X651772D01*
Y137795D02*
Y150394D01*
X652953Y137795D02*
X662795D01*
Y150394D01*
X652953D02*
X662795D01*
X652953Y137795D02*
Y150394D01*
X663976Y137795D02*
X673819D01*
X663976D02*
Y150394D01*
X673819D01*
Y137795D02*
Y150394D01*
X675000Y137795D02*
X684842D01*
Y150394D01*
X675000D02*
X684842D01*
X675000Y137795D02*
Y150394D01*
X686024Y137795D02*
X695866D01*
X686024D02*
Y150394D01*
X695866D01*
Y137795D02*
Y150394D01*
X697047Y137795D02*
X706890D01*
Y150394D01*
X697047D02*
X706890D01*
X697047Y137795D02*
Y150394D01*
X708071Y137795D02*
X717913D01*
X708071D02*
Y150394D01*
X717913D01*
Y137795D02*
Y150394D01*
X719095Y137795D02*
X728937D01*
Y150394D01*
X719095D02*
X728937D01*
X719095Y137795D02*
Y150394D01*
X730118Y137795D02*
X739961D01*
X730118D02*
Y150394D01*
X739961D01*
Y137795D02*
Y150394D01*
X741142Y137795D02*
X750984D01*
Y150394D01*
X741142D02*
X750984D01*
X741142Y137795D02*
Y150394D01*
X752165Y137795D02*
X762008D01*
X752165D02*
Y150394D01*
X762008D01*
Y137795D02*
Y150394D01*
X763189Y137795D02*
X773032D01*
Y150394D01*
X763189D02*
X773032D01*
X763189Y137795D02*
Y150394D01*
X774213Y137795D02*
X784055D01*
X774213D02*
Y150394D01*
X784055D01*
Y137795D02*
Y150394D01*
X785236Y137795D02*
X795079D01*
Y150394D01*
X785236D02*
X795079D01*
X785236Y137795D02*
Y150394D01*
X799508Y138287D02*
X802854D01*
Y144390D01*
X799508D02*
X802854D01*
X799508Y138287D02*
Y144390D01*
X810532Y138287D02*
X813878D01*
X810532D02*
Y144390D01*
X813878D01*
Y138287D02*
Y144390D01*
X821555Y138287D02*
X824902D01*
Y144390D01*
X821555D02*
X824902D01*
X821555Y138287D02*
Y144390D01*
X832579Y138287D02*
X835925D01*
X832579D02*
Y144390D01*
X835925D01*
Y138287D02*
Y144390D01*
X843602Y138287D02*
X846949D01*
Y144390D01*
X843602D02*
X846949D01*
X843602Y138287D02*
Y144390D01*
X854626Y138287D02*
X857972D01*
X854626D02*
Y144390D01*
X857972D01*
Y138287D02*
Y144390D01*
X865650Y138287D02*
X868996D01*
Y144390D01*
X865650D02*
X868996D01*
X865650Y138287D02*
Y144390D01*
X876673Y138287D02*
X880020D01*
X876673D02*
Y144390D01*
X880020D01*
Y138287D02*
Y144390D01*
X887697Y138287D02*
X891043D01*
Y144390D01*
X887697D02*
X891043D01*
X887697Y138287D02*
Y144390D01*
X898720Y138287D02*
X902067D01*
X898720D02*
Y144390D01*
X902067D01*
Y138287D02*
Y144390D01*
X909744Y138287D02*
X913091D01*
Y144390D01*
X909744D02*
X913091D01*
X909744Y138287D02*
Y144390D01*
X920768Y138287D02*
X924114D01*
X920768D02*
Y144390D01*
X924114D01*
Y138287D02*
Y144390D01*
X931791Y138287D02*
X935138D01*
Y144390D01*
X931791D02*
X935138D01*
X931791Y138287D02*
Y144390D01*
X942815Y138287D02*
X946161D01*
X942815D02*
Y144390D01*
X946161D01*
Y138287D02*
Y144390D01*
X953839Y138287D02*
X957185D01*
Y144390D01*
X953839D02*
X957185D01*
X953839Y138287D02*
Y144390D01*
X964862Y138287D02*
X968209D01*
X964862D02*
Y144390D01*
X968209D01*
Y138287D02*
Y144390D01*
X975886Y138287D02*
X979232D01*
Y144390D01*
X975886D02*
X979232D01*
X975886Y138287D02*
Y144390D01*
X985630Y150394D02*
X995472D01*
X985630Y137795D02*
Y150394D01*
Y137795D02*
X995472D01*
Y150394D01*
X623130Y138287D02*
X626476D01*
Y144390D01*
X623130D02*
X626476D01*
X623130Y138287D02*
Y144390D01*
X634154Y138287D02*
X637500D01*
X634154D02*
Y144390D01*
X637500D01*
Y138287D02*
Y144390D01*
X645177Y138287D02*
X648524D01*
Y144390D01*
X645177D02*
X648524D01*
X645177Y138287D02*
Y144390D01*
X656201Y138287D02*
X659547D01*
X656201D02*
Y144390D01*
X659547D01*
Y138287D02*
Y144390D01*
X667224Y138287D02*
X670571D01*
Y144390D01*
X667224D02*
X670571D01*
X667224Y138287D02*
Y144390D01*
X678248Y138287D02*
X681595D01*
X678248D02*
Y144390D01*
X681595D01*
Y138287D02*
Y144390D01*
X689272Y138287D02*
X692618D01*
Y144390D01*
X689272D02*
X692618D01*
X689272Y138287D02*
Y144390D01*
X700295Y138287D02*
X703642D01*
X700295D02*
Y144390D01*
X703642D01*
Y138287D02*
Y144390D01*
X711319Y138287D02*
X714665D01*
Y144390D01*
X711319D02*
X714665D01*
X711319Y138287D02*
Y144390D01*
X722342Y138287D02*
X725689D01*
X722342D02*
Y144390D01*
X725689D01*
Y138287D02*
Y144390D01*
X733366Y138287D02*
X736713D01*
Y144390D01*
X733366D02*
X736713D01*
X733366Y138287D02*
Y144390D01*
X744390Y138287D02*
X747736D01*
X744390D02*
Y144390D01*
X747736D01*
Y138287D02*
Y144390D01*
X755413Y138287D02*
X758760D01*
Y144390D01*
X755413D02*
X758760D01*
X755413Y138287D02*
Y144390D01*
X766437Y138287D02*
X769783D01*
X766437D02*
Y144390D01*
X769783D01*
Y138287D02*
Y144390D01*
X777461Y138287D02*
X780807D01*
Y144390D01*
X777461D02*
X780807D01*
X777461Y138287D02*
Y144390D01*
X788484Y138287D02*
X791831D01*
X788484D02*
Y144390D01*
X791831D01*
Y138287D02*
Y144390D01*
X195374Y238189D02*
Y246063D01*
X190453Y238189D02*
X195374D01*
X190453D02*
Y246063D01*
X195374D01*
X176673Y35433D02*
Y43307D01*
X181595D01*
Y35433D02*
Y43307D01*
X176673Y35433D02*
X181595D01*
X151083D02*
Y43307D01*
X156004D01*
Y35433D02*
Y43307D01*
X151083Y35433D02*
X156004D01*
X375098Y136122D02*
Y139469D01*
X368996D02*
X375098D01*
X368996Y136122D02*
Y139469D01*
Y136122D02*
X375098D01*
Y124311D02*
Y127657D01*
X368996D02*
X375098D01*
X368996Y124311D02*
Y127657D01*
Y124311D02*
X375098D01*
X388681Y118405D02*
Y121752D01*
Y118405D02*
X394783D01*
Y121752D01*
X388681D02*
X394783D01*
X388681Y130217D02*
Y133563D01*
Y130217D02*
X394783D01*
Y133563D01*
X388681D02*
X394783D01*
X406595Y124311D02*
Y127657D01*
X400492D02*
X406595D01*
X400492Y124311D02*
Y127657D01*
Y124311D02*
X406595D01*
Y112500D02*
Y115847D01*
X400492D02*
X406595D01*
X400492Y112500D02*
Y115847D01*
Y112500D02*
X406595D01*
X422146Y128248D02*
Y131595D01*
Y128248D02*
X428248D01*
Y131595D01*
X422146D02*
X428248D01*
X422146Y140059D02*
Y143405D01*
Y140059D02*
X428248D01*
Y143405D01*
X422146D02*
X428248D01*
X440059Y137303D02*
Y140650D01*
X433957D02*
X440059D01*
X433957Y137303D02*
Y140650D01*
Y137303D02*
X440059D01*
Y127461D02*
Y130807D01*
X433957D02*
X440059D01*
X433957Y127461D02*
Y130807D01*
Y127461D02*
X440059D01*
X457579Y118405D02*
Y121752D01*
Y118405D02*
X463681D01*
Y121752D01*
X457579D02*
X463681D01*
X457579Y130217D02*
Y133563D01*
Y130217D02*
X463681D01*
Y133563D01*
X457579D02*
X463681D01*
X475492Y124311D02*
Y127657D01*
X469390D02*
X475492D01*
X469390Y124311D02*
Y127657D01*
Y124311D02*
X475492D01*
Y112500D02*
Y115847D01*
X469390D02*
X475492D01*
X469390Y112500D02*
Y115847D01*
Y112500D02*
X475492D01*
X493012Y126279D02*
Y129626D01*
Y126279D02*
X499114D01*
Y129626D01*
X493012D02*
X499114D01*
X493012Y138091D02*
Y141437D01*
Y138091D02*
X499114D01*
Y141437D01*
X493012D02*
X499114D01*
X381890Y182579D02*
X389764D01*
X381890D02*
Y187500D01*
X389764D01*
Y182579D02*
Y187500D01*
X450787Y179626D02*
X458661D01*
Y174705D02*
Y179626D01*
X450787Y174705D02*
X458661D01*
X450787D02*
Y179626D01*
X209154Y283661D02*
Y291535D01*
X204232Y283661D02*
X209154D01*
X204232D02*
Y291535D01*
X209154D01*
X197343Y283661D02*
Y291535D01*
X192421Y283661D02*
X197343D01*
X192421D02*
Y291535D01*
X197343D01*
X185531Y283661D02*
Y291535D01*
X180610Y283661D02*
X185531D01*
X180610D02*
Y291535D01*
X185531D01*
X314035Y176378D02*
Y184252D01*
X318957D01*
Y176378D02*
Y184252D01*
X314035Y176378D02*
X318957D01*
X277067Y346260D02*
Y354134D01*
X281988D01*
Y346260D02*
Y354134D01*
X277067Y346260D02*
X281988D01*
X198327D02*
Y354134D01*
X203248D01*
Y346260D02*
Y354134D01*
X198327Y346260D02*
X203248D01*
X693898Y299213D02*
Y318898D01*
X684055Y299213D02*
X693898D01*
X684055D02*
Y318898D01*
X693898D01*
X698819Y313976D02*
X718504D01*
X698819D02*
Y323819D01*
X718504D01*
Y313976D02*
Y323819D01*
X867126Y299213D02*
Y318898D01*
X857283Y299213D02*
X867126D01*
X857283D02*
Y318898D01*
X867126D01*
X872047Y313976D02*
X891732D01*
X872047D02*
Y323819D01*
X891732D01*
Y313976D02*
Y323819D01*
X246063Y318406D02*
X253937D01*
Y323327D01*
X246063D02*
X253937D01*
X246063Y318406D02*
Y323327D01*
X13287Y153543D02*
Y161417D01*
X18209D01*
Y153543D02*
Y161417D01*
X13287Y153543D02*
X18209D01*
Y133858D02*
Y141732D01*
X13287Y133858D02*
X18209D01*
X13287D02*
Y141732D01*
X18209D01*
X209154Y297835D02*
Y305709D01*
X204232Y297835D02*
X209154D01*
X204232D02*
Y305709D01*
X209154D01*
X197343Y297441D02*
Y305315D01*
X192421Y297441D02*
X197343D01*
X192421D02*
Y305315D01*
X197343D01*
X185531Y297441D02*
Y305315D01*
X180610Y297441D02*
X185531D01*
X180610D02*
Y305315D01*
X185531D01*
X314035Y161024D02*
Y168898D01*
X318957D01*
Y161024D02*
Y168898D01*
X314035Y161024D02*
X318957D01*
X291831Y346260D02*
Y354134D01*
X286910Y346260D02*
X291831D01*
X286910D02*
Y354134D01*
X291831D01*
X213090Y346260D02*
Y354134D01*
X208169Y346260D02*
X213090D01*
X208169D02*
Y354134D01*
X213090D01*
X728780Y87795D02*
X735000D01*
X728780D02*
Y100394D01*
X735000D01*
Y87795D02*
Y100394D01*
X733110Y87795D02*
X739331D01*
Y100394D01*
X733110D02*
X739331D01*
X733110Y87795D02*
Y100394D01*
X737441Y87795D02*
X743661D01*
X737441D02*
Y100394D01*
X743661D01*
Y87795D02*
Y100394D01*
X741772Y87795D02*
X747992D01*
Y100394D01*
X741772D02*
X747992D01*
X741772Y87795D02*
Y100394D01*
X746102Y87795D02*
X752323D01*
X746102D02*
Y100394D01*
X752323D01*
Y87795D02*
Y100394D01*
X750433Y87795D02*
X756653D01*
Y100394D01*
X750433D02*
X756653D01*
X750433Y87795D02*
Y100394D01*
X754764Y87795D02*
X760984D01*
X754764D02*
Y100394D01*
X760984D01*
Y87795D02*
Y100394D01*
X759094Y87795D02*
X765315D01*
Y100394D01*
X759094D02*
X765315D01*
X759094Y87795D02*
Y100394D01*
X763425Y87795D02*
X769646D01*
X763425D02*
Y100394D01*
X769646D01*
Y87795D02*
Y100394D01*
X767756Y87795D02*
X773976D01*
Y100394D01*
X767756D02*
X773976D01*
X767756Y87795D02*
Y100394D01*
X772087Y87795D02*
X778307D01*
X772087D02*
Y100394D01*
X778307D01*
Y87795D02*
Y100394D01*
X776417Y87795D02*
X782638D01*
Y100394D01*
X776417D02*
X782638D01*
X776417Y87795D02*
Y100394D01*
X780748Y87795D02*
X786969D01*
X780748D02*
Y100394D01*
X786969D01*
Y87795D02*
Y100394D01*
X785079Y87795D02*
X791299D01*
Y100394D01*
X785079D02*
X791299D01*
X785079Y87795D02*
Y100394D01*
X789409Y87795D02*
X795630D01*
X789409D02*
Y100394D01*
X795630D01*
Y87795D02*
Y100394D01*
X793740Y87795D02*
X799961D01*
Y100394D01*
X793740D02*
X799961D01*
X793740Y87795D02*
Y100394D01*
X798071Y87795D02*
X804291D01*
X798071D02*
Y100394D01*
X804291D01*
Y87795D02*
Y100394D01*
X802402Y87795D02*
X808622D01*
Y100394D01*
X802402D02*
X808622D01*
X802402Y87795D02*
Y100394D01*
X806732Y87795D02*
X812953D01*
X806732D02*
Y100394D01*
X812953D01*
Y87795D02*
Y100394D01*
X811063Y87795D02*
X817284D01*
Y100394D01*
X811063D02*
X817284D01*
X811063Y87795D02*
Y100394D01*
X815394Y87795D02*
X821614D01*
X815394D02*
Y100394D01*
X821614D01*
Y87795D02*
Y100394D01*
X819724Y87795D02*
X825945D01*
Y100394D01*
X819724D02*
X825945D01*
X819724Y87795D02*
Y100394D01*
X824055Y87795D02*
X830276D01*
X824055D02*
Y100394D01*
X830276D01*
Y87795D02*
Y100394D01*
X828386Y87795D02*
X834606D01*
Y100394D01*
X828386D02*
X834606D01*
X828386Y87795D02*
Y100394D01*
X832716Y87795D02*
X838937D01*
X832716D02*
Y100394D01*
X838937D01*
Y87795D02*
Y100394D01*
X837047Y87795D02*
X843268D01*
Y100394D01*
X837047D02*
X843268D01*
X837047Y87795D02*
Y100394D01*
X841378Y87795D02*
X847598D01*
X841378D02*
Y100394D01*
X847598D01*
Y87795D02*
Y100394D01*
X845709Y87795D02*
X851929D01*
Y100394D01*
X845709D02*
X851929D01*
X845709Y87795D02*
Y100394D01*
X850039Y87795D02*
X856260D01*
X850039D02*
Y100394D01*
X856260D01*
Y87795D02*
Y100394D01*
X854370Y87795D02*
X860591D01*
Y100394D01*
X854370D02*
X860591D01*
X854370Y87795D02*
Y100394D01*
X858701Y87795D02*
X864921D01*
X858701D02*
Y100394D01*
X864921D01*
Y87795D02*
Y100394D01*
X863031Y87795D02*
X869252D01*
Y100394D01*
X863031D02*
X869252D01*
X863031Y87795D02*
Y100394D01*
X867362Y87795D02*
X873583D01*
X867362D02*
Y100394D01*
X873583D01*
Y87795D02*
Y100394D01*
X693307Y253937D02*
X695276Y255906D01*
X693307Y216535D02*
Y255906D01*
Y216535D02*
X732677D01*
Y255906D01*
X693307D02*
X732677D01*
X869685Y253937D02*
X871653Y255906D01*
X869685Y216535D02*
Y255906D01*
Y216535D02*
X909055D01*
Y255906D01*
X869685D02*
X909055D01*
X388189Y164961D02*
X390158Y166929D01*
X388189Y136221D02*
Y166929D01*
Y136221D02*
X405512D01*
Y166929D01*
X388189D02*
X405512D01*
D12*
X425835Y173228D02*
Y185039D01*
X437646D01*
Y173228D02*
Y185039D01*
X425835Y173228D02*
X437646D01*
D115*
X769095Y303150D02*
X768772Y304035D01*
X767956Y304507D01*
X767028Y304343D01*
X766422Y303621D01*
Y302678D01*
X767028Y301956D01*
X767956Y301793D01*
X768772Y302264D01*
X769095Y303150D01*
X741535D02*
X741213Y304035D01*
X740397Y304507D01*
X739468Y304343D01*
X738863Y303621D01*
Y302678D01*
X739468Y301956D01*
X740397Y301793D01*
X741213Y302264D01*
X741535Y303150D01*
X918701D02*
X918378Y304035D01*
X917562Y304507D01*
X916634Y304343D01*
X916028Y303621D01*
Y302678D01*
X916634Y301956D01*
X917562Y301793D01*
X918378Y302264D01*
X918701Y303150D01*
X946260D02*
X945938Y304035D01*
X945121Y304507D01*
X944193Y304343D01*
X943587Y303621D01*
Y302678D01*
X944193Y301956D01*
X945121Y301793D01*
X945938Y302264D01*
X946260Y303150D01*
X767717Y301181D02*
Y305118D01*
X765748Y303150D02*
X769685D01*
X753543Y280118D02*
X781890D01*
X753543D02*
Y326181D01*
X781890D01*
Y280118D02*
Y326181D01*
X740158Y301181D02*
Y305118D01*
X738189Y303150D02*
X742126D01*
X725984Y280118D02*
X754331D01*
X725984D02*
Y326181D01*
X754331D01*
Y280118D02*
Y326181D01*
X917323Y301181D02*
Y305118D01*
X915354Y303150D02*
X919291D01*
X903150Y280118D02*
X931496D01*
X903150D02*
Y326181D01*
X931496D01*
Y280118D02*
Y326181D01*
X944882Y301181D02*
Y305118D01*
X942913Y303150D02*
X946850D01*
X930709Y280118D02*
X959055D01*
X930709D02*
Y326181D01*
X959055D01*
Y280118D02*
Y326181D01*
X183268Y375394D02*
Y388386D01*
X156496D02*
X183268D01*
X156496Y375394D02*
Y388386D01*
Y375394D02*
X183268D01*
D116*
X754528Y294969D02*
X780905D01*
X754528D02*
Y319382D01*
X780905D01*
Y294969D02*
Y319382D01*
X726968Y294969D02*
X753346D01*
X726968D02*
Y319382D01*
X753346D01*
Y294969D02*
Y319382D01*
X904134Y294969D02*
X930512D01*
X904134D02*
Y319382D01*
X930512D01*
Y294969D02*
Y319382D01*
X931693Y294969D02*
X958071D01*
X931693D02*
Y319382D01*
X958071D01*
Y294969D02*
Y319382D01*
M02*
