G04*
G04 #@! TF.GenerationSoftware,Altium Limited,Altium Designer,23.11.1 (41)*
G04*
G04 Layer_Physical_Order=1*
G04 Layer_Color=255*
%FSLAX25Y25*%
%MOIN*%
G70*
G04*
G04 #@! TF.SameCoordinates,CE4D55B0-1E22-43E6-B765-DBE9F925A347*
G04*
G04*
G04 #@! TF.FilePolarity,Positive*
G04*
G01*
G75*
%ADD14C,0.01000*%
%ADD18R,0.06594X0.01181*%
%ADD19R,0.05315X0.01575*%
%ADD20R,0.07480X0.07480*%
%ADD21R,0.06102X0.02756*%
%ADD22R,0.02756X0.06102*%
%ADD23R,0.07677X0.02559*%
%ADD24R,0.02362X0.04134*%
%ADD25R,0.06102X0.08661*%
%ADD26R,0.01968X0.04134*%
%ADD27R,0.05709X0.03543*%
%ADD28R,0.06004X0.02559*%
%ADD29R,0.03543X0.05709*%
%ADD30R,0.10630X0.04331*%
%ADD31R,0.03937X0.03150*%
%ADD32R,0.03150X0.03937*%
%ADD33R,0.10630X0.05315*%
%ADD34R,0.05315X0.10630*%
%ADD35R,0.21850X0.24016*%
%ADD36R,0.03937X0.11221*%
%ADD37R,0.03937X0.08268*%
%ADD38R,0.05709X0.01772*%
%ADD39R,0.04724X0.02362*%
%ADD40R,0.07087X0.05197*%
%ADD41R,0.08661X0.06102*%
%ADD42R,0.02441X0.05787*%
%ADD43R,0.05787X0.02441*%
%ADD44R,0.03701X0.02126*%
%ADD45R,0.02126X0.03701*%
%ADD46R,0.04016X0.11102*%
%ADD47R,0.25591X0.25591*%
%ADD48R,0.01181X0.06594*%
%ADD96C,0.00591*%
%ADD97C,0.02016*%
%ADD98C,0.01500*%
%ADD99C,0.01512*%
%ADD100C,0.05965*%
%ADD101C,0.01083*%
%ADD102C,0.04724*%
%ADD103R,0.04724X0.04724*%
%ADD104R,0.07087X0.07087*%
%ADD105C,0.07087*%
%ADD106C,0.06791*%
%ADD107R,0.06791X0.06791*%
%ADD108C,0.06496*%
%ADD109R,0.06496X0.06496*%
%ADD110C,0.21260*%
%ADD111C,0.05906*%
%ADD112R,0.05906X0.05906*%
%ADD113C,0.19685*%
%ADD114C,0.01772*%
G36*
X918779Y259961D02*
X916654D01*
X916654Y263661D01*
X914449Y265866D01*
X907598D01*
Y269567D01*
X918779D01*
Y259961D01*
D02*
G37*
G36*
X741732Y257874D02*
X739370D01*
Y261811D01*
X735315Y265866D01*
X729646D01*
Y269567D01*
X741732D01*
Y257874D01*
D02*
G37*
G36*
X942913Y255387D02*
Y248031D01*
X935827D01*
X932953Y245158D01*
Y241457D01*
X930827D01*
Y255394D01*
X942416D01*
X942913Y255387D01*
D02*
G37*
G36*
X768780Y253031D02*
X768898Y252983D01*
Y244094D01*
X762362D01*
X757362Y239094D01*
X755236D01*
Y253031D01*
X768780D01*
D02*
G37*
G36*
X942913Y224576D02*
X942795Y224528D01*
X930827D01*
Y233335D01*
X930835Y233338D01*
X942913D01*
Y224576D01*
D02*
G37*
G36*
X761969Y228346D02*
X765748D01*
Y220472D01*
X755118D01*
Y232835D01*
X755236Y232953D01*
X757362D01*
X761969Y228346D01*
D02*
G37*
G36*
X320866Y157480D02*
X314961Y151575D01*
Y139764D01*
X285433D01*
Y140339D01*
X286902D01*
Y145473D01*
Y150606D01*
X285433D01*
Y153543D01*
X295276Y163386D01*
X301224D01*
Y161917D01*
X305118D01*
X309012D01*
Y163386D01*
X312642D01*
Y161721D01*
X316496D01*
X320350D01*
Y163386D01*
X320866D01*
Y157480D01*
D02*
G37*
G36*
X470472Y160236D02*
X473126D01*
X473473Y160004D01*
X473476Y160004D01*
X473805Y139610D01*
Y136205D01*
X473514Y135831D01*
X473510Y135827D01*
X458906D01*
Y147244D01*
X458478D01*
Y147260D01*
X450394D01*
Y149984D01*
X458478D01*
Y150000D01*
X458906D01*
Y167323D01*
X470472D01*
Y160236D01*
D02*
G37*
G36*
X401575D02*
X403441D01*
X403788Y160004D01*
X404331Y159896D01*
Y135827D01*
X391339D01*
Y141339D01*
X389370D01*
Y147047D01*
X389187D01*
Y147260D01*
Y147260D01*
X384890D01*
Y148138D01*
X389187D01*
Y149106D01*
X384890D01*
Y149984D01*
X389187D01*
Y149984D01*
Y150197D01*
X389370D01*
Y167323D01*
X401575D01*
Y160236D01*
D02*
G37*
G36*
X881890Y23622D02*
X685039D01*
Y57087D01*
X881890D01*
Y23622D01*
D02*
G37*
%LPC*%
G36*
X309012Y160917D02*
X305618D01*
Y159197D01*
X309012D01*
Y160917D01*
D02*
G37*
G36*
X304618D02*
X301224D01*
Y159197D01*
X304618D01*
Y160917D01*
D02*
G37*
G36*
X320350Y160721D02*
X316996D01*
Y158449D01*
X320350D01*
Y160721D01*
D02*
G37*
G36*
X315996D02*
X312642D01*
Y158449D01*
X315996D01*
Y160721D01*
D02*
G37*
G36*
X290370Y150606D02*
X287902D01*
Y145973D01*
X290370D01*
Y150606D01*
D02*
G37*
G36*
Y144973D02*
X287902D01*
Y140339D01*
X290370D01*
Y144973D01*
D02*
G37*
G36*
X864301Y56512D02*
X863886D01*
Y45382D01*
X875016D01*
Y45797D01*
X874729Y47605D01*
X874164Y49346D01*
X873333Y50977D01*
X872257Y52458D01*
X870962Y53753D01*
X869481Y54829D01*
X867850Y55660D01*
X866109Y56225D01*
X864301Y56512D01*
D02*
G37*
G36*
X862886D02*
X862471D01*
X860662Y56225D01*
X858922Y55660D01*
X857290Y54829D01*
X855809Y53753D01*
X854515Y52458D01*
X853439Y50977D01*
X852608Y49346D01*
X852042Y47605D01*
X851756Y45797D01*
Y45382D01*
X862886D01*
Y56512D01*
D02*
G37*
G36*
X705246D02*
X704831D01*
Y45382D01*
X715961D01*
Y45797D01*
X715674Y47605D01*
X715109Y49346D01*
X714278Y50977D01*
X713202Y52458D01*
X711907Y53753D01*
X710426Y54829D01*
X708795Y55660D01*
X707054Y56225D01*
X705246Y56512D01*
D02*
G37*
G36*
X703831D02*
X703415D01*
X701607Y56225D01*
X699866Y55660D01*
X698235Y54829D01*
X696754Y53753D01*
X695460Y52458D01*
X694384Y50977D01*
X693553Y49346D01*
X692987Y47605D01*
X692701Y45797D01*
Y45382D01*
X703831D01*
Y56512D01*
D02*
G37*
G36*
X875016Y44382D02*
X863886D01*
Y33252D01*
X864301D01*
X866109Y33538D01*
X867850Y34104D01*
X869481Y34935D01*
X870962Y36011D01*
X872257Y37306D01*
X873333Y38787D01*
X874164Y40418D01*
X874729Y42158D01*
X875016Y43967D01*
Y44382D01*
D02*
G37*
G36*
X862886D02*
X851756D01*
Y43967D01*
X852042Y42158D01*
X852608Y40418D01*
X853439Y38787D01*
X854515Y37306D01*
X855809Y36011D01*
X857290Y34935D01*
X858922Y34104D01*
X860662Y33538D01*
X862471Y33252D01*
X862886D01*
Y44382D01*
D02*
G37*
G36*
X715961Y44382D02*
X704831D01*
Y33252D01*
X705246D01*
X707054Y33538D01*
X708795Y34104D01*
X710426Y34935D01*
X711907Y36011D01*
X713202Y37306D01*
X714278Y38787D01*
X715109Y40418D01*
X715674Y42158D01*
X715961Y43967D01*
Y44382D01*
D02*
G37*
G36*
X703831D02*
X692701D01*
Y43967D01*
X692987Y42158D01*
X693553Y40418D01*
X694384Y38787D01*
X695460Y37306D01*
X696754Y36011D01*
X698235Y34935D01*
X699866Y34104D01*
X701607Y33538D01*
X703415Y33252D01*
X703831D01*
Y44382D01*
D02*
G37*
%LPD*%
D14*
X384890Y148425D02*
Y149606D01*
X43307Y242529D02*
Y244197D01*
X42721Y241943D02*
X43307Y242529D01*
X40128Y241943D02*
X42721D01*
X39910Y241725D02*
X40128Y241943D01*
X39910Y239980D02*
Y241725D01*
Y239980D02*
X40128Y239762D01*
X46653D01*
X46871Y239544D01*
Y237799D02*
Y239544D01*
X46653Y237581D02*
X46871Y237799D01*
X40128Y237581D02*
X46653D01*
X39910Y237363D02*
X40128Y237581D01*
X39910Y235618D02*
Y237363D01*
Y235618D02*
X40128Y235400D01*
X42721D01*
X43307Y234814D01*
Y234314D02*
Y234814D01*
Y244197D02*
Y253780D01*
X53150Y216535D02*
Y253780D01*
X45650Y209035D02*
X53150Y216535D01*
X40256Y209035D02*
X45650D01*
X43307Y231319D02*
Y234314D01*
X116142Y221831D02*
Y283858D01*
Y196850D02*
Y198349D01*
X115556Y198935D02*
X116142Y198349D01*
X110866Y198935D02*
X115556D01*
X110648Y199153D02*
X110866Y198935D01*
X110648Y199153D02*
Y200898D01*
X110866Y201116D01*
X116302D01*
X116520Y201334D01*
Y203079D01*
X116302Y203297D02*
X116520Y203079D01*
X110866Y203297D02*
X116302D01*
X110648Y203515D02*
X110866Y203297D01*
X110648Y203515D02*
Y205260D01*
X110866Y205478D01*
X116302D01*
X116520Y205696D01*
Y207441D01*
X116302Y207659D02*
X116520Y207441D01*
X110866Y207659D02*
X116302D01*
X110648Y207877D02*
X110866Y207659D01*
X110648Y207877D02*
Y209622D01*
X110866Y209840D01*
X116302D01*
X116520Y210058D01*
Y211803D01*
X116302Y212021D02*
X116520Y211803D01*
X110866Y212021D02*
X116302D01*
X110648Y212239D02*
X110866Y212021D01*
X110648Y212239D02*
Y213984D01*
X110866Y214202D01*
X116302D01*
X116520Y214421D01*
Y216165D01*
X116302Y216384D02*
X116520Y216165D01*
X110866Y216384D02*
X116302D01*
X110648Y216602D02*
X110866Y216384D01*
X110648Y216602D02*
Y218347D01*
X110866Y218565D01*
X115556D01*
X116142Y219150D01*
Y221831D01*
X98425Y236834D02*
Y238080D01*
Y236834D02*
X99011Y236248D01*
X103582D01*
X103800Y236030D01*
Y234285D02*
Y236030D01*
X103582Y234067D02*
X103800Y234285D01*
X98061Y234067D02*
X103582D01*
X97842Y233849D02*
X98061Y234067D01*
X97842Y232104D02*
Y233849D01*
Y232104D02*
X98061Y231886D01*
X103582D01*
X103800Y231667D01*
Y229923D02*
Y231667D01*
X103582Y229704D02*
X103800Y229923D01*
X98061Y229704D02*
X103582D01*
X97842Y229486D02*
X98061Y229704D01*
X97842Y227742D02*
Y229486D01*
Y227742D02*
X98061Y227523D01*
X103582D01*
X103800Y227305D01*
Y225560D02*
Y227305D01*
X103582Y225342D02*
X103800Y225560D01*
X98061Y225342D02*
X103582D01*
X97842Y225124D02*
X98061Y225342D01*
X97842Y223379D02*
Y225124D01*
Y223379D02*
X98061Y223161D01*
X103582D01*
X103800Y222943D01*
Y221198D02*
Y222943D01*
X103582Y220980D02*
X103800Y221198D01*
X98061Y220980D02*
X103582D01*
X97842Y220762D02*
X98061Y220980D01*
X97842Y219017D02*
Y220762D01*
Y219017D02*
X98061Y218799D01*
X103582D01*
X103800Y218581D01*
Y216836D02*
Y218581D01*
X103582Y216618D02*
X103800Y216836D01*
X98061Y216618D02*
X103582D01*
X97842Y216400D02*
X98061Y216618D01*
X97842Y214655D02*
Y216400D01*
Y214655D02*
X98061Y214437D01*
X103582D01*
X103800Y214219D01*
Y212474D02*
Y214219D01*
X103582Y212256D02*
X103800Y212474D01*
X98061Y212256D02*
X103582D01*
X97842Y212038D02*
X98061Y212256D01*
X97842Y210293D02*
Y212038D01*
Y210293D02*
X98061Y210075D01*
X103582D01*
X103800Y209857D01*
Y208112D02*
Y209857D01*
X103582Y207893D02*
X103800Y208112D01*
X98061Y207893D02*
X103582D01*
X97842Y207675D02*
X98061Y207893D01*
X97842Y205930D02*
Y207675D01*
Y205930D02*
X98061Y205712D01*
X103582D01*
X103800Y205494D01*
Y203749D02*
Y205494D01*
X103582Y203531D02*
X103800Y203749D01*
X98061Y203531D02*
X103582D01*
X97842Y203313D02*
X98061Y203531D01*
X97842Y201568D02*
Y203313D01*
Y201568D02*
X98061Y201350D01*
X103582D01*
X103800Y201132D01*
Y199387D02*
Y201132D01*
X103582Y199169D02*
X103800Y199387D01*
X99011Y199169D02*
X103582D01*
X98425Y198583D02*
X99011Y199169D01*
X98425Y195902D02*
Y198583D01*
X116142Y195468D02*
Y196850D01*
X98425Y238080D02*
Y240000D01*
Y195861D02*
X99405Y194882D01*
X115556D02*
X116142Y195468D01*
X99405Y194882D02*
X115556D01*
X98425Y195861D02*
Y195902D01*
X175984Y215354D02*
Y277559D01*
X137795Y177165D02*
X175984Y215354D01*
X256437Y278091D02*
X508957D01*
X137795Y159449D02*
X256437Y278091D01*
X257500Y283090D02*
X508957D01*
X133858Y159449D02*
X257500Y283090D01*
X122047Y161043D02*
X236221Y46870D01*
X122047Y161043D02*
Y253780D01*
X43307Y91363D02*
Y92520D01*
X42721Y90777D02*
X43307Y91363D01*
X40018Y90777D02*
X42721D01*
X39800Y90559D02*
X40018Y90777D01*
X39800Y88814D02*
Y90559D01*
Y88814D02*
X40018Y88596D01*
X43369D01*
X43587Y88378D01*
Y86633D02*
Y88378D01*
X43369Y86415D02*
X43587Y86633D01*
X40018Y86415D02*
X43369D01*
X39800Y86197D02*
X40018Y86415D01*
X39800Y84452D02*
Y86197D01*
Y84452D02*
X40018Y84234D01*
X43369D01*
X43587Y84016D01*
Y82271D02*
Y84016D01*
X43369Y82053D02*
X43587Y82271D01*
X40018Y82053D02*
X43369D01*
X39800Y81835D02*
X40018Y82053D01*
X39800Y80090D02*
Y81835D01*
Y80090D02*
X40018Y79871D01*
X42721D01*
X43307Y79286D01*
Y78786D02*
Y79286D01*
Y23779D02*
Y78786D01*
Y92520D02*
Y177559D01*
X185433Y228740D02*
Y270968D01*
X183071Y226378D02*
X185433Y228740D01*
X187008Y226378D02*
Y265304D01*
X183071Y222441D02*
X187008Y226378D01*
X183071Y273330D02*
X185433Y270968D01*
X187008Y265304D02*
X192528Y270824D01*
X183071Y273330D02*
Y283858D01*
X192528Y270824D02*
Y282587D01*
X193799Y283858D01*
X194882D01*
X109425Y290575D02*
X116142Y283858D01*
X109425Y290575D02*
Y310528D01*
X114173Y315276D01*
Y305276D02*
X148268D01*
X175984Y277559D01*
X98425Y240000D02*
X112205Y253780D01*
X43307Y177559D02*
X86614Y220866D01*
X45823Y165933D02*
X93685Y213795D01*
X43307Y17599D02*
X47677Y21969D01*
X43307Y13780D02*
Y17599D01*
X45823Y27444D02*
Y165933D01*
Y27444D02*
X47677Y25590D01*
Y21969D02*
Y25590D01*
X40256Y228268D02*
X43307Y231319D01*
X40256Y224035D02*
Y228268D01*
X6811Y263032D02*
X59055Y315276D01*
X6811Y221004D02*
Y263032D01*
X11811Y258032D02*
X59055Y305276D01*
X11811Y221004D02*
Y258032D01*
X200787Y246063D02*
Y253780D01*
X200787Y246063D02*
X200787Y246063D01*
X192913Y245866D02*
X193110Y246063D01*
X200787D01*
X13780Y214035D02*
X18799D01*
X6811Y221004D02*
X13780Y214035D01*
Y219035D02*
X18799D01*
X11811Y221004D02*
X13780Y219035D01*
X21654Y295276D02*
X23622Y297244D01*
Y309055D01*
X236221Y46870D02*
X241220Y41870D01*
X102362Y263779D02*
X102912Y263230D01*
X236221Y115925D02*
X246220Y105925D01*
X258957D01*
X236221Y56870D02*
X241955D01*
X251955Y46870D01*
X258957D01*
X295344Y273160D02*
X508888D01*
X508957Y273091D01*
X295276Y273228D02*
X295344Y273160D01*
X295276Y268091D02*
X508957Y268091D01*
X546775Y283071D02*
X627559D01*
X625433Y273071D02*
X649606Y297244D01*
X546775Y278071D02*
X626496D01*
X645669Y297244D01*
X546775Y268071D02*
X624370D01*
X627953Y271654D01*
X627559Y283071D02*
X641732Y297244D01*
X546775Y273071D02*
X625433D01*
X241220Y41870D02*
X258957D01*
X912354Y241142D02*
X918307D01*
X919291Y242126D01*
X912354Y239173D02*
X918307D01*
X919291Y238189D01*
X916429Y245169D02*
X919291Y248031D01*
X912445Y243201D02*
X916992D01*
X918303Y244512D02*
X921063D01*
X916992Y243201D02*
X918303Y244512D01*
X921063D02*
X922268Y243307D01*
X912354Y243110D02*
X912445Y243201D01*
X922268Y243307D02*
X925591D01*
X912445Y245169D02*
X916429D01*
X912354Y245079D02*
X912445Y245169D01*
X919291Y248031D02*
X925197D01*
X922272Y253543D02*
X925591D01*
X917744Y249016D02*
X922272Y253543D01*
X912354Y249016D02*
X917744D01*
X735976Y237205D02*
X741142D01*
X742126Y238189D01*
X741142Y235236D02*
X742126Y234252D01*
X735976Y235236D02*
X741142D01*
X236221Y95925D02*
X243134D01*
X253422D02*
X253937D01*
X252284Y97064D02*
X253422Y95925D01*
X251103Y97064D02*
X252284D01*
X249119Y95079D02*
X251103Y97064D01*
X247937Y95079D02*
X249119D01*
X245953Y97064D02*
X247937Y95079D01*
X244772Y97064D02*
X245953D01*
X243634Y95925D02*
X244772Y97064D01*
X243134Y95925D02*
X243634D01*
X253937D02*
X258957D01*
X241220Y90925D02*
X258957D01*
X236221Y85925D02*
X241220Y90925D01*
X236221Y105925D02*
X241220Y100925D01*
X258957D01*
X251307Y36870D02*
X251969D01*
X250084Y38094D02*
X251307Y36870D01*
X249084Y38094D02*
X250084D01*
X247860Y36870D02*
X249084Y38094D01*
X246860Y36870D02*
X247860D01*
X245637Y38094D02*
X246860Y36870D01*
X244637Y38094D02*
X245637D01*
X243413Y36870D02*
X244637Y38094D01*
X242913Y36870D02*
X243413D01*
X236221D02*
X242913D01*
X251969D02*
X258957D01*
X241220Y31870D02*
X258957D01*
X236221Y26870D02*
X241220Y31870D01*
X445276Y153543D02*
X445484D01*
X449413Y154055D02*
X449835Y153634D01*
X448425Y151670D02*
X448473Y151622D01*
X454134D02*
X454181Y151575D01*
X448473Y151622D02*
X454134D01*
X449835Y153634D02*
X454090D01*
X445484Y153543D02*
X445997Y154055D01*
X449413D01*
X454090Y153634D02*
X454181Y153543D01*
X407529Y183022D02*
X423030D01*
X407480Y183071D02*
X407529Y183022D01*
X703150Y198488D02*
X706102Y201441D01*
X707980Y200368D02*
Y213146D01*
X706693Y199081D02*
X707980Y200368D01*
X706693Y198819D02*
Y199081D01*
X703150Y194882D02*
Y198488D01*
X706102Y201441D02*
Y213236D01*
X700787Y198819D02*
X704134Y202165D01*
Y213236D01*
X709449Y187008D02*
Y197789D01*
Y180315D02*
Y187008D01*
Y197789D02*
X710047Y198387D01*
Y204409D01*
X712008Y202034D02*
X713386Y200656D01*
X712008Y202034D02*
Y213236D01*
X713386Y200394D02*
Y200656D01*
X713992Y204118D02*
Y213221D01*
Y204118D02*
X715748Y202362D01*
Y194882D02*
Y202362D01*
X719125Y200954D02*
X719291Y200787D01*
X719125Y200954D02*
Y202135D01*
X715945Y205315D02*
X719125Y202135D01*
X715945Y205315D02*
Y213236D01*
X717913Y206496D02*
X722047Y202362D01*
Y194882D02*
Y202362D01*
Y187008D02*
Y194882D01*
X717913Y206496D02*
Y213236D01*
X723910Y208602D02*
X730523Y201988D01*
X725591Y198819D02*
Y201760D01*
X722047Y179528D02*
Y187008D01*
X730523Y200579D02*
X730709Y200394D01*
X725878Y209161D02*
X734646Y200394D01*
X730523Y200579D02*
Y201988D01*
X725787Y213236D02*
X725878Y213146D01*
X723910Y208602D02*
Y213146D01*
X725878Y209161D02*
Y213146D01*
X719882Y207468D02*
X725591Y201760D01*
X728346Y194882D02*
Y201531D01*
X721850Y208028D02*
Y213236D01*
X719882Y207468D02*
Y213236D01*
X721850Y208028D02*
X728346Y201531D01*
X723819Y213236D02*
X723910Y213146D01*
X734646Y194882D02*
Y200394D01*
X866295Y231209D02*
X866386Y231299D01*
X848610Y223414D02*
X858465Y233268D01*
X848610Y221445D02*
Y223414D01*
X851181Y223228D02*
X859161Y231209D01*
X845051Y215524D02*
X846232D01*
X848425Y221260D02*
X848610Y221445D01*
X846232Y215524D02*
X851181Y220472D01*
Y223228D01*
X844488Y214961D02*
X845051Y215524D01*
X859161Y231209D02*
X866295D01*
X855118Y217323D02*
Y221654D01*
X847020Y209224D02*
X855118Y217323D01*
X845051Y209224D02*
X847020D01*
X849606Y215354D02*
X853150Y218898D01*
Y222441D01*
X857087Y211417D02*
Y220866D01*
X852362Y206693D02*
X857087Y211417D01*
X852547Y233650D02*
X853335D01*
X852362Y233465D02*
X852547Y233650D01*
X853335D02*
X856890Y237205D01*
X848425Y233071D02*
X851962Y236607D01*
X853536D01*
X848425Y230709D02*
Y233071D01*
X869685Y198819D02*
X869851Y198985D01*
Y200166D01*
X876575Y206890D01*
Y213236D01*
Y213329D01*
X882480Y204134D02*
Y213236D01*
X879528Y187008D02*
Y194882D01*
X873228D02*
X873565Y195218D01*
X875984Y199606D02*
X876132Y199754D01*
X879528Y201181D02*
X882480Y204134D01*
X879528Y194882D02*
Y201181D01*
X880512Y213236D02*
Y214121D01*
X873228Y186726D02*
Y194882D01*
X878543Y213236D02*
Y213737D01*
X876132Y199754D02*
Y200541D01*
X880512Y204921D01*
X873565Y200730D02*
X878543Y205709D01*
X873565Y195218D02*
Y200730D01*
X878543Y205709D02*
Y213236D01*
X880512Y204921D02*
Y213236D01*
X884449Y200459D02*
Y213236D01*
X883071Y198819D02*
Y199081D01*
X884449Y200459D01*
X889185Y199004D02*
X889370Y198819D01*
X888386Y201606D02*
Y213236D01*
X889185Y199004D02*
Y200807D01*
X888386Y201606D02*
X889185Y200807D01*
X892126Y194882D02*
Y200394D01*
X890354Y202165D02*
X892126Y200394D01*
Y187008D02*
Y194882D01*
X895484Y199004D02*
Y199792D01*
X893701Y201575D02*
X895484Y199792D01*
Y199004D02*
X895669Y198819D01*
X893701Y201575D02*
Y201575D01*
X892323Y202953D02*
X893701Y201575D01*
X898425Y194882D02*
Y199441D01*
X894291Y203575D02*
X898425Y199441D01*
X894291Y203575D02*
Y213236D01*
X896260Y204921D02*
Y213236D01*
X901390Y199004D02*
X901575Y198819D01*
X901390Y199004D02*
Y199792D01*
X896260Y204921D02*
X901390Y199792D01*
X898425Y187008D02*
Y194882D01*
Y187008D02*
X898425Y187008D01*
X898425Y194882D02*
X898425Y194882D01*
X907295Y199004D02*
Y200579D01*
X900197Y207677D02*
X907295Y200579D01*
Y199004D02*
X907480Y198819D01*
X919685Y216404D02*
Y221654D01*
X921260Y214567D02*
Y214829D01*
X919685Y216404D02*
X921260Y214829D01*
X918004Y223335D02*
X919685Y221654D01*
X923622Y202756D02*
Y221260D01*
X919488Y225394D02*
X923622Y221260D01*
Y202756D02*
X924016D01*
X930709D01*
X848454Y237036D02*
Y238674D01*
X851421Y241642D01*
X845276Y240158D02*
X845839Y240721D01*
X854653Y243110D02*
X866386D01*
X852540Y244063D02*
X853555Y245079D01*
X845839Y240721D02*
X852165Y247047D01*
X845839Y240721D02*
Y240721D01*
X853185Y241642D02*
X854653Y243110D01*
X851421Y241642D02*
X853185D01*
X852394Y244063D02*
X852540D01*
X832677Y240158D02*
X845276D01*
X852362Y239370D02*
X852510Y239518D01*
X853691D01*
X855315Y241142D01*
X866386D01*
X853536Y236607D02*
X856102Y239173D01*
X852165Y247047D02*
X866386D01*
X856102Y239173D02*
X866386D01*
X674081Y245079D02*
X690008D01*
X673490Y244488D02*
X674081Y245079D01*
X673228Y244488D02*
X673490D01*
X668673Y242689D02*
Y243476D01*
X672244Y247047D01*
X668110Y242126D02*
X668673Y242689D01*
X672244Y247047D02*
X690008D01*
X668110Y235827D02*
X668673Y236390D01*
Y236390D01*
X675394Y243110D02*
X690008D01*
X668673Y236390D02*
X675394Y243110D01*
X667323Y242126D02*
X668110D01*
X659449Y235827D02*
X668110D01*
X655466Y242126D02*
X667323D01*
X675425Y239783D02*
X676784Y241142D01*
X675425Y239535D02*
Y239783D01*
X667886Y230090D02*
X669461D01*
X678543Y239173D02*
X690008D01*
X659449Y229528D02*
X667323D01*
X667886Y230090D01*
X669461D02*
X678543Y239173D01*
X676784Y241142D02*
X690008D01*
X673260Y230677D02*
Y230740D01*
X679724Y237205D01*
X681032Y235236D02*
X690008D01*
X674201Y228405D02*
X681032Y235236D01*
X668110Y223228D02*
X673287Y228405D01*
X659449Y223228D02*
X668110D01*
X673287Y228405D02*
X674201D01*
X667856Y217462D02*
X669824D01*
X667323Y216929D02*
X667856Y217462D01*
X669824D02*
X683661Y231299D01*
X673228Y218276D02*
X684283Y229331D01*
X690008D01*
X672047Y223228D02*
X682087Y233268D01*
X683661Y231299D02*
X690008D01*
X673228Y214567D02*
Y218276D01*
X440451Y180364D02*
X445226D01*
X440402Y180413D02*
X440451Y180364D01*
X445226D02*
X445276Y180315D01*
X389567Y185039D02*
X401575D01*
X406201Y180413D02*
X423079D01*
X401575Y185039D02*
X406201Y180413D01*
X423030Y183022D02*
X423079Y182972D01*
X444783D02*
X446850Y185039D01*
X435925Y182972D02*
X444783D01*
X435267Y183631D02*
Y188999D01*
Y183631D02*
X435925Y182972D01*
X712992Y236221D02*
X723819Y247047D01*
X866142Y99567D02*
X867087D01*
X743937D02*
X744882D01*
X735276D02*
X736221D01*
X911826Y223335D02*
X918004D01*
X911024Y186996D02*
X929146D01*
X886417Y194882D02*
Y213236D01*
X696850Y173228D02*
Y194882D01*
X720866Y228346D02*
X721850Y227362D01*
X715945Y233268D02*
X720866Y228346D01*
X857480Y122244D02*
Y125591D01*
Y111417D02*
Y122244D01*
X847244D02*
Y125591D01*
Y110630D02*
Y122244D01*
X840158Y99587D02*
Y103543D01*
Y99567D02*
Y99587D01*
X805512D02*
Y106693D01*
Y99567D02*
Y99587D01*
X796850D02*
Y107087D01*
Y99567D02*
Y99587D01*
X770866D02*
Y104724D01*
Y99567D02*
Y99587D01*
X762205D02*
Y103150D01*
Y99567D02*
Y99587D01*
X734646Y122244D02*
Y125399D01*
Y109803D02*
Y122244D01*
X904134Y213236D02*
X906843D01*
X904043D02*
X904134D01*
X912354Y225394D02*
X919488D01*
X911141D02*
X912354D01*
X911024Y187008D02*
Y194882D01*
Y186996D02*
Y187008D01*
X874606Y213236D02*
Y213261D01*
Y208071D02*
Y213236D01*
X866929Y187008D02*
Y194882D01*
Y172441D02*
Y187008D01*
X413779Y157480D02*
X415354Y159055D01*
X408811Y157480D02*
X413779D01*
X415354Y159055D02*
Y163386D01*
X427165Y162205D02*
Y163386D01*
X416535Y151575D02*
X427165Y162205D01*
X408811Y151575D02*
X416535D01*
X415354Y153543D02*
X423228Y161417D01*
Y163386D01*
X408811Y153543D02*
X415354D01*
X419291Y160630D02*
Y163386D01*
X408811Y155512D02*
X414173D01*
X419291Y160630D01*
X403543Y179134D02*
X403665Y179012D01*
Y171382D02*
Y179012D01*
Y171382D02*
X403787Y171260D01*
Y162003D02*
Y171260D01*
Y162003D02*
X404373Y161417D01*
X496063Y165201D02*
Y175197D01*
X488189Y161811D02*
Y175197D01*
X478102Y157480D02*
X483858D01*
X488189Y161811D01*
X484405Y153543D02*
X496063Y165201D01*
X478102Y153543D02*
X484405D01*
X484558Y151575D02*
X500000Y167017D01*
X484252Y155512D02*
X492126Y163386D01*
X478102Y151575D02*
X484558D01*
X478102Y155512D02*
X484252D01*
X500000Y167017D02*
Y175197D01*
X492126Y163386D02*
Y175197D01*
X667323Y216929D02*
X667323Y216929D01*
X659449Y216929D02*
X667323D01*
X659440Y229519D02*
X659449Y229528D01*
Y235827D02*
X659449Y235827D01*
X864173Y259842D02*
X864733Y259283D01*
X897244Y236221D02*
X900197Y233268D01*
X912354D01*
X897244Y244094D02*
X900197Y247047D01*
X889370Y236221D02*
X892323Y233268D01*
X897244Y228346D02*
X898228Y227362D01*
X912354D01*
X814961Y227953D02*
X815087Y228080D01*
X627953Y271654D02*
X627953D01*
X698819Y269685D02*
X702165Y266339D01*
Y259205D02*
Y266339D01*
X878543Y259205D02*
Y269094D01*
X872047Y275590D02*
X878543Y269094D01*
X649606Y297244D02*
X649606D01*
X893701Y267717D02*
X896260Y265158D01*
Y259205D02*
Y265158D01*
X893701Y271654D02*
X898228Y267126D01*
Y259205D02*
Y267126D01*
X900197Y264764D02*
X902362Y266929D01*
X900197Y259205D02*
Y264764D01*
X928740Y259449D02*
X931102Y261811D01*
X928740Y250000D02*
Y259449D01*
X927165Y248425D02*
X928740Y250000D01*
X718504Y267717D02*
X721850Y264370D01*
Y259205D02*
Y264370D01*
X753150Y253150D02*
X757874Y257874D01*
X753150Y246649D02*
Y253150D01*
X750000Y246063D02*
X752564D01*
X753150Y246649D01*
X723819Y247047D02*
X725787Y249016D01*
Y259205D01*
X712992Y236221D02*
X715945Y233268D01*
X721850Y227362D02*
X735976D01*
X715945Y233268D02*
X735976D01*
X820866Y183071D02*
Y228346D01*
X801181Y163386D02*
X820866Y183071D01*
X824803Y222441D02*
X829921Y227559D01*
X826772Y165354D02*
X830709Y161417D01*
X828740Y212598D02*
X831102Y214961D01*
X823228Y157087D02*
X824803Y158661D01*
Y222441D01*
X828740Y179921D02*
X845276Y163386D01*
X826772Y165354D02*
Y216535D01*
X820866Y228346D02*
X832677Y240158D01*
X828740Y179921D02*
Y212598D01*
X822835Y225197D02*
X831496Y233858D01*
X814961Y159449D02*
X822835Y167323D01*
Y225197D01*
X826772Y216535D02*
X831496Y221260D01*
X761811Y202756D02*
X801181Y163386D01*
X830709Y206693D02*
X832677Y208661D01*
X830709Y190945D02*
X856299Y165354D01*
X830709Y190945D02*
Y206693D01*
X645669Y187008D02*
Y232330D01*
X624803Y166142D02*
X645669Y187008D01*
X624803Y144488D02*
Y166142D01*
X645669Y232330D02*
X655466Y242126D01*
X647638Y228346D02*
X655118Y235827D01*
X647638Y183071D02*
Y228346D01*
X655118Y235827D02*
X659449D01*
X649606Y165354D02*
Y222441D01*
X656684Y229519D02*
X659440D01*
X649606Y222441D02*
X656684Y229519D01*
X639764Y175197D02*
X647638Y183071D01*
X635827Y167323D02*
X639764Y171260D01*
X635827Y150000D02*
Y167323D01*
X646850Y162598D02*
X649606Y165354D01*
X646850Y144488D02*
Y162598D01*
X655512Y175197D02*
X657874Y172835D01*
Y150000D02*
Y172835D01*
X651575Y175197D02*
X655512Y171260D01*
X651575Y175197D02*
Y218898D01*
X655905Y223228D01*
X659449D01*
X673228Y173228D02*
X675197D01*
X679921Y150000D02*
Y168504D01*
X675197Y173228D02*
X679921Y168504D01*
X655512Y187008D02*
X673228Y169291D01*
X659449Y210630D02*
X659449Y210630D01*
X656299Y210630D02*
X659449D01*
X655512Y209842D02*
X656299Y210630D01*
X655512Y187008D02*
Y209842D01*
X653543Y183071D02*
Y214567D01*
X668898Y144488D02*
Y167717D01*
X653543Y183071D02*
X668898Y167717D01*
X750000Y187008D02*
X779134Y157874D01*
X734646Y187008D02*
X750000D01*
X779134Y144488D02*
Y157874D01*
X755905Y194882D02*
X781496Y169291D01*
X740945Y194882D02*
X755905D01*
X781496Y165354D02*
Y169291D01*
X790158Y150000D02*
Y160630D01*
X785433Y165354D02*
X790158Y160630D01*
X781496Y165354D02*
X785433Y161417D01*
X746063Y150000D02*
Y155512D01*
X732283Y163386D02*
X738189D01*
X746063Y155512D01*
X728346Y167323D02*
X732283D01*
X715748Y179921D02*
X728346Y167323D01*
X715748Y179921D02*
Y187008D01*
X712598Y167323D02*
X716535Y163386D01*
X703150Y172835D02*
X708661Y167323D01*
X712598D01*
X690551Y171653D02*
X700787Y161417D01*
X690551Y171653D02*
Y187008D01*
X696850Y161417D02*
X701968Y156299D01*
Y150000D02*
Y156299D01*
X703150Y172835D02*
Y187008D01*
Y194882D01*
X712598Y163386D02*
X716535Y159449D01*
X709449Y180315D02*
X735039Y154724D01*
Y144488D02*
Y154724D01*
X720472Y159449D02*
X724016Y155905D01*
X716535Y159449D02*
X720472D01*
X724016Y150000D02*
Y155905D01*
X712992Y144488D02*
Y157087D01*
X696850Y173228D02*
X712992Y157087D01*
X690551Y187008D02*
Y194882D01*
X728346Y187008D02*
X728355Y186999D01*
Y184243D02*
X741339Y171260D01*
X746063D01*
X728355Y184243D02*
Y186999D01*
X724409Y177165D02*
X732283D01*
X722047Y179528D02*
X724409Y177165D01*
X732283D02*
X757087Y152362D01*
X768110Y150000D02*
Y155118D01*
X748032Y175197D02*
X768110Y155118D01*
X746063Y175197D02*
X748032D01*
X747244Y202756D02*
X761811D01*
X655905Y216929D02*
X659449D01*
X653543Y214567D02*
X655905Y216929D01*
X684252Y166142D02*
Y194882D01*
Y166142D02*
X690945Y159449D01*
Y144488D02*
Y159449D01*
X757087Y144488D02*
Y152362D01*
X812205Y150000D02*
Y160630D01*
X814961Y163386D01*
X830709Y165354D02*
X834252Y161811D01*
Y150000D02*
Y161811D01*
X801181Y144488D02*
Y163386D01*
X844488Y233858D02*
X845276D01*
X836614D02*
X844488D01*
X831496Y233858D02*
X836614D01*
X829921Y227559D02*
X836614D01*
X823228Y144488D02*
Y157087D01*
X831496Y221260D02*
X836614D01*
X844488D02*
X845049D01*
X836614D02*
X844488D01*
X831102Y214961D02*
X836614D01*
X845276Y144488D02*
Y163386D01*
X856299Y161417D02*
Y165354D01*
X852362Y161417D02*
X856299Y157480D01*
Y150000D02*
Y157480D01*
X840551Y194882D02*
X860630D01*
X836614Y198819D02*
Y202362D01*
Y198819D02*
X840551Y194882D01*
X832677Y208661D02*
X836614D01*
X925591Y248425D02*
X927165D01*
X925197Y248031D02*
X925591Y248425D01*
X698819Y318110D02*
X699606Y318898D01*
X919291Y253150D02*
Y253937D01*
X912354Y250984D02*
X917126D01*
X919291Y253150D01*
X856299Y255118D02*
Y259842D01*
Y255118D02*
X860433Y250984D01*
X866386D01*
X966535Y150000D02*
Y163386D01*
X938976Y190945D02*
X966535Y163386D01*
X935039Y190945D02*
X938976Y187008D01*
X918504Y190945D02*
X935039D01*
X917332Y192117D02*
X918504Y190945D01*
X933071Y175197D02*
X944488Y163779D01*
Y150000D02*
Y163779D01*
X917323Y175197D02*
X933071D01*
X913386Y171260D02*
X917323D01*
X904724Y179921D02*
Y187008D01*
Y179921D02*
X913386Y171260D01*
X921260Y159449D02*
X922441Y158268D01*
X911417Y159449D02*
X921260D01*
X922441Y150000D02*
Y158268D01*
X905512Y163386D02*
X911417D01*
X892126Y176772D02*
X905512Y163386D01*
X917323Y167323D02*
X933465Y151181D01*
X910630Y167323D02*
X917323D01*
X933465Y144488D02*
Y151181D01*
X898425Y179528D02*
X910630Y167323D01*
X898425Y179528D02*
Y187008D01*
X892126Y176772D02*
Y187008D01*
X879527Y179528D02*
X899606Y159449D01*
X879527Y179528D02*
Y187008D01*
X911417Y144488D02*
Y151575D01*
X885827Y177165D02*
X911417Y151575D01*
X885827Y177165D02*
Y187008D01*
Y194882D01*
X873228Y170079D02*
Y187008D01*
X889370Y144488D02*
Y153937D01*
X873228Y170079D02*
X889370Y153937D01*
X866929Y172441D02*
X875984Y163386D01*
X895669Y159449D02*
X900394Y154724D01*
Y150000D02*
Y154724D01*
X878740Y150394D02*
Y156693D01*
X872047Y163386D02*
X878740Y156693D01*
X867323Y144488D02*
Y157480D01*
X860630Y164173D02*
Y194488D01*
Y164173D02*
X867323Y157480D01*
X955512Y144488D02*
Y160630D01*
X929146Y186996D02*
X955512Y160630D01*
X917332Y192117D02*
Y194873D01*
X917323Y194882D02*
Y202756D01*
X925197Y194882D02*
X944488D01*
X923622Y196457D02*
X925197Y194882D01*
X944488D02*
X977559Y161811D01*
X937008Y202756D02*
X981102D01*
X990551Y193307D01*
X923622Y196457D02*
Y202756D01*
X878347Y150000D02*
X878740Y150394D01*
X904724Y187008D02*
Y194882D01*
X860039Y113976D02*
X865158D01*
X870276D02*
X875394D01*
X849803D02*
X854921D01*
X839567D02*
X844685D01*
X829331D02*
X834449D01*
X819094D02*
X824213D01*
X726968D02*
X732087D01*
X734646Y109803D02*
X741839Y102610D01*
X737205Y113976D02*
X742323D01*
X747441D02*
X752559D01*
X757677D02*
X762795D01*
X767913D02*
X773032D01*
X778150D02*
X783268D01*
X788386D02*
X793504D01*
X808858D02*
X813976D01*
X798622D02*
X803740D01*
X635827Y131102D02*
Y138189D01*
Y131102D02*
X644685Y122244D01*
X724409D01*
X734060Y125984D02*
X734646Y125399D01*
X708268Y125984D02*
X734060D01*
X705512Y128740D02*
X708268Y125984D01*
X658460Y128740D02*
X705512D01*
X657874Y129326D02*
X658460Y128740D01*
X657874Y129326D02*
Y138189D01*
X705512Y133071D02*
X710630Y127953D01*
X685039Y133071D02*
X705512D01*
X710630Y127953D02*
X744296D01*
X679921Y138189D02*
X685039Y133071D01*
X744882Y111417D02*
Y122244D01*
Y127367D01*
X744296Y127953D02*
X744882Y127367D01*
X720620Y132283D02*
X722983Y129921D01*
X724339Y135109D02*
X727740Y131709D01*
X764556D02*
X765354Y130910D01*
X727740Y131709D02*
X764556D01*
X754532Y129921D02*
X755118Y129335D01*
X722983Y129921D02*
X754532D01*
X764961Y133858D02*
X768898Y129921D01*
X746063Y134444D02*
Y138189D01*
X746649Y133858D02*
X764961D01*
X746063Y134444D02*
X746649Y133858D01*
X706783Y136076D02*
X710576Y132283D01*
X720620D01*
X755118Y122244D02*
Y129335D01*
Y110236D02*
Y122244D01*
X701968Y138189D02*
X705118D01*
X706783Y136076D02*
Y136524D01*
X705118Y138189D02*
X706783Y136524D01*
X724016Y138189D02*
X724339Y137865D01*
Y135109D02*
Y137865D01*
X768110Y133796D02*
X770197Y131709D01*
X768898Y129921D02*
X774016D01*
X770197Y131709D02*
X785119D01*
X768110Y133796D02*
Y138189D01*
X765354Y122244D02*
Y130910D01*
Y110236D02*
Y122244D01*
X775591D02*
Y128347D01*
X785827Y122244D02*
Y131001D01*
X785119Y131709D02*
X785827Y131001D01*
X775591Y108268D02*
Y122244D01*
X774016Y129921D02*
X775591Y128347D01*
X785827Y107874D02*
Y122244D01*
X779528Y99587D02*
Y104331D01*
X788189Y99587D02*
Y105512D01*
X790158Y131890D02*
Y138189D01*
X796063Y122244D02*
Y125984D01*
X790158Y131890D02*
X796063Y125984D01*
X812205Y131890D02*
Y138189D01*
X806299Y122244D02*
Y125984D01*
X812205Y131890D01*
X866142Y78740D02*
Y88602D01*
X857480Y78740D02*
Y88602D01*
X848819Y78740D02*
Y88602D01*
X840158Y78740D02*
Y88602D01*
X831496Y78740D02*
Y88602D01*
X822835Y78740D02*
Y88602D01*
X822835Y88602D01*
X814173Y78740D02*
Y88602D01*
X805512Y78740D02*
Y88602D01*
X796850Y78740D02*
Y88602D01*
X788189Y78740D02*
Y88602D01*
X788189Y88602D01*
X779528Y78740D02*
Y88602D01*
X770866Y78740D02*
Y88602D01*
X762205Y78740D02*
Y88602D01*
X753543Y88602D02*
X753543Y88602D01*
X753543Y78740D02*
Y88602D01*
X744882Y78740D02*
Y88602D01*
X736221Y78740D02*
Y88602D01*
X825984Y131890D02*
X832283D01*
X834229Y133835D02*
Y138166D01*
X832283Y131890D02*
X834229Y133835D01*
X821721Y127627D02*
X825984Y131890D01*
X816535Y122244D02*
Y125591D01*
Y107087D02*
Y122244D01*
X818572Y127627D02*
X821721D01*
X816535Y125591D02*
X818572Y127627D01*
X814173Y99587D02*
Y104724D01*
Y99567D02*
Y99587D01*
X875191Y131884D02*
X878347Y135039D01*
X847632Y131884D02*
X875191D01*
X878347Y135039D02*
Y138189D01*
X831496Y99587D02*
Y104724D01*
Y99567D02*
Y99587D01*
X922441Y133071D02*
Y138189D01*
X859661Y127772D02*
X917142D01*
X922441Y133071D01*
X847244Y125591D02*
X851575Y129921D01*
X897638D01*
X843551Y127803D02*
X847632Y131884D01*
X839614Y127803D02*
X843551D01*
X837008Y122244D02*
X837036Y122273D01*
Y125225D01*
X839614Y127803D01*
X837008Y110236D02*
Y122244D01*
X826800Y125225D02*
X831496Y129921D01*
X842313D02*
X846063Y133672D01*
X831496Y129921D02*
X842313D01*
X856299Y134257D02*
Y138189D01*
X846063Y133672D02*
X855713D01*
X856299Y134257D01*
X826772Y122244D02*
X826800Y122273D01*
Y125225D01*
X822835Y99587D02*
Y104724D01*
Y99567D02*
Y99587D01*
X826772Y108661D02*
Y122244D01*
X857480Y125591D02*
X859661Y127772D01*
X867717Y109803D02*
Y122244D01*
X867745Y122273D02*
Y125225D01*
X868504Y125984D02*
X941732D01*
X867745Y125225D02*
X868504Y125984D01*
X867717Y122244D02*
X867745Y122273D01*
X941732Y125984D02*
X944488Y128740D01*
X897638Y129921D02*
X900394Y132677D01*
X944488Y128740D02*
Y138189D01*
X966535Y134252D02*
Y138189D01*
X877953Y122244D02*
X954528D01*
X966535Y134252D01*
X862389Y223413D02*
X866373D01*
X860630Y221654D02*
X862389Y223413D01*
X866373D02*
X866386Y223425D01*
X860630Y211100D02*
Y221654D01*
X861614Y225394D02*
X866386D01*
X857087Y220866D02*
X861614Y225394D01*
X855118Y221654D02*
X860827Y227362D01*
X866386D01*
X860039Y229331D02*
X866386D01*
X853150Y222441D02*
X860039Y229331D01*
X858465Y233268D02*
X866386D01*
X857677Y235236D02*
X866386D01*
X845612Y223171D02*
X857677Y235236D01*
X845049Y221260D02*
X845612Y221823D01*
Y223171D01*
X856890Y237205D02*
X866386D01*
X844488Y227559D02*
X845276D01*
X845839Y228122D01*
Y228122D01*
X848425Y230709D01*
X853555Y245079D02*
X866386D01*
X845276Y233858D02*
X848454Y237036D01*
X848130Y248031D02*
X849114Y249016D01*
X866386D01*
X851892Y202362D02*
X860630Y211100D01*
X836614Y202362D02*
X851892D01*
X844488Y208661D02*
X845051Y209224D01*
X836614Y208661D02*
X844488D01*
X836614Y227559D02*
X844488D01*
X836614Y214961D02*
X844488D01*
X846457Y248031D02*
X848130D01*
X836614Y208661D02*
X836614Y208661D01*
X836614Y233858D02*
X836614Y233858D01*
X908514Y209596D02*
Y211565D01*
Y209596D02*
X908661Y209449D01*
X906843Y213236D02*
X908514Y211565D01*
X900197Y207677D02*
Y213236D01*
X902165Y208858D02*
Y213236D01*
Y208858D02*
X911024Y200000D01*
Y194882D02*
Y200000D01*
X904724Y194882D02*
Y199606D01*
X898228Y206102D02*
Y213236D01*
Y206102D02*
X904724Y199606D01*
X892323Y202953D02*
Y213236D01*
X890354Y202165D02*
Y213236D01*
X866929Y194882D02*
Y200394D01*
X874606Y208071D01*
X977559Y144488D02*
Y161811D01*
X990551Y150000D02*
Y193307D01*
X900197Y247047D02*
X902165Y249016D01*
Y259205D01*
X900197Y247047D02*
X912354D01*
X902362Y266929D02*
Y267717D01*
X904134Y259205D02*
X909598D01*
X911417Y261024D01*
Y261811D01*
X919946Y231299D02*
X920143Y231496D01*
X912354Y231299D02*
X919946D01*
X920143Y231496D02*
X925591D01*
X922835Y226378D02*
X925591D01*
X912354Y229331D02*
X919882D01*
X922835Y226378D01*
X917323Y202756D02*
Y207874D01*
X912598Y212598D02*
X917323Y207874D01*
X912598Y212598D02*
Y220869D01*
X867717Y210236D02*
Y220972D01*
X900394Y132677D02*
Y138189D01*
X877953Y110433D02*
Y122244D01*
X860524Y101665D02*
Y102610D01*
X867717Y109803D01*
X858425Y99567D02*
X860524Y101665D01*
X753200Y99930D02*
Y103099D01*
X744882Y111417D02*
X753200Y103099D01*
Y99930D02*
X753543Y99587D01*
X755118Y110236D02*
X762205Y103150D01*
X765354Y110236D02*
X770866Y104724D01*
X775591Y108268D02*
X779528Y104331D01*
X785827Y107874D02*
X788189Y105512D01*
X796063Y107874D02*
X796850Y107087D01*
X796063Y107874D02*
Y122244D01*
X806299Y107480D02*
Y122244D01*
X805512Y106693D02*
X806299Y107480D01*
X814173Y104724D02*
X816535Y107087D01*
X822835Y104724D02*
X826772Y108661D01*
X831496Y104724D02*
X837008Y110236D01*
X849213Y103150D02*
X857480Y111417D01*
X849213Y99980D02*
Y103150D01*
X848819Y99587D02*
X849213Y99980D01*
X840158Y103543D02*
X847244Y110630D01*
X724409Y110433D02*
X735276Y99567D01*
X724409Y110433D02*
Y122244D01*
X741839Y101665D02*
X743937Y99567D01*
X741839Y101665D02*
Y102610D01*
X867087Y99567D02*
X877953Y110433D01*
X666929Y194882D02*
X684252D01*
X659449Y204331D02*
X659457Y204322D01*
Y202354D02*
X666929Y194882D01*
X659457Y202354D02*
Y204322D01*
X673228Y204724D02*
X682890Y214386D01*
Y222575D01*
X684252Y194882D02*
Y195669D01*
X685215Y196632D01*
Y222372D01*
X672835Y210630D02*
X681102Y218898D01*
Y223622D01*
X684842Y227362D01*
X685215Y222372D02*
X686177Y223335D01*
X682890Y222575D02*
X685618Y225303D01*
X686177Y223335D02*
X689917D01*
Y225303D02*
X690008Y225394D01*
X689917Y223335D02*
X690008Y223425D01*
X685618Y225303D02*
X689917D01*
X667323Y210630D02*
X672835D01*
X684842Y227362D02*
X690008D01*
X682087Y233268D02*
X690008D01*
X679724Y237205D02*
X690008D01*
X679001Y250000D02*
X679985Y249016D01*
X684055Y250984D02*
X690008D01*
X679134Y255906D02*
X684055Y250984D01*
X679985Y249016D02*
X690008D01*
X669291Y250000D02*
X679001D01*
X690067Y221457D02*
X690158Y221366D01*
Y210630D02*
Y221366D01*
X690008Y221457D02*
X690067D01*
X700197Y206102D02*
Y213236D01*
X696850Y202756D02*
X700197Y206102D01*
X690551Y200331D02*
X698228Y208008D01*
Y213236D01*
X696850Y198819D02*
X702165Y204134D01*
X696850Y194882D02*
Y198819D01*
X690551Y194882D02*
Y200331D01*
X702165Y204134D02*
Y213236D01*
X710039Y204417D02*
Y213236D01*
Y204417D02*
X710047Y204409D01*
X707980Y213146D02*
X708071Y213236D01*
X715748Y187008D02*
Y194882D01*
X713976Y213236D02*
X713992Y213221D01*
X734646Y187008D02*
Y194882D01*
X731646Y213236D02*
X734252Y210630D01*
X727756Y213236D02*
X731646D01*
X740945Y202756D02*
Y208661D01*
Y194882D02*
Y202756D01*
X735976Y213630D02*
X740945Y208661D01*
X747244Y202756D02*
Y220079D01*
X742126Y216535D02*
X744095Y214567D01*
X742126Y216535D02*
Y222047D01*
X740748Y223425D02*
X742126Y222047D01*
X735976Y223425D02*
X740748D01*
X735989Y225381D02*
X741942D01*
X735976Y225394D02*
X735989Y225381D01*
X679134Y255906D02*
Y261811D01*
X659449Y210630D02*
X667323D01*
X703150Y194882D02*
X703150Y194882D01*
X728346Y187008D02*
Y194882D01*
X728346Y194882D01*
X735976Y213630D02*
Y221457D01*
X741942Y225381D02*
X747244Y220079D01*
X723819Y259205D02*
Y266339D01*
X724409Y266929D01*
Y267717D01*
X727756Y259752D02*
X727846Y259842D01*
X734252D01*
X727756Y259205D02*
Y259752D01*
X735976Y250984D02*
X741142D01*
X744095Y253937D01*
X735976Y231299D02*
X749803D01*
X750000Y231102D01*
X743107Y229331D02*
X746454Y225984D01*
X750000D01*
X735976Y229331D02*
X743107D01*
X744095Y240945D02*
X750000D01*
X741929Y243110D02*
X744095Y240945D01*
X735976Y243110D02*
X741929D01*
X735976Y245079D02*
X743898D01*
X744882Y246063D02*
X750000D01*
X743898Y245079D02*
X744882Y246063D01*
X723819Y247047D02*
X735976D01*
X744291Y249016D02*
X746457Y251181D01*
X735976Y249016D02*
X744291D01*
X746457Y251181D02*
X750000D01*
X22835Y309842D02*
X23622Y309055D01*
X18406Y309842D02*
X22835D01*
X372047Y161417D02*
X376922D01*
X379528Y154331D02*
Y154724D01*
X423079Y175295D02*
X431004D01*
X446850Y139764D02*
X448819Y141732D01*
X454181D01*
X448819Y138976D02*
X449606Y139764D01*
X454181D01*
X448819Y133858D02*
Y138976D01*
X446850Y125984D02*
Y139764D01*
Y125984D02*
X452756Y120079D01*
X457480D01*
X450787Y131890D02*
X457480D01*
X448819Y133858D02*
X450787Y131890D01*
X440158Y133858D02*
X442913D01*
X444882Y135827D01*
Y141732D01*
X446850Y143701D01*
X454181D01*
X441339Y145669D02*
X454181D01*
X440158Y144488D02*
X441339Y145669D01*
X440158Y143701D02*
Y144488D01*
X384890Y139764D02*
X389178D01*
X389764Y139178D01*
X388583Y131890D02*
Y135358D01*
X389764Y136539D01*
Y139178D01*
X383858Y120079D02*
X388583D01*
X379921Y124016D02*
X383858Y120079D01*
X376006Y133240D02*
X378059Y135293D01*
Y141839D01*
X381059Y141642D02*
X384799D01*
X379921Y124016D02*
Y140504D01*
X384799Y141642D02*
X384890Y141732D01*
X379921Y140504D02*
X381059Y141642D01*
X375197Y131890D02*
Y132677D01*
X375760Y133240D01*
X376006D01*
X378059Y141839D02*
X379921Y143701D01*
X384890D01*
X376378Y145669D02*
X384890D01*
X375197Y144488D02*
X376378Y145669D01*
X375197Y143701D02*
Y144488D01*
X413386Y141732D02*
X415354Y139764D01*
X408811Y141732D02*
X413386D01*
X411417Y120079D02*
X415354Y124016D01*
Y139764D01*
X406693Y120079D02*
X411417D01*
X412810Y139753D02*
X413396Y139168D01*
X408811Y139764D02*
X408821Y139753D01*
X413396Y133868D02*
Y139168D01*
X408821Y139753D02*
X412810D01*
X411417Y131890D02*
X413396Y133868D01*
X406693Y131890D02*
X411417D01*
X419291Y129921D02*
X422047D01*
X417323Y131890D02*
X419291Y129921D01*
X417323Y131890D02*
Y141732D01*
X408811Y143701D02*
X415354D01*
X417323Y141732D01*
X420579Y143201D02*
X420972D01*
X408811Y145669D02*
X418110D01*
X422047Y141732D02*
Y142126D01*
X420972Y143201D02*
X422047Y142126D01*
X418110Y145669D02*
X420579Y143201D01*
X379528Y154331D02*
X380315Y153543D01*
X440465Y177791D02*
X450358D01*
X440402Y177854D02*
X440465Y177791D01*
X450358D02*
X450984Y177165D01*
X440945Y156693D02*
X448032D01*
X448819Y157480D01*
X454181D01*
X446850Y185039D02*
X450787D01*
X458661Y177362D02*
Y185039D01*
X458465Y177165D02*
X458661Y177362D01*
X381890Y177165D02*
Y184843D01*
X382087Y185039D01*
X440402Y175295D02*
Y177854D01*
X423079D02*
Y180413D01*
X492913Y139764D02*
Y142913D01*
X478102Y145669D02*
X490158D01*
X492913Y142913D01*
X486221Y143701D02*
X488189Y141732D01*
X478102Y143701D02*
X486221D01*
X488189Y133071D02*
Y141732D01*
X486221Y127165D02*
Y139611D01*
X479650Y120595D02*
X486221Y127165D01*
X484009Y141823D02*
X486221Y139611D01*
X478193Y141823D02*
X484009D01*
X482283Y139764D02*
X484056Y137992D01*
Y133268D02*
Y137992D01*
X476107Y120595D02*
X479650D01*
X478102Y141732D02*
X478193Y141823D01*
X475591Y120079D02*
X476107Y120595D01*
X482677Y131890D02*
X484056Y133268D01*
X478102Y139764D02*
X482283D01*
X475591Y131890D02*
X482677D01*
X492913Y127953D02*
Y128347D01*
X488189Y133071D02*
X492913Y128347D01*
X478102Y147638D02*
X496307D01*
X447638Y160630D02*
X448819Y159449D01*
X440945Y160630D02*
X447638D01*
X448819Y159449D02*
X454181D01*
X408811Y147638D02*
X427165D01*
X331102Y139606D02*
X341102D01*
X344094Y136614D02*
X360236D01*
X341102Y139606D02*
X344094Y136614D01*
X374606Y94095D02*
Y112795D01*
X375197Y113386D02*
Y125984D01*
X374606Y112795D02*
X375197Y113386D01*
X388583Y109449D02*
Y114173D01*
X384449Y105315D02*
X388583Y109449D01*
X384449Y94095D02*
Y105315D01*
X406693Y109449D02*
X409252Y106890D01*
X406693Y109449D02*
Y114173D01*
X409252Y94095D02*
Y106890D01*
X419095Y94095D02*
Y113189D01*
X422047Y116142D02*
Y124016D01*
X419095Y113189D02*
X422047Y116142D01*
X440158Y116929D02*
Y129134D01*
Y116929D02*
X443898Y113189D01*
Y94095D02*
Y113189D01*
X457480Y107825D02*
Y114173D01*
X453740Y104084D02*
X457480Y107825D01*
X453740Y94095D02*
Y104084D01*
X475591Y109449D02*
Y114173D01*
X478543Y94095D02*
Y106496D01*
X475591Y109449D02*
X478543Y106496D01*
X488386Y94095D02*
Y109646D01*
X492913Y114173D01*
Y122047D01*
X401968Y159449D02*
X408811D01*
X401181Y158661D02*
X401968Y159449D01*
X401181Y149606D02*
X408811D01*
X471260Y157874D02*
X472835Y159449D01*
X478102D01*
X470866Y149606D02*
X478102D01*
X454181Y155512D02*
X461417D01*
X454181Y161417D02*
X461417D01*
X326772Y183071D02*
X330709D01*
X331102Y182677D01*
X335039D01*
X338583D02*
X339764Y181496D01*
X338583Y175197D02*
X339764Y176378D01*
Y181496D01*
X335039Y182677D02*
X338583D01*
X335039Y175197D02*
X338583D01*
X372047Y157480D02*
X384890D01*
X384890Y157480D01*
X380315Y153543D02*
X384890D01*
X376772Y152756D02*
X377034D01*
X378215Y151575D02*
X384890D01*
X377034Y152756D02*
X378215Y151575D01*
X391732Y149606D02*
Y154724D01*
X384890Y155512D02*
X390945D01*
X391732Y154724D01*
X378891Y159449D02*
X384890D01*
X376922Y161417D02*
X378891Y159449D01*
X390158Y161417D02*
X391585Y162845D01*
X384890Y161417D02*
X390158D01*
X391585Y162845D02*
Y165207D01*
X391732Y165354D01*
X404373Y161417D02*
X408811D01*
X474058D02*
X478102D01*
X473472Y162003D02*
Y171260D01*
Y162003D02*
X474058Y161417D01*
D18*
X454181Y165354D02*
D03*
Y163386D02*
D03*
Y161417D02*
D03*
Y159449D02*
D03*
Y157480D02*
D03*
Y155512D02*
D03*
Y153543D02*
D03*
Y151575D02*
D03*
Y149606D02*
D03*
Y147638D02*
D03*
Y145669D02*
D03*
Y143701D02*
D03*
Y141732D02*
D03*
Y139764D02*
D03*
Y137795D02*
D03*
X478102D02*
D03*
Y139764D02*
D03*
Y141732D02*
D03*
Y143701D02*
D03*
Y145669D02*
D03*
Y147638D02*
D03*
Y149606D02*
D03*
Y151575D02*
D03*
Y153543D02*
D03*
Y155512D02*
D03*
Y157480D02*
D03*
Y159449D02*
D03*
Y161417D02*
D03*
Y163386D02*
D03*
Y165354D02*
D03*
X735976Y250984D02*
D03*
Y249016D02*
D03*
Y247047D02*
D03*
Y245079D02*
D03*
Y243110D02*
D03*
Y241142D02*
D03*
Y239173D02*
D03*
Y237205D02*
D03*
Y235236D02*
D03*
Y233268D02*
D03*
Y231299D02*
D03*
Y229331D02*
D03*
Y227362D02*
D03*
Y225394D02*
D03*
Y223425D02*
D03*
Y221457D02*
D03*
X690008D02*
D03*
Y223425D02*
D03*
Y225394D02*
D03*
Y227362D02*
D03*
Y229331D02*
D03*
Y231299D02*
D03*
Y233268D02*
D03*
Y235236D02*
D03*
Y237205D02*
D03*
Y239173D02*
D03*
Y241142D02*
D03*
Y243110D02*
D03*
Y245079D02*
D03*
Y247047D02*
D03*
Y249016D02*
D03*
Y250984D02*
D03*
X912354D02*
D03*
Y249016D02*
D03*
Y247047D02*
D03*
Y245079D02*
D03*
Y243110D02*
D03*
Y241142D02*
D03*
Y239173D02*
D03*
Y237205D02*
D03*
Y235236D02*
D03*
Y233268D02*
D03*
Y231299D02*
D03*
Y229331D02*
D03*
Y227362D02*
D03*
Y225394D02*
D03*
Y223425D02*
D03*
Y221457D02*
D03*
X866386D02*
D03*
Y223425D02*
D03*
Y225394D02*
D03*
Y227362D02*
D03*
Y229331D02*
D03*
Y231299D02*
D03*
Y233268D02*
D03*
Y235236D02*
D03*
Y237205D02*
D03*
Y239173D02*
D03*
Y241142D02*
D03*
Y243110D02*
D03*
Y245079D02*
D03*
Y247047D02*
D03*
Y249016D02*
D03*
Y250984D02*
D03*
X408811Y165354D02*
D03*
Y163386D02*
D03*
Y161417D02*
D03*
Y159449D02*
D03*
Y157480D02*
D03*
Y155512D02*
D03*
Y153543D02*
D03*
Y151575D02*
D03*
Y149606D02*
D03*
Y147638D02*
D03*
Y145669D02*
D03*
Y143701D02*
D03*
Y141732D02*
D03*
Y139764D02*
D03*
Y137795D02*
D03*
X384890D02*
D03*
Y139764D02*
D03*
Y141732D02*
D03*
Y143701D02*
D03*
Y145669D02*
D03*
Y147638D02*
D03*
Y149606D02*
D03*
Y151575D02*
D03*
Y153543D02*
D03*
Y155512D02*
D03*
Y157480D02*
D03*
Y159449D02*
D03*
Y161417D02*
D03*
Y163386D02*
D03*
Y165354D02*
D03*
D19*
X18406Y320079D02*
D03*
Y317520D02*
D03*
Y314961D02*
D03*
Y312402D02*
D03*
Y309842D02*
D03*
D20*
X7874Y330512D02*
D03*
Y319685D02*
D03*
Y310236D02*
D03*
Y299410D02*
D03*
D21*
X40256Y209035D02*
D03*
Y214035D02*
D03*
Y219035D02*
D03*
Y224035D02*
D03*
X18799D02*
D03*
Y219035D02*
D03*
Y214035D02*
D03*
Y209035D02*
D03*
D22*
X155138Y239075D02*
D03*
X150138D02*
D03*
X145138D02*
D03*
X140138D02*
D03*
Y217618D02*
D03*
X145138D02*
D03*
X150138D02*
D03*
X155138D02*
D03*
D23*
X258957Y56870D02*
D03*
Y51870D02*
D03*
Y46870D02*
D03*
Y41870D02*
D03*
Y36870D02*
D03*
Y31870D02*
D03*
Y26870D02*
D03*
Y21870D02*
D03*
X296161D02*
D03*
Y26870D02*
D03*
Y31870D02*
D03*
Y36870D02*
D03*
Y41870D02*
D03*
Y46870D02*
D03*
Y51870D02*
D03*
Y56870D02*
D03*
X258957Y115925D02*
D03*
Y110925D02*
D03*
Y105925D02*
D03*
Y100925D02*
D03*
Y95925D02*
D03*
Y90925D02*
D03*
Y85925D02*
D03*
Y80925D02*
D03*
X296161D02*
D03*
Y85925D02*
D03*
Y90925D02*
D03*
Y95925D02*
D03*
Y100925D02*
D03*
Y105925D02*
D03*
Y110925D02*
D03*
Y115925D02*
D03*
X546161Y258090D02*
D03*
Y263090D02*
D03*
Y268091D02*
D03*
Y273091D02*
D03*
Y278091D02*
D03*
Y283090D02*
D03*
Y288090D02*
D03*
Y293091D02*
D03*
X508957D02*
D03*
Y288090D02*
D03*
Y283090D02*
D03*
Y278091D02*
D03*
Y273091D02*
D03*
Y268091D02*
D03*
Y263090D02*
D03*
Y258090D02*
D03*
D24*
X367126Y94095D02*
D03*
X374606D02*
D03*
X370866Y102756D02*
D03*
X384449Y94095D02*
D03*
X391929D02*
D03*
X388189Y102756D02*
D03*
X401772Y94095D02*
D03*
X409252D02*
D03*
X405512Y102756D02*
D03*
X419095Y94095D02*
D03*
X426575D02*
D03*
X422835Y102756D02*
D03*
X436417Y94095D02*
D03*
X443898D02*
D03*
X440158Y102756D02*
D03*
X453740Y94095D02*
D03*
X461221D02*
D03*
X457480Y102756D02*
D03*
X471063Y94095D02*
D03*
X478543D02*
D03*
X474803Y102756D02*
D03*
X488386Y94095D02*
D03*
X495866D02*
D03*
X492126Y102756D02*
D03*
D25*
X637795Y229921D02*
D03*
Y246063D02*
D03*
X814961Y227953D02*
D03*
Y244094D02*
D03*
D26*
X724409Y122244D02*
D03*
X726968Y113976D02*
D03*
X721850D02*
D03*
X734646Y122244D02*
D03*
X737205Y113976D02*
D03*
X732087D02*
D03*
X744882Y122244D02*
D03*
X747441Y113976D02*
D03*
X742323D02*
D03*
X755118Y122244D02*
D03*
X757677Y113976D02*
D03*
X752559D02*
D03*
X765354Y122244D02*
D03*
X767913Y113976D02*
D03*
X762795D02*
D03*
X775591Y122244D02*
D03*
X778150Y113976D02*
D03*
X773032D02*
D03*
X785827Y122244D02*
D03*
X788386Y113976D02*
D03*
X783268D02*
D03*
X796063Y122244D02*
D03*
X798622Y113976D02*
D03*
X793504D02*
D03*
X806299Y122244D02*
D03*
X808858Y113976D02*
D03*
X803740D02*
D03*
X816535Y122244D02*
D03*
X819094Y113976D02*
D03*
X813976D02*
D03*
X826772Y122244D02*
D03*
X829331Y113976D02*
D03*
X824213D02*
D03*
X837008Y122244D02*
D03*
X839567Y113976D02*
D03*
X834449D02*
D03*
X847244Y122244D02*
D03*
X849803Y113976D02*
D03*
X844685D02*
D03*
X857480Y122244D02*
D03*
X860039Y113976D02*
D03*
X854921D02*
D03*
X867717Y122244D02*
D03*
X870276Y113976D02*
D03*
X865158D02*
D03*
X877953Y122244D02*
D03*
X880512Y113976D02*
D03*
X875394D02*
D03*
D27*
X62992Y236024D02*
D03*
Y228543D02*
D03*
X53150Y43110D02*
D03*
Y35630D02*
D03*
X141732Y54921D02*
D03*
Y47441D02*
D03*
X190945D02*
D03*
Y54921D02*
D03*
X192913Y245866D02*
D03*
Y238386D02*
D03*
X179134Y35630D02*
D03*
Y43110D02*
D03*
X153543Y35630D02*
D03*
Y43110D02*
D03*
X206693Y291339D02*
D03*
Y283858D02*
D03*
X194882Y291339D02*
D03*
Y283858D02*
D03*
X183071Y291339D02*
D03*
Y283858D02*
D03*
X316496Y176575D02*
D03*
Y184055D02*
D03*
X279528Y346457D02*
D03*
Y353937D02*
D03*
X200787Y346457D02*
D03*
Y353937D02*
D03*
X15748Y153740D02*
D03*
Y161221D02*
D03*
Y141535D02*
D03*
Y134055D02*
D03*
X206693Y305512D02*
D03*
Y298031D02*
D03*
X194882Y305118D02*
D03*
Y297638D02*
D03*
X183071Y305118D02*
D03*
Y297638D02*
D03*
X316496Y161221D02*
D03*
Y168701D02*
D03*
X289370Y353937D02*
D03*
Y346457D02*
D03*
X210630Y353937D02*
D03*
Y346457D02*
D03*
D28*
X352457Y154606D02*
D03*
Y149606D02*
D03*
Y144606D02*
D03*
Y139606D02*
D03*
X331102D02*
D03*
Y144606D02*
D03*
Y149606D02*
D03*
Y154606D02*
D03*
D29*
X833071Y259842D02*
D03*
X840551D02*
D03*
X655905Y261811D02*
D03*
X663386D02*
D03*
X389567Y185039D02*
D03*
X382087D02*
D03*
X450984Y177165D02*
D03*
X458465D02*
D03*
D30*
X812205Y150000D02*
D03*
Y138189D02*
D03*
X834252Y150000D02*
D03*
Y138189D02*
D03*
X856299Y150000D02*
D03*
Y138189D02*
D03*
X878347Y150000D02*
D03*
Y138189D02*
D03*
X900394Y150000D02*
D03*
Y138189D02*
D03*
X922441Y150000D02*
D03*
Y138189D02*
D03*
X944488Y150000D02*
D03*
Y138189D02*
D03*
X966535Y150000D02*
D03*
Y138189D02*
D03*
X635827Y150000D02*
D03*
Y138189D02*
D03*
X657874Y150000D02*
D03*
Y138189D02*
D03*
X679921Y150000D02*
D03*
Y138189D02*
D03*
X701968Y150000D02*
D03*
Y138189D02*
D03*
X724016Y150000D02*
D03*
Y138189D02*
D03*
X746063Y150000D02*
D03*
Y138189D02*
D03*
X768110Y150000D02*
D03*
Y138189D02*
D03*
X790158Y150000D02*
D03*
Y138189D02*
D03*
X990551D02*
D03*
Y150000D02*
D03*
D31*
X801181Y144488D02*
D03*
Y138189D02*
D03*
X823228Y144488D02*
D03*
Y138189D02*
D03*
X845276Y144488D02*
D03*
Y138189D02*
D03*
X867323Y144488D02*
D03*
Y138189D02*
D03*
X889370Y144488D02*
D03*
Y138189D02*
D03*
X911417Y144488D02*
D03*
Y138189D02*
D03*
X933465Y144488D02*
D03*
Y138189D02*
D03*
X955512Y144488D02*
D03*
Y138189D02*
D03*
X977559Y144488D02*
D03*
Y138189D02*
D03*
X624803Y144488D02*
D03*
Y138189D02*
D03*
X646850Y144488D02*
D03*
Y138189D02*
D03*
X668898Y144488D02*
D03*
Y138189D02*
D03*
X690945Y144488D02*
D03*
Y138189D02*
D03*
X712992Y144488D02*
D03*
Y138189D02*
D03*
X735039Y144488D02*
D03*
Y138189D02*
D03*
X757087Y144488D02*
D03*
Y138189D02*
D03*
X779134Y144488D02*
D03*
Y138189D02*
D03*
D32*
X368898Y137795D02*
D03*
X375197D02*
D03*
X368898Y125984D02*
D03*
X375197D02*
D03*
X394882Y120079D02*
D03*
X388583D02*
D03*
X394882Y131890D02*
D03*
X388583D02*
D03*
X400394Y125984D02*
D03*
X406693D02*
D03*
X400394Y114173D02*
D03*
X406693D02*
D03*
X428346Y129921D02*
D03*
X422047D02*
D03*
X428346Y141732D02*
D03*
X422047D02*
D03*
X433858Y138976D02*
D03*
X440158D02*
D03*
X433858Y129134D02*
D03*
X440158D02*
D03*
X463779Y120079D02*
D03*
X457480D02*
D03*
X463779Y131890D02*
D03*
X457480D02*
D03*
X469291Y125984D02*
D03*
X475591D02*
D03*
X469291Y114173D02*
D03*
X475591D02*
D03*
X499213Y127953D02*
D03*
X492913D02*
D03*
X499213Y139764D02*
D03*
X492913D02*
D03*
D33*
X688976Y318110D02*
D03*
Y300000D02*
D03*
X862205Y318110D02*
D03*
Y300000D02*
D03*
D34*
X717717Y318898D02*
D03*
X699606D02*
D03*
X890945D02*
D03*
X872835D02*
D03*
D35*
X767717Y312992D02*
D03*
X740158D02*
D03*
X917323D02*
D03*
X944882D02*
D03*
D36*
X776717Y286811D02*
D03*
X758716D02*
D03*
X749157D02*
D03*
X731157D02*
D03*
X926323D02*
D03*
X908323D02*
D03*
X953882D02*
D03*
X935882D02*
D03*
D37*
X257402Y145472D02*
D03*
X287402D02*
D03*
Y185236D02*
D03*
X257402D02*
D03*
X267402Y145472D02*
D03*
D38*
X440402Y175295D02*
D03*
Y177854D02*
D03*
Y180413D02*
D03*
Y182972D02*
D03*
X423079D02*
D03*
Y180413D02*
D03*
Y177854D02*
D03*
Y175295D02*
D03*
D39*
X344882Y182677D02*
D03*
Y175197D02*
D03*
X335039D02*
D03*
Y178937D02*
D03*
Y182677D02*
D03*
X255906Y324803D02*
D03*
Y317323D02*
D03*
X246063D02*
D03*
Y321063D02*
D03*
Y324803D02*
D03*
D40*
X736221Y99587D02*
D03*
Y88602D02*
D03*
X744882Y99587D02*
D03*
Y88602D02*
D03*
X753543Y99587D02*
D03*
Y88602D02*
D03*
X762205Y99587D02*
D03*
Y88602D02*
D03*
X770866Y99587D02*
D03*
Y88602D02*
D03*
X779528Y99587D02*
D03*
Y88602D02*
D03*
X788189Y99587D02*
D03*
Y88602D02*
D03*
X796850Y99587D02*
D03*
Y88602D02*
D03*
X805512Y99587D02*
D03*
Y88602D02*
D03*
X814173Y99587D02*
D03*
Y88602D02*
D03*
X822835Y99587D02*
D03*
Y88602D02*
D03*
X831496Y99587D02*
D03*
Y88602D02*
D03*
X840158Y99587D02*
D03*
Y88602D02*
D03*
X848819Y99587D02*
D03*
Y88602D02*
D03*
X857480Y99587D02*
D03*
Y88602D02*
D03*
X866142Y99587D02*
D03*
Y88602D02*
D03*
D41*
X161811Y381890D02*
D03*
X177953D02*
D03*
D42*
X856299Y259842D02*
D03*
X864173D02*
D03*
X679134Y261811D02*
D03*
X687008D02*
D03*
X381890Y177165D02*
D03*
X389764D02*
D03*
X458661Y185039D02*
D03*
X450787D02*
D03*
X427393Y188999D02*
D03*
X435267D02*
D03*
X395913Y171260D02*
D03*
X403787D02*
D03*
X465598D02*
D03*
X473472D02*
D03*
X259842Y124016D02*
D03*
X267717D02*
D03*
X295276D02*
D03*
X287402D02*
D03*
X33465Y232283D02*
D03*
X25591D02*
D03*
X295276Y64961D02*
D03*
X287402D02*
D03*
X259842D02*
D03*
X267717D02*
D03*
X547244Y248031D02*
D03*
X539370D02*
D03*
X507874D02*
D03*
X515748D02*
D03*
D43*
X846457Y255906D02*
D03*
Y248031D02*
D03*
X669291Y257874D02*
D03*
Y250000D02*
D03*
X200787Y246063D02*
D03*
Y238189D02*
D03*
X171260Y35433D02*
D03*
Y43307D02*
D03*
X161417Y35433D02*
D03*
Y43307D02*
D03*
X372047Y161417D02*
D03*
Y169291D02*
D03*
X440945Y160630D02*
D03*
Y168504D02*
D03*
X360236Y144488D02*
D03*
Y136614D02*
D03*
X321260Y141732D02*
D03*
Y149606D02*
D03*
X427165Y147638D02*
D03*
Y155512D02*
D03*
X496307Y147638D02*
D03*
Y155512D02*
D03*
X372047Y149606D02*
D03*
Y157480D02*
D03*
X440945Y148819D02*
D03*
Y156693D02*
D03*
X131890Y232283D02*
D03*
Y224410D02*
D03*
X352362Y183071D02*
D03*
Y175197D02*
D03*
X326772Y183071D02*
D03*
Y175197D02*
D03*
X305118Y169291D02*
D03*
Y161417D02*
D03*
X240158Y169291D02*
D03*
Y161417D02*
D03*
X263779Y324803D02*
D03*
Y316929D02*
D03*
X209449Y374016D02*
D03*
Y366142D02*
D03*
X236221Y324803D02*
D03*
Y316929D02*
D03*
X274410Y374016D02*
D03*
Y366142D02*
D03*
D44*
X844488Y233858D02*
D03*
Y240158D02*
D03*
X836614Y227559D02*
D03*
Y233858D02*
D03*
X844488Y221260D02*
D03*
Y227559D02*
D03*
X836614Y214961D02*
D03*
Y221260D02*
D03*
X844488Y208661D02*
D03*
Y214961D02*
D03*
X836614Y202362D02*
D03*
Y208661D02*
D03*
X667323Y235827D02*
D03*
Y242126D02*
D03*
X659449Y229528D02*
D03*
Y235827D02*
D03*
X667323Y223228D02*
D03*
Y229528D02*
D03*
X659449Y216929D02*
D03*
Y223228D02*
D03*
X667323Y210630D02*
D03*
Y216929D02*
D03*
X659449Y204331D02*
D03*
Y210630D02*
D03*
D45*
X866929Y194882D02*
D03*
X860630D02*
D03*
X873228Y187008D02*
D03*
X866929D02*
D03*
X879528Y194882D02*
D03*
X873228D02*
D03*
X885827Y187008D02*
D03*
X879527D02*
D03*
X892126Y194882D02*
D03*
X885827D02*
D03*
X898425Y187008D02*
D03*
X892126D02*
D03*
X904724Y194882D02*
D03*
X898425D02*
D03*
X911024Y187008D02*
D03*
X904724D02*
D03*
X917323Y194882D02*
D03*
X911024D02*
D03*
X923622Y202756D02*
D03*
X917323D02*
D03*
X930709D02*
D03*
X937008D02*
D03*
X690551Y194882D02*
D03*
X684252D02*
D03*
X696850Y187008D02*
D03*
X690551D02*
D03*
X703150Y194882D02*
D03*
X696850D02*
D03*
X709449Y187008D02*
D03*
X703150D02*
D03*
X715748Y194882D02*
D03*
X709449D02*
D03*
X722047Y187008D02*
D03*
X715748D02*
D03*
X728346Y194882D02*
D03*
X722047D02*
D03*
X734646Y187008D02*
D03*
X728346D02*
D03*
X740945Y194882D02*
D03*
X734646D02*
D03*
X747244Y202756D02*
D03*
X740945D02*
D03*
X368898Y143701D02*
D03*
X375197D02*
D03*
X368898Y131890D02*
D03*
X375197D02*
D03*
X394882Y114173D02*
D03*
X388583D02*
D03*
X394882Y126378D02*
D03*
X388583D02*
D03*
X400394Y131890D02*
D03*
X406693D02*
D03*
X400394Y120079D02*
D03*
X406693D02*
D03*
X428346Y124016D02*
D03*
X422047D02*
D03*
X428346Y135827D02*
D03*
X422047D02*
D03*
X433858Y143701D02*
D03*
X440158D02*
D03*
X433858Y133858D02*
D03*
X440158D02*
D03*
X463779Y114173D02*
D03*
X457480D02*
D03*
X463779Y125984D02*
D03*
X457480D02*
D03*
X469291Y131890D02*
D03*
X475591D02*
D03*
X469291Y120079D02*
D03*
X475591D02*
D03*
X499213Y122047D02*
D03*
X492913D02*
D03*
X499213Y133858D02*
D03*
X492913D02*
D03*
X756299Y225984D02*
D03*
X750000D02*
D03*
X931890Y226378D02*
D03*
X925591D02*
D03*
X756299Y231102D02*
D03*
X750000D02*
D03*
X931890Y231496D02*
D03*
X925591D02*
D03*
X756299Y240945D02*
D03*
X750000D02*
D03*
X931890Y243307D02*
D03*
X925591D02*
D03*
X750000Y246063D02*
D03*
X756299D02*
D03*
X925591Y248425D02*
D03*
X931890D02*
D03*
X756299Y251181D02*
D03*
X750000D02*
D03*
X931890Y253543D02*
D03*
X925591D02*
D03*
X734252Y259842D02*
D03*
X740551D02*
D03*
X911417Y261811D02*
D03*
X917717D02*
D03*
X724409Y267717D02*
D03*
X730709D02*
D03*
X902362D02*
D03*
X908661D02*
D03*
D46*
X702953Y303150D02*
D03*
X714370D02*
D03*
X876181D02*
D03*
X887598D02*
D03*
D47*
X712992Y236221D02*
D03*
X889370D02*
D03*
D48*
X698228Y259205D02*
D03*
X700197D02*
D03*
X702165D02*
D03*
X704134D02*
D03*
X706102D02*
D03*
X708071D02*
D03*
X710039D02*
D03*
X712008D02*
D03*
X713976D02*
D03*
X715945D02*
D03*
X717913D02*
D03*
X719882D02*
D03*
X721850D02*
D03*
X723819D02*
D03*
X725787D02*
D03*
X727756D02*
D03*
Y213236D02*
D03*
X725787D02*
D03*
X723819D02*
D03*
X721850D02*
D03*
X719882D02*
D03*
X717913D02*
D03*
X715945D02*
D03*
X713976D02*
D03*
X712008D02*
D03*
X710039D02*
D03*
X708071D02*
D03*
X706102D02*
D03*
X704134D02*
D03*
X702165D02*
D03*
X700197D02*
D03*
X698228D02*
D03*
X874606Y259205D02*
D03*
X876575D02*
D03*
X878543D02*
D03*
X880512D02*
D03*
X882480D02*
D03*
X884449D02*
D03*
X886417D02*
D03*
X888386D02*
D03*
X890354D02*
D03*
X892323D02*
D03*
X894291D02*
D03*
X896260D02*
D03*
X898228D02*
D03*
X900197D02*
D03*
X902165D02*
D03*
X904134D02*
D03*
Y213236D02*
D03*
X902165D02*
D03*
X900197D02*
D03*
X898228D02*
D03*
X896260D02*
D03*
X894291D02*
D03*
X892323D02*
D03*
X890354D02*
D03*
X888386D02*
D03*
X886417D02*
D03*
X884449D02*
D03*
X882480D02*
D03*
X880512D02*
D03*
X878543D02*
D03*
X876575D02*
D03*
X874606D02*
D03*
D96*
X482427Y81424D02*
X481818Y82033D01*
X465104Y81424D02*
X464495Y82033D01*
X447781Y81424D02*
X447172Y82033D01*
X395812Y81424D02*
X395204Y82033D01*
X500787Y71260D02*
Y81883D01*
X496457Y66929D02*
X500787Y71260D01*
X495866Y86804D02*
X500787Y81883D01*
X487795Y66929D02*
X492126Y71260D01*
X488386Y86214D02*
X492126Y82474D01*
Y71260D02*
Y82474D01*
X479134Y66929D02*
X483465Y71260D01*
X483292Y80526D02*
X483465Y80353D01*
Y71260D02*
Y80353D01*
X482427Y81424D02*
X482573Y81245D01*
X478543Y85274D02*
X481639Y82179D01*
X481818Y82033D01*
X482573Y81245D02*
X483292Y80526D01*
X474803Y71260D02*
Y82474D01*
X470472Y66929D02*
X474803Y71260D01*
X471063Y86214D02*
X474803Y82474D01*
X461811Y66929D02*
X466142Y71260D01*
X465969Y80526D02*
X466142Y80353D01*
X464316Y82179D02*
X464495Y82033D01*
X466142Y71260D02*
Y80353D01*
X465104Y81424D02*
X465250Y81245D01*
X465969Y80526D01*
X461221Y85274D02*
X464316Y82179D01*
X453150Y66929D02*
X457480Y71260D01*
X453740Y86214D02*
X457480Y82474D01*
Y71260D02*
Y82474D01*
X444488Y66929D02*
X448819Y71260D01*
X448646Y80526D02*
X448819Y80353D01*
X446993Y82179D02*
X447172Y82033D01*
X443898Y85274D02*
X446993Y82179D01*
X447781Y81424D02*
X447927Y81245D01*
X448819Y71260D02*
Y80353D01*
X447927Y81245D02*
X448646Y80526D01*
X440158Y71260D02*
Y82474D01*
X435827Y66929D02*
X440158Y71260D01*
X436417Y86214D02*
X440158Y82474D01*
X427165Y66929D02*
X431496Y71260D01*
X426575Y87035D02*
X431496Y82114D01*
Y71260D02*
Y82114D01*
X422835Y71260D02*
Y80502D01*
X419095Y84242D02*
X422835Y80502D01*
X418504Y66929D02*
X422835Y71260D01*
X409252Y86804D02*
X414173Y81883D01*
X409842Y66929D02*
X414173Y71260D01*
Y81883D01*
X405512Y71260D02*
Y80502D01*
X401772Y84242D02*
X405512Y80502D01*
X401181Y66929D02*
X405512Y71260D01*
X392520Y66929D02*
X396850Y71260D01*
Y80353D01*
X396677Y80526D02*
X396850Y80353D01*
X395812Y81424D02*
X395958Y81245D01*
X395024Y82179D02*
X395204Y82033D01*
X395958Y81245D02*
X396677Y80526D01*
X391929Y85274D02*
X395024Y82179D01*
X391929Y85274D02*
Y94095D01*
X419095Y84242D02*
Y94095D01*
X401772Y84242D02*
Y94095D01*
X409252Y86804D02*
Y94095D01*
X384449Y84242D02*
X388189Y80502D01*
Y71260D02*
Y80502D01*
X383858Y66929D02*
X388189Y71260D01*
X374606Y87035D02*
X379528Y82114D01*
Y71260D02*
Y82114D01*
X375197Y66929D02*
X379528Y71260D01*
X370866D02*
Y80502D01*
X366535Y66929D02*
X370866Y71260D01*
X367126Y84242D02*
X370866Y80502D01*
X367126Y84242D02*
Y94095D01*
X374606Y87035D02*
Y94095D01*
X384449Y84242D02*
Y94095D01*
X426575Y87035D02*
Y94095D01*
X436417Y86214D02*
Y94095D01*
X443898Y85274D02*
Y94095D01*
X453740Y86214D02*
Y94095D01*
X461221Y85274D02*
Y94095D01*
X471063Y86214D02*
Y94095D01*
X495866Y86804D02*
Y94095D01*
X488386Y86214D02*
Y94095D01*
X478543Y85274D02*
Y94095D01*
D97*
X384890Y148425D02*
X390551D01*
X378740D02*
X384890D01*
X183268Y305315D02*
X206496D01*
X166142Y43307D02*
X171260D01*
X161417D02*
X166142D01*
X129842Y362283D02*
X129921Y362205D01*
X129842Y362283D02*
Y381811D01*
X129764Y381890D02*
X129842Y381811D01*
X139764Y381890D02*
X161811D01*
X177921Y362205D02*
Y381858D01*
X177953Y381890D01*
X64961Y54921D02*
X141732D01*
X54996Y44957D02*
X64961Y54921D01*
X62992Y236024D02*
Y253780D01*
X53150Y23779D02*
Y35630D01*
X54996Y43874D02*
Y44957D01*
X54232Y43110D02*
X54996Y43874D01*
X74803Y295276D02*
X90551D01*
X173031Y54921D02*
X190945D01*
X173031D02*
X183071Y64961D01*
X141732Y54921D02*
X173031D01*
X15748Y141535D02*
Y153740D01*
X53150Y43110D02*
X54232D01*
X171260Y35433D02*
X171260Y35433D01*
Y23779D02*
Y35433D01*
X161417Y35433D02*
X161417Y35433D01*
Y23779D02*
Y35433D01*
X179035Y35531D02*
X179134Y35630D01*
X171358Y35531D02*
X179035D01*
X171260Y35433D02*
X171358Y35531D01*
X161319D02*
X161417Y35433D01*
X153543Y35630D02*
X153642Y35531D01*
X161319D01*
X190945Y31496D02*
Y47441D01*
X186221Y26772D02*
X190945Y31496D01*
X141732Y23779D02*
Y47540D01*
X246063Y317323D02*
X246236Y317496D01*
X249607D02*
X250787Y318677D01*
X249607Y324630D02*
X250787Y323449D01*
X246236Y324630D02*
X249607D01*
X246236Y317496D02*
X249607D01*
X246063Y324803D02*
X246236Y324630D01*
X250787Y318677D02*
Y323449D01*
X236221Y324803D02*
X246063D01*
X150138Y224854D02*
Y239075D01*
X149693Y224410D02*
X150138Y224854D01*
X206693Y283858D02*
X212992D01*
X216535Y287402D01*
X204724Y326772D02*
X216535Y314961D01*
Y287402D02*
Y314961D01*
X86299Y326772D02*
X204724D01*
X74803Y315276D02*
X86299Y326772D01*
X186221Y18504D02*
Y26772D01*
Y18504D02*
X190945Y13780D01*
X12008Y295276D02*
X21654D01*
X35295Y219035D02*
X40256D01*
X33465Y220866D02*
Y232283D01*
Y220866D02*
X35295Y219035D01*
X25591Y216436D02*
Y232283D01*
Y210236D02*
Y216436D01*
X27991Y214035D02*
X40256D01*
X25591Y216436D02*
X27991Y214035D01*
X18799Y209035D02*
X24390D01*
X25591Y210236D01*
X131890Y232283D02*
X143307D01*
X131890Y232283D02*
X131890Y232283D01*
X143307D02*
X145138Y234114D01*
Y239075D01*
X149693Y224410D02*
X153150D01*
X131890D02*
X149693D01*
X155118Y217638D02*
X155138Y217618D01*
X155118Y217638D02*
Y222441D01*
X153150Y224410D02*
X155118Y222441D01*
X177953Y374016D02*
X200787D01*
X256398Y21870D02*
X258957D01*
X236221Y16870D02*
X251398D01*
X256398Y21870D01*
X397638Y374016D02*
X483563Y288090D01*
X274410Y374016D02*
X397638D01*
X483563Y288090D02*
X508957D01*
X515748Y259271D02*
Y286910D01*
X508957Y288090D02*
X514567D01*
X515748Y286910D01*
X508957Y258090D02*
X514567D01*
X515748Y259271D01*
X539370Y286910D02*
X540551Y288090D01*
X539370Y259271D02*
Y286910D01*
X540551Y288090D02*
X546161D01*
X539370Y259271D02*
X540551Y258090D01*
X546161D01*
Y250787D02*
X547244Y249705D01*
Y248031D02*
Y249705D01*
X546161Y250787D02*
Y258090D01*
X507874Y248031D02*
Y249705D01*
X508957Y250787D02*
Y258090D01*
X507874Y249705D02*
X508957Y250787D01*
X440988Y148776D02*
X452189D01*
X440945Y148819D02*
X440988Y148776D01*
X433858Y156693D02*
X440945D01*
X655142Y261740D02*
X656299Y262897D01*
X433071Y157480D02*
X433858Y156693D01*
X431102Y159449D02*
X433071Y157480D01*
X200787Y374016D02*
X209449D01*
X395913Y171260D02*
Y175740D01*
Y166779D02*
Y171260D01*
X815087Y228080D02*
Y233198D01*
X818110Y236221D01*
X820866D01*
X656299Y262897D02*
Y285039D01*
X671260Y300000D01*
X637795Y246063D02*
Y255906D01*
X643630Y261740D02*
X655142D01*
X637795Y255906D02*
X643630Y261740D01*
X671260Y300000D02*
X688976D01*
X750000Y257874D02*
X755905Y263779D01*
X631890Y246063D02*
X637795D01*
X627953Y242126D02*
X631890Y246063D01*
X627953Y177165D02*
Y242126D01*
X616142Y139764D02*
Y165354D01*
X627953Y177165D01*
X616142Y139764D02*
X617717Y138189D01*
X624803D01*
X821653Y259842D02*
X833071D01*
X814961Y253150D02*
X821653Y259842D01*
X814961Y244094D02*
Y253150D01*
X925591Y253543D02*
Y264173D01*
X925591Y253543D02*
X925591Y253543D01*
Y264173D02*
X931102Y269685D01*
X714370Y312894D02*
X717717Y316240D01*
X714370Y303150D02*
Y312894D01*
X717717Y316240D02*
Y318898D01*
X728346Y312992D02*
X740158D01*
X722441Y318898D02*
X728346Y312992D01*
X717717Y318898D02*
X722441D01*
X688976Y318110D02*
X698819D01*
X833071Y259842D02*
Y279921D01*
X853150Y300000D02*
X862205D01*
X833071Y279921D02*
X853150Y300000D01*
X872047Y318110D02*
X872835Y318898D01*
X862205Y318110D02*
X872047D01*
X887598Y312894D02*
X890945Y316240D01*
Y318898D01*
X887598Y303150D02*
Y312894D01*
X901575Y312992D02*
X917323D01*
X895669Y318898D02*
X901575Y312992D01*
X890945Y318898D02*
X895669D01*
X740158Y312992D02*
X767717D01*
X917323D02*
X944882D01*
X846063Y259842D02*
X856299D01*
X840551D02*
X846063D01*
X846457Y255906D02*
Y259449D01*
X846063Y259842D02*
X846457Y259449D01*
X948819Y269685D02*
X953882Y274748D01*
Y286811D01*
X931102Y269685D02*
X948819D01*
X926323Y274465D02*
Y286811D01*
Y274465D02*
X931102Y269685D01*
X749157Y270528D02*
Y286811D01*
Y270528D02*
X755905Y263779D01*
X767717D01*
X750000Y251181D02*
Y257874D01*
X767717Y263779D02*
X776717Y272779D01*
X669291Y261811D02*
X679134D01*
X663386D02*
X669291D01*
Y257874D02*
Y261811D01*
X776717Y272779D02*
Y286811D01*
X7874Y299410D02*
X12008Y295276D01*
X200787Y353937D02*
Y374016D01*
X200787Y374016D01*
X210630Y353937D02*
X234252D01*
X246220Y365905D02*
Y374016D01*
X234252Y353937D02*
X246220Y365905D01*
X209449Y374016D02*
X236221D01*
X200787Y346457D02*
X210630D01*
X209449Y361417D02*
X210630Y360236D01*
Y353937D02*
Y360236D01*
X209449Y361417D02*
Y366142D01*
X236221Y324803D02*
Y340315D01*
X256221Y360315D01*
X262598Y353937D01*
X279528D01*
X256221Y360315D02*
Y374016D01*
X274410D01*
X282677Y366142D02*
X289370Y359449D01*
X274410Y366142D02*
X282677D01*
X289370Y353937D02*
Y359449D01*
X279528Y346457D02*
X289370D01*
X977559Y138189D02*
X990551D01*
X236221Y312992D02*
Y316929D01*
Y312992D02*
X238189Y311024D01*
X261811D01*
X263779Y312992D01*
Y316929D01*
X255906Y324803D02*
X263779D01*
X237894Y316929D02*
X241854Y320890D01*
X245890D01*
X246063Y321063D01*
X236221Y316929D02*
X237894D01*
X183071Y291339D02*
Y297638D01*
X194882Y291339D02*
Y297638D01*
X206693Y291339D02*
Y298031D01*
X206496Y305315D02*
X206693Y305512D01*
X183071Y305118D02*
X183268Y305315D01*
X90551Y295276D02*
X102362D01*
X59055D02*
X74803D01*
X7874Y319685D02*
Y330512D01*
Y310236D02*
Y319685D01*
Y299410D02*
Y310236D01*
X267717Y64961D02*
Y83465D01*
Y112106D01*
X265177Y80925D02*
X267717Y83465D01*
X258957Y80925D02*
X265177D01*
X257402Y143307D02*
X267717Y132992D01*
Y124016D02*
Y132992D01*
X257402Y143307D02*
Y145472D01*
X258957Y21870D02*
X265965D01*
X267717Y23622D01*
Y53150D01*
Y112106D02*
Y124016D01*
X258957Y110925D02*
X266536D01*
X267717Y112106D01*
X259842Y116197D02*
Y124016D01*
X259571Y115925D02*
X259842Y116197D01*
X258957Y115925D02*
X259571D01*
X258957Y56870D02*
X259571D01*
X259842Y57142D02*
Y64961D01*
X259571Y56870D02*
X259842Y57142D01*
X258957Y51870D02*
X266437D01*
X267717Y53150D01*
Y64961D01*
X366142Y161417D02*
X372047D01*
X360236Y155512D02*
X366142Y161417D01*
X431102Y175197D02*
Y187795D01*
Y159449D02*
Y175197D01*
X431004Y175295D02*
X431102Y175197D01*
X305118Y150394D02*
Y161417D01*
Y150394D02*
X313779Y141732D01*
X321260D01*
X322933D01*
X394267Y177387D02*
X395913Y175740D01*
X389976Y177387D02*
X394267D01*
X389764Y177165D02*
X389976Y177378D01*
Y177387D01*
X435433Y148819D02*
X440945D01*
X427393Y188999D02*
X429899D01*
X431102Y187795D01*
X492913Y133858D02*
Y139764D01*
X326772Y165354D02*
Y169291D01*
X350394D01*
X326772D02*
Y175197D01*
X350394Y169291D02*
X352362Y171260D01*
X350394Y169291D02*
X372047D01*
X465354Y166142D02*
X465598Y166386D01*
Y171260D01*
X492913Y122047D02*
Y127953D01*
X475591Y125984D02*
Y131890D01*
Y114173D02*
Y120079D01*
X457480Y114173D02*
Y120079D01*
Y125984D02*
Y131890D01*
X440158Y138976D02*
Y143701D01*
Y129134D02*
Y133858D01*
X422047Y124016D02*
Y129921D01*
Y135827D02*
Y141732D01*
X406693Y125984D02*
Y131890D01*
Y114173D02*
Y120079D01*
X388583Y114173D02*
Y120079D01*
Y126378D02*
Y131890D01*
X375197Y125984D02*
Y131890D01*
Y137795D02*
Y143701D01*
X295276Y64961D02*
X299213D01*
X303150Y68898D02*
Y84252D01*
X299213Y64961D02*
X303150Y68898D01*
X295276Y57142D02*
Y64961D01*
X289547Y21870D02*
X296161D01*
X287402Y24016D02*
X289547Y21870D01*
X287402Y24016D02*
Y54724D01*
X290256Y51870D01*
X287402Y54724D02*
Y64961D01*
X290256Y51870D02*
X296161D01*
X287402Y77953D02*
Y114173D01*
Y64961D02*
Y77953D01*
X290374Y80925D02*
X296161D01*
X287402Y77953D02*
X290374Y80925D01*
X287402Y145472D02*
Y152362D01*
Y114173D02*
Y124016D01*
Y145472D01*
Y114173D02*
X290650Y110925D01*
X296161D01*
X301181Y183858D02*
X310039D01*
X287402Y185236D02*
X299803D01*
X301181Y183858D01*
X316626Y183925D02*
X321193D01*
X322047Y183071D01*
X326772D01*
X316496Y184055D02*
X316626Y183925D01*
X250000Y161417D02*
X257402Y154016D01*
X240158Y161417D02*
X250000D01*
X257402Y145472D02*
Y154016D01*
X253937Y169291D02*
X267402Y155827D01*
Y145472D02*
Y155827D01*
X240158Y169291D02*
X253937D01*
X287402Y152362D02*
X296457Y161417D01*
X305118D01*
X296161Y85925D02*
X296185Y85901D01*
X301500D01*
X303150Y84252D01*
X295276Y57142D02*
X295547Y56870D01*
X296161D01*
X295547Y115925D02*
X296161D01*
X295276Y116197D02*
Y124016D01*
Y116197D02*
X295547Y115925D01*
X305118Y169291D02*
Y178937D01*
X310039Y183858D02*
X316299D01*
X305118Y178937D02*
X310039Y183858D01*
X352362Y171260D02*
Y175197D01*
X322638Y161221D02*
X326772Y165354D01*
X316496Y161221D02*
X322638D01*
X346457Y183071D02*
X352362D01*
X346063Y182677D02*
X346457Y183071D01*
X344882Y182677D02*
X346063D01*
X326772Y175197D02*
Y177165D01*
X328543Y178937D01*
X335039D01*
X316299Y183858D02*
X316496Y184055D01*
Y168701D02*
Y176575D01*
X316398Y161319D02*
X316496Y161221D01*
X305118Y161417D02*
X305217Y161319D01*
X316398D01*
X321260Y149606D02*
X331102D01*
X322933Y141732D02*
X325059Y139606D01*
X331102D01*
X352457Y144606D02*
X352516Y144547D01*
X360177D01*
X360236Y144488D01*
Y155512D01*
X372047Y149606D02*
X377559D01*
X378740Y148425D01*
X366142Y149606D02*
X372047D01*
X390551Y148425D02*
X391732Y149606D01*
D98*
X27485Y318209D02*
X27559D01*
X18406Y317520D02*
X18435Y317490D01*
X26767D02*
X27485Y318209D01*
X18435Y317490D02*
X26767D01*
X18435Y314990D02*
X26767D01*
X18406Y314961D02*
X18435Y314990D01*
X26767D02*
X27485Y314272D01*
X27559D01*
D99*
X394488Y165354D02*
X395913Y166779D01*
X391732Y165354D02*
X394488D01*
D100*
X177921Y362205D02*
D03*
X129921D02*
D03*
D101*
X16339Y322835D02*
D03*
Y307087D02*
D03*
D102*
X210630Y23779D02*
D03*
X200787D02*
D03*
X190945D02*
D03*
X181102D02*
D03*
X171260D02*
D03*
X161417D02*
D03*
X151575D02*
D03*
X141732D02*
D03*
X131890D02*
D03*
X122047D02*
D03*
X112205D02*
D03*
X102362D02*
D03*
X92520D02*
D03*
X82677D02*
D03*
X72835D02*
D03*
X62992D02*
D03*
X53150D02*
D03*
X43307D02*
D03*
X33465D02*
D03*
X210630Y13780D02*
D03*
X200787D02*
D03*
X190945D02*
D03*
X181102D02*
D03*
X171260D02*
D03*
X161417D02*
D03*
X151575D02*
D03*
X141732D02*
D03*
X131890D02*
D03*
X122047D02*
D03*
X112205D02*
D03*
X102362D02*
D03*
X92520D02*
D03*
X82677D02*
D03*
X72835D02*
D03*
X62992D02*
D03*
X53150D02*
D03*
X43307D02*
D03*
X210630Y263779D02*
D03*
X200787D02*
D03*
X190945D02*
D03*
X181102D02*
D03*
X171260D02*
D03*
X161417D02*
D03*
X151575D02*
D03*
X141732D02*
D03*
X131890D02*
D03*
X122047D02*
D03*
X112205D02*
D03*
X102362D02*
D03*
X92520D02*
D03*
X82677D02*
D03*
X72835D02*
D03*
X62992D02*
D03*
X53150D02*
D03*
X43307D02*
D03*
X33465D02*
D03*
X210630Y253780D02*
D03*
X200787D02*
D03*
X190945D02*
D03*
X181102D02*
D03*
X171260D02*
D03*
X161417D02*
D03*
X151575D02*
D03*
X141732D02*
D03*
X131890D02*
D03*
X122047D02*
D03*
X112205D02*
D03*
X102362D02*
D03*
X92520D02*
D03*
X82677D02*
D03*
X72835D02*
D03*
X62992D02*
D03*
X53150D02*
D03*
X43307D02*
D03*
D103*
X33465Y13780D02*
D03*
Y253780D02*
D03*
D104*
X236221Y374016D02*
D03*
D105*
X246220D02*
D03*
X256221D02*
D03*
D106*
X236221Y56870D02*
D03*
Y46870D02*
D03*
Y36870D02*
D03*
Y26870D02*
D03*
Y115925D02*
D03*
Y105925D02*
D03*
Y95925D02*
D03*
Y85925D02*
D03*
D107*
Y16870D02*
D03*
Y75925D02*
D03*
D108*
X114173Y315276D02*
D03*
Y305276D02*
D03*
X102362Y315276D02*
D03*
Y305276D02*
D03*
X90551Y315276D02*
D03*
Y305276D02*
D03*
X74803Y315276D02*
D03*
Y305276D02*
D03*
X59055Y315276D02*
D03*
Y305276D02*
D03*
D109*
X114173Y295276D02*
D03*
X102362D02*
D03*
X90551D02*
D03*
X74803D02*
D03*
X59055D02*
D03*
D110*
X704331Y44882D02*
D03*
X863386D02*
D03*
X369291D02*
D03*
X493701D02*
D03*
D111*
X701575Y66929D02*
D03*
X710236D02*
D03*
X718898D02*
D03*
X727559D02*
D03*
X736221D02*
D03*
X744882D02*
D03*
X753543D02*
D03*
X762205D02*
D03*
X770866D02*
D03*
X779528D02*
D03*
X788189D02*
D03*
X796850D02*
D03*
X805512D02*
D03*
X814173D02*
D03*
X822835D02*
D03*
X831496D02*
D03*
X840158D02*
D03*
X848819D02*
D03*
X857480D02*
D03*
X866142D02*
D03*
X701575Y78740D02*
D03*
X710236D02*
D03*
X718898D02*
D03*
X727559D02*
D03*
X736221D02*
D03*
X744882D02*
D03*
X753543D02*
D03*
X762205D02*
D03*
X770866D02*
D03*
X779528D02*
D03*
X788189D02*
D03*
X796850D02*
D03*
X805512D02*
D03*
X814173D02*
D03*
X822835D02*
D03*
X831496D02*
D03*
X840158D02*
D03*
X848819D02*
D03*
X857480D02*
D03*
X866142D02*
D03*
X366535Y66929D02*
D03*
X375197D02*
D03*
X383858D02*
D03*
X392520D02*
D03*
X401181D02*
D03*
X409842D02*
D03*
X418504D02*
D03*
X427165D02*
D03*
X435827D02*
D03*
X444488D02*
D03*
X453150D02*
D03*
X461811D02*
D03*
X470472D02*
D03*
X479134D02*
D03*
X487795D02*
D03*
X496457D02*
D03*
X366535Y78740D02*
D03*
X375197D02*
D03*
X383858D02*
D03*
X392520D02*
D03*
X401181D02*
D03*
X409842D02*
D03*
X418504D02*
D03*
X427165D02*
D03*
X435827D02*
D03*
X444488D02*
D03*
X453150D02*
D03*
X461811D02*
D03*
X470472D02*
D03*
X479134D02*
D03*
X487795D02*
D03*
X496457D02*
D03*
X129764Y381890D02*
D03*
D112*
X139764D02*
D03*
D113*
X15748Y15748D02*
D03*
Y377953D02*
D03*
D114*
X11811Y43307D02*
D03*
X15748Y39370D02*
D03*
X11811Y35433D02*
D03*
X7874Y39370D02*
D03*
X15748Y43307D02*
D03*
Y35433D02*
D03*
X204724Y169291D02*
D03*
X208661D02*
D03*
Y165354D02*
D03*
X204724D02*
D03*
X7874Y43307D02*
D03*
X11811Y39370D02*
D03*
X7874Y35433D02*
D03*
X137795Y159449D02*
D03*
X133858D02*
D03*
X137795Y177165D02*
D03*
X433858Y138976D02*
D03*
X27559Y314272D02*
D03*
Y318209D02*
D03*
X155138Y239075D02*
D03*
X183071Y226378D02*
D03*
Y222441D02*
D03*
X150138Y217618D02*
D03*
X293307Y153543D02*
D03*
X297244D02*
D03*
Y157480D02*
D03*
X293307D02*
D03*
X183071Y305118D02*
D03*
X86614Y220866D02*
D03*
X93685Y213795D02*
D03*
X183071Y64961D02*
D03*
X15748Y141535D02*
D03*
Y134055D02*
D03*
Y161221D02*
D03*
X200787Y238189D02*
D03*
X62992Y228543D02*
D03*
X153543Y43110D02*
D03*
X179134D02*
D03*
X166142Y43307D02*
D03*
X171260Y35433D02*
D03*
X161417D02*
D03*
X84646Y232283D02*
D03*
X192913Y238386D02*
D03*
X200787Y246063D02*
D03*
X253740Y320866D02*
D03*
X21654Y295276D02*
D03*
X33465Y232283D02*
D03*
X25591D02*
D03*
X131890Y232283D02*
D03*
Y224410D02*
D03*
X145138Y217618D02*
D03*
X140138Y239075D02*
D03*
X240158Y169291D02*
D03*
X236221Y324803D02*
D03*
X263779D02*
D03*
Y316929D02*
D03*
X274410Y366142D02*
D03*
X295276Y273228D02*
D03*
X295251Y268091D02*
D03*
X547244Y248031D02*
D03*
X546161Y263090D02*
D03*
X539370Y248031D02*
D03*
X515748D02*
D03*
X508957Y263090D02*
D03*
Y293091D02*
D03*
X546161D02*
D03*
X919291Y242126D02*
D03*
Y238189D02*
D03*
X742126D02*
D03*
Y234252D02*
D03*
X448425Y151670D02*
D03*
X445276Y153543D02*
D03*
X407480Y183071D02*
D03*
X706693Y198819D02*
D03*
X713386Y200394D02*
D03*
X719291Y200787D02*
D03*
X725591Y198819D02*
D03*
X730709Y200394D02*
D03*
X848425Y221260D02*
D03*
X849606Y215354D02*
D03*
X852362Y233465D02*
D03*
X869685Y198819D02*
D03*
X875984Y199606D02*
D03*
X883071Y198819D02*
D03*
X889370D02*
D03*
X895669D02*
D03*
X901575D02*
D03*
X907480D02*
D03*
X921260Y214567D02*
D03*
X852394Y244063D02*
D03*
X673228Y244488D02*
D03*
X675425Y239535D02*
D03*
X673260Y230677D02*
D03*
X672047Y223228D02*
D03*
X445276Y180315D02*
D03*
X296161Y90925D02*
D03*
Y100925D02*
D03*
Y31870D02*
D03*
Y36870D02*
D03*
Y41870D02*
D03*
Y46870D02*
D03*
Y95925D02*
D03*
Y105925D02*
D03*
X427165Y163386D02*
D03*
X423228D02*
D03*
X419291D02*
D03*
X415354D02*
D03*
X403543Y179134D02*
D03*
X496063Y175197D02*
D03*
X500000D02*
D03*
X492126D02*
D03*
X488189D02*
D03*
X917323Y267717D02*
D03*
X913386D02*
D03*
X940945Y230315D02*
D03*
Y226378D02*
D03*
X937008D02*
D03*
Y230315D02*
D03*
Y253937D02*
D03*
Y250000D02*
D03*
X940945D02*
D03*
Y253937D02*
D03*
X258957Y85925D02*
D03*
X864173Y259842D02*
D03*
X897244Y236221D02*
D03*
X889370Y244094D02*
D03*
X897244D02*
D03*
X881496Y236221D02*
D03*
X889370D02*
D03*
X881496Y228346D02*
D03*
X889370D02*
D03*
X897244D02*
D03*
X881496Y244094D02*
D03*
X720866Y228346D02*
D03*
X705118D02*
D03*
Y244094D02*
D03*
X720866D02*
D03*
Y236221D02*
D03*
X712992Y244094D02*
D03*
X705118Y236221D02*
D03*
X712992Y228346D02*
D03*
Y236221D02*
D03*
X765748Y250000D02*
D03*
Y246063D02*
D03*
X759842Y222441D02*
D03*
X763779D02*
D03*
Y226378D02*
D03*
X759842D02*
D03*
X761811Y246063D02*
D03*
Y250000D02*
D03*
X738189Y267717D02*
D03*
X734252D02*
D03*
X687008Y261811D02*
D03*
X820866Y236221D02*
D03*
X702953Y303150D02*
D03*
X627953Y271654D02*
D03*
X698819Y269685D02*
D03*
X990551Y150000D02*
D03*
X876181Y303150D02*
D03*
X872047Y275590D02*
D03*
X649606Y297244D02*
D03*
X645669D02*
D03*
X641732D02*
D03*
X893701Y267717D02*
D03*
Y271654D02*
D03*
X908323Y286811D02*
D03*
X731157D02*
D03*
X758716D02*
D03*
X931102Y261811D02*
D03*
X718504Y267717D02*
D03*
X757874Y257874D02*
D03*
X637795Y229921D02*
D03*
X639764Y171260D02*
D03*
Y175197D02*
D03*
X655512D02*
D03*
Y171260D02*
D03*
X673228Y169291D02*
D03*
Y173228D02*
D03*
X433858Y143701D02*
D03*
X368898D02*
D03*
X785433Y165354D02*
D03*
Y161417D02*
D03*
X732283Y167323D02*
D03*
Y163386D02*
D03*
X716535D02*
D03*
X712598D02*
D03*
X696850Y161417D02*
D03*
X700787D02*
D03*
X746063Y171260D02*
D03*
Y175197D02*
D03*
X814961Y244094D02*
D03*
Y159449D02*
D03*
Y163386D02*
D03*
X830709Y165354D02*
D03*
Y161417D02*
D03*
X856299D02*
D03*
X852362D02*
D03*
X935882Y286811D02*
D03*
X919291Y253937D02*
D03*
X938976Y187008D02*
D03*
Y190945D02*
D03*
X917323Y171260D02*
D03*
Y175197D02*
D03*
X911417Y163386D02*
D03*
Y159449D02*
D03*
X899606D02*
D03*
X875984Y163386D02*
D03*
X895669Y159449D02*
D03*
X872047Y163386D02*
D03*
X937008Y202756D02*
D03*
X721850Y113976D02*
D03*
X865158D02*
D03*
X860039D02*
D03*
X767913D02*
D03*
X773032D02*
D03*
X778150D02*
D03*
X732087D02*
D03*
X726968D02*
D03*
X737205D02*
D03*
X742323D02*
D03*
X747441D02*
D03*
X752559D02*
D03*
X757677D02*
D03*
X762795D02*
D03*
X783268D02*
D03*
X788386D02*
D03*
X793504D02*
D03*
X798622D02*
D03*
X803740D02*
D03*
X808858D02*
D03*
X813976D02*
D03*
X819094D02*
D03*
X824213D02*
D03*
X829331D02*
D03*
X834449D02*
D03*
X839567D02*
D03*
X844685D02*
D03*
X849803D02*
D03*
X854921D02*
D03*
X870276D02*
D03*
X875394D02*
D03*
X744095Y253937D02*
D03*
X852362Y239370D02*
D03*
Y206693D02*
D03*
X846457Y248031D02*
D03*
X908661Y209449D02*
D03*
X867717Y210236D02*
D03*
X880512Y113976D02*
D03*
X673228Y204724D02*
D03*
Y214567D02*
D03*
X669291Y250000D02*
D03*
X690158Y210630D02*
D03*
X696850Y202756D02*
D03*
X700787Y198819D02*
D03*
X734252Y210630D02*
D03*
X744095Y214567D02*
D03*
X624803Y138189D02*
D03*
X635827D02*
D03*
X646850D02*
D03*
X657874D02*
D03*
X668898D02*
D03*
X679921D02*
D03*
X690945D02*
D03*
X701968D02*
D03*
X712992D02*
D03*
X724016D02*
D03*
X735039D02*
D03*
X746063D02*
D03*
X757087D02*
D03*
X768110D02*
D03*
X779134D02*
D03*
X790158D02*
D03*
X801181D02*
D03*
X812205D02*
D03*
X823228D02*
D03*
X834252D02*
D03*
X845276D02*
D03*
X856299D02*
D03*
X867323D02*
D03*
X878347D02*
D03*
X889370D02*
D03*
X900394D02*
D03*
X911417D02*
D03*
X922441D02*
D03*
X933465D02*
D03*
X944488D02*
D03*
X955512D02*
D03*
X966535D02*
D03*
X977559D02*
D03*
X259842Y64961D02*
D03*
X258957Y26870D02*
D03*
X259842Y124016D02*
D03*
X440945Y160630D02*
D03*
X372047Y161417D02*
D03*
X391732Y165354D02*
D03*
X379528Y154724D02*
D03*
X427165Y155512D02*
D03*
X437008Y156693D02*
D03*
X433071Y157480D02*
D03*
X368898Y131890D02*
D03*
Y125984D02*
D03*
X496307Y147638D02*
D03*
Y155512D02*
D03*
X427165Y147638D02*
D03*
X440945Y156693D02*
D03*
X473472Y171260D02*
D03*
X458465Y177165D02*
D03*
X435433Y148819D02*
D03*
X352362Y114173D02*
D03*
Y183071D02*
D03*
X394882Y126378D02*
D03*
X463779Y125984D02*
D03*
Y114173D02*
D03*
X469291Y120079D02*
D03*
X440158Y138976D02*
D03*
X422835Y102756D02*
D03*
X422047Y135827D02*
D03*
X388189Y102756D02*
D03*
X375197Y137795D02*
D03*
X388583Y126378D02*
D03*
X406693Y125984D02*
D03*
X457480D02*
D03*
X461221Y94095D02*
D03*
X436417D02*
D03*
X426575D02*
D03*
X401772D02*
D03*
X391929D02*
D03*
X367126D02*
D03*
X475591Y125984D02*
D03*
X492913Y133858D02*
D03*
X471063Y94095D02*
D03*
X495866D02*
D03*
X296161Y26870D02*
D03*
X295276Y64961D02*
D03*
Y124016D02*
D03*
X372047Y157480D02*
D03*
X321260Y149606D02*
D03*
X316496Y184055D02*
D03*
X376772Y152756D02*
D03*
X391732Y149606D02*
D03*
X381890Y177165D02*
D03*
X366142Y149606D02*
D03*
X399606Y165354D02*
D03*
X401181Y149606D02*
D03*
X401575Y137795D02*
D03*
X395669D02*
D03*
X435267Y188999D02*
D03*
X499213Y139764D02*
D03*
Y133858D02*
D03*
Y127953D02*
D03*
Y122047D02*
D03*
X463779Y131890D02*
D03*
X469291D02*
D03*
Y125984D02*
D03*
X463779Y120079D02*
D03*
X469291Y114173D02*
D03*
X440945Y168504D02*
D03*
X428346Y124016D02*
D03*
X433858Y129134D02*
D03*
X428346Y129921D02*
D03*
X433858Y133858D02*
D03*
X428346Y135827D02*
D03*
Y141732D02*
D03*
X394882Y120079D02*
D03*
Y114173D02*
D03*
X400394D02*
D03*
Y120079D02*
D03*
Y125984D02*
D03*
Y131890D02*
D03*
X394882D02*
D03*
X368898Y137795D02*
D03*
X370866Y102756D02*
D03*
X405512D02*
D03*
X440158D02*
D03*
X457480D02*
D03*
X474803D02*
D03*
X492126D02*
D03*
M02*
