G04*
G04 #@! TF.GenerationSoftware,Altium Limited,Altium Designer,24.1.2 (44)*
G04*
G04 Layer_Color=128*
%FSLAX25Y25*%
%MOIN*%
G70*
G04*
G04 #@! TF.SameCoordinates,B5AD6C99-44BA-4BCA-A26F-11CA4035DA65*
G04*
G04*
G04 #@! TF.FilePolarity,Positive*
G04*
G01*
G75*
%ADD15C,0.00500*%
D15*
X537402Y377953D02*
X549213D01*
X543307Y372047D02*
Y383858D01*
X537402Y15748D02*
X549213D01*
X543307Y9843D02*
Y21654D01*
X175933Y362205D02*
X179909D01*
X177921Y360216D02*
Y364193D01*
X127933Y362205D02*
X131909D01*
X129921Y360216D02*
Y364193D01*
X15256Y322835D02*
X17421D01*
X16339Y321752D02*
Y323917D01*
X15256Y307087D02*
X17421D01*
X16339Y306004D02*
Y308169D01*
X209449Y23779D02*
X211811D01*
X210630Y22598D02*
Y24961D01*
X199606Y23779D02*
X201969D01*
X200787Y22598D02*
Y24961D01*
X189764Y23779D02*
X192126D01*
X190945Y22598D02*
Y24961D01*
X179921Y23779D02*
X182283D01*
X181102Y22598D02*
Y24961D01*
X170079Y23779D02*
X172441D01*
X171260Y22598D02*
Y24961D01*
X160236Y23779D02*
X162598D01*
X161417Y22598D02*
Y24961D01*
X150394Y23779D02*
X152756D01*
X151575Y22598D02*
Y24961D01*
X140551Y23779D02*
X142913D01*
X141732Y22598D02*
Y24961D01*
X130709Y23779D02*
X133071D01*
X131890Y22598D02*
Y24961D01*
X120866Y23779D02*
X123228D01*
X122047Y22598D02*
Y24961D01*
X111024Y23779D02*
X113386D01*
X112205Y22598D02*
Y24961D01*
X101181Y23779D02*
X103543D01*
X102362Y22598D02*
Y24961D01*
X91339Y23779D02*
X93701D01*
X92520Y22598D02*
Y24961D01*
X81496Y23779D02*
X83858D01*
X82677Y22598D02*
Y24961D01*
X71653Y23779D02*
X74016D01*
X72835Y22598D02*
Y24961D01*
X61811Y23779D02*
X64173D01*
X62992Y22598D02*
Y24961D01*
X51968Y23779D02*
X54331D01*
X53150Y22598D02*
Y24961D01*
X42126Y23779D02*
X44488D01*
X43307Y22598D02*
Y24961D01*
X32283Y23779D02*
X34646D01*
X33465Y22598D02*
Y24961D01*
X209449Y13780D02*
X211811D01*
X210630Y12598D02*
Y14961D01*
X199606Y13780D02*
X201969D01*
X200787Y12598D02*
Y14961D01*
X189764Y13780D02*
X192126D01*
X190945Y12598D02*
Y14961D01*
X179921Y13780D02*
X182283D01*
X181102Y12598D02*
Y14961D01*
X170079Y13780D02*
X172441D01*
X171260Y12598D02*
Y14961D01*
X160236Y13780D02*
X162598D01*
X161417Y12598D02*
Y14961D01*
X150394Y13780D02*
X152756D01*
X151575Y12598D02*
Y14961D01*
X140551Y13780D02*
X142913D01*
X141732Y12598D02*
Y14961D01*
X130709Y13780D02*
X133071D01*
X131890Y12598D02*
Y14961D01*
X120866Y13780D02*
X123228D01*
X122047Y12598D02*
Y14961D01*
X111024Y13780D02*
X113386D01*
X112205Y12598D02*
Y14961D01*
X101181Y13780D02*
X103543D01*
X102362Y12598D02*
Y14961D01*
X91339Y13780D02*
X93701D01*
X92520Y12598D02*
Y14961D01*
X81496Y13780D02*
X83858D01*
X82677Y12598D02*
Y14961D01*
X71653Y13780D02*
X74016D01*
X72835Y12598D02*
Y14961D01*
X61811Y13780D02*
X64173D01*
X62992Y12598D02*
Y14961D01*
X51968Y13780D02*
X54331D01*
X53150Y12598D02*
Y14961D01*
X42126Y13780D02*
X44488D01*
X43307Y12598D02*
Y14961D01*
X32283Y13780D02*
X34646D01*
X33465Y12598D02*
Y14961D01*
X209449Y263779D02*
X211811D01*
X210630Y262598D02*
Y264961D01*
X199606Y263779D02*
X201969D01*
X200787Y262598D02*
Y264961D01*
X189764Y263779D02*
X192126D01*
X190945Y262598D02*
Y264961D01*
X179921Y263779D02*
X182283D01*
X181102Y262598D02*
Y264961D01*
X170079Y263779D02*
X172441D01*
X171260Y262598D02*
Y264961D01*
X160236Y263779D02*
X162598D01*
X161417Y262598D02*
Y264961D01*
X150394Y263779D02*
X152756D01*
X151575Y262598D02*
Y264961D01*
X140551Y263779D02*
X142913D01*
X141732Y262598D02*
Y264961D01*
X130709Y263779D02*
X133071D01*
X131890Y262598D02*
Y264961D01*
X120866Y263779D02*
X123228D01*
X122047Y262598D02*
Y264961D01*
X111024Y263779D02*
X113386D01*
X112205Y262598D02*
Y264961D01*
X101181Y263779D02*
X103543D01*
X102362Y262598D02*
Y264961D01*
X91339Y263779D02*
X93701D01*
X92520Y262598D02*
Y264961D01*
X81496Y263779D02*
X83858D01*
X82677Y262598D02*
Y264961D01*
X71653Y263779D02*
X74016D01*
X72835Y262598D02*
Y264961D01*
X61811Y263779D02*
X64173D01*
X62992Y262598D02*
Y264961D01*
X51968Y263779D02*
X54331D01*
X53150Y262598D02*
Y264961D01*
X42126Y263779D02*
X44488D01*
X43307Y262598D02*
Y264961D01*
X32283Y263779D02*
X34646D01*
X33465Y262598D02*
Y264961D01*
X209449Y253780D02*
X211811D01*
X210630Y252598D02*
Y254961D01*
X199606Y253780D02*
X201969D01*
X200787Y252598D02*
Y254961D01*
X189764Y253780D02*
X192126D01*
X190945Y252598D02*
Y254961D01*
X179921Y253780D02*
X182283D01*
X181102Y252598D02*
Y254961D01*
X170079Y253780D02*
X172441D01*
X171260Y252598D02*
Y254961D01*
X160236Y253780D02*
X162598D01*
X161417Y252598D02*
Y254961D01*
X150394Y253780D02*
X152756D01*
X151575Y252598D02*
Y254961D01*
X140551Y253780D02*
X142913D01*
X141732Y252598D02*
Y254961D01*
X130709Y253780D02*
X133071D01*
X131890Y252598D02*
Y254961D01*
X120866Y253780D02*
X123228D01*
X122047Y252598D02*
Y254961D01*
X111024Y253780D02*
X113386D01*
X112205Y252598D02*
Y254961D01*
X101181Y253780D02*
X103543D01*
X102362Y252598D02*
Y254961D01*
X91339Y253780D02*
X93701D01*
X92520Y252598D02*
Y254961D01*
X81496Y253780D02*
X83858D01*
X82677Y252598D02*
Y254961D01*
X71653Y253780D02*
X74016D01*
X72835Y252598D02*
Y254961D01*
X61811Y253780D02*
X64173D01*
X62992Y252598D02*
Y254961D01*
X51968Y253780D02*
X54331D01*
X53150Y252598D02*
Y254961D01*
X42126Y253780D02*
X44488D01*
X43307Y252598D02*
Y254961D01*
X32283Y253780D02*
X34646D01*
X33465Y252598D02*
Y254961D01*
X233858Y374016D02*
X238583D01*
X236221Y371654D02*
Y376378D01*
X243858Y374016D02*
X248583D01*
X246220Y371654D02*
Y376378D01*
X253858Y374016D02*
X258583D01*
X256221Y371654D02*
Y376378D01*
X233957Y56870D02*
X238484D01*
X236221Y54606D02*
Y59134D01*
X233957Y46870D02*
X238484D01*
X236221Y44606D02*
Y49134D01*
X233957Y36870D02*
X238484D01*
X236221Y34606D02*
Y39134D01*
X233957Y26870D02*
X238484D01*
X236221Y24606D02*
Y29134D01*
X233957Y16870D02*
X238484D01*
X236221Y14606D02*
Y19134D01*
X233957Y115925D02*
X238484D01*
X236221Y113661D02*
Y118189D01*
X233957Y105925D02*
X238484D01*
X236221Y103661D02*
Y108189D01*
X233957Y95925D02*
X238484D01*
X236221Y93661D02*
Y98189D01*
X233957Y85925D02*
X238484D01*
X236221Y83661D02*
Y88189D01*
X233957Y75925D02*
X238484D01*
X236221Y73661D02*
Y78189D01*
X112008Y315276D02*
X116339D01*
X114173Y313110D02*
Y317441D01*
X112008Y305276D02*
X116339D01*
X114173Y303110D02*
Y307441D01*
X112008Y295276D02*
X116339D01*
X114173Y293110D02*
Y297441D01*
X100197Y315276D02*
X104527D01*
X102362Y313110D02*
Y317441D01*
X100197Y305276D02*
X104527D01*
X102362Y303110D02*
Y307441D01*
X100197Y295276D02*
X104527D01*
X102362Y293110D02*
Y297441D01*
X88386Y315276D02*
X92716D01*
X90551Y313110D02*
Y317441D01*
X88386Y305276D02*
X92716D01*
X90551Y303110D02*
Y307441D01*
X88386Y295276D02*
X92716D01*
X90551Y293110D02*
Y297441D01*
X72638Y315276D02*
X76968D01*
X74803Y313110D02*
Y317441D01*
X72638Y305276D02*
X76968D01*
X74803Y303110D02*
Y307441D01*
X72638Y295276D02*
X76968D01*
X74803Y293110D02*
Y297441D01*
X56890Y315276D02*
X61221D01*
X59055Y313110D02*
Y317441D01*
X56890Y305276D02*
X61221D01*
X59055Y303110D02*
Y307441D01*
X56890Y295276D02*
X61221D01*
X59055Y293110D02*
Y297441D01*
X697244Y44882D02*
X711417D01*
X704331Y37795D02*
Y51968D01*
X856299Y44882D02*
X870472D01*
X863386Y37795D02*
Y51968D01*
X699213Y66929D02*
X703937D01*
X701575Y64567D02*
Y69291D01*
X707874Y66929D02*
X712598D01*
X710236Y64567D02*
Y69291D01*
X716535Y66929D02*
X721260D01*
X718898Y64567D02*
Y69291D01*
X725197Y66929D02*
X729921D01*
X727559Y64567D02*
Y69291D01*
X733858Y66929D02*
X738583D01*
X736221Y64567D02*
Y69291D01*
X742520Y66929D02*
X747244D01*
X744882Y64567D02*
Y69291D01*
X751181Y66929D02*
X755905D01*
X753543Y64567D02*
Y69291D01*
X759842Y66929D02*
X764567D01*
X762205Y64567D02*
Y69291D01*
X768504Y66929D02*
X773228D01*
X770866Y64567D02*
Y69291D01*
X777165Y66929D02*
X781890D01*
X779528Y64567D02*
Y69291D01*
X785827Y66929D02*
X790551D01*
X788189Y64567D02*
Y69291D01*
X794488Y66929D02*
X799213D01*
X796850Y64567D02*
Y69291D01*
X803150Y66929D02*
X807874D01*
X805512Y64567D02*
Y69291D01*
X811811Y66929D02*
X816535D01*
X814173Y64567D02*
Y69291D01*
X820472Y66929D02*
X825197D01*
X822835Y64567D02*
Y69291D01*
X829134Y66929D02*
X833858D01*
X831496Y64567D02*
Y69291D01*
X837795Y66929D02*
X842520D01*
X840158Y64567D02*
Y69291D01*
X846457Y66929D02*
X851181D01*
X848819Y64567D02*
Y69291D01*
X855118Y66929D02*
X859842D01*
X857480Y64567D02*
Y69291D01*
X863780Y66929D02*
X868504D01*
X866142Y64567D02*
Y69291D01*
X699213Y78740D02*
X703937D01*
X701575Y76378D02*
Y81102D01*
X707874Y78740D02*
X712598D01*
X710236Y76378D02*
Y81102D01*
X716535Y78740D02*
X721260D01*
X718898Y76378D02*
Y81102D01*
X725197Y78740D02*
X729921D01*
X727559Y76378D02*
Y81102D01*
X733858Y78740D02*
X738583D01*
X736221Y76378D02*
Y81102D01*
X742520Y78740D02*
X747244D01*
X744882Y76378D02*
Y81102D01*
X751181Y78740D02*
X755905D01*
X753543Y76378D02*
Y81102D01*
X759842Y78740D02*
X764567D01*
X762205Y76378D02*
Y81102D01*
X768504Y78740D02*
X773228D01*
X770866Y76378D02*
Y81102D01*
X777165Y78740D02*
X781890D01*
X779528Y76378D02*
Y81102D01*
X785827Y78740D02*
X790551D01*
X788189Y76378D02*
Y81102D01*
X794488Y78740D02*
X799213D01*
X796850Y76378D02*
Y81102D01*
X803150Y78740D02*
X807874D01*
X805512Y76378D02*
Y81102D01*
X811811Y78740D02*
X816535D01*
X814173Y76378D02*
Y81102D01*
X820472Y78740D02*
X825197D01*
X822835Y76378D02*
Y81102D01*
X829134Y78740D02*
X833858D01*
X831496Y76378D02*
Y81102D01*
X837795Y78740D02*
X842520D01*
X840158Y76378D02*
Y81102D01*
X846457Y78740D02*
X851181D01*
X848819Y76378D02*
Y81102D01*
X855118Y78740D02*
X859842D01*
X857480Y76378D02*
Y81102D01*
X863780Y78740D02*
X868504D01*
X866142Y76378D02*
Y81102D01*
X362205Y44882D02*
X376378D01*
X369291Y37795D02*
Y51968D01*
X486614Y44882D02*
X500787D01*
X493701Y37795D02*
Y51968D01*
X364173Y66929D02*
X368898D01*
X366535Y64567D02*
Y69291D01*
X372835Y66929D02*
X377559D01*
X375197Y64567D02*
Y69291D01*
X381496Y66929D02*
X386221D01*
X383858Y64567D02*
Y69291D01*
X390158Y66929D02*
X394882D01*
X392520Y64567D02*
Y69291D01*
X398819Y66929D02*
X403543D01*
X401181Y64567D02*
Y69291D01*
X407480Y66929D02*
X412205D01*
X409842Y64567D02*
Y69291D01*
X416142Y66929D02*
X420866D01*
X418504Y64567D02*
Y69291D01*
X424803Y66929D02*
X429528D01*
X427165Y64567D02*
Y69291D01*
X433465Y66929D02*
X438189D01*
X435827Y64567D02*
Y69291D01*
X442126Y66929D02*
X446850D01*
X444488Y64567D02*
Y69291D01*
X450787Y66929D02*
X455512D01*
X453150Y64567D02*
Y69291D01*
X459449Y66929D02*
X464173D01*
X461811Y64567D02*
Y69291D01*
X468110Y66929D02*
X472835D01*
X470472Y64567D02*
Y69291D01*
X476772Y66929D02*
X481496D01*
X479134Y64567D02*
Y69291D01*
X485433Y66929D02*
X490158D01*
X487795Y64567D02*
Y69291D01*
X494095Y66929D02*
X498819D01*
X496457Y64567D02*
Y69291D01*
X364173Y78740D02*
X368898D01*
X366535Y76378D02*
Y81102D01*
X372835Y78740D02*
X377559D01*
X375197Y76378D02*
Y81102D01*
X381496Y78740D02*
X386221D01*
X383858Y76378D02*
Y81102D01*
X390158Y78740D02*
X394882D01*
X392520Y76378D02*
Y81102D01*
X398819Y78740D02*
X403543D01*
X401181Y76378D02*
Y81102D01*
X407480Y78740D02*
X412205D01*
X409842Y76378D02*
Y81102D01*
X416142Y78740D02*
X420866D01*
X418504Y76378D02*
Y81102D01*
X424803Y78740D02*
X429528D01*
X427165Y76378D02*
Y81102D01*
X433465Y78740D02*
X438189D01*
X435827Y76378D02*
Y81102D01*
X442126Y78740D02*
X446850D01*
X444488Y76378D02*
Y81102D01*
X450787Y78740D02*
X455512D01*
X453150Y76378D02*
Y81102D01*
X459449Y78740D02*
X464173D01*
X461811Y76378D02*
Y81102D01*
X468110Y78740D02*
X472835D01*
X470472Y76378D02*
Y81102D01*
X476772Y78740D02*
X481496D01*
X479134Y76378D02*
Y81102D01*
X485433Y78740D02*
X490158D01*
X487795Y76378D02*
Y81102D01*
X494095Y78740D02*
X498819D01*
X496457Y76378D02*
Y81102D01*
X137992Y381890D02*
X141535D01*
X139764Y380118D02*
Y383661D01*
X127992Y381890D02*
X131535D01*
X129764Y380118D02*
Y383661D01*
X982283Y15748D02*
X994094D01*
X988189Y9843D02*
Y21654D01*
X982283Y377953D02*
X994094D01*
X988189Y372047D02*
Y383858D01*
X9449Y15748D02*
X22047D01*
X15748Y9449D02*
Y22047D01*
X9449Y377953D02*
X22047D01*
X15748Y371654D02*
Y384252D01*
X11220Y43307D02*
X12402D01*
X11811Y42717D02*
Y43898D01*
X15157Y39370D02*
X16339D01*
X15748Y38780D02*
Y39961D01*
X11220Y35433D02*
X12402D01*
X11811Y34843D02*
Y36024D01*
X7283Y39370D02*
X8465D01*
X7874Y38780D02*
Y39961D01*
X15157Y43307D02*
X16339D01*
X15748Y42717D02*
Y43898D01*
X15157Y35433D02*
X16339D01*
X15748Y34843D02*
Y36024D01*
X204134Y169291D02*
X205315D01*
X204724Y168701D02*
Y169882D01*
X208071Y169291D02*
X209252D01*
X208661Y168701D02*
Y169882D01*
X208071Y165354D02*
X209252D01*
X208661Y164764D02*
Y165945D01*
X204134Y165354D02*
X205315D01*
X204724Y164764D02*
Y165945D01*
X7283Y43307D02*
X8465D01*
X7874Y42717D02*
Y43898D01*
X11220Y39370D02*
X12402D01*
X11811Y38780D02*
Y39961D01*
X7283Y35433D02*
X8465D01*
X7874Y34843D02*
Y36024D01*
X137205Y159449D02*
X138386D01*
X137795Y158858D02*
Y160039D01*
X133268Y159449D02*
X134449D01*
X133858Y158858D02*
Y160039D01*
X137205Y177165D02*
X138386D01*
X137795Y176575D02*
Y177756D01*
X433268Y138976D02*
X434449D01*
X433858Y138386D02*
Y139567D01*
X26969Y314272D02*
X28150D01*
X27559Y313681D02*
Y314862D01*
X26969Y318209D02*
X28150D01*
X27559Y317618D02*
Y318799D01*
X154547Y239075D02*
X155728D01*
X155138Y238484D02*
Y239665D01*
X182480Y226378D02*
X183661D01*
X183071Y225787D02*
Y226969D01*
X182480Y222441D02*
X183661D01*
X183071Y221850D02*
Y223031D01*
X149547Y217618D02*
X150728D01*
X150138Y217028D02*
Y218209D01*
X292717Y153543D02*
X293898D01*
X293307Y152953D02*
Y154134D01*
X296654Y153543D02*
X297835D01*
X297244Y152953D02*
Y154134D01*
X296654Y157480D02*
X297835D01*
X297244Y156890D02*
Y158071D01*
X292717Y157480D02*
X293898D01*
X293307Y156890D02*
Y158071D01*
X182480Y305118D02*
X183661D01*
X183071Y304528D02*
Y305709D01*
X86024Y220866D02*
X87205D01*
X86614Y220276D02*
Y221457D01*
X93095Y213795D02*
X94276D01*
X93685Y213205D02*
Y214386D01*
X182480Y64961D02*
X183661D01*
X183071Y64370D02*
Y65551D01*
X15157Y141535D02*
X16339D01*
X15748Y140945D02*
Y142126D01*
X15157Y134055D02*
X16339D01*
X15748Y133465D02*
Y134646D01*
X15157Y161221D02*
X16339D01*
X15748Y160630D02*
Y161811D01*
X200197Y238189D02*
X201378D01*
X200787Y237598D02*
Y238779D01*
X62402Y228543D02*
X63583D01*
X62992Y227953D02*
Y229134D01*
X152953Y43110D02*
X154134D01*
X153543Y42520D02*
Y43701D01*
X178543Y43110D02*
X179724D01*
X179134Y42520D02*
Y43701D01*
X165551Y43307D02*
X166732D01*
X166142Y42717D02*
Y43898D01*
X170669Y35433D02*
X171850D01*
X171260Y34843D02*
Y36024D01*
X160827Y35433D02*
X162008D01*
X161417Y34843D02*
Y36024D01*
X84055Y232283D02*
X85236D01*
X84646Y231693D02*
Y232874D01*
X192323Y238386D02*
X193504D01*
X192913Y237795D02*
Y238976D01*
X200197Y246063D02*
X201378D01*
X200787Y245472D02*
Y246654D01*
X253150Y320866D02*
X254331D01*
X253740Y320276D02*
Y321457D01*
X21063Y295276D02*
X22244D01*
X21654Y294685D02*
Y295866D01*
X32874Y232283D02*
X34055D01*
X33465Y231693D02*
Y232874D01*
X25000Y232283D02*
X26181D01*
X25591Y231693D02*
Y232874D01*
X131299Y232283D02*
X132480D01*
X131890Y231693D02*
Y232874D01*
X131299Y224410D02*
X132480D01*
X131890Y223819D02*
Y225000D01*
X144547Y217618D02*
X145728D01*
X145138Y217028D02*
Y218209D01*
X139547Y239075D02*
X140728D01*
X140138Y238484D02*
Y239665D01*
X239567Y169291D02*
X240748D01*
X240158Y168701D02*
Y169882D01*
X235630Y324803D02*
X236811D01*
X236221Y324213D02*
Y325394D01*
X263189Y324803D02*
X264370D01*
X263779Y324213D02*
Y325394D01*
X263189Y316929D02*
X264370D01*
X263779Y316339D02*
Y317520D01*
X273819Y366142D02*
X275000D01*
X274410Y365551D02*
Y366732D01*
X294685Y273228D02*
X295866D01*
X295276Y272638D02*
Y273819D01*
X294661Y268091D02*
X295842D01*
X295251Y267500D02*
Y268681D01*
X546654Y248031D02*
X547835D01*
X547244Y247441D02*
Y248622D01*
X545571Y263090D02*
X546752D01*
X546161Y262500D02*
Y263681D01*
X538779Y248031D02*
X539961D01*
X539370Y247441D02*
Y248622D01*
X515158Y248031D02*
X516339D01*
X515748Y247441D02*
Y248622D01*
X508366Y263090D02*
X509547D01*
X508957Y262500D02*
Y263681D01*
X508366Y293091D02*
X509547D01*
X508957Y292500D02*
Y293681D01*
X545571Y293091D02*
X546752D01*
X546161Y292500D02*
Y293681D01*
X918701Y242126D02*
X919882D01*
X919291Y241535D02*
Y242717D01*
X918701Y238189D02*
X919882D01*
X919291Y237598D02*
Y238779D01*
X741535Y238189D02*
X742717D01*
X742126Y237598D02*
Y238779D01*
X741535Y234252D02*
X742717D01*
X742126Y233661D02*
Y234842D01*
X447835Y151670D02*
X449016D01*
X448425Y151079D02*
Y152260D01*
X444685Y153543D02*
X445866D01*
X445276Y152953D02*
Y154134D01*
X406890Y183071D02*
X408071D01*
X407480Y182480D02*
Y183661D01*
X706102Y198819D02*
X707283D01*
X706693Y198228D02*
Y199409D01*
X712795Y200394D02*
X713976D01*
X713386Y199803D02*
Y200984D01*
X718701Y200787D02*
X719882D01*
X719291Y200197D02*
Y201378D01*
X725000Y198819D02*
X726181D01*
X725591Y198228D02*
Y199409D01*
X730118Y200394D02*
X731299D01*
X730709Y199803D02*
Y200984D01*
X847835Y221260D02*
X849016D01*
X848425Y220669D02*
Y221850D01*
X849016Y215354D02*
X850197D01*
X849606Y214764D02*
Y215945D01*
X851772Y233465D02*
X852953D01*
X852362Y232874D02*
Y234055D01*
X869094Y198819D02*
X870276D01*
X869685Y198228D02*
Y199409D01*
X875394Y199606D02*
X876575D01*
X875984Y199016D02*
Y200197D01*
X882480Y198819D02*
X883661D01*
X883071Y198228D02*
Y199409D01*
X888780Y198819D02*
X889961D01*
X889370Y198228D02*
Y199409D01*
X895079Y198819D02*
X896260D01*
X895669Y198228D02*
Y199409D01*
X900984Y198819D02*
X902165D01*
X901575Y198228D02*
Y199409D01*
X906890Y198819D02*
X908071D01*
X907480Y198228D02*
Y199409D01*
X920669Y214567D02*
X921850D01*
X921260Y213976D02*
Y215158D01*
X851803Y244063D02*
X852984D01*
X852394Y243472D02*
Y244654D01*
X672638Y244488D02*
X673819D01*
X673228Y243898D02*
Y245079D01*
X674835Y239535D02*
X676016D01*
X675425Y238945D02*
Y240126D01*
X672669Y230677D02*
X673850D01*
X673260Y230087D02*
Y231268D01*
X671457Y223228D02*
X672638D01*
X672047Y222638D02*
Y223819D01*
X444685Y180315D02*
X445866D01*
X445276Y179724D02*
Y180905D01*
X295571Y90925D02*
X296752D01*
X296161Y90335D02*
Y91516D01*
X295571Y100925D02*
X296752D01*
X296161Y100335D02*
Y101516D01*
X295571Y31870D02*
X296752D01*
X296161Y31280D02*
Y32461D01*
X295571Y36870D02*
X296752D01*
X296161Y36279D02*
Y37461D01*
X295571Y41870D02*
X296752D01*
X296161Y41280D02*
Y42461D01*
X295571Y46870D02*
X296752D01*
X296161Y46279D02*
Y47461D01*
X295571Y95925D02*
X296752D01*
X296161Y95335D02*
Y96516D01*
X295571Y105925D02*
X296752D01*
X296161Y105335D02*
Y106516D01*
X426575Y163386D02*
X427756D01*
X427165Y162795D02*
Y163976D01*
X422638Y163386D02*
X423819D01*
X423228Y162795D02*
Y163976D01*
X418701Y163386D02*
X419882D01*
X419291Y162795D02*
Y163976D01*
X414764Y163386D02*
X415945D01*
X415354Y162795D02*
Y163976D01*
X402953Y179134D02*
X404134D01*
X403543Y178543D02*
Y179724D01*
X495472Y175197D02*
X496654D01*
X496063Y174606D02*
Y175787D01*
X499409Y175197D02*
X500591D01*
X500000Y174606D02*
Y175787D01*
X491535Y175197D02*
X492717D01*
X492126Y174606D02*
Y175787D01*
X487598Y175197D02*
X488779D01*
X488189Y174606D02*
Y175787D01*
X916732Y267717D02*
X917913D01*
X917323Y267126D02*
Y268307D01*
X912795Y267717D02*
X913976D01*
X913386Y267126D02*
Y268307D01*
X940354Y230315D02*
X941535D01*
X940945Y229724D02*
Y230906D01*
X940354Y226378D02*
X941535D01*
X940945Y225787D02*
Y226969D01*
X936417Y226378D02*
X937598D01*
X937008Y225787D02*
Y226969D01*
X936417Y230315D02*
X937598D01*
X937008Y229724D02*
Y230906D01*
X936417Y253937D02*
X937598D01*
X937008Y253346D02*
Y254528D01*
X936417Y250000D02*
X937598D01*
X937008Y249410D02*
Y250590D01*
X940354Y250000D02*
X941535D01*
X940945Y249410D02*
Y250590D01*
X940354Y253937D02*
X941535D01*
X940945Y253346D02*
Y254528D01*
X258366Y85925D02*
X259547D01*
X258957Y85335D02*
Y86516D01*
X863583Y259842D02*
X864764D01*
X864173Y259252D02*
Y260433D01*
X896653Y236221D02*
X897835D01*
X897244Y235630D02*
Y236811D01*
X888780Y244094D02*
X889961D01*
X889370Y243504D02*
Y244685D01*
X896653Y244094D02*
X897835D01*
X897244Y243504D02*
Y244685D01*
X880906Y236221D02*
X882087D01*
X881496Y235630D02*
Y236811D01*
X888780Y236221D02*
X889961D01*
X889370Y235630D02*
Y236811D01*
X880906Y228346D02*
X882087D01*
X881496Y227756D02*
Y228937D01*
X888780Y228346D02*
X889961D01*
X889370Y227756D02*
Y228937D01*
X896653Y228346D02*
X897835D01*
X897244Y227756D02*
Y228937D01*
X880906Y244094D02*
X882087D01*
X881496Y243504D02*
Y244685D01*
X720276Y228346D02*
X721457D01*
X720866Y227756D02*
Y228937D01*
X704528Y228346D02*
X705709D01*
X705118Y227756D02*
Y228937D01*
X704528Y244094D02*
X705709D01*
X705118Y243504D02*
Y244685D01*
X720276Y244094D02*
X721457D01*
X720866Y243504D02*
Y244685D01*
X720276Y236221D02*
X721457D01*
X720866Y235630D02*
Y236811D01*
X712402Y244094D02*
X713583D01*
X712992Y243504D02*
Y244685D01*
X704528Y236221D02*
X705709D01*
X705118Y235630D02*
Y236811D01*
X712402Y228346D02*
X713583D01*
X712992Y227756D02*
Y228937D01*
X712402Y236221D02*
X713583D01*
X712992Y235630D02*
Y236811D01*
X765158Y250000D02*
X766339D01*
X765748Y249410D02*
Y250590D01*
X765158Y246063D02*
X766339D01*
X765748Y245472D02*
Y246654D01*
X759252Y222441D02*
X760433D01*
X759842Y221850D02*
Y223031D01*
X763189Y222441D02*
X764370D01*
X763779Y221850D02*
Y223031D01*
X763189Y226378D02*
X764370D01*
X763779Y225787D02*
Y226969D01*
X759252Y226378D02*
X760433D01*
X759842Y225787D02*
Y226969D01*
X761221Y246063D02*
X762402D01*
X761811Y245472D02*
Y246654D01*
X761221Y250000D02*
X762402D01*
X761811Y249410D02*
Y250590D01*
X737598Y267717D02*
X738779D01*
X738189Y267126D02*
Y268307D01*
X733661Y267717D02*
X734842D01*
X734252Y267126D02*
Y268307D01*
X686417Y261811D02*
X687598D01*
X687008Y261221D02*
Y262402D01*
X820276Y236221D02*
X821457D01*
X820866Y235630D02*
Y236811D01*
X702362Y303150D02*
X703543D01*
X702953Y302559D02*
Y303740D01*
X627362Y271654D02*
X628543D01*
X627953Y271063D02*
Y272244D01*
X698228Y269685D02*
X699409D01*
X698819Y269094D02*
Y270276D01*
X989961Y150000D02*
X991142D01*
X990551Y149409D02*
Y150591D01*
X875591Y303150D02*
X876772D01*
X876181Y302559D02*
Y303740D01*
X871457Y275590D02*
X872638D01*
X872047Y275000D02*
Y276181D01*
X649016Y297244D02*
X650197D01*
X649606Y296654D02*
Y297835D01*
X645079Y297244D02*
X646260D01*
X645669Y296654D02*
Y297835D01*
X641142Y297244D02*
X642323D01*
X641732Y296654D02*
Y297835D01*
X893110Y267717D02*
X894291D01*
X893701Y267126D02*
Y268307D01*
X893110Y271654D02*
X894291D01*
X893701Y271063D02*
Y272244D01*
X907732Y286811D02*
X908913D01*
X908323Y286221D02*
Y287402D01*
X730567Y286811D02*
X731748D01*
X731157Y286221D02*
Y287402D01*
X758126Y286811D02*
X759307D01*
X758716Y286221D02*
Y287402D01*
X930512Y261811D02*
X931693D01*
X931102Y261221D02*
Y262402D01*
X717913Y267717D02*
X719095D01*
X718504Y267126D02*
Y268307D01*
X757283Y257874D02*
X758465D01*
X757874Y257283D02*
Y258465D01*
X637205Y229921D02*
X638386D01*
X637795Y229331D02*
Y230512D01*
X639173Y171260D02*
X640354D01*
X639764Y170669D02*
Y171850D01*
X639173Y175197D02*
X640354D01*
X639764Y174606D02*
Y175787D01*
X654921Y175197D02*
X656102D01*
X655512Y174606D02*
Y175787D01*
X654921Y171260D02*
X656102D01*
X655512Y170669D02*
Y171850D01*
X672638Y169291D02*
X673819D01*
X673228Y168701D02*
Y169882D01*
X672638Y173228D02*
X673819D01*
X673228Y172638D02*
Y173819D01*
X433268Y143701D02*
X434449D01*
X433858Y143110D02*
Y144291D01*
X368307Y143701D02*
X369488D01*
X368898Y143110D02*
Y144291D01*
X784842Y165354D02*
X786024D01*
X785433Y164764D02*
Y165945D01*
X784842Y161417D02*
X786024D01*
X785433Y160827D02*
Y162008D01*
X731693Y167323D02*
X732874D01*
X732283Y166732D02*
Y167913D01*
X731693Y163386D02*
X732874D01*
X732283Y162795D02*
Y163976D01*
X715945Y163386D02*
X717126D01*
X716535Y162795D02*
Y163976D01*
X712008Y163386D02*
X713189D01*
X712598Y162795D02*
Y163976D01*
X696260Y161417D02*
X697441D01*
X696850Y160827D02*
Y162008D01*
X700197Y161417D02*
X701378D01*
X700787Y160827D02*
Y162008D01*
X745472Y171260D02*
X746654D01*
X746063Y170669D02*
Y171850D01*
X745472Y175197D02*
X746654D01*
X746063Y174606D02*
Y175787D01*
X814370Y244094D02*
X815551D01*
X814961Y243504D02*
Y244685D01*
X814370Y159449D02*
X815551D01*
X814961Y158858D02*
Y160039D01*
X814370Y163386D02*
X815551D01*
X814961Y162795D02*
Y163976D01*
X830118Y165354D02*
X831299D01*
X830709Y164764D02*
Y165945D01*
X830118Y161417D02*
X831299D01*
X830709Y160827D02*
Y162008D01*
X855709Y161417D02*
X856890D01*
X856299Y160827D02*
Y162008D01*
X851772Y161417D02*
X852953D01*
X852362Y160827D02*
Y162008D01*
X935291Y286811D02*
X936472D01*
X935882Y286221D02*
Y287402D01*
X918701Y253937D02*
X919882D01*
X919291Y253346D02*
Y254528D01*
X938386Y187008D02*
X939567D01*
X938976Y186417D02*
Y187598D01*
X938386Y190945D02*
X939567D01*
X938976Y190354D02*
Y191535D01*
X916732Y171260D02*
X917913D01*
X917323Y170669D02*
Y171850D01*
X916732Y175197D02*
X917913D01*
X917323Y174606D02*
Y175787D01*
X910827Y163386D02*
X912008D01*
X911417Y162795D02*
Y163976D01*
X910827Y159449D02*
X912008D01*
X911417Y158858D02*
Y160039D01*
X899016Y159449D02*
X900197D01*
X899606Y158858D02*
Y160039D01*
X875394Y163386D02*
X876575D01*
X875984Y162795D02*
Y163976D01*
X895079Y159449D02*
X896260D01*
X895669Y158858D02*
Y160039D01*
X871457Y163386D02*
X872638D01*
X872047Y162795D02*
Y163976D01*
X936417Y202756D02*
X937598D01*
X937008Y202165D02*
Y203346D01*
X721260Y113976D02*
X722441D01*
X721850Y113386D02*
Y114567D01*
X864567Y113976D02*
X865748D01*
X865158Y113386D02*
Y114567D01*
X859449Y113976D02*
X860630D01*
X860039Y113386D02*
Y114567D01*
X767323Y113976D02*
X768504D01*
X767913Y113386D02*
Y114567D01*
X772441Y113976D02*
X773622D01*
X773032Y113386D02*
Y114567D01*
X777559Y113976D02*
X778740D01*
X778150Y113386D02*
Y114567D01*
X731496Y113976D02*
X732677D01*
X732087Y113386D02*
Y114567D01*
X726378Y113976D02*
X727559D01*
X726968Y113386D02*
Y114567D01*
X736614Y113976D02*
X737795D01*
X737205Y113386D02*
Y114567D01*
X741732Y113976D02*
X742913D01*
X742323Y113386D02*
Y114567D01*
X746850Y113976D02*
X748032D01*
X747441Y113386D02*
Y114567D01*
X751968Y113976D02*
X753150D01*
X752559Y113386D02*
Y114567D01*
X757087Y113976D02*
X758268D01*
X757677Y113386D02*
Y114567D01*
X762205Y113976D02*
X763386D01*
X762795Y113386D02*
Y114567D01*
X782677Y113976D02*
X783858D01*
X783268Y113386D02*
Y114567D01*
X787795Y113976D02*
X788976D01*
X788386Y113386D02*
Y114567D01*
X792913Y113976D02*
X794095D01*
X793504Y113386D02*
Y114567D01*
X798032Y113976D02*
X799213D01*
X798622Y113386D02*
Y114567D01*
X803150Y113976D02*
X804331D01*
X803740Y113386D02*
Y114567D01*
X808268Y113976D02*
X809449D01*
X808858Y113386D02*
Y114567D01*
X813386Y113976D02*
X814567D01*
X813976Y113386D02*
Y114567D01*
X818504Y113976D02*
X819685D01*
X819094Y113386D02*
Y114567D01*
X823622Y113976D02*
X824803D01*
X824213Y113386D02*
Y114567D01*
X828740Y113976D02*
X829921D01*
X829331Y113386D02*
Y114567D01*
X833858Y113976D02*
X835039D01*
X834449Y113386D02*
Y114567D01*
X838976Y113976D02*
X840158D01*
X839567Y113386D02*
Y114567D01*
X844094Y113976D02*
X845276D01*
X844685Y113386D02*
Y114567D01*
X849213Y113976D02*
X850394D01*
X849803Y113386D02*
Y114567D01*
X854331Y113976D02*
X855512D01*
X854921Y113386D02*
Y114567D01*
X869685Y113976D02*
X870866D01*
X870276Y113386D02*
Y114567D01*
X874803Y113976D02*
X875984D01*
X875394Y113386D02*
Y114567D01*
X743504Y253937D02*
X744685D01*
X744095Y253346D02*
Y254528D01*
X851772Y239370D02*
X852953D01*
X852362Y238779D02*
Y239961D01*
X851772Y206693D02*
X852953D01*
X852362Y206102D02*
Y207283D01*
X845866Y248031D02*
X847047D01*
X846457Y247441D02*
Y248622D01*
X908071Y209449D02*
X909252D01*
X908661Y208858D02*
Y210039D01*
X867126Y210236D02*
X868307D01*
X867717Y209646D02*
Y210827D01*
X879921Y113976D02*
X881102D01*
X880512Y113386D02*
Y114567D01*
X672638Y204724D02*
X673819D01*
X673228Y204134D02*
Y205315D01*
X672638Y214567D02*
X673819D01*
X673228Y213976D02*
Y215158D01*
X668701Y250000D02*
X669882D01*
X669291Y249410D02*
Y250590D01*
X689567Y210630D02*
X690748D01*
X690158Y210039D02*
Y211221D01*
X696260Y202756D02*
X697441D01*
X696850Y202165D02*
Y203346D01*
X700197Y198819D02*
X701378D01*
X700787Y198228D02*
Y199409D01*
X733661Y210630D02*
X734842D01*
X734252Y210039D02*
Y211221D01*
X743504Y214567D02*
X744685D01*
X744095Y213976D02*
Y215158D01*
X624213Y138189D02*
X625394D01*
X624803Y137598D02*
Y138779D01*
X635236Y138189D02*
X636417D01*
X635827Y137598D02*
Y138779D01*
X646260Y138189D02*
X647441D01*
X646850Y137598D02*
Y138779D01*
X657283Y138189D02*
X658465D01*
X657874Y137598D02*
Y138779D01*
X668307Y138189D02*
X669488D01*
X668898Y137598D02*
Y138779D01*
X679331Y138189D02*
X680512D01*
X679921Y137598D02*
Y138779D01*
X690354Y138189D02*
X691535D01*
X690945Y137598D02*
Y138779D01*
X701378Y138189D02*
X702559D01*
X701968Y137598D02*
Y138779D01*
X712402Y138189D02*
X713583D01*
X712992Y137598D02*
Y138779D01*
X723425Y138189D02*
X724606D01*
X724016Y137598D02*
Y138779D01*
X734449Y138189D02*
X735630D01*
X735039Y137598D02*
Y138779D01*
X745472Y138189D02*
X746654D01*
X746063Y137598D02*
Y138779D01*
X756496Y138189D02*
X757677D01*
X757087Y137598D02*
Y138779D01*
X767520Y138189D02*
X768701D01*
X768110Y137598D02*
Y138779D01*
X778543Y138189D02*
X779724D01*
X779134Y137598D02*
Y138779D01*
X789567Y138189D02*
X790748D01*
X790158Y137598D02*
Y138779D01*
X800591Y138189D02*
X801772D01*
X801181Y137598D02*
Y138779D01*
X811614Y138189D02*
X812795D01*
X812205Y137598D02*
Y138779D01*
X822638Y138189D02*
X823819D01*
X823228Y137598D02*
Y138779D01*
X833661Y138189D02*
X834842D01*
X834252Y137598D02*
Y138779D01*
X844685Y138189D02*
X845866D01*
X845276Y137598D02*
Y138779D01*
X855709Y138189D02*
X856890D01*
X856299Y137598D02*
Y138779D01*
X866732Y138189D02*
X867913D01*
X867323Y137598D02*
Y138779D01*
X877756Y138189D02*
X878937D01*
X878347Y137598D02*
Y138779D01*
X888780Y138189D02*
X889961D01*
X889370Y137598D02*
Y138779D01*
X899803Y138189D02*
X900984D01*
X900394Y137598D02*
Y138779D01*
X910827Y138189D02*
X912008D01*
X911417Y137598D02*
Y138779D01*
X921850Y138189D02*
X923032D01*
X922441Y137598D02*
Y138779D01*
X932874Y138189D02*
X934055D01*
X933465Y137598D02*
Y138779D01*
X943898Y138189D02*
X945079D01*
X944488Y137598D02*
Y138779D01*
X954921Y138189D02*
X956102D01*
X955512Y137598D02*
Y138779D01*
X965945Y138189D02*
X967126D01*
X966535Y137598D02*
Y138779D01*
X976968Y138189D02*
X978150D01*
X977559Y137598D02*
Y138779D01*
X259252Y64961D02*
X260433D01*
X259842Y64370D02*
Y65551D01*
X258366Y26870D02*
X259547D01*
X258957Y26280D02*
Y27461D01*
X259252Y124016D02*
X260433D01*
X259842Y123425D02*
Y124606D01*
X440354Y160630D02*
X441535D01*
X440945Y160039D02*
Y161221D01*
X371457Y161417D02*
X372638D01*
X372047Y160827D02*
Y162008D01*
X391142Y165354D02*
X392323D01*
X391732Y164764D02*
Y165945D01*
X378937Y154724D02*
X380118D01*
X379528Y154134D02*
Y155315D01*
X426575Y155512D02*
X427756D01*
X427165Y154921D02*
Y156102D01*
X436417Y156693D02*
X437598D01*
X437008Y156102D02*
Y157283D01*
X432480Y157480D02*
X433661D01*
X433071Y156890D02*
Y158071D01*
X368307Y131890D02*
X369488D01*
X368898Y131299D02*
Y132480D01*
X368307Y125984D02*
X369488D01*
X368898Y125394D02*
Y126575D01*
X495716Y147638D02*
X496898D01*
X496307Y147047D02*
Y148228D01*
X495716Y155512D02*
X496898D01*
X496307Y154921D02*
Y156102D01*
X426575Y147638D02*
X427756D01*
X427165Y147047D02*
Y148228D01*
X440354Y156693D02*
X441535D01*
X440945Y156102D02*
Y157283D01*
X472882Y171260D02*
X474063D01*
X473472Y170669D02*
Y171850D01*
X457874Y177165D02*
X459055D01*
X458465Y176575D02*
Y177756D01*
X434842Y148819D02*
X436024D01*
X435433Y148228D02*
Y149409D01*
X351772Y114173D02*
X352953D01*
X352362Y113583D02*
Y114764D01*
X351772Y183071D02*
X352953D01*
X352362Y182480D02*
Y183661D01*
X394291Y126378D02*
X395472D01*
X394882Y125787D02*
Y126969D01*
X463189Y125984D02*
X464370D01*
X463779Y125394D02*
Y126575D01*
X463189Y114173D02*
X464370D01*
X463779Y113583D02*
Y114764D01*
X468701Y120079D02*
X469882D01*
X469291Y119488D02*
Y120669D01*
X439567Y138976D02*
X440748D01*
X440158Y138386D02*
Y139567D01*
X422244Y102756D02*
X423425D01*
X422835Y102165D02*
Y103347D01*
X421457Y135827D02*
X422638D01*
X422047Y135236D02*
Y136417D01*
X387598Y102756D02*
X388779D01*
X388189Y102165D02*
Y103347D01*
X374606Y137795D02*
X375787D01*
X375197Y137205D02*
Y138386D01*
X387992Y126378D02*
X389173D01*
X388583Y125787D02*
Y126969D01*
X406102Y125984D02*
X407283D01*
X406693Y125394D02*
Y126575D01*
X456890Y125984D02*
X458071D01*
X457480Y125394D02*
Y126575D01*
X460630Y94095D02*
X461811D01*
X461221Y93504D02*
Y94685D01*
X435827Y94095D02*
X437008D01*
X436417Y93504D02*
Y94685D01*
X425984Y94095D02*
X427165D01*
X426575Y93504D02*
Y94685D01*
X401181Y94095D02*
X402362D01*
X401772Y93504D02*
Y94685D01*
X391339Y94095D02*
X392520D01*
X391929Y93504D02*
Y94685D01*
X366535Y94095D02*
X367717D01*
X367126Y93504D02*
Y94685D01*
X475000Y125984D02*
X476181D01*
X475591Y125394D02*
Y126575D01*
X492323Y133858D02*
X493504D01*
X492913Y133268D02*
Y134449D01*
X470472Y94095D02*
X471654D01*
X471063Y93504D02*
Y94685D01*
X495276Y94095D02*
X496457D01*
X495866Y93504D02*
Y94685D01*
X295571Y26870D02*
X296752D01*
X296161Y26280D02*
Y27461D01*
X294685Y64961D02*
X295866D01*
X295276Y64370D02*
Y65551D01*
X294685Y124016D02*
X295866D01*
X295276Y123425D02*
Y124606D01*
X371457Y157480D02*
X372638D01*
X372047Y156890D02*
Y158071D01*
X320669Y149606D02*
X321850D01*
X321260Y149016D02*
Y150197D01*
X315905Y184055D02*
X317087D01*
X316496Y183465D02*
Y184646D01*
X376181Y152756D02*
X377362D01*
X376772Y152165D02*
Y153347D01*
X391142Y149606D02*
X392323D01*
X391732Y149016D02*
Y150197D01*
X381299Y177165D02*
X382480D01*
X381890Y176575D02*
Y177756D01*
X365551Y149606D02*
X366732D01*
X366142Y149016D02*
Y150197D01*
X399016Y165354D02*
X400197D01*
X399606Y164764D02*
Y165945D01*
X400591Y149606D02*
X401772D01*
X401181Y149016D02*
Y150197D01*
X400984Y137795D02*
X402165D01*
X401575Y137205D02*
Y138386D01*
X395079Y137795D02*
X396260D01*
X395669Y137205D02*
Y138386D01*
X434676Y188999D02*
X435857D01*
X435267Y188409D02*
Y189590D01*
X498622Y139764D02*
X499803D01*
X499213Y139173D02*
Y140354D01*
X498622Y133858D02*
X499803D01*
X499213Y133268D02*
Y134449D01*
X498622Y127953D02*
X499803D01*
X499213Y127362D02*
Y128543D01*
X498622Y122047D02*
X499803D01*
X499213Y121457D02*
Y122638D01*
X463189Y131890D02*
X464370D01*
X463779Y131299D02*
Y132480D01*
X468701Y131890D02*
X469882D01*
X469291Y131299D02*
Y132480D01*
X468701Y125984D02*
X469882D01*
X469291Y125394D02*
Y126575D01*
X463189Y120079D02*
X464370D01*
X463779Y119488D02*
Y120669D01*
X468701Y114173D02*
X469882D01*
X469291Y113583D02*
Y114764D01*
X440354Y168504D02*
X441535D01*
X440945Y167913D02*
Y169095D01*
X427756Y124016D02*
X428937D01*
X428346Y123425D02*
Y124606D01*
X433268Y129134D02*
X434449D01*
X433858Y128543D02*
Y129724D01*
X427756Y129921D02*
X428937D01*
X428346Y129331D02*
Y130512D01*
X433268Y133858D02*
X434449D01*
X433858Y133268D02*
Y134449D01*
X427756Y135827D02*
X428937D01*
X428346Y135236D02*
Y136417D01*
X427756Y141732D02*
X428937D01*
X428346Y141142D02*
Y142323D01*
X394291Y120079D02*
X395472D01*
X394882Y119488D02*
Y120669D01*
X394291Y114173D02*
X395472D01*
X394882Y113583D02*
Y114764D01*
X399803Y114173D02*
X400984D01*
X400394Y113583D02*
Y114764D01*
X399803Y120079D02*
X400984D01*
X400394Y119488D02*
Y120669D01*
X399803Y125984D02*
X400984D01*
X400394Y125394D02*
Y126575D01*
X399803Y131890D02*
X400984D01*
X400394Y131299D02*
Y132480D01*
X394291Y131890D02*
X395472D01*
X394882Y131299D02*
Y132480D01*
X368307Y137795D02*
X369488D01*
X368898Y137205D02*
Y138386D01*
X370276Y102756D02*
X371457D01*
X370866Y102165D02*
Y103347D01*
X404921Y102756D02*
X406102D01*
X405512Y102165D02*
Y103347D01*
X439567Y102756D02*
X440748D01*
X440158Y102165D02*
Y103347D01*
X456890Y102756D02*
X458071D01*
X457480Y102165D02*
Y103347D01*
X474213Y102756D02*
X475394D01*
X474803Y102165D02*
Y103347D01*
X491535Y102756D02*
X492717D01*
X492126Y102165D02*
Y103347D01*
M02*
