G04*
G04 #@! TF.GenerationSoftware,Altium Limited,Altium Designer,24.1.2 (44)*
G04*
G04 Layer_Physical_Order=2*
G04 Layer_Color=16711680*
%FSLAX25Y25*%
%MOIN*%
G70*
G04*
G04 #@! TF.SameCoordinates,470A4D24-D506-40DE-B28D-38AA9C1F057A*
G04*
G04*
G04 #@! TF.FilePolarity,Positive*
G04*
G01*
G75*
%ADD24C,0.01181*%
%ADD25C,0.01968*%
%ADD26C,0.01181*%
%ADD27R,0.06791X0.06791*%
%ADD28C,0.06791*%
%ADD29R,0.11811X0.11811*%
%ADD30R,0.05906X0.05906*%
%ADD31C,0.05906*%
%ADD32R,0.04842X0.04842*%
%ADD33C,0.04842*%
%ADD34C,0.21260*%
%ADD35R,0.05906X0.05906*%
%ADD36C,0.01968*%
D24*
X196850Y157480D02*
D03*
Y155512D02*
D03*
Y153543D02*
D03*
Y151575D02*
D03*
Y149606D02*
D03*
Y147638D02*
D03*
Y145669D02*
D03*
Y143701D02*
D03*
Y141732D02*
D03*
Y139764D02*
D03*
Y137795D02*
D03*
X216535D02*
D03*
Y139764D02*
D03*
Y141732D02*
D03*
Y143701D02*
D03*
Y145669D02*
D03*
D03*
Y147638D02*
D03*
Y149606D02*
D03*
Y151575D02*
D03*
Y153543D02*
D03*
Y155512D02*
D03*
Y157480D02*
D03*
Y1969D02*
D03*
Y0D02*
D03*
Y3937D02*
D03*
Y5906D02*
D03*
Y7874D02*
D03*
Y9843D02*
D03*
Y11811D02*
D03*
Y13780D02*
D03*
Y15748D02*
D03*
Y17717D02*
D03*
Y19685D02*
D03*
X196850D02*
D03*
Y17717D02*
D03*
Y15748D02*
D03*
Y13780D02*
D03*
Y11811D02*
D03*
Y9843D02*
D03*
Y7874D02*
D03*
Y5906D02*
D03*
Y1969D02*
D03*
Y3937D02*
D03*
Y0D02*
D03*
D25*
X103307Y151732D02*
X138425Y186850D01*
X103307Y19685D02*
Y151732D01*
X138425Y186850D02*
X148425D01*
X138425Y196850D02*
X148425D01*
X128425D02*
X138425D01*
X111181Y11811D02*
X185039D01*
X103307Y19685D02*
X111181Y11811D01*
X85433D02*
X93307Y19685D01*
X11811Y11811D02*
X85433D01*
D26*
X98425Y196850D02*
X160627Y259053D01*
Y264722D01*
X88425Y196850D02*
X150669Y259095D01*
Y264764D01*
X78425Y196850D02*
X140669Y259095D01*
Y264764D01*
X68425Y196850D02*
X130669Y259095D01*
Y264764D01*
X58425Y196850D02*
X120669Y259095D01*
Y264764D01*
X170669Y225787D02*
Y264764D01*
X148425Y196850D02*
Y203543D01*
X170669Y225787D01*
X110669Y259095D02*
Y264764D01*
X48425Y196850D02*
X110669Y259095D01*
X160627Y264722D02*
X160669Y264764D01*
X253937Y147638D02*
X352362D01*
X250289Y132809D02*
Y143990D01*
X253937Y147638D01*
X245276Y127795D02*
X250289Y132809D01*
X352362Y147638D02*
X362205Y137795D01*
X280262Y132782D02*
X285276Y137795D01*
X280262Y118890D02*
Y132782D01*
X267285Y105913D02*
X280262Y118890D01*
X260289Y132809D02*
X265276Y137795D01*
X260289Y69345D02*
Y132809D01*
X246063Y55118D02*
X260289Y69345D01*
X232283Y137795D02*
X245276D01*
X224410Y13780D02*
Y129921D01*
X232283Y137795D01*
X224410Y13780D02*
X232283Y5906D01*
X330709D01*
X334646Y9843D01*
X246063Y22345D02*
X256597Y11811D01*
X291339D02*
X295276Y15748D01*
X256597Y11811D02*
X291339D01*
X246063Y22345D02*
Y55118D01*
X255906Y20472D02*
X267285Y31852D01*
Y105913D01*
X295276Y15748D02*
Y20472D01*
X334646Y9843D02*
Y20472D01*
D27*
X245276Y127795D02*
D03*
X48425Y186850D02*
D03*
D28*
X255276Y127795D02*
D03*
X265276D02*
D03*
X275276D02*
D03*
X285276D02*
D03*
X295276D02*
D03*
X305276D02*
D03*
X315276D02*
D03*
X325276D02*
D03*
X335276D02*
D03*
X345276D02*
D03*
X245276Y137795D02*
D03*
X255276D02*
D03*
X265276D02*
D03*
X275276D02*
D03*
X285276D02*
D03*
X295276D02*
D03*
X305276D02*
D03*
X315276D02*
D03*
X325276D02*
D03*
X335276D02*
D03*
X345276D02*
D03*
X58425Y186850D02*
D03*
X68425D02*
D03*
X78425D02*
D03*
X88425D02*
D03*
X98425D02*
D03*
X108425D02*
D03*
X118425D02*
D03*
X128425D02*
D03*
X138425D02*
D03*
X148425D02*
D03*
X48425Y196850D02*
D03*
X58425D02*
D03*
X68425D02*
D03*
X78425D02*
D03*
X88425D02*
D03*
X98425D02*
D03*
X108425D02*
D03*
X118425D02*
D03*
X128425D02*
D03*
X138425D02*
D03*
X148425D02*
D03*
D29*
X185039Y11811D02*
D03*
X11811D02*
D03*
D30*
X93307Y19685D02*
D03*
D31*
X103307D02*
D03*
X163386Y351969D02*
D03*
X154724D02*
D03*
X146063D02*
D03*
X137402D02*
D03*
X128740D02*
D03*
X120079D02*
D03*
X111417D02*
D03*
X102756D02*
D03*
X94095D02*
D03*
X85433D02*
D03*
X76772D02*
D03*
X68110D02*
D03*
X59449D02*
D03*
X50787D02*
D03*
X42126D02*
D03*
X33465D02*
D03*
X163386Y340158D02*
D03*
X154724D02*
D03*
X146063D02*
D03*
X137402D02*
D03*
X128740D02*
D03*
X120079D02*
D03*
X111417D02*
D03*
X102756D02*
D03*
X94095D02*
D03*
X85433D02*
D03*
X76772D02*
D03*
X68110D02*
D03*
X59449D02*
D03*
X50787D02*
D03*
X42126D02*
D03*
X33465D02*
D03*
X362205Y127795D02*
D03*
D32*
X16181Y264764D02*
D03*
X110669D02*
D03*
D33*
X26181D02*
D03*
X36181D02*
D03*
X46181D02*
D03*
X56181D02*
D03*
X66181D02*
D03*
X76181D02*
D03*
X86181D02*
D03*
Y295276D02*
D03*
X76181D02*
D03*
X66181D02*
D03*
X56181D02*
D03*
X46181D02*
D03*
X36181D02*
D03*
X26181D02*
D03*
X16181D02*
D03*
X120669Y264764D02*
D03*
X130669D02*
D03*
X140669D02*
D03*
X150669D02*
D03*
X160669D02*
D03*
X170669D02*
D03*
X180669D02*
D03*
Y295276D02*
D03*
X170669D02*
D03*
X160669D02*
D03*
X150669D02*
D03*
X140669D02*
D03*
X130669D02*
D03*
X120669D02*
D03*
X110669D02*
D03*
D34*
X160630Y374016D02*
D03*
X36220D02*
D03*
D35*
X362205Y137795D02*
D03*
D36*
X255906Y20472D02*
D03*
X295276D02*
D03*
X334646D02*
D03*
M02*
