M48
;Layer_Color=9474304
;FILE_FORMAT=2:4
INCH,TZ
;TYPE=PLATED
T01F00S00C0.0118
T02F00S00C0.0327
T03F00S00C0.0354
T04F00S00C0.0394
T05F00S00C0.0453
T06F00S00C0.0472
T07F00S00C0.1417
%
T01
X19685Y0
Y197
Y394
Y591
Y787
Y984
Y1181
Y1378
Y1575
Y1772
Y1969
X21654
Y1772
Y1575
Y1378
Y1181
Y984
Y787
Y591
Y394
Y197
Y0
X25591Y2047
X29528
X21654Y13780
Y13976
Y14173
Y14370
Y14567
Y14764
Y14961
Y15157
Y15354
Y15551
X19685
Y15354
Y15157
Y14961
Y14764
Y14567
Y14370
Y14173
Y13976
Y13780
X33465Y2047
X21654Y15748
X19685
T02
X16067Y26476
X17067
X18067
Y29528
X17067
X16067
X15067
X14067
X13067
X12067
X11067
X8618
X7618
X6618
X5618
X4618
X3618
X2618
X1618
Y26476
X2618
X3618
X4618
X5618
X6618
X7618
X8618
X11067
X12067
X13067
X14067
X15067
T03
X9331Y1969
X10331
X36220Y12780
Y13780
T04
X1181Y1181
X18504
T05
X24528Y12780
X25528
X26528
X27528
X28528
X29528
X30528
Y13780
X29528
X28528
X27528
X26528
X25528
X24528
X31528
Y12780
X32528
X33528
X34528
Y13780
X33528
X32528
X14843Y18685
X13843
X12843
X11843
X10843
X9843
X8843
X7843
X6843
X5843
X4843
Y19685
X5843
X6843
X7843
X8843
X9843
X10843
X11843
X12843
X13843
X14843
T06
X3346Y34016
X4213
X5079
X5945
X6811
X7677
X8543
X9409
X10276
X11142
X12008
X12874
X13740
X14606
X15472
Y35197
X14606
X13740
X12874
X12008
X11142
X10276
X9409
X8543
X7677
X6811
X5945
X5079
X4213
X3346
X16339
Y34016
T07
X3622Y37402
X16063
M30
