G04*
G04 #@! TF.GenerationSoftware,Altium Limited,Altium Designer,24.1.2 (44)*
G04*
G04 Layer_Color=32896*
%FSLAX25Y25*%
%MOIN*%
G70*
G04*
G04 #@! TF.SameCoordinates,470A4D24-D506-40DE-B28D-38AA9C1F057A*
G04*
G04*
G04 #@! TF.FilePolarity,Positive*
G04*
G01*
G75*
%ADD11C,0.00394*%
%ADD38C,0.00197*%
D11*
X14567Y328740D02*
X182283D01*
Y440433D01*
X14567D02*
X182283D01*
X14567Y328740D02*
Y440433D01*
D38*
X6713Y260354D02*
Y299685D01*
X95650D01*
Y260354D02*
Y299685D01*
X6713Y260354D02*
X95650D01*
X101201D02*
Y299685D01*
X190138D01*
Y260354D02*
Y299685D01*
X101201Y260354D02*
X190138D01*
X228543Y73032D02*
X243898D01*
Y103347D01*
X228543D02*
X243898D01*
X228543Y73032D02*
Y103347D01*
X248228Y73032D02*
X263583D01*
Y103347D01*
X248228D02*
X263583D01*
X248228Y73032D02*
Y103347D01*
X267913Y73032D02*
X283268D01*
Y103347D01*
X267913D02*
X283268D01*
X267913Y73032D02*
Y103347D01*
X287598Y73032D02*
X302953D01*
Y103347D01*
X287598D02*
X302953D01*
X287598Y73032D02*
Y103347D01*
X307283Y73032D02*
X322638D01*
Y103347D01*
X307283D02*
X322638D01*
X307283Y73032D02*
Y103347D01*
X326969Y73032D02*
X342323D01*
Y103347D01*
X326969D02*
X342323D01*
X326969Y73032D02*
Y103347D01*
X346654Y73032D02*
X362008D01*
Y103347D01*
X346654D02*
X362008D01*
X346654Y73032D02*
Y103347D01*
X346654Y45079D02*
X362008D01*
X346654Y14764D02*
Y45079D01*
Y14764D02*
X362008D01*
Y45079D01*
X326969D02*
X342323D01*
X326969Y14764D02*
Y45079D01*
Y14764D02*
X342323D01*
Y45079D01*
X307283D02*
X322638D01*
X307283Y14764D02*
Y45079D01*
Y14764D02*
X322638D01*
Y45079D01*
X287598D02*
X302953D01*
X287598Y14764D02*
Y45079D01*
Y14764D02*
X302953D01*
Y45079D01*
X267913D02*
X283268D01*
X267913Y14764D02*
Y45079D01*
Y14764D02*
X283268D01*
Y45079D01*
X248228D02*
X263583D01*
X248228Y14764D02*
Y45079D01*
Y14764D02*
X263583D01*
Y45079D01*
X228543D02*
X243898D01*
X228543Y14764D02*
Y45079D01*
Y14764D02*
X243898D01*
Y45079D01*
M02*
