G04*
G04 #@! TF.GenerationSoftware,Altium Limited,Altium Designer,24.1.2 (44)*
G04*
G04 Layer_Physical_Order=1*
G04 Layer_Color=255*
%FSLAX25Y25*%
%MOIN*%
G70*
G04*
G04 #@! TF.SameCoordinates,470A4D24-D506-40DE-B28D-38AA9C1F057A*
G04*
G04*
G04 #@! TF.FilePolarity,Positive*
G04*
G01*
G75*
%ADD13R,0.13386X0.09449*%
%ADD24C,0.01181*%
%ADD25C,0.01968*%
%ADD26C,0.01181*%
%ADD27R,0.06791X0.06791*%
%ADD28C,0.06791*%
%ADD29R,0.11811X0.11811*%
%ADD30R,0.05906X0.05906*%
%ADD31C,0.05906*%
%ADD32R,0.04842X0.04842*%
%ADD33C,0.04842*%
%ADD34C,0.21260*%
%ADD35R,0.05906X0.05906*%
%ADD36C,0.01968*%
D13*
X236221Y97638D02*
D03*
Y78740D02*
D03*
X255906Y97638D02*
D03*
Y78740D02*
D03*
X275590Y97638D02*
D03*
Y78740D02*
D03*
X295276Y97638D02*
D03*
Y78740D02*
D03*
X314961Y97638D02*
D03*
Y78740D02*
D03*
X334646Y97638D02*
D03*
Y78740D02*
D03*
X354331Y97638D02*
D03*
Y78740D02*
D03*
X354331Y20472D02*
D03*
Y39370D02*
D03*
X334646Y20472D02*
D03*
Y39370D02*
D03*
X314961Y20472D02*
D03*
Y39370D02*
D03*
X295276Y20472D02*
D03*
Y39370D02*
D03*
X275590Y20472D02*
D03*
Y39370D02*
D03*
X255906Y20472D02*
D03*
Y39370D02*
D03*
X236221Y20472D02*
D03*
Y39370D02*
D03*
D24*
X196850Y157480D02*
D03*
Y155512D02*
D03*
Y153543D02*
D03*
Y151575D02*
D03*
Y149606D02*
D03*
Y147638D02*
D03*
Y145669D02*
D03*
Y143701D02*
D03*
Y141732D02*
D03*
Y139764D02*
D03*
Y137795D02*
D03*
X216535D02*
D03*
Y139764D02*
D03*
Y141732D02*
D03*
Y143701D02*
D03*
Y145669D02*
D03*
D03*
Y147638D02*
D03*
Y149606D02*
D03*
Y151575D02*
D03*
Y153543D02*
D03*
Y155512D02*
D03*
Y157480D02*
D03*
Y1969D02*
D03*
Y0D02*
D03*
Y3937D02*
D03*
Y5906D02*
D03*
Y7874D02*
D03*
Y9843D02*
D03*
Y11811D02*
D03*
Y13780D02*
D03*
Y15748D02*
D03*
Y17717D02*
D03*
Y19685D02*
D03*
X196850D02*
D03*
Y17717D02*
D03*
Y15748D02*
D03*
Y13780D02*
D03*
Y11811D02*
D03*
Y9843D02*
D03*
Y7874D02*
D03*
Y5906D02*
D03*
Y1969D02*
D03*
Y3937D02*
D03*
Y0D02*
D03*
D25*
X163386Y179134D02*
Y194882D01*
X93307Y109055D02*
X163386Y179134D01*
X161417Y196850D02*
X163386Y194882D01*
X148425Y196850D02*
X161417D01*
X93307Y19685D02*
Y109055D01*
D26*
X170669Y295276D02*
Y324213D01*
X154724Y340158D02*
X170669Y324213D01*
X146063Y340158D02*
X160669Y325551D01*
Y295276D02*
Y325551D01*
X150669Y295276D02*
Y326890D01*
X137402Y340158D02*
X150669Y326890D01*
X140669Y295276D02*
Y328228D01*
X128740Y340158D02*
X140669Y328228D01*
X120079Y340158D02*
X130669Y329567D01*
Y295276D02*
Y329567D01*
X120669Y295276D02*
Y330906D01*
X111417Y340158D02*
X120669Y330906D01*
X110669Y295276D02*
Y332244D01*
X102756Y340158D02*
X110669Y332244D01*
X86181Y332244D02*
X94095Y340158D01*
X86181Y295276D02*
Y332244D01*
X76181Y330906D02*
X85433Y340158D01*
X76181Y295276D02*
Y330906D01*
X66181Y295276D02*
Y329567D01*
X76772Y340158D01*
X56181Y328228D02*
X68110Y340158D01*
X56181Y295276D02*
Y328228D01*
X46181Y326890D02*
X59449Y340158D01*
X46181Y295276D02*
Y326890D01*
X36181Y295276D02*
Y325551D01*
X50787Y340158D01*
X26181Y295276D02*
Y324213D01*
X42126Y340158D01*
X16181Y322874D02*
X33465Y340158D01*
X16181Y295276D02*
Y322874D01*
X102362Y202756D02*
Y228346D01*
X76181Y254528D02*
Y264764D01*
Y254528D02*
X102362Y228346D01*
X66181Y248780D02*
Y264764D01*
X93411Y191864D02*
Y221549D01*
X66181Y248780D02*
X93411Y221549D01*
X56181Y241063D02*
X83439Y213805D01*
Y191837D02*
Y213805D01*
X56181Y241063D02*
Y264764D01*
X46181Y235315D02*
Y264764D01*
X73411Y191864D02*
Y208085D01*
X46181Y235315D02*
X73411Y208085D01*
X113411Y191864D02*
X118425Y186850D01*
X113411Y191864D02*
Y230618D01*
X86181Y257848D02*
X113411Y230618D01*
X86181Y257848D02*
Y264764D01*
X102362Y202756D02*
X103439Y201679D01*
Y191837D02*
Y201679D01*
Y191837D02*
X108425Y186850D01*
X93411Y191864D02*
X98425Y186850D01*
X83439Y191837D02*
X88425Y186850D01*
X73411Y191864D02*
X78425Y186850D01*
X36181Y231535D02*
Y264764D01*
Y231535D02*
X63439Y204278D01*
Y191837D02*
X68425Y186850D01*
X63439Y191837D02*
Y204278D01*
X53411Y191864D02*
X58425Y186850D01*
X26181Y226146D02*
X53411Y198916D01*
Y191864D02*
Y198916D01*
X26181Y226146D02*
Y264764D01*
X16181Y219094D02*
Y264764D01*
Y219094D02*
X48425Y186850D01*
X357087Y149606D02*
X366142D01*
X370079Y17717D02*
Y145669D01*
X366142Y149606D02*
X370079Y145669D01*
X360236Y7874D02*
X370079Y17717D01*
X345276Y137795D02*
X357087Y149606D01*
X238189Y20472D02*
X250787Y7874D01*
X360236D01*
X236221Y20472D02*
X238189D01*
X307087Y112205D02*
X314961D01*
X295276Y127795D02*
X295859Y127212D01*
Y123433D02*
Y127212D01*
Y123433D02*
X307087Y112205D01*
X314961D02*
X324803Y102362D01*
X314961Y78740D02*
X324803Y88583D01*
Y102362D01*
X329629Y101772D02*
X333763Y97638D01*
X305276Y127795D02*
X329629Y103442D01*
Y101772D02*
Y103442D01*
X333763Y97638D02*
X354331D01*
X275276Y127795D02*
X285433Y117638D01*
Y88583D02*
Y117638D01*
X275590Y78740D02*
X285433Y88583D01*
X246063Y118583D02*
X255276Y127795D01*
X246063Y88583D02*
Y118583D01*
Y88583D02*
X255906Y78740D01*
X357413Y115028D02*
X366142Y106299D01*
X364173Y78740D02*
X366142Y80709D01*
Y106299D01*
X335276Y137795D02*
X345276D01*
X325276D02*
X335276D01*
X345276Y127795D02*
X362205D01*
X335276D02*
X345276D01*
X226378Y66929D02*
X234252Y59055D01*
X226378Y129660D02*
X244356Y147638D01*
X226378Y66929D02*
Y129660D01*
X222441Y129921D02*
X244094Y151575D01*
X222441Y62992D02*
Y129921D01*
Y62992D02*
X232283Y53150D01*
X218520Y131905D02*
X242126Y155512D01*
X218520Y55102D02*
Y131905D01*
Y55102D02*
X234252Y39370D01*
X314961D02*
Y47244D01*
X303150Y59055D02*
X314961Y47244D01*
X234252Y59055D02*
X303150D01*
X244356Y147638D02*
X253937D01*
X255276Y137795D02*
Y146299D01*
X253937Y147638D02*
X255276Y146299D01*
X275590Y138110D02*
Y147638D01*
X275276Y137795D02*
X275590Y138110D01*
X271654Y151575D02*
X275590Y147638D01*
X244094Y151575D02*
X271654D01*
X232283Y53150D02*
X259842D01*
X273622Y39370D02*
X275590D01*
X259842Y53150D02*
X273622Y39370D01*
X295276Y137795D02*
Y147638D01*
X287402Y155512D02*
X295276Y147638D01*
X242126Y155512D02*
X287402D01*
X234252Y39370D02*
X236221D01*
X328043Y115028D02*
X357413D01*
X354331Y78740D02*
X364173D01*
X315276Y127795D02*
X328043Y115028D01*
X285276Y127795D02*
X295276Y117795D01*
Y97638D02*
Y117795D01*
X255906Y118425D02*
X265276Y127795D01*
X255906Y97638D02*
Y118425D01*
X236221Y118740D02*
X245276Y127795D01*
X236221Y97638D02*
Y118740D01*
X354331Y39370D02*
X354331Y39370D01*
X354331Y39370D02*
Y78740D01*
X314961D02*
X334646D01*
X295276Y97638D02*
X314961D01*
X275590Y78740D02*
X295276D01*
X255906Y97638D02*
X275590D01*
X236221Y78740D02*
X255906D01*
X255906Y20472D02*
X275590D01*
X236221Y39370D02*
X255906D01*
X275590D02*
X295276D01*
Y20472D02*
X314961D01*
Y39370D02*
X334646D01*
Y20472D02*
X354331D01*
D27*
X245276Y127795D02*
D03*
X48425Y186850D02*
D03*
D28*
X255276Y127795D02*
D03*
X265276D02*
D03*
X275276D02*
D03*
X285276D02*
D03*
X295276D02*
D03*
X305276D02*
D03*
X315276D02*
D03*
X325276D02*
D03*
X335276D02*
D03*
X345276D02*
D03*
X245276Y137795D02*
D03*
X255276D02*
D03*
X265276D02*
D03*
X275276D02*
D03*
X285276D02*
D03*
X295276D02*
D03*
X305276D02*
D03*
X315276D02*
D03*
X325276D02*
D03*
X335276D02*
D03*
X345276D02*
D03*
X58425Y186850D02*
D03*
X68425D02*
D03*
X78425D02*
D03*
X88425D02*
D03*
X98425D02*
D03*
X108425D02*
D03*
X118425D02*
D03*
X128425D02*
D03*
X138425D02*
D03*
X148425D02*
D03*
X48425Y196850D02*
D03*
X58425D02*
D03*
X68425D02*
D03*
X78425D02*
D03*
X88425D02*
D03*
X98425D02*
D03*
X108425D02*
D03*
X118425D02*
D03*
X128425D02*
D03*
X138425D02*
D03*
X148425D02*
D03*
D29*
X185039Y11811D02*
D03*
X11811D02*
D03*
D30*
X93307Y19685D02*
D03*
D31*
X103307D02*
D03*
X163386Y351969D02*
D03*
X154724D02*
D03*
X146063D02*
D03*
X137402D02*
D03*
X128740D02*
D03*
X120079D02*
D03*
X111417D02*
D03*
X102756D02*
D03*
X94095D02*
D03*
X85433D02*
D03*
X76772D02*
D03*
X68110D02*
D03*
X59449D02*
D03*
X50787D02*
D03*
X42126D02*
D03*
X33465D02*
D03*
X163386Y340158D02*
D03*
X154724D02*
D03*
X146063D02*
D03*
X137402D02*
D03*
X128740D02*
D03*
X120079D02*
D03*
X111417D02*
D03*
X102756D02*
D03*
X94095D02*
D03*
X85433D02*
D03*
X76772D02*
D03*
X68110D02*
D03*
X59449D02*
D03*
X50787D02*
D03*
X42126D02*
D03*
X33465D02*
D03*
X362205Y127795D02*
D03*
D32*
X16181Y264764D02*
D03*
X110669D02*
D03*
D33*
X26181D02*
D03*
X36181D02*
D03*
X46181D02*
D03*
X56181D02*
D03*
X66181D02*
D03*
X76181D02*
D03*
X86181D02*
D03*
Y295276D02*
D03*
X76181D02*
D03*
X66181D02*
D03*
X56181D02*
D03*
X46181D02*
D03*
X36181D02*
D03*
X26181D02*
D03*
X16181D02*
D03*
X120669Y264764D02*
D03*
X130669D02*
D03*
X140669D02*
D03*
X150669D02*
D03*
X160669D02*
D03*
X170669D02*
D03*
X180669D02*
D03*
Y295276D02*
D03*
X170669D02*
D03*
X160669D02*
D03*
X150669D02*
D03*
X140669D02*
D03*
X130669D02*
D03*
X120669D02*
D03*
X110669D02*
D03*
D34*
X160630Y374016D02*
D03*
X36220D02*
D03*
D35*
X362205Y137795D02*
D03*
D36*
X255906Y20472D02*
D03*
X295276D02*
D03*
X334646D02*
D03*
M02*
