G04*
G04 #@! TF.GenerationSoftware,Altium Limited,Altium Designer,23.11.1 (41)*
G04*
G04 Layer_Color=65535*
%FSLAX25Y25*%
%MOIN*%
G70*
G04*
G04 #@! TF.SameCoordinates,6E39C2C4-82FC-4C76-91FC-3CE356360368*
G04*
G04*
G04 #@! TF.FilePolarity,Positive*
G04*
G01*
G75*
%ADD10C,0.00787*%
%ADD11C,0.01000*%
D10*
X-10346Y15803D02*
X-5425D01*
X-1390Y-9295D02*
Y16295D01*
Y-9295D02*
X12390D01*
Y16295D01*
X-1390D02*
X12390D01*
D11*
X24000Y3000D02*
X31000D01*
X24000D02*
Y8500D01*
X31000Y10500D02*
Y16000D01*
X24000D02*
X31000D01*
Y3000D02*
Y8500D01*
X24000Y10500D02*
Y16000D01*
X-20500Y3000D02*
X-13500D01*
X-20500D02*
Y8500D01*
X-13500Y10500D02*
Y16000D01*
X-20500D02*
X-13500D01*
Y3000D02*
Y8500D01*
X-20500Y10500D02*
Y16000D01*
X-28000Y19999D02*
X-28999Y20999D01*
X-30999D01*
X-31998Y19999D01*
Y16001D01*
X-30999Y15001D01*
X-28999D01*
X-28000Y16001D01*
X-22002Y15001D02*
X-26000D01*
X-22002Y19000D01*
Y19999D01*
X-23001Y20999D01*
X-25001D01*
X-26000Y19999D01*
X37000Y7095D02*
X38000Y6095D01*
X39999D01*
X40999Y7095D01*
Y11094D01*
X39999Y12094D01*
X38000D01*
X37000Y11094D01*
X35001Y12094D02*
X33001D01*
X34001D01*
Y6095D01*
X35001Y7095D01*
X1501Y14499D02*
Y8501D01*
X4500D01*
X5500Y9501D01*
Y10500D01*
X4500Y11500D01*
X1501D01*
X4500D01*
X5500Y12500D01*
Y13499D01*
X4500Y14499D01*
X1501D01*
X7499Y8501D02*
X9499D01*
X8499D01*
Y14499D01*
X7499Y13499D01*
M02*
