G04*
G04 #@! TF.GenerationSoftware,Altium Limited,Altium Designer,23.11.1 (41)*
G04*
G04 Layer_Color=8421504*
%FSLAX25Y25*%
%MOIN*%
G70*
G04*
G04 #@! TF.SameCoordinates,699D02C0-9AC9-4603-9118-91A02CF6E2C1*
G04*
G04*
G04 #@! TF.FilePolarity,Positive*
G04*
G01*
G75*
G04:AMPARAMS|DCode=16|XSize=47mil|YSize=12mil|CornerRadius=0mil|HoleSize=0mil|Usage=FLASHONLY|Rotation=315.000|XOffset=0mil|YOffset=0mil|HoleType=Round|Shape=Rectangle|*
%AMROTATEDRECTD16*
4,1,4,-0.02086,0.01237,-0.01237,0.02086,0.02086,-0.01237,0.01237,-0.02086,-0.02086,0.01237,0.0*
%
%ADD16ROTATEDRECTD16*%

G04:AMPARAMS|DCode=17|XSize=47mil|YSize=12mil|CornerRadius=0mil|HoleSize=0mil|Usage=FLASHONLY|Rotation=225.000|XOffset=0mil|YOffset=0mil|HoleType=Round|Shape=Rectangle|*
%AMROTATEDRECTD17*
4,1,4,0.01237,0.02086,0.02086,0.01237,-0.01237,-0.02086,-0.02086,-0.01237,0.01237,0.02086,0.0*
%
%ADD17ROTATEDRECTD17*%

G04:AMPARAMS|DCode=18|XSize=23.62mil|YSize=19.68mil|CornerRadius=0mil|HoleSize=0mil|Usage=FLASHONLY|Rotation=315.000|XOffset=0mil|YOffset=0mil|HoleType=Round|Shape=Rectangle|*
%AMROTATEDRECTD18*
4,1,4,-0.01531,0.00139,-0.00139,0.01531,0.01531,-0.00139,0.00139,-0.01531,-0.01531,0.00139,0.0*
%
%ADD18ROTATEDRECTD18*%

%ADD19R,0.03701X0.02126*%
%ADD20R,0.04921X0.03740*%
%ADD21R,0.04921X0.12598*%
%ADD22R,0.01575X0.05315*%
%ADD23R,0.07480X0.07480*%
G04:AMPARAMS|DCode=24|XSize=23.62mil|YSize=19.68mil|CornerRadius=0mil|HoleSize=0mil|Usage=FLASHONLY|Rotation=45.000|XOffset=0mil|YOffset=0mil|HoleType=Round|Shape=Rectangle|*
%AMROTATEDRECTD24*
4,1,4,-0.00139,-0.01531,-0.01531,-0.00139,0.00139,0.01531,0.01531,0.00139,-0.00139,-0.01531,0.0*
%
%ADD24ROTATEDRECTD24*%

D16*
X52293Y84308D02*
D03*
X53685Y85700D02*
D03*
X55077Y87092D02*
D03*
X56469Y88484D02*
D03*
X57861Y89876D02*
D03*
X59253Y91268D02*
D03*
X60645Y92660D02*
D03*
X62037Y94051D02*
D03*
X63429Y95443D02*
D03*
X64821Y96835D02*
D03*
X66213Y98227D02*
D03*
X67605Y99619D02*
D03*
X68997Y101011D02*
D03*
X70389Y102403D02*
D03*
X71780Y103795D02*
D03*
X73172Y105187D02*
D03*
X105187Y73172D02*
D03*
X103795Y71780D02*
D03*
X102403Y70389D02*
D03*
X101011Y68997D02*
D03*
X99619Y67605D02*
D03*
X98227Y66213D02*
D03*
X96835Y64821D02*
D03*
X95443Y63429D02*
D03*
X94051Y62037D02*
D03*
X92660Y60645D02*
D03*
X91268Y59253D02*
D03*
X89876Y57861D02*
D03*
X88484Y56469D02*
D03*
X87092Y55077D02*
D03*
X85700Y53685D02*
D03*
X84308Y52293D02*
D03*
D17*
Y105187D02*
D03*
X85700Y103795D02*
D03*
X87092Y102403D02*
D03*
X88484Y101011D02*
D03*
X89876Y99619D02*
D03*
X91268Y98227D02*
D03*
X92660Y96835D02*
D03*
X94051Y95443D02*
D03*
X95443Y94051D02*
D03*
X96835Y92660D02*
D03*
X98227Y91268D02*
D03*
X99619Y89876D02*
D03*
X101011Y88484D02*
D03*
X102403Y87092D02*
D03*
X103795Y85700D02*
D03*
X105187Y84308D02*
D03*
X73172Y52293D02*
D03*
X71780Y53685D02*
D03*
X70389Y55077D02*
D03*
X68997Y56469D02*
D03*
X67605Y57861D02*
D03*
X66213Y59253D02*
D03*
X64821Y60645D02*
D03*
X63429Y62037D02*
D03*
X62037Y63429D02*
D03*
X60645Y64821D02*
D03*
X59253Y66213D02*
D03*
X57861Y67605D02*
D03*
X56469Y68997D02*
D03*
X55077Y70389D02*
D03*
X53685Y71780D02*
D03*
X52293Y73172D02*
D03*
D18*
X44521Y65621D02*
D03*
X47584Y62558D02*
D03*
X49811Y64785D02*
D03*
X46749Y67848D02*
D03*
D19*
X102000Y24150D02*
D03*
Y17850D02*
D03*
X62500Y24150D02*
D03*
Y17850D02*
D03*
D20*
X68614Y24055D02*
D03*
Y15000D02*
D03*
Y5945D02*
D03*
D21*
X95386Y15000D02*
D03*
D22*
X113842Y131468D02*
D03*
X111284D02*
D03*
X108724D02*
D03*
X106165D02*
D03*
X103606D02*
D03*
D23*
X124276Y142000D02*
D03*
X113449D02*
D03*
X104000D02*
D03*
X93173D02*
D03*
D24*
X49355Y59082D02*
D03*
X52418Y62145D02*
D03*
X54645Y59918D02*
D03*
X51582Y56855D02*
D03*
M02*
