G04*
G04 #@! TF.GenerationSoftware,Altium Limited,Altium Designer,24.1.2 (44)*
G04*
G04 Layer_Color=255*
%FSLAX25Y25*%
%MOIN*%
G70*
G04*
G04 #@! TF.SameCoordinates,1DDA6136-DF48-45E1-A017-FCB5BA0D29E7*
G04*
G04*
G04 #@! TF.FilePolarity,Positive*
G04*
G01*
G75*
%ADD48C,0.06791*%
%ADD49R,0.06791X0.06791*%
%ADD50C,0.01083*%
%ADD53R,0.06496X0.06496*%
%ADD54C,0.06496*%
D48*
X17874Y6299D02*
D03*
Y16299D02*
D03*
Y26299D02*
D03*
Y36299D02*
D03*
Y46299D02*
D03*
Y56299D02*
D03*
Y66299D02*
D03*
Y76299D02*
D03*
Y86299D02*
D03*
Y96299D02*
D03*
Y106299D02*
D03*
X7874Y6299D02*
D03*
Y16299D02*
D03*
Y26299D02*
D03*
Y36299D02*
D03*
Y46299D02*
D03*
Y56299D02*
D03*
Y66299D02*
D03*
Y76299D02*
D03*
Y86299D02*
D03*
Y96299D02*
D03*
X140551D02*
D03*
Y86299D02*
D03*
Y76299D02*
D03*
Y66299D02*
D03*
Y56299D02*
D03*
Y46299D02*
D03*
Y36299D02*
D03*
Y26299D02*
D03*
Y16299D02*
D03*
Y6299D02*
D03*
X150551Y106299D02*
D03*
Y96299D02*
D03*
Y86299D02*
D03*
Y76299D02*
D03*
Y66299D02*
D03*
Y56299D02*
D03*
Y46299D02*
D03*
Y36299D02*
D03*
Y26299D02*
D03*
Y16299D02*
D03*
Y6299D02*
D03*
D49*
X7874Y106299D02*
D03*
X140551D02*
D03*
D50*
X116598Y133535D02*
D03*
X100850D02*
D03*
D53*
X151575Y118110D02*
D03*
D54*
Y128110D02*
D03*
Y138110D02*
D03*
M02*
