G04*
G04 #@! TF.GenerationSoftware,Altium Limited,Altium Designer,24.1.2 (44)*
G04*
G04 Layer_Color=32896*
%FSLAX25Y25*%
%MOIN*%
G70*
G04*
G04 #@! TF.SameCoordinates,1DDA6136-DF48-45E1-A017-FCB5BA0D29E7*
G04*
G04*
G04 #@! TF.FilePolarity,Positive*
G04*
G01*
G75*
%ADD11C,0.00394*%
%ADD61C,0.00197*%
D11*
X46609Y74947D02*
X56910Y64646D01*
X47723Y55459D02*
X56910Y64646D01*
X37422Y65760D02*
X47723Y55459D01*
X37422Y65760D02*
X46609Y74947D01*
X85496Y124874D02*
X131953D01*
X85496D02*
Y156882D01*
X131953D01*
Y124874D02*
Y156882D01*
X42256Y58943D02*
X51443Y49756D01*
X61744Y60057D01*
X52557Y69244D02*
X61744Y60057D01*
X42256Y58943D02*
X52557Y69244D01*
D61*
X71669Y30173D02*
X105331D01*
Y1827D02*
Y30173D01*
X71669Y1827D02*
X105331D01*
X71669D02*
Y30173D01*
X68941Y4197D02*
Y13803D01*
X64059Y4197D02*
X68941D01*
X64059D02*
Y13803D01*
X68941D01*
Y15047D02*
Y24654D01*
X64059Y15047D02*
X68941D01*
X64059D02*
Y24654D01*
X68941D01*
X83925Y141606D02*
Y157106D01*
X33555Y141606D02*
X83925D01*
X33555D02*
Y157106D01*
X83925D01*
X145079Y111339D02*
X158071D01*
X145079D02*
Y144882D01*
X158071D01*
Y111339D02*
Y144882D01*
M02*
