G04*
G04 #@! TF.GenerationSoftware,Altium Limited,Altium Designer,23.11.1 (41)*
G04*
G04 Layer_Physical_Order=1*
G04 Layer_Color=255*
%FSLAX25Y25*%
%MOIN*%
G70*
G04*
G04 #@! TF.SameCoordinates,699D02C0-9AC9-4603-9118-91A02CF6E2C1*
G04*
G04*
G04 #@! TF.FilePolarity,Positive*
G04*
G01*
G75*
%ADD10C,0.00600*%
%ADD15C,0.01000*%
G04:AMPARAMS|DCode=16|XSize=47mil|YSize=12mil|CornerRadius=0mil|HoleSize=0mil|Usage=FLASHONLY|Rotation=315.000|XOffset=0mil|YOffset=0mil|HoleType=Round|Shape=Rectangle|*
%AMROTATEDRECTD16*
4,1,4,-0.02086,0.01237,-0.01237,0.02086,0.02086,-0.01237,0.01237,-0.02086,-0.02086,0.01237,0.0*
%
%ADD16ROTATEDRECTD16*%

G04:AMPARAMS|DCode=17|XSize=47mil|YSize=12mil|CornerRadius=0mil|HoleSize=0mil|Usage=FLASHONLY|Rotation=225.000|XOffset=0mil|YOffset=0mil|HoleType=Round|Shape=Rectangle|*
%AMROTATEDRECTD17*
4,1,4,0.01237,0.02086,0.02086,0.01237,-0.01237,-0.02086,-0.02086,-0.01237,0.01237,0.02086,0.0*
%
%ADD17ROTATEDRECTD17*%

G04:AMPARAMS|DCode=18|XSize=23.62mil|YSize=19.68mil|CornerRadius=0mil|HoleSize=0mil|Usage=FLASHONLY|Rotation=315.000|XOffset=0mil|YOffset=0mil|HoleType=Round|Shape=Rectangle|*
%AMROTATEDRECTD18*
4,1,4,-0.01531,0.00139,-0.00139,0.01531,0.01531,-0.00139,0.00139,-0.01531,-0.01531,0.00139,0.0*
%
%ADD18ROTATEDRECTD18*%

%ADD19R,0.03701X0.02126*%
%ADD20R,0.04921X0.03740*%
%ADD21R,0.04921X0.12598*%
%ADD22R,0.01575X0.05315*%
%ADD23R,0.07480X0.07480*%
G04:AMPARAMS|DCode=24|XSize=23.62mil|YSize=19.68mil|CornerRadius=0mil|HoleSize=0mil|Usage=FLASHONLY|Rotation=45.000|XOffset=0mil|YOffset=0mil|HoleType=Round|Shape=Rectangle|*
%AMROTATEDRECTD24*
4,1,4,-0.00139,-0.01531,-0.01531,-0.00139,0.00139,0.01531,0.01531,0.00139,-0.00139,-0.01531,0.0*
%
%ADD24ROTATEDRECTD24*%

%ADD39C,0.01500*%
%ADD40C,0.00598*%
%ADD41C,0.00900*%
%ADD42C,0.00700*%
%ADD43C,0.06791*%
%ADD44R,0.06791X0.06791*%
%ADD45C,0.01083*%
%ADD46O,0.06791X0.11811*%
%ADD47R,0.06791X0.11811*%
%ADD48R,0.06496X0.06496*%
%ADD49C,0.06496*%
%ADD50C,0.02362*%
G36*
X105000Y28977D02*
Y20351D01*
X104923Y20127D01*
X104403Y20039D01*
X102292Y22150D01*
X102208Y22206D01*
X102137Y22277D01*
X102059Y22329D01*
X102059Y22329D01*
X101966Y22368D01*
X101961Y22371D01*
X101955Y22372D01*
X101795Y22439D01*
X101790Y22442D01*
X101784Y22443D01*
X101691Y22481D01*
X101599Y22500D01*
X101498D01*
X101400Y22520D01*
X93100D01*
X93002Y22500D01*
X92901Y22500D01*
X92809Y22482D01*
X92809D01*
X92809Y22481D01*
X92716Y22443D01*
X92710Y22442D01*
X92705Y22439D01*
X92618Y22402D01*
X92572Y22393D01*
X92554Y22386D01*
X92553Y22386D01*
X92553Y22386D01*
X92515Y22360D01*
X92441Y22329D01*
X92396Y22299D01*
X92396Y22299D01*
X91925D01*
Y21867D01*
X79078Y9020D01*
X66100D01*
X66002Y9000D01*
X65901D01*
X65818Y8983D01*
X65725Y8945D01*
X65710Y8942D01*
X65698Y8934D01*
X65450Y8831D01*
X65434Y8815D01*
X65153D01*
Y8513D01*
X65066Y8302D01*
X65058Y8290D01*
X65055Y8275D01*
X65017Y8182D01*
X65000Y8099D01*
Y7998D01*
X64980Y7900D01*
Y4100D01*
X65000Y4002D01*
Y3901D01*
X65017Y3818D01*
X65055Y3725D01*
X65058Y3710D01*
X65066Y3698D01*
X65153Y3487D01*
Y3075D01*
X65677D01*
X65698Y3066D01*
X65710Y3058D01*
X65725Y3055D01*
X65818Y3017D01*
X65901Y3000D01*
X66002D01*
X66100Y2980D01*
X93400D01*
X93498Y3000D01*
X93599Y3000D01*
X93691Y3018D01*
X93784Y3057D01*
X93790Y3058D01*
X93795Y3061D01*
X93955Y3128D01*
X93961Y3129D01*
X93966Y3132D01*
X94059Y3171D01*
X94137Y3223D01*
X94208Y3294D01*
X94292Y3350D01*
X98643Y7701D01*
X98847D01*
Y7904D01*
X104500Y13558D01*
X105000Y13351D01*
Y2000D01*
X59500D01*
Y15349D01*
X59507Y15369D01*
X60000Y15631D01*
X60110Y15558D01*
X60500Y15480D01*
X62078D01*
X65153Y12404D01*
Y12130D01*
X65502D01*
X65610Y12058D01*
X66000Y11980D01*
X71000D01*
X71390Y12058D01*
X71498Y12130D01*
X72075D01*
Y17870D01*
X71572D01*
X69721Y19721D01*
X69390Y19942D01*
X69000Y20020D01*
X60500D01*
X60110Y19942D01*
X59603Y20050D01*
X59500Y20351D01*
Y29500D01*
X84629D01*
X85066Y29319D01*
X85934D01*
X86371Y29500D01*
X104477D01*
X105000Y28977D01*
D02*
G37*
G36*
X71000Y17000D02*
Y13000D01*
X66000D01*
X62500Y16500D01*
X60500D01*
Y19000D01*
X69000D01*
X71000Y17000D01*
D02*
G37*
G36*
X101492Y21482D02*
X101571Y21429D01*
X104000Y19000D01*
Y14500D01*
X93571Y4071D01*
X93492Y4019D01*
X93400Y4000D01*
X66100D01*
X66017Y4017D01*
X66000Y4100D01*
Y7900D01*
X66017Y7983D01*
X66100Y8000D01*
X79500D01*
X92944Y21444D01*
X92963Y21451D01*
X93008Y21482D01*
X93100Y21500D01*
X101400D01*
X101492Y21482D01*
D02*
G37*
D10*
X138663Y2000D02*
X139586Y1704D01*
X140551Y1603D01*
X141516Y1704D01*
X142440Y2000D01*
X52931Y12431D02*
X53000Y12500D01*
X39211Y11500D02*
X40142Y12431D01*
X12673Y11500D02*
X39211D01*
X40142Y12431D02*
X52931D01*
X74884Y128115D02*
X75914Y127086D01*
X76544D01*
X78013Y128555D01*
X78642D01*
X79272Y127925D01*
Y127295D02*
Y127925D01*
X76020Y124043D02*
X79272Y127295D01*
X76020Y123413D02*
Y124043D01*
Y123413D02*
X76649Y122783D01*
X77279D01*
X80704Y126208D01*
X81334D01*
X81964Y125579D01*
Y124949D02*
Y125579D01*
X78539Y121524D02*
X81964Y124949D01*
X78539Y120894D02*
Y121524D01*
Y120894D02*
X79168Y120264D01*
X79798D01*
X80952Y121418D01*
X81582D01*
X81794Y121206D01*
X68740Y134260D02*
X74884Y128115D01*
X81794Y121206D02*
X90000Y113000D01*
Y105311D02*
Y113000D01*
X58740Y136579D02*
Y149606D01*
Y136579D02*
X63000Y132319D01*
X48740Y138760D02*
X76346Y111154D01*
X52000Y1500D02*
X54500Y4000D01*
X12673Y1500D02*
X52000D01*
X7874Y6299D02*
X12673Y1500D01*
X58792Y114000D02*
X59646Y113146D01*
X8109Y110609D02*
X11500Y114000D01*
X58792D01*
X59646Y113146D02*
X70389Y102403D01*
X8109Y106534D02*
Y110609D01*
X22959Y106299D02*
X27660Y111000D01*
X44500D01*
X17874Y106299D02*
X22959D01*
X27594Y106019D02*
X28000D01*
X95000Y46991D02*
X107246Y34746D01*
X95000Y46991D02*
Y49953D01*
X146428Y2176D02*
X150551Y6299D01*
X113000Y2000D02*
X138663D01*
X108500Y6500D02*
X113000Y2000D01*
X142440D02*
X146252Y2000D01*
X146428Y2176D01*
X88484Y101011D02*
X108724Y121252D01*
Y131468D01*
X111284Y121027D02*
Y131468D01*
X89876Y99619D02*
X111284Y121027D01*
X118356Y26144D02*
X122698Y21802D01*
X118356Y26144D02*
Y26773D01*
X120359Y28776D01*
Y29406D01*
X119729Y30035D02*
X120359Y29406D01*
X119099Y30035D02*
X119729D01*
X116325Y27261D02*
X119099Y30035D01*
X115696Y27261D02*
X116325D01*
X115066Y27891D02*
X115696Y27261D01*
X115066Y27891D02*
Y28521D01*
X116500Y29955D01*
Y34418D01*
X122698Y21802D02*
X122897Y21603D01*
X108890Y44415D02*
X114811Y38493D01*
X108890Y44415D02*
Y44912D01*
X111662Y47684D01*
Y47936D01*
X110654Y48944D02*
X111662Y47936D01*
X110403Y48944D02*
X110654D01*
X107441Y45982D02*
X110403Y48944D01*
X107189Y45982D02*
X107441D01*
X106181Y46989D02*
X107189Y45982D01*
X106181Y46989D02*
Y47241D01*
X109425Y50485D01*
Y50737D01*
X108418Y51745D02*
X109425Y50737D01*
X108166Y51745D02*
X108418D01*
X105112Y48690D02*
X108166Y51745D01*
X104614Y48690D02*
X105112D01*
X104402Y48902D02*
X104614Y48690D01*
X114811Y38493D02*
X121701Y31604D01*
X92660Y60645D02*
X104402Y48902D01*
X62461Y55501D02*
X62461D01*
X59500Y52540D02*
X62461Y55501D01*
X59500Y49000D02*
Y52540D01*
X62461Y55501D02*
X66213Y59253D01*
X57000Y51438D02*
Y52824D01*
X64821Y60645D01*
X54516Y48954D02*
X57000Y51438D01*
X47763Y54237D02*
X52042D01*
X54201Y56396D01*
X56608Y58000D02*
X62037Y63429D01*
X52637Y53137D02*
X56608Y57108D01*
Y58000D01*
X53429Y52037D02*
X63429Y62037D01*
X52537Y52037D02*
X53429D01*
X48263Y53137D02*
X52637D01*
X49500Y49000D02*
X52537Y52037D01*
X54201Y56396D02*
Y57445D01*
X42500Y59500D02*
X47763Y54237D01*
X44500Y49374D02*
X48263Y53137D01*
X60311Y45000D02*
X70389Y55077D01*
X41000Y45000D02*
X60311D01*
X44500Y49000D02*
Y49374D01*
X58974Y97000D02*
X61922Y94051D01*
X26500Y80500D02*
X43000Y97000D01*
X58974D01*
X41075Y99500D02*
X59189D01*
X17874Y76299D02*
X41075Y99500D01*
X59189D02*
X63246Y95443D01*
X61718Y102500D02*
X65991Y98227D01*
X19819Y81603D02*
X40716Y102500D01*
X61718D01*
X21603Y91603D02*
X35500Y105500D01*
X61724D02*
X67605Y99619D01*
X35500Y105500D02*
X61724D01*
X26715Y108500D02*
X61508D01*
X19819Y101603D02*
X26715Y108500D01*
X61508D02*
X68997Y101011D01*
X46474Y61500D02*
X47533Y62558D01*
X44500Y61500D02*
X46474D01*
X42500Y59500D02*
X44500Y61500D01*
X47533Y62558D02*
X47584D01*
X29103Y51604D02*
X41000Y63500D01*
Y67378D01*
X12570Y61603D02*
X23604D01*
X33500Y71500D02*
Y82000D01*
X41500Y90000D01*
Y92500D01*
X41000Y67378D02*
X61034Y87412D01*
X15929Y51604D02*
X29103D01*
X28701Y56299D02*
X28850Y56150D01*
X17874Y56299D02*
X28701D01*
X7874Y66299D02*
X12570Y61603D01*
X15918Y51615D02*
X15929Y51604D01*
X29000Y47000D02*
X30000Y46000D01*
X40000D01*
X41000Y45000D01*
X12558Y51615D02*
X15918D01*
X7874Y56299D02*
X12558Y51615D01*
X53500Y59000D02*
X54418Y59918D01*
X53500Y58146D02*
X54201Y57445D01*
X54418Y59918D02*
X54645D01*
X53500Y58146D02*
Y59000D01*
X49811Y65122D02*
X55077Y70389D01*
X49811Y64785D02*
Y65122D01*
X52418Y62145D02*
Y62161D01*
X57861Y67605D01*
X61595Y43500D02*
X71780Y53685D01*
X17874Y46299D02*
X20673Y43500D01*
X61595D01*
X22000Y39500D02*
X38000D01*
X38500Y40000D01*
X20000Y41500D02*
X22000Y39500D01*
X12673Y41500D02*
X20000D01*
X17874Y36299D02*
X57178D01*
X73172Y52293D01*
X7874Y46299D02*
X12673Y41500D01*
X12570Y31604D02*
X27604D01*
X28000Y32000D01*
X73000Y33000D02*
X86500Y46500D01*
X34799Y26299D02*
X41500Y33000D01*
X73000D01*
X65000Y116500D02*
X71935Y109565D01*
Y106424D02*
X73172Y105187D01*
X71935Y106424D02*
Y109565D01*
X91268Y98227D02*
X108040Y115000D01*
X122500D01*
X106576Y110751D02*
X118287D01*
X92660Y96835D02*
X106576Y110751D01*
X94051Y95443D02*
X105108Y106500D01*
X114000D01*
X87092Y102403D02*
X90000Y105311D01*
X68740Y134260D02*
Y149606D01*
X61034Y87412D02*
Y89089D01*
X47878Y31500D02*
X85500D01*
X37981Y21603D02*
X47878Y31500D01*
X104460Y97500D02*
X113500D01*
X98227Y91268D02*
X104460Y97500D01*
X105176Y101000D02*
X118000D01*
X96835Y92660D02*
X105176Y101000D01*
X118000D02*
X129000Y112000D01*
X117000Y103000D02*
X127500Y113500D01*
X104392Y103000D02*
X117000D01*
X95443Y94051D02*
X104392Y103000D01*
X103244Y93500D02*
X119000D01*
X104027Y91500D02*
X119500D01*
X126622Y89500D02*
X134519Y81603D01*
X104811Y89500D02*
X126622D01*
X134519Y81603D02*
X141887D01*
X127000Y84500D02*
X135201Y76299D01*
X126500Y75000D02*
X135201Y66299D01*
X140551D01*
X107591Y86500D02*
X110378D01*
X135274Y61603D01*
X141887D01*
X135122Y71000D02*
X142491D01*
X118122Y88000D02*
X135122Y71000D01*
X106095Y88000D02*
X118122D01*
X127500Y113500D02*
X151000D01*
X129500Y104000D02*
X134221D01*
X119000Y93500D02*
X129500Y104000D01*
X119500Y91500D02*
X125000Y97000D01*
X131953D01*
X134221Y104000D02*
X136617Y101603D01*
X131953Y97000D02*
X137349Y91603D01*
X136617Y101603D02*
X141887D01*
X131500Y91000D02*
X135850D01*
X71500Y92500D02*
X76346Y97346D01*
X64821Y96835D02*
X69156Y92500D01*
X71500D01*
X76346Y97346D02*
Y111154D01*
X129000Y112000D02*
X144850D01*
X137349Y91603D02*
X141887D01*
X145855Y87636D01*
Y80995D02*
Y87636D01*
Y80995D02*
X150551Y76299D01*
X99619Y89876D02*
X103244Y93500D01*
X141887Y101603D02*
X145500Y97991D01*
Y91350D02*
Y97991D01*
Y91350D02*
X150551Y86299D01*
X135850Y91000D02*
X140551Y86299D01*
X135201Y76299D02*
X140551D01*
X151000Y113500D02*
X155247Y109253D01*
X144850Y112000D02*
X150551Y106299D01*
X155247Y100995D02*
Y109253D01*
X150551Y96299D02*
X155247Y100995D01*
X142491Y71000D02*
X145855Y67636D01*
X141887Y61603D02*
X145627Y57864D01*
X109504Y60504D02*
X136347D01*
X140551Y56299D01*
X105187Y84308D02*
X105399D01*
X107591Y86500D01*
X101011Y68997D02*
X109504Y60504D01*
X145855Y31604D02*
X150551Y36299D01*
X121701Y31604D02*
X145855D01*
X122897Y21603D02*
X145855D01*
X91665Y59253D02*
X116500Y34418D01*
X98966Y46534D02*
Y48771D01*
Y46534D02*
X110000Y35500D01*
Y21000D02*
Y35500D01*
Y21000D02*
X119396Y11603D01*
X145855Y21603D02*
X150551Y26299D01*
X119396Y11603D02*
X145855D01*
X150551Y16299D01*
X141887Y81603D02*
X145855Y77636D01*
Y74354D02*
X149615Y70595D01*
Y67236D02*
Y70595D01*
X145855Y74354D02*
Y77636D01*
X149615Y67236D02*
X150551Y66299D01*
X103795Y85700D02*
X106095Y88000D01*
X145855Y64354D02*
Y67636D01*
Y64354D02*
X149615Y60595D01*
Y57236D02*
Y60595D01*
Y57236D02*
X150551Y56299D01*
X145627Y54583D02*
Y57864D01*
Y54583D02*
X149615Y50595D01*
Y47236D02*
Y50595D01*
Y47236D02*
X150551Y46299D01*
X102403Y87092D02*
X104811Y89500D01*
X101011Y88484D02*
X104027Y91500D01*
X12570Y21603D02*
X37981D01*
X43500Y84000D02*
Y87622D01*
X47878Y92000D01*
X47500Y87000D02*
Y87519D01*
X49481Y89500D01*
X47878Y92000D02*
X52953D01*
X49481Y89500D02*
X52669D01*
X59253Y90870D02*
X61034Y89089D01*
X59253Y90870D02*
Y91268D01*
X41500Y92500D02*
X43441Y94441D01*
X60247Y92660D02*
X60645D01*
X58466Y94441D02*
X60247Y92660D01*
X43441Y94441D02*
X58466D01*
X26500Y75000D02*
Y80500D01*
X23000Y71500D02*
X26500Y75000D01*
X17874Y70874D02*
X18500Y71500D01*
X23000D01*
X17874Y66299D02*
Y70874D01*
X52669Y89500D02*
X55077Y87092D01*
X52953Y92000D02*
X56469Y88484D01*
X37299Y16299D02*
X39500Y18500D01*
X17874Y16299D02*
X37299D01*
X42842Y8000D02*
X43000D01*
X17874Y6299D02*
X41141D01*
X42842Y8000D01*
X7874Y16299D02*
X12673Y11500D01*
X7874Y36299D02*
X12570Y31604D01*
X7874Y26299D02*
X12570Y21603D01*
X48740Y138760D02*
Y149606D01*
X61922Y94051D02*
X62037D01*
X63246Y95443D02*
X63429D01*
X65991Y98227D02*
X66213D01*
X17874Y26299D02*
X34799D01*
X7874Y76299D02*
X13178Y81603D01*
X19819D01*
X16538Y91603D02*
X21603D01*
X7874Y96299D02*
X13178Y101603D01*
X19819D01*
X12170Y87236D02*
X16538Y91603D01*
X8810Y87236D02*
X12170D01*
X7874Y86299D02*
X8810Y87236D01*
X84308Y52293D02*
Y52293D01*
X86500Y46500D02*
Y50101D01*
X84308Y52293D02*
X86500Y50101D01*
X89876Y57861D02*
X98966Y48771D01*
X88484Y56469D02*
X95000Y49953D01*
X121100Y16400D02*
X140451D01*
X121000Y16500D02*
X121100Y16400D01*
X140451D02*
X140551Y16299D01*
X91268Y59253D02*
X91665D01*
X104372Y54500D02*
X116500D01*
X94051Y62037D02*
X103088Y53000D01*
X95443Y63429D02*
X104372Y54500D01*
X111000Y53000D02*
X113000Y51000D01*
X103088Y53000D02*
X111000D01*
X140451Y36400D02*
X140551Y36299D01*
X133600Y36400D02*
X140451D01*
X133500Y36500D02*
X133600Y36400D01*
X140451Y26400D02*
X140551Y26299D01*
X127600Y26400D02*
X140451D01*
X127500Y26500D02*
X127600Y26400D01*
X114600Y6400D02*
X140451D01*
X114500Y6500D02*
X114600Y6400D01*
X140451D02*
X140551Y6299D01*
X126000Y57500D02*
X132500Y51000D01*
X106940Y57500D02*
X126000D01*
X105656Y56000D02*
X121500D01*
X126500Y51000D01*
X116500Y54500D02*
X120000Y51000D01*
X96835Y64821D02*
X105656Y56000D01*
X98227Y66213D02*
X106940Y57500D01*
X130000Y59000D02*
X131500Y57500D01*
X99619Y67605D02*
X108224Y59000D01*
X130000D01*
X131500Y57500D02*
X139366Y49633D01*
Y47484D02*
X140551Y46299D01*
X139366Y47484D02*
Y49633D01*
X131500Y57500D02*
X131500D01*
D15*
X7874Y106299D02*
X8109Y106534D01*
X132000Y141969D02*
X135969Y138000D01*
X132000Y141969D02*
Y148000D01*
X135969Y138000D02*
X136000D01*
X128000Y152000D02*
X132000Y148000D01*
X92500Y152000D02*
X128000D01*
X85410Y144910D02*
X92500Y152000D01*
X85410Y140410D02*
Y144910D01*
X31000Y135000D02*
X44500D01*
X17874Y96299D02*
X27594Y106019D01*
X81500Y136500D02*
X85410Y140410D01*
X116500Y122000D02*
X130500D01*
X113842Y124657D02*
X116500Y122000D01*
X113842Y124657D02*
Y131468D01*
X130500Y122000D02*
X146610Y138110D01*
X151575D01*
D16*
X52293Y84308D02*
D03*
X53685Y85700D02*
D03*
X55077Y87092D02*
D03*
X56469Y88484D02*
D03*
X57861Y89876D02*
D03*
X59253Y91268D02*
D03*
X60645Y92660D02*
D03*
X62037Y94051D02*
D03*
X63429Y95443D02*
D03*
X64821Y96835D02*
D03*
X66213Y98227D02*
D03*
X67605Y99619D02*
D03*
X68997Y101011D02*
D03*
X70389Y102403D02*
D03*
X71780Y103795D02*
D03*
X73172Y105187D02*
D03*
X105187Y73172D02*
D03*
X103795Y71780D02*
D03*
X102403Y70389D02*
D03*
X101011Y68997D02*
D03*
X99619Y67605D02*
D03*
X98227Y66213D02*
D03*
X96835Y64821D02*
D03*
X95443Y63429D02*
D03*
X94051Y62037D02*
D03*
X92660Y60645D02*
D03*
X91268Y59253D02*
D03*
X89876Y57861D02*
D03*
X88484Y56469D02*
D03*
X87092Y55077D02*
D03*
X85700Y53685D02*
D03*
X84308Y52293D02*
D03*
D17*
Y105187D02*
D03*
X85700Y103795D02*
D03*
X87092Y102403D02*
D03*
X88484Y101011D02*
D03*
X89876Y99619D02*
D03*
X91268Y98227D02*
D03*
X92660Y96835D02*
D03*
X94051Y95443D02*
D03*
X95443Y94051D02*
D03*
X96835Y92660D02*
D03*
X98227Y91268D02*
D03*
X99619Y89876D02*
D03*
X101011Y88484D02*
D03*
X102403Y87092D02*
D03*
X103795Y85700D02*
D03*
X105187Y84308D02*
D03*
X73172Y52293D02*
D03*
X71780Y53685D02*
D03*
X70389Y55077D02*
D03*
X68997Y56469D02*
D03*
X67605Y57861D02*
D03*
X66213Y59253D02*
D03*
X64821Y60645D02*
D03*
X63429Y62037D02*
D03*
X62037Y63429D02*
D03*
X60645Y64821D02*
D03*
X59253Y66213D02*
D03*
X57861Y67605D02*
D03*
X56469Y68997D02*
D03*
X55077Y70389D02*
D03*
X53685Y71780D02*
D03*
X52293Y73172D02*
D03*
D18*
X44521Y65621D02*
D03*
X47584Y62558D02*
D03*
X49811Y64785D02*
D03*
X46749Y67848D02*
D03*
D19*
X102000Y24150D02*
D03*
Y17850D02*
D03*
X62500Y24150D02*
D03*
Y17850D02*
D03*
D20*
X68614Y24055D02*
D03*
Y15000D02*
D03*
Y5945D02*
D03*
D21*
X95386Y15000D02*
D03*
D22*
X113842Y131468D02*
D03*
X111284D02*
D03*
X108724D02*
D03*
X106165D02*
D03*
X103606D02*
D03*
D23*
X124276Y142000D02*
D03*
X113449D02*
D03*
X104000D02*
D03*
X93173D02*
D03*
D24*
X49355Y59082D02*
D03*
X52418Y62145D02*
D03*
X54645Y59918D02*
D03*
X51582Y56855D02*
D03*
D39*
X90500Y155000D02*
X133403D01*
X135903Y152500D01*
X85106Y149606D02*
X90500Y155000D01*
X38184Y13981D02*
X46336D01*
X50205Y17850D02*
X62500D01*
X46336Y13981D02*
X50205Y17850D01*
X18491Y86299D02*
X24527Y92335D01*
X26335D01*
X26500Y92500D01*
X17874Y86299D02*
X18491D01*
X97000Y39500D02*
X97000D01*
X107000Y29500D01*
Y18729D02*
Y29500D01*
X106121Y17850D02*
X107000Y18729D01*
X102000Y17850D02*
X106121D01*
X133996Y120496D02*
X141610Y128110D01*
X151575D01*
X93173Y142000D02*
X100173Y149000D01*
X117276D01*
X78740Y149606D02*
X85106D01*
X78740D02*
X81386Y146961D01*
X93173Y130327D02*
X97000Y126500D01*
X93173Y130327D02*
Y142000D01*
X113449D02*
X124276D01*
X117276Y149000D02*
X124276Y142000D01*
D40*
X23604Y61603D02*
X33500Y71500D01*
D41*
X44521Y65621D02*
X46749Y67848D01*
X49355Y59082D02*
X51582Y56855D01*
X103606Y141606D02*
X103841Y141841D01*
D42*
X97000Y126500D02*
X102000D01*
X103606Y128106D01*
Y131468D02*
Y141606D01*
Y128106D02*
Y131468D01*
D43*
X17874Y6299D02*
D03*
Y16299D02*
D03*
Y26299D02*
D03*
Y36299D02*
D03*
Y46299D02*
D03*
Y56299D02*
D03*
Y66299D02*
D03*
Y76299D02*
D03*
Y86299D02*
D03*
Y96299D02*
D03*
Y106299D02*
D03*
X7874Y6299D02*
D03*
Y16299D02*
D03*
Y26299D02*
D03*
Y36299D02*
D03*
Y46299D02*
D03*
Y56299D02*
D03*
Y66299D02*
D03*
Y76299D02*
D03*
Y86299D02*
D03*
Y96299D02*
D03*
X140551D02*
D03*
Y86299D02*
D03*
Y76299D02*
D03*
Y66299D02*
D03*
Y56299D02*
D03*
Y46299D02*
D03*
Y36299D02*
D03*
Y26299D02*
D03*
Y16299D02*
D03*
Y6299D02*
D03*
X150551Y106299D02*
D03*
Y96299D02*
D03*
Y86299D02*
D03*
Y76299D02*
D03*
Y66299D02*
D03*
Y56299D02*
D03*
Y46299D02*
D03*
Y36299D02*
D03*
Y26299D02*
D03*
Y16299D02*
D03*
Y6299D02*
D03*
D44*
X7874Y106299D02*
D03*
X140551D02*
D03*
D45*
X116598Y133535D02*
D03*
X100850D02*
D03*
D46*
X48740Y149606D02*
D03*
X58740D02*
D03*
X68740D02*
D03*
X38740D02*
D03*
D47*
X78740D02*
D03*
D48*
X151575Y118110D02*
D03*
D49*
Y128110D02*
D03*
Y138110D02*
D03*
D50*
X38740Y149606D02*
D03*
X53000Y12500D02*
D03*
X63000Y132319D02*
D03*
X44500Y111000D02*
D03*
X136000Y138000D02*
D03*
X135903Y152500D02*
D03*
X31000Y135000D02*
D03*
X44500D02*
D03*
X28000Y106019D02*
D03*
X81500Y136500D02*
D03*
X38184Y13981D02*
D03*
X26500Y92500D02*
D03*
X70500Y24500D02*
D03*
X97000Y39500D02*
D03*
X107246Y34746D02*
D03*
X133996Y120496D02*
D03*
X108500Y6500D02*
D03*
X54516Y48954D02*
D03*
X59500Y49000D02*
D03*
X44500D02*
D03*
X49500D02*
D03*
X42500Y59500D02*
D03*
X28850Y56150D02*
D03*
X29000Y47000D02*
D03*
X38500Y40000D02*
D03*
X28000Y32000D02*
D03*
X65000Y116500D02*
D03*
X100173Y149000D02*
D03*
X108500D02*
D03*
X117000D02*
D03*
X97000Y126500D02*
D03*
X50000Y81000D02*
D03*
X85500Y31500D02*
D03*
X113500Y97500D02*
D03*
X114000Y106500D02*
D03*
X127000Y84500D02*
D03*
X126500Y75000D02*
D03*
X122500Y115000D02*
D03*
X118287Y110751D02*
D03*
X131500Y91000D02*
D03*
X43500Y84000D02*
D03*
X47500Y87000D02*
D03*
X39500Y18500D02*
D03*
X43000Y8000D02*
D03*
X54500Y4000D02*
D03*
X121000Y16500D02*
D03*
X133500Y36500D02*
D03*
X127500Y26500D02*
D03*
X114500Y6500D02*
D03*
X132500Y51000D02*
D03*
X126500D02*
D03*
X120000D02*
D03*
X113000D02*
D03*
M02*
