M48
;Layer_Color=9474304
;FILE_FORMAT=2:4
INCH,TZ
;TYPE=PLATED
T01F00S00C0.0118
T02F00S00C0.0433
T03F00S00C0.0453
;TYPE=NON_PLATED
T04F00S00C0.0217
%
T01
X4300Y800
X3818Y1398
X3950Y1850
X5300Y1250
X5450Y400
X7050Y2450
X8550Y3150
X9700Y3950
X10725Y3475
X11300Y5100
X12000
X12650
X13250
X13350Y3650
X12750Y2650
X12100Y1650
X11450Y650
X10850
X12650Y7500
X12700Y8450
X13150Y9100
X11350Y9750
X11400Y10650
X11829Y11075
X12250Y11500
X13400Y12050
X13600Y13800
X13590Y15250
X11700Y14900
X10850
X10017
X9700Y12650
X8150Y13650
X6300Y13232
X6500Y11650
X4450Y11100
X2800Y10602
X2650Y9250
X4350Y8400
X4750Y8700
X5000Y8100
X4250Y5950
X4450Y4900
X4950
X5452Y4895
X5950Y4900
X3850Y4000
X2900Y4700
X2885Y5615
X2800Y3200
X3100Y13500
X4450
X3874Y14961
T02
X15157Y11811
Y12811
Y13811
T03
X787Y630
X1787
Y1630
Y2630
Y3630
Y4630
Y5630
Y6630
Y7630
Y8630
Y9630
Y10630
X787
Y9630
Y8630
Y7630
Y6630
Y5630
Y4630
Y3630
Y2630
Y1630
X14055
Y2630
Y3630
Y4630
Y5630
Y6630
Y7630
Y8630
Y9630
Y10630
X15055
Y9630
Y8630
Y7630
Y6630
Y5630
Y4630
Y3630
Y2630
Y1630
Y630
X14055
T04
X10085Y13354
X11660
M30
