G04*
G04 #@! TF.GenerationSoftware,Altium Limited,Altium Designer,23.11.1 (41)*
G04*
G04 Layer_Color=65535*
%FSLAX25Y25*%
%MOIN*%
G70*
G04*
G04 #@! TF.SameCoordinates,699D02C0-9AC9-4603-9118-91A02CF6E2C1*
G04*
G04*
G04 #@! TF.FilePolarity,Positive*
G04*
G01*
G75*
%ADD10C,0.00600*%
%ADD11C,0.00394*%
%ADD12C,0.00787*%
%ADD13C,0.00500*%
%ADD14C,0.00602*%
%ADD15C,0.01000*%
G36*
X61922Y58806D02*
X61215Y58099D01*
X62275Y57039D01*
X62982Y57746D01*
X61922Y58806D01*
D02*
G37*
G36*
X91383Y54631D02*
X90322Y53570D01*
X91029Y52863D01*
X92090Y53923D01*
X91383Y54631D01*
D02*
G37*
G36*
X105302Y68550D02*
X104242Y67489D01*
X104949Y66782D01*
X106009Y67843D01*
X105302Y68550D01*
D02*
G37*
G36*
X56023Y92775D02*
X54962Y91714D01*
X54255Y92421D01*
X55315Y93482D01*
X56023Y92775D01*
D02*
G37*
G36*
X69942Y106694D02*
X68881Y105634D01*
X68174Y106341D01*
X69235Y107401D01*
X69942Y106694D01*
D02*
G37*
G36*
X97282Y96951D02*
X97989Y97658D01*
X99050Y96597D01*
X98343Y95890D01*
X97282Y96951D01*
D02*
G37*
D10*
X49529Y70108D02*
X48928D01*
X49529D01*
X50173Y78740D02*
X52668Y81236D01*
X78740Y107307D02*
X81236Y104812D01*
X104812Y76245D02*
X107307Y78740D01*
X76245Y52668D02*
X78740Y50173D01*
X50173Y78740D02*
X52668Y76245D01*
X76245Y104812D02*
X78740Y107307D01*
X104812Y81236D02*
X107307Y78740D01*
X78740Y50173D02*
X81236Y52668D01*
D11*
X42712Y67430D02*
X42434Y67708D01*
X42712Y67430D01*
X113842Y126508D02*
Y126114D01*
Y126508D01*
X49494Y54767D02*
X49216Y54489D01*
X49494Y54767D01*
D12*
X24374Y1299D02*
Y111299D01*
X374Y1299D02*
X24374D01*
X374D02*
Y111299D01*
X15374D01*
X10374D02*
X24374D01*
X75110Y27795D02*
X88890D01*
Y2205D02*
Y27795D01*
X75110Y2205D02*
X88890D01*
X75110D02*
Y27795D01*
X66154Y27303D02*
X71075D01*
X124079Y147118D02*
Y152945D01*
X93370D02*
X124079D01*
X93370Y147118D02*
Y152945D01*
X124079Y130780D02*
Y136882D01*
X116598Y130780D02*
X124079D01*
X93370D02*
X100850D01*
X93370D02*
Y136882D01*
X83512Y149606D02*
Y157106D01*
X33965D02*
X83512D01*
X33965Y141606D02*
Y157106D01*
Y141606D02*
X75740D01*
X78740D01*
X151575Y112323D02*
X157087D01*
Y143898D01*
X146063D02*
X157087D01*
X146063Y118110D02*
Y143898D01*
X143051Y111299D02*
X157051D01*
X133051D02*
X148051D01*
X133051Y1299D02*
Y111299D01*
Y1299D02*
X157051D01*
Y111299D01*
X58165Y80713D02*
X56853D01*
X57509D01*
Y77433D01*
X56853Y76777D01*
X56198D01*
X55541Y77433D01*
X59477Y80713D02*
Y76777D01*
X62101D01*
X66037Y80057D02*
X65381Y80713D01*
X64069D01*
X63413Y80057D01*
Y77433D01*
X64069Y76777D01*
X65381D01*
X66037Y77433D01*
X69973Y80713D02*
X68661D01*
X69317D01*
Y77433D01*
X68661Y76777D01*
X68005D01*
X67349Y77433D01*
X71285Y80713D02*
Y76777D01*
X73908D01*
X77844Y80057D02*
X77188Y80713D01*
X75876D01*
X75220Y80057D01*
Y77433D01*
X75876Y76777D01*
X77188D01*
X77844Y77433D01*
X81780Y80713D02*
X80468D01*
X81124D01*
Y77433D01*
X80468Y76777D01*
X79812D01*
X79156Y77433D01*
X83092Y80713D02*
Y76777D01*
X85716D01*
X89651Y80057D02*
X88995Y80713D01*
X87683D01*
X87027Y80057D01*
Y77433D01*
X87683Y76777D01*
X88995D01*
X89651Y77433D01*
X93587Y80713D02*
X92275D01*
X92931D01*
Y77433D01*
X92275Y76777D01*
X91619D01*
X90963Y77433D01*
X94899Y80713D02*
Y76777D01*
X97523D01*
X101459Y80057D02*
X100803Y80713D01*
X99491D01*
X98835Y80057D01*
Y77433D01*
X99491Y76777D01*
X100803D01*
X101459Y77433D01*
D13*
X100500Y22000D02*
X103500D01*
X100500Y20000D02*
X103500D01*
X61000Y22000D02*
X64000D01*
X61000Y20000D02*
X64000D01*
D14*
X54116Y110208D02*
Y106928D01*
X54772Y106272D01*
X56084D01*
X56740Y106928D01*
Y110208D01*
X58052Y106272D02*
X59364D01*
X58708D01*
Y110208D01*
X58052Y109552D01*
X5844Y118968D02*
X4532D01*
X5188D01*
Y115688D01*
X4532Y115032D01*
X3876D01*
X3220Y115688D01*
X9124Y115032D02*
Y118968D01*
X7156Y117000D01*
X9780D01*
X34220Y66468D02*
X36844Y62532D01*
Y66468D02*
X34220Y62532D01*
X40780D02*
X38156D01*
X40780Y65156D01*
Y65812D01*
X40124Y66468D01*
X38812D01*
X38156Y65812D01*
X108344Y122468D02*
X107032D01*
X107688D01*
Y119188D01*
X107032Y118532D01*
X106376D01*
X105720Y119188D01*
X112280Y118532D02*
X109656D01*
X112280Y121156D01*
Y121812D01*
X111624Y122468D01*
X110312D01*
X109656Y121812D01*
X28000Y154468D02*
X26688D01*
X27344D01*
Y151188D01*
X26688Y150532D01*
X26032D01*
X25376Y151188D01*
X29312Y150532D02*
X30624D01*
X29968D01*
Y154468D01*
X29312Y153812D01*
X53253Y55036D02*
X57891Y54109D01*
X55108Y56892D02*
X56036Y52253D01*
X58819Y55036D02*
X59747Y55964D01*
X59283Y55500D01*
X56500Y58283D01*
Y57355D01*
X148224Y151536D02*
X146912D01*
X147568D01*
Y148256D01*
X146912Y147600D01*
X146256D01*
X145600Y148256D01*
X149536Y150880D02*
X150192Y151536D01*
X151504D01*
X152160Y150880D01*
Y150224D01*
X151504Y149568D01*
X150848D01*
X151504D01*
X152160Y148912D01*
Y148256D01*
X151504Y147600D01*
X150192D01*
X149536Y148256D01*
X135924Y118236D02*
X134612D01*
X135268D01*
Y114956D01*
X134612Y114300D01*
X133956D01*
X133300Y114956D01*
X139860Y118236D02*
X137236D01*
Y116268D01*
X138548Y116924D01*
X139204D01*
X139860Y116268D01*
Y114956D01*
X139204Y114300D01*
X137892D01*
X137236Y114956D01*
D15*
X111000Y16499D02*
X110000Y17499D01*
X108001D01*
X107001Y16499D01*
Y12501D01*
X108001Y11501D01*
X110000D01*
X111000Y12501D01*
X112999Y11501D02*
X114999D01*
X113999D01*
Y17499D01*
X112999Y16499D01*
X75001Y36999D02*
Y31001D01*
X78000D01*
X79000Y32001D01*
Y33000D01*
X78000Y34000D01*
X75001D01*
X78000D01*
X79000Y35000D01*
Y35999D01*
X78000Y36999D01*
X75001D01*
X80999Y31001D02*
X82999D01*
X81999D01*
Y36999D01*
X80999Y35999D01*
X52000Y14499D02*
X51001Y15499D01*
X49001D01*
X48002Y14499D01*
Y10501D01*
X49001Y9501D01*
X51001D01*
X52000Y10501D01*
X57998Y9501D02*
X54000D01*
X57998Y13500D01*
Y14499D01*
X56999Y15499D01*
X54999D01*
X54000Y14499D01*
M02*
