G04*
G04 #@! TF.GenerationSoftware,Altium Limited,Altium Designer,24.1.2 (44)*
G04*
G04 Layer_Color=16711935*
%FSLAX25Y25*%
%MOIN*%
G70*
G04*
G04 #@! TF.SameCoordinates,1DDA6136-DF48-45E1-A017-FCB5BA0D29E7*
G04*
G04*
G04 #@! TF.FilePolarity,Negative*
G04*
G01*
G75*
%ADD36C,0.07091*%
%ADD37R,0.07091X0.07091*%
%ADD38C,0.01382*%
%ADD41R,0.06795X0.06795*%
%ADD42C,0.06795*%
%ADD57C,0.00299*%
%ADD58R,0.00299X0.00299*%
D36*
X17874Y6299D02*
D03*
Y16299D02*
D03*
Y26299D02*
D03*
Y36299D02*
D03*
Y46299D02*
D03*
Y56299D02*
D03*
Y66299D02*
D03*
Y76299D02*
D03*
Y86299D02*
D03*
Y96299D02*
D03*
Y106299D02*
D03*
X7874Y6299D02*
D03*
Y16299D02*
D03*
Y26299D02*
D03*
Y36299D02*
D03*
Y46299D02*
D03*
Y56299D02*
D03*
Y66299D02*
D03*
Y76299D02*
D03*
Y86299D02*
D03*
Y96299D02*
D03*
X140551D02*
D03*
Y86299D02*
D03*
Y76299D02*
D03*
Y66299D02*
D03*
Y56299D02*
D03*
Y46299D02*
D03*
Y36299D02*
D03*
Y26299D02*
D03*
Y16299D02*
D03*
Y6299D02*
D03*
X150551Y106299D02*
D03*
Y96299D02*
D03*
Y86299D02*
D03*
Y76299D02*
D03*
Y66299D02*
D03*
Y56299D02*
D03*
Y46299D02*
D03*
Y36299D02*
D03*
Y26299D02*
D03*
Y16299D02*
D03*
Y6299D02*
D03*
D37*
X7874Y106299D02*
D03*
X140551D02*
D03*
D38*
X116598Y133535D02*
D03*
X100850D02*
D03*
D41*
X151575Y118110D02*
D03*
D42*
Y128110D02*
D03*
Y138110D02*
D03*
D57*
X48740Y149606D02*
D03*
X58740D02*
D03*
X68740D02*
D03*
X38740D02*
D03*
D58*
X78740D02*
D03*
M02*
