G04*
G04 #@! TF.GenerationSoftware,Altium Limited,Altium Designer,23.11.1 (41)*
G04*
G04 Layer_Color=255*
%FSLAX25Y25*%
%MOIN*%
G70*
G04*
G04 #@! TF.SameCoordinates,699D02C0-9AC9-4603-9118-91A02CF6E2C1*
G04*
G04*
G04 #@! TF.FilePolarity,Positive*
G04*
G01*
G75*
%ADD43C,0.06791*%
%ADD44R,0.06791X0.06791*%
%ADD45C,0.01083*%
%ADD48R,0.06496X0.06496*%
%ADD49C,0.06496*%
D43*
X17874Y6299D02*
D03*
Y16299D02*
D03*
Y26299D02*
D03*
Y36299D02*
D03*
Y46299D02*
D03*
Y56299D02*
D03*
Y66299D02*
D03*
Y76299D02*
D03*
Y86299D02*
D03*
Y96299D02*
D03*
Y106299D02*
D03*
X7874Y6299D02*
D03*
Y16299D02*
D03*
Y26299D02*
D03*
Y36299D02*
D03*
Y46299D02*
D03*
Y56299D02*
D03*
Y66299D02*
D03*
Y76299D02*
D03*
Y86299D02*
D03*
Y96299D02*
D03*
X140551D02*
D03*
Y86299D02*
D03*
Y76299D02*
D03*
Y66299D02*
D03*
Y56299D02*
D03*
Y46299D02*
D03*
Y36299D02*
D03*
Y26299D02*
D03*
Y16299D02*
D03*
Y6299D02*
D03*
X150551Y106299D02*
D03*
Y96299D02*
D03*
Y86299D02*
D03*
Y76299D02*
D03*
Y66299D02*
D03*
Y56299D02*
D03*
Y46299D02*
D03*
Y36299D02*
D03*
Y26299D02*
D03*
Y16299D02*
D03*
Y6299D02*
D03*
D44*
X7874Y106299D02*
D03*
X140551D02*
D03*
D45*
X116598Y133535D02*
D03*
X100850D02*
D03*
D48*
X151575Y118110D02*
D03*
D49*
Y128110D02*
D03*
Y138110D02*
D03*
M02*
