G04*
G04 #@! TF.GenerationSoftware,Altium Limited,Altium Designer,24.1.2 (44)*
G04*
G04 Layer_Color=32768*
%FSLAX25Y25*%
%MOIN*%
G70*
G04*
G04 #@! TF.SameCoordinates,1DDA6136-DF48-45E1-A017-FCB5BA0D29E7*
G04*
G04*
G04 #@! TF.FilePolarity,Positive*
G04*
G01*
G75*
%ADD10C,0.00600*%
%ADD11C,0.00394*%
%ADD12C,0.00787*%
G36*
X81524Y52249D02*
X78740Y49466D01*
X75957Y52249D01*
X71511Y47803D01*
X47803Y71511D01*
X52249Y75957D01*
X49466Y78740D01*
X52249Y81524D01*
X47803Y85970D01*
X71511Y109677D01*
X75957Y105231D01*
X78740Y108014D01*
X81524Y105231D01*
X85970Y109677D01*
X109677Y85970D01*
X105231Y81524D01*
X108014Y78740D01*
X105231Y75957D01*
X109677Y71511D01*
X85970Y47803D01*
X81524Y52249D01*
D02*
G37*
D10*
X78740Y49466D02*
X81524Y52249D01*
X85970Y47803D01*
X109677Y71511D01*
X105231Y75957D02*
X109677Y71511D01*
X105231Y75957D02*
X108014Y78740D01*
X105231Y81524D02*
X108014Y78740D01*
X105231Y81524D02*
X109677Y85970D01*
X85970Y109677D02*
X109677Y85970D01*
X81524Y105231D02*
X85970Y109677D01*
X78740Y108014D02*
X81524Y105231D01*
X75957D02*
X78740Y108014D01*
X71511Y109677D02*
X75957Y105231D01*
X47803Y85970D02*
X71511Y109677D01*
X47803Y85970D02*
X52249Y81524D01*
X49466Y78740D02*
X52249Y81524D01*
X49466Y78740D02*
X52249Y75957D01*
X47803Y71511D02*
X52249Y75957D01*
X47803Y71511D02*
X71511Y47803D01*
X75957Y52249D01*
X78740Y49466D01*
D11*
X48103Y58943D02*
X51443Y55603D01*
X55897Y60057D01*
X52557Y63397D02*
X55897Y60057D01*
X48103Y58943D02*
X52557Y63397D01*
D12*
X46609Y69100D02*
X51064Y64646D01*
X47723Y61306D02*
X51064Y64646D01*
X43269Y65760D02*
X47723Y61306D01*
X43269Y65760D02*
X46609Y69100D01*
M02*
